<?xml version="1.0" encoding="utf-8"?>
<!-- Generator: Adobe Illustrator 16.0.0, SVG Export Plug-In . SVG Version: 6.00 Build 0)  -->
<!DOCTYPE svg PUBLIC "-//W3C//DTD SVG 1.1//EN" "http://www.w3.org/Graphics/SVG/1.1/DTD/svg11.dtd">
<svg version="1.1" id="Layer_1" xmlns="http://www.w3.org/2000/svg" xmlns:xlink="http://www.w3.org/1999/xlink" x="0px" y="0px"
	 width="1920px" height="1024px" viewBox="0 0 1920 1024" enable-background="new 0 0 1920 1024" xml:space="preserve">
<rect x="-2" y="-4" fill="#FFFFFF" width="1926" height="1032"/>
<path fill="#231F20" d="M929.8,809.3V792h-4.3v-2.2h13v2.2h-4.3v17.3H929.8z"/>
<path fill="#231F20" d="M939.4,792v-2.2h4.3v2.2H939.4z M939.4,809.3v-15.2h4.3v15.2H939.4z"/>
<path fill="#231F20" d="M959.8,809.3h-4.3v-10.8c0-0.6-0.2-1.1-0.6-1.5c-0.4-0.4-0.9-0.6-1.5-0.6c-0.6,0-1.1,0.2-1.5,0.6
	c-0.4,0.4-0.6,0.9-0.6,1.5v10.8h-4.3v-15.2h4.3v2.2c0.1-0.7,0.3-1.3,0.7-1.6c0.4-0.4,0.9-0.5,1.5-0.5h2.2c1.5,0,2.6,0.5,3.2,1.5
	c0.3-0.5,0.8-0.9,1.3-1.2c0.5-0.3,1.2-0.4,1.9-0.4h2.2c1.2,0,2.2,0.4,3.1,1.3s1.3,1.9,1.3,3.1v10.8h-4.3v-10.8
	c0-0.6-0.2-1.1-0.6-1.5c-0.4-0.4-0.9-0.6-1.5-0.6c-0.6,0-1.1,0.2-1.5,0.6c-0.4,0.4-0.6,0.9-0.6,1.5V809.3z"/>
<path fill="#231F20" d="M984.5,802.8h-8.7v2.2c0,0.6,0.2,1.1,0.6,1.5c0.4,0.4,0.9,0.6,1.5,0.6h2.2c1.4,0,2.2-0.7,2.2-2.2h2.2
	c-0.3,2.9-1.8,4.3-4.3,4.3h-4.3c-1.2,0-2.2-0.4-3.1-1.3s-1.3-1.9-1.3-3.1v-6.5c0-1.2,0.4-2.2,1.3-3.1c0.9-0.8,1.9-1.3,3-1.3h4.3
	c1.2,0,2.2,0.4,3.1,1.3s1.3,1.9,1.3,3.1V802.8z M975.9,800.6h4.3v-2.2c0-0.6-0.2-1.1-0.6-1.5s-0.9-0.6-1.5-0.6
	c-0.6,0-1.1,0.2-1.5,0.6c-0.4,0.4-0.6,0.9-0.6,1.5V800.6z"/>
<g>
	<defs>
		<rect id="SVGID_1_" x="678" y="154.8" width="543.8" height="714.2"/>
	</defs>
	<clipPath id="SVGID_2_">
		<use xlink:href="#SVGID_1_"  overflow="visible"/>
	</clipPath>
	<path clip-path="url(#SVGID_2_)" fill="#231F20" d="M681.5,188.4v-31.5h7v14h7v-14h7v31.5h-7v-14h-7v14H681.5z"/>
	<path clip-path="url(#SVGID_2_)" fill="#231F20" d="M714.4,163.8h7c1.9,0,3.6,0.7,4.9,2.1c1.4,1.4,2.1,3,2.1,4.9v10.5
		c0,1.9-0.7,3.5-2.1,4.9c-1.4,1.4-3,2.1-4.9,2.1h-7c-1.9,0-3.6-0.7-4.9-2.1c-1.4-1.4-2.1-3-2.1-4.9v-10.5c0-1.9,0.7-3.6,2.1-5
		C710.8,164.5,712.5,163.8,714.4,163.8z M714.4,170.9v10.5c0,0.9,0.3,1.8,1,2.4s1.5,1,2.5,1s1.8-0.3,2.5-1c0.7-0.7,1-1.5,1-2.4
		v-10.5c0-1-0.3-1.8-1-2.5c-0.7-0.7-1.5-1-2.5-1c-1,0-1.8,0.3-2.5,1S714.4,169.9,714.4,170.9z"/>
	<path clip-path="url(#SVGID_2_)" fill="#231F20" d="M733.3,163.8h7v21h3.5c1,0,1.8-0.3,2.5-1c0.7-0.7,1-1.5,1-2.4v-17.5h7v21h3.5
		c1,0,1.8-0.3,2.5-1s1-1.5,1-2.4v-17.5h7v12.6c0,3.3-1.2,6.1-3.5,8.4c-2.3,2.4-5.2,3.5-8.4,3.5h-9v-1.1c-1.3,0.7-3,1.1-5,1.1h-9
		V163.8z"/>
	<path clip-path="url(#SVGID_2_)" fill="#231F20" d="M784.9,156.9h7v7h3.5v3.5h-3.5v14c0,1.1,0.4,2,1.1,2.6c0.7,0.6,1.4,0.9,2.1,0.9
		h0.3v3.5h-3.5c-1.9,0-3.6-0.7-4.9-2.1c-1.4-1.4-2.1-3-2.1-4.9v-14h-3.5v-3.5h3.5V156.9z"/>
	<path clip-path="url(#SVGID_2_)" fill="#231F20" d="M800.3,188.4v-31.5h7v10.5c0.1-1.2,0.5-2.1,1.1-2.6c0.6-0.6,1.4-0.9,2.4-0.9
		h3.5c1.9,0,3.6,0.7,4.9,2.1c1.4,1.4,2.1,3,2.1,4.9v17.5h-7v-17.5c0-1-0.3-1.8-1-2.5c-0.7-0.7-1.5-1-2.5-1c-1,0-1.8,0.3-2.5,1
		s-1,1.5-1,2.5v17.5H800.3z"/>
	<path clip-path="url(#SVGID_2_)" fill="#231F20" d="M847.2,177.9h-14v3.5c0,0.9,0.3,1.8,1,2.4s1.5,1,2.5,1h3.5
		c2.3,0,3.5-1.2,3.5-3.5h3.5c-0.5,4.7-2.9,7-7,7h-7c-1.9,0-3.6-0.7-4.9-2.1c-1.4-1.4-2.1-3-2.1-4.9v-10.5c0-1.9,0.7-3.6,2.1-5
		c1.4-1.4,3-2.1,4.9-2.1h7c1.9,0,3.6,0.7,4.9,2.1c1.4,1.4,2.1,3,2.1,4.9V177.9z M833.2,174.3h7v-3.5c0-1-0.3-1.8-1-2.5
		c-0.7-0.7-1.5-1-2.5-1c-1,0-1.8,0.3-2.5,1s-1,1.5-1,2.5V174.3z"/>
	<path clip-path="url(#SVGID_2_)" fill="#231F20" d="M860.2,188.4v-31.5h14c1.9,0,3.6,0.7,4.9,2.1c1.4,1.4,2.1,3,2.1,4.9v1.8
		c0,2-0.6,3.7-1.7,4.8s-2.9,1.9-5.2,2.2c2.3,0,4.1,0.7,5.2,2.1s1.7,3,1.7,4.9v1.8c0,1.9-0.7,3.5-2.1,4.9c-1.4,1.4-3,2.1-4.9,2.1
		H860.2z M867.2,170.9h3.5c1,0,1.8-0.3,2.5-1c0.7-0.7,1-1.5,1-2.5v-3.5c0-1-0.3-1.8-1-2.5c-0.7-0.7-1.5-1-2.5-1h-3.5V170.9z
		 M867.2,184.8h3.5c1,0,1.8-0.3,2.5-1c0.7-0.7,1-1.5,1-2.4v-3.5c0-2.3-1.2-3.5-3.5-3.5h-3.5V184.8z"/>
	<path clip-path="url(#SVGID_2_)" fill="#231F20" d="M886.1,188.4v-31.5h7v31.5H886.1z"/>
	<path clip-path="url(#SVGID_2_)" fill="#231F20" d="M905,163.8h7c1.9,0,3.6,0.7,4.9,2.1c1.4,1.4,2.1,3,2.1,4.9v10.5
		c0,1.9-0.7,3.5-2.1,4.9c-1.4,1.4-3,2.1-4.9,2.1h-7c-1.9,0-3.6-0.7-4.9-2.1c-1.4-1.4-2.1-3-2.1-4.9v-10.5c0-1.9,0.7-3.6,2.1-5
		C901.5,164.5,903.1,163.8,905,163.8z M905,170.9v10.5c0,0.9,0.3,1.8,1,2.4s1.5,1,2.5,1s1.8-0.3,2.5-1c0.7-0.7,1-1.5,1-2.4v-10.5
		c0-1-0.3-1.8-1-2.5c-0.7-0.7-1.5-1-2.5-1c-1,0-1.8,0.3-2.5,1S905,169.9,905,170.9z"/>
	<path clip-path="url(#SVGID_2_)" fill="#231F20" d="M941.4,170.9H938c-0.3-2.3-1.4-3.5-3.5-3.5c-1,0-1.8,0.3-2.5,1s-1,1.5-1,2.5
		v10.5c0,0.9,0.3,1.8,1,2.4s1.5,1,2.5,1c2.1,0,3.2-1.2,3.5-3.5h3.5c-0.3,4.7-2.6,7-7,7h-3.5c-1.9,0-3.6-0.7-4.9-2.1
		c-1.4-1.4-2.1-3-2.1-4.9v-10.5c0-1.9,0.7-3.6,2.1-5c1.4-1.4,3-2.1,4.9-2.1h3.5C938.8,163.8,941.2,166.2,941.4,170.9z"/>
	<path clip-path="url(#SVGID_2_)" fill="#231F20" d="M946.4,188.4v-31.5h7v15.8l10.5-8.8h7l-14.7,12.3l14.7,12.2h-7l-10.5-8.8v8.8
		H946.4z"/>
	<path clip-path="url(#SVGID_2_)" fill="#231F20" d="M989.8,170.9h-3.5c-0.3-2.3-1.4-3.5-3.5-3.5c-1,0-1.8,0.3-2.5,1s-1,1.5-1,2.5
		v10.5c0,0.9,0.3,1.8,1,2.4s1.5,1,2.5,1c2.1,0,3.2-1.2,3.5-3.5h3.5c-0.3,4.7-2.6,7-7,7h-3.5c-1.9,0-3.6-0.7-4.9-2.1
		c-1.4-1.4-2.1-3-2.1-4.9v-10.5c0-1.9,0.7-3.6,2.1-5c1.4-1.4,3-2.1,4.9-2.1h3.5C987.2,163.8,989.5,166.2,989.8,170.9z"/>
	<path clip-path="url(#SVGID_2_)" fill="#231F20" d="M994.7,188.4v-31.5h7v10.5c0.1-1.2,0.5-2.1,1.1-2.6c0.6-0.6,1.4-0.9,2.4-0.9
		h3.5c1.9,0,3.6,0.7,4.9,2.1c1.4,1.4,2.1,3,2.1,4.9v17.5h-7v-17.5c0-1-0.3-1.8-1-2.5c-0.7-0.7-1.5-1-2.5-1c-1,0-1.8,0.3-2.5,1
		c-0.7,0.7-1,1.5-1,2.5v17.5H994.7z"/>
	<path clip-path="url(#SVGID_2_)" fill="#231F20" d="M1034.6,174.3v-3.5c0-1-0.3-1.8-1-2.5c-0.7-0.7-1.5-1-2.5-1h-3.5
		c-2.1,0-3.2,1.2-3.5,3.5h-3.5c0.5-4.7,2.9-7,7-7h7c1.9,0,3.6,0.7,4.9,2.1c1.4,1.4,2.1,3,2.1,4.9v17.5h-7v-3.5
		c-0.3,2.3-1.4,3.5-3.5,3.5h-3.5c-1.9,0-3.6-0.7-4.9-2.1c-1.4-1.4-2.1-3-2.1-4.9v0c0-1.9,0.7-3.6,2.1-4.9c1.4-1.4,3-2.1,4.9-2.1
		H1034.6z M1034.6,177.9h-3.5c-1,0-1.8,0.3-2.5,1c-0.7,0.7-1,1.5-1,2.5v0c0,0.9,0.3,1.8,1,2.4s1.5,1,2.5,1s1.8-0.3,2.5-1
		s1-1.5,1-2.4V177.9z"/>
	<path clip-path="url(#SVGID_2_)" fill="#231F20" d="M1046.5,160.4v-3.5h7v3.5H1046.5z M1046.5,188.4v-24.5h7v24.5H1046.5z"/>
	<path clip-path="url(#SVGID_2_)" fill="#231F20" d="M1058.5,188.4v-24.5h7v3.5c0.1-1.2,0.5-2.1,1.1-2.6c0.6-0.6,1.4-0.9,2.4-0.9
		h3.5c1.9,0,3.6,0.7,4.9,2.1c1.4,1.4,2.1,3,2.1,4.9v17.5h-7v-17.5c0-1-0.3-1.8-1-2.5s-1.5-1-2.5-1c-1,0-1.8,0.3-2.5,1s-1,1.5-1,2.5
		v17.5H1058.5z"/>
	<path clip-path="url(#SVGID_2_)" fill="#231F20" d="M1092.5,163.8h7v21h3.5c1,0,1.8-0.3,2.5-1c0.7-0.7,1-1.5,1-2.4v-17.5h7v21h3.5
		c1,0,1.8-0.3,2.5-1s1-1.5,1-2.4v-17.5h7v12.6c0,3.3-1.2,6.1-3.5,8.4c-2.3,2.4-5.2,3.5-8.4,3.5h-9v-1.1c-1.3,0.7-3,1.1-5,1.1h-9
		V163.8z"/>
	<path clip-path="url(#SVGID_2_)" fill="#231F20" d="M1139.4,163.8h7c1.9,0,3.6,0.7,4.9,2.1c1.4,1.4,2.1,3,2.1,4.9v10.5
		c0,1.9-0.7,3.5-2.1,4.9c-1.4,1.4-3,2.1-4.9,2.1h-7c-1.9,0-3.6-0.7-4.9-2.1c-1.4-1.4-2.1-3-2.1-4.9v-10.5c0-1.9,0.7-3.6,2.1-5
		C1135.9,164.5,1137.5,163.8,1139.4,163.8z M1139.4,170.9v10.5c0,0.9,0.3,1.8,1,2.4s1.5,1,2.5,1s1.8-0.3,2.5-1c0.7-0.7,1-1.5,1-2.4
		v-10.5c0-1-0.3-1.8-1-2.5c-0.7-0.7-1.5-1-2.5-1c-1,0-1.8,0.3-2.5,1C1139.7,169.1,1139.4,169.9,1139.4,170.9z"/>
	<path clip-path="url(#SVGID_2_)" fill="#231F20" d="M1165.3,188.4h-7v-24.5h7v7c0.3-2.3,1-4.1,2.2-5.3c1.2-1.2,2.8-1.8,4.9-1.8h3.5
		v7h-7c-1,0-1.8,0.3-2.5,1c-0.7,0.7-1,1.5-1,2.5V188.4z"/>
	<path clip-path="url(#SVGID_2_)" fill="#231F20" d="M1177.2,188.4v-31.5h7v15.8l10.5-8.8h7l-14.7,12.3l14.7,12.2h-7l-10.5-8.8v8.8
		H1177.2z"/>
	<path clip-path="url(#SVGID_2_)" fill="#231F20" d="M1220.6,170.9h-3.5c-0.3-2.3-1.4-3.5-3.3-3.5c-1.2,0-2.2,0.2-2.8,0.7
		c-0.6,0.5-0.9,1.2-0.9,2.2c0,1,1.7,2.4,5.1,4.2c2.8,1.5,4.4,2.7,4.8,3.7c0.4,1,0.6,2,0.6,3.1c0,1.9-0.7,3.6-2.1,5
		c-1.4,1.4-3,2.1-4.9,2.1h-3.5c-4.7,0-7-2.3-7-7h3.5c0.3,2.3,1.4,3.5,3.3,3.5c1.2,0,2.2-0.2,2.8-0.7s0.9-1.2,0.9-2.2
		c0-1-1.7-2.4-5.1-4.2c-2.8-1.5-4.4-2.7-4.8-3.7c-0.4-1-0.6-2-0.6-3.1c0-2,0.7-3.6,2.1-5c1.4-1.4,3-2.1,4.9-2.1h3.5
		C1218,163.8,1220.3,166.2,1220.6,170.9z"/>
</g>
<polygon points="1133,849 1156,838.8 1133,827.6 "/>
<line fill="none" stroke="#231F20" stroke-width="5" stroke-miterlimit="10" x1="756.6" y1="838.3" x2="1147.5" y2="838.3"/>
</svg>
