<?xml version="1.0" encoding="utf-8"?>
<!-- Generator: Adobe Illustrator 16.0.0, SVG Export Plug-In . SVG Version: 6.00 Build 0)  -->
<!DOCTYPE svg PUBLIC "-//W3C//DTD SVG 1.1//EN" "http://www.w3.org/Graphics/SVG/1.1/DTD/svg11.dtd">
<svg version="1.1" id="Layer_1" xmlns="http://www.w3.org/2000/svg" xmlns:xlink="http://www.w3.org/1999/xlink" x="0px" y="0px"
	 width="1920px" height="1200px" viewBox="0 0 1920 1200" style="enable-background:new 0 0 1920 1200;" xml:space="preserve">
<style type="text/css">
<![CDATA[
	.st0{fill:#FFFFFF;}
	.st1{fill-rule:evenodd;clip-rule:evenodd;fill:#FFFFFF;}
]]>
</style>
<path class="st1" d="M1226.7,623.9c0.7-12.6,1.5-25.2,2.2-37.9c1.5-25.2,3.1-50.4,4.4-75.6c0.1-1.6-1.3-3.8-2.7-4.8
	c-4.1-3.2-4.2-7.5-0.5-11c1.3-1.2,2.5-3.7,2.3-5.4c-2.3-24.3-4.9-48.6-7.4-72.9c-0.5-4.6-0.7-9.3-1.4-13.9c-0.5-3.4,0-7.1-4.7-8.9
	c-3.8-1.5-4-7.2-0.7-9.9c2.2-1.8,2.3-3.2,1.7-5.6c-4.1-18.2-8.2-36.4-12.2-54.6c-0.9-3.9-1.7-7.9-2.6-11.8c-0.9-4-1.5-7.9-5.7-10.5
	c-3.5-2.2-2.1-8.4,2.1-9.7c3.2-1,4.1-3,5-5.7c6.9-20.8,14-41.5,20.8-62.3c0.5-1.4,0-3.7-0.8-5c-3-4.7-2.6-7.3,1.9-10.6
	c1-0.7,2-2.2,1.9-3.3c-1.2-13.3-2.4-26.6-3.9-39.9c-0.2-1.6-1-3.5-2.1-4.5c-2.9-2.6-4-5.5-2.3-9c1.5-3.1,4.3-3.6,7.5-2.9
	c4,0.9,4.5,4.1,4.8,7.4c0,0.5,0,0.9,0,1.7c19,6,37.9,12.1,56.9,18.1c4.6,1.5,9.2,3.1,13.8,4.5c2.7,0.9,5.2,1.7,7.9-1
	c2.5-2.5,7.3-1.5,9.1,1.9c1.5,2.8,3.5,3.2,6.3,3.3c22.3,0.6,44.7,1.2,67,1.7c1.3,0,2.5-1.4,3.9-1.8c2.7-0.9,5.9-3,8.1-2.2
	c2.8,1,4.5,0.4,6.6-0.9c24.5-15.8,49-31.6,73.4-47.6c1.2-0.8,1.9-2.9,2.1-4.5c0.6-3.8,2.5-6.1,6.5-6.6c3.8-0.5,6.2,1,7.2,4.7
	c1,3.9-0.4,7.2-4,8.1c-3.9,1-4.3,3.4-4.9,6.5c-4,23-8.2,45.9-12.2,68.9c-0.3,1.5,0.1,3.5,1,4.7c2.4,3.1,2.6,6,1,9.4
	c-0.5,1.2-0.7,3.2-0.1,4.2c8.3,13.3,16.7,26.5,25.2,39.5c0.9,1.3,3,1.8,4.4,2.8c2.1,1.4,5.5,2.4,5.9,4.2c0.6,2.2-1.1,5.1-2.1,7.6
	c-0.8,2-2.8,3.9-2.7,5.8c0.1,29.6,0.5,59.2,0.9,88.8c0,1.5,0.7,3.4,1.7,4.5c3.5,3.8,3.6,7.1,0.3,11c-1,1.2-1.8,3.3-1.5,4.8
	c1.2,8.9,2.6,17.8,4.4,26.7c0.4,2,1.9,4.3,3.6,5.6c4.2,3.3,4.3,7.9,0.2,11.4c-1.6,1.4-3.3,3.5-3.7,5.6c-2.8,15.2-5.4,30.4-7.8,45.7
	c-0.3,1.6,0.5,3.6,1.4,5.1c1.9,3.5,2,6.6-0.9,9.7c-0.9,1-1.7,2.7-1.5,4c4.7,32.1,9.4,64.3,14.2,96.4c0.8,5.1,1.4,10.2,2.1,15.3
	c0.5,3.9,0.6,7.6,5.6,9.4c3.8,1.4,3.2,8.5-0.9,10.3c-3.3,1.5-4.2,3.8-5.2,6.8c-3.8,12.1-8,24.1-11.7,36.3c-0.6,2.1-0.3,4.6,0.2,6.8
	c0.9,3.6,0.8,7-2.5,9c-3.3,2-6.3,1.3-8.8-2.1c-0.7-0.9-2.8-1.4-4.1-1c-14.7,3.7-29.3,7.6-43.9,11.6c-1.4,0.4-2.5,2-3.7,3.1
	c-1.2,1.2-2.3,3.6-3.5,3.6c-4.9,0.2-5.3,3.9-6.4,7.2c-3.6,10.5-7.2,21-10.6,31.6c-0.7,2.2,0.3,4.8,0.1,7.2c-0.2,2.6-0.1,6.1-1.7,7.4
	c-1.8,1.4-5.2,0.9-7.9,1c-2.1,0-4.3-0.9-6.2-0.4c-27.8,8.3-55.5,16.7-83.1,25.3c-1.9,0.6-3.2,3-4.9,4.3c-1.8,1.5-3.6,3.7-5.6,3.8
	c-1.9,0.1-4-1.9-6-3.1c-1.6-0.9-3.1-2.8-4.7-2.9c-25-0.9-49.9-1.7-74.9-2.3c-2-0.1-4.5,0.6-6,1.8c-2.9,2.3-6.1,3.4-8.7,0.8
	c-1.7-1.6-2.7-5.1-2.3-7.4c0.6-3.9,4-4.6,7.6-3.7c0.6,0.2,1.2,0.2,2.3,0.4c9.1-13.8,18.3-27.6,27.5-41.4c0.2-0.3,0.5-0.7,0.5-0.8
	c-3.3-5.7,2-11.5,0.1-17.1c-9.7-29.2-19.6-58.3-29.5-87.4c-0.5-1.4-2-3.2-3.2-3.5c-3.6-0.7-5.5-3-5.8-6.2c-0.3-3.4,1.6-5.8,5-6.7
	C1225.6,624.6,1226,624.2,1226.7,623.9z M1526.8,627.9c0-0.2-0.2-0.8-0.3-1.4c-2.8-19.7-5.6-39.5-8.4-59.2
	c-2.6-17.8-5.2-35.6-7.9-53.4c-0.4-2.4-0.5-5.7-3.9-5.7c-1.8,0-4,1.3-5.4,2.7c-8.5,8.8-17.3,17.4-25.1,26.7
	c-6.3,7.5-16.5,12.3-17.2,23.8c0,0.3-0.5,0.5-0.5,0.8c-0.4,1.9-1.3,3.9-1,5.7c4.5,25.3,9.3,50.6,13.9,75.9c0.9,4.7,5.6,7.6,10.4,6.3
	c12.3-3.3,24.6-6.7,36.8-10C1521.1,639.1,1526.8,631.4,1526.8,627.9z M1377,685.8C1377,685.8,1377,685.8,1377,685.8
	c-0.7,11.7-1.3,23.4-1.9,35.1c-0.2,4.1,3.8,7.7,7.4,6.7c18-4.8,36-9.7,54-14.6c2.2-0.6,3.8-1.2,4.6-4c0.6-2,3.7-3.3,5.7-4.9
	c1.3-1.1,3.3-1.9,3.9-3.3c5.2-12.1,10-24.4,15.1-36.5c2.4-5.7-0.6-11.2-6.7-12.2c-23.8-3.9-47.6-7.7-71.4-11.6c-6-1-8.8,1.4-9,7.7
	C1378.1,660.8,1377.6,673.3,1377,685.8z M1282.8,592.1c-0.2-0.5-0.4-1-0.6-1.5c-1.3,0.7-2.8,1.2-3.9,2.1c-3.8,2.9-7.5,6-11.3,9.1
	c-10.4,8.3-20.9,16.6-31.3,24.9c-3.5,2.8-3.2,7.3,0.5,9.8c20.4,13.7,40.8,27.4,61.3,41c4.5,3,10.4,1,12.5-4.1
	c7.3-17.3,14.4-34.7,21.7-52.1c1.4-3.4,3.5-6.6-0.8-9.6c-0.7-0.5-0.6-2.1-1.1-3.1c-0.8-1.4-1.5-3.3-2.8-3.9
	c-10.9-5.2-21.9-10.1-32.9-15c-1.2-0.5-3-0.3-4.4,0.1C1287.3,590.4,1285.1,591.3,1282.8,592.1z M1493.1,136c-0.2-1.8-1-3.2-3.9-1.5
	c-0.8,0.5-1.7,1-2.5,1.5c-22.9,14.7-45.8,29.4-68.6,44.2c-3.5,2.2-7.7,3.9-7.3,9.3c0.1,0.8-0.9,1.7-1.2,2.6c-0.4,1.8-1.4,4-0.9,5.6
	c4.7,14.9,9.6,29.7,14.5,44.5c0.9,2.7,7.4,5.4,9.7,4c11.3-6.8,22.6-13.6,34-20.3c2.8-1.7,5.4-3,5.3-7.2c0-1.4,2.5-2.9,3.8-4.4
	c1.2-1.4,3.1-2.7,3.4-4.3c3.3-16.9,6.3-33.8,9.4-50.8C1490.3,151.7,1491.6,144.2,1493.1,136z M1267.8,368.3c0.3,1.6,0.5,2.4,0.6,3.1
	c3.9,18.2,7.8,36.5,11.8,54.7c1.1,5,6.9,8.3,11.8,6.7c21.1-7.2,42.3-14.6,63.4-21.8c5.2-1.8,6.2-4.9,2.6-9.2
	c-16.2-19.1-32.5-38.2-48.8-57.3c-2.7-3.2-10-4.1-13.5-1.7c-7.4,5.2-15,10-22,15.7C1270.9,361,1269.6,365.4,1267.8,368.3z
	 M1472.2,224.9c-7.5,4.5-15.6,8.9-23.2,14c-7,4.7-16,6.7-19.7,16.2c-1.2,2.9-3.4,5.8-3.6,9.2c-0.5,7.2-0.7,14.4-1.1,21.7
	c-0.5,10.1-0.9,20.2-1.6,30.4c-0.2,2.7-1.1,5,2,7.1c3.2,2.2,5.2,0.8,7.7-0.6c23.5-13.8,47.1-27.7,70.7-41.4
	c4.8-2.8,6.4-7.9,3.5-12.7c-4.6-7.5-8.9-15.4-14-22.5C1487,238.3,1484.6,226.9,1472.2,224.9z M1234.3,158.7c-3-0.1-6,2.9-5.7,5.9
	c0.8,9.1,2.6,18.3,2.1,27.4c-0.5,9.6,6.7,16.8,6.6,26c0,0.5,1,1.2,1.7,1.6c13.1,9.3,26.2,18.6,39.4,27.8c2.5,1.7,9.3-0.2,10.5-2.9
	c7.5-16.9,15-33.8,22.4-50.7c2.1-4.8-0.6-10.5-5.6-12.1c-17.6-5.7-35.1-11.4-52.7-17C1246.8,162.6,1240.5,160.6,1234.3,158.7z
	 M1366.4,318.2c-1.8-12.5-3.4-24.3-5.1-36.1c-0.7-4.6,0-9.9-5.5-12.3c-0.5-0.2-0.6-1.2-1-1.6c-1.5-1.3-3-3.4-4.7-3.6
	c-18.1-2.9-36.2-5.5-54.3-8.2c-5.2-0.8-7.9,2.4-6.6,7.6c0.9,3.6,1.7,7.2,2.5,10.8c3.7,16.6,7.3,33.3,11,49.9c1.1,4.8,7,8.9,11.7,8.3
	c11.6-1.6,23.3-3,34.9-4.9c5.1-0.8,11.6,0.6,14-6.4c0.2-0.5,1.2-0.6,1.6-1.1C1365.4,319.8,1366,318.8,1366.4,318.2z M1411.3,589.4
	c0.1,0.5,0.1,0.9,0.2,1.4c1.8-0.9,3.9-1.5,5.5-2.8c8.8-7.1,17.4-14.3,26.1-21.5c2.6-2.2,5.9-4.1,3.6-8.6c-0.4-0.9,0.6-2.4,0.7-3.7
	c0.2-2.4,0.9-5.1,0.2-7.2c-4.5-13.2-9.4-26.4-14.1-39.5c-2.3-6.4-6.5-7.8-12-3.6c-16.9,12.9-33.7,25.9-50.5,38.9
	c-5,3.8-5.2,9-0.8,13.5c9.2,9.5,18.4,19,27.7,28.4C1401.4,588.2,1404.5,593.5,1411.3,589.4z M1377.1,644.8c-4-2.5-6.8-1.8-10.3,0.6
	c-12.2,8.4-24.9,15.9-36.9,24.6c-7.1,5.1-17.1,7.1-19.3,18.1c-0.5,2.4-1.8,4.7-1.2,7.3c1.1,4.9,2.2,9.7,3.4,14.5
	c1.7,7,0.3,15.6,9.6,18.8c1.8,0.6,3.5,2.3,5.3,2.3c11.9-0.2,23.8-0.6,35.7-1.1c1,0,2.2-0.5,2.9-1.2c2-2.2,3.9-4.5,5.8-6.8
	c0.4,0.2,0.8,0.4,1.2,0.6C1374.4,696.5,1375.8,670.5,1377.1,644.8z M1349.2,732.4c0,0.2,0,0.3,0,0.5c-6.4,0-12.8,0-19.3,0
	c-7.7,0-12,4.7-11.2,12.5c1.5,13.9,3.1,27.8,4.7,41.6c0.7,5.8,5,8.6,10.6,6.9c27.3-8.4,54.7-16.8,82-25.3c1.5-0.5,3.7-2,3.7-3.1
	c0.1-1.8-0.9-4.4-2.3-5.3c-12.2-8.3-24.6-16.3-37-24.3c-1.1-0.7-3.1-0.1-4.6-0.2c-2.5-0.2-6.3,0.5-7.4-0.9c-2.4-3-5-3-8.1-2.9
	C1356.6,732,1352.9,732.2,1349.2,732.4z M1281.2,260.1c-0.8-2.4-1.4-4.5-2.3-6.5c-0.8-1.9-1.4-4.2-2.8-5.3
	c-12.7-9.3-25.5-18.4-38.3-27.6c-3.4-2.4-6.8-1.4-8.2,2.7c-7.3,21.5-14.5,43-21.6,64.5c-1.2,3.5,2.9,10.5,6.4,11.4
	c9.5,2.5,19,5,28.4,7.5c3.6,0.9,7.3,3,10-1.6c0.4-0.6,1.8-1.1,2.6-1c3.3,0.3,4.3-1.9,5.5-4.3c6.2-12.3,12.6-24.6,18.9-36.9
	C1280.4,261.9,1280.8,260.8,1281.2,260.1z M1299.5,795.9c0,0.1,0,0.1,0,0.2c4.7,0,9.3,0.1,14,0c2.7,0,8.1-5.2,7.9-7.6
	c-1.5-15.3-3.1-30.7-4.8-46c-0.5-4.3-6.6-8.4-11.1-7.8c-9.9,1.3-19.8,2.8-29.7,3.8c-6.7,0.7-9.8,7.6-16.2,8.7
	c-8.8,13.4-17.8,26.8-26.5,40.3c-2.1,3.2-0.5,6.1,3.3,6.2C1257.5,794.6,1278.5,795.3,1299.5,795.9z M1368.1,385.4
	C1368.1,385.4,1368,385.4,1368.1,385.4c-0.1,4.7-0.2,9.4-0.1,14c0.1,4.3,3.4,6.2,7.1,4.4c2.6-1.3,5.2-2.5,7.8-3.7
	c17.7-8.4,35.5-16.8,53.2-25.3c4.6-2.2,6.1-7.9,3.5-12.2c-4.4-7.1-8.9-14.2-13.3-21.3c-1.8-2.9-3.1-5.9-7.3-6.1
	c-1.2-0.1-2.3-2-3.6-2.9c-1.1-0.8-2.2-1.9-3.4-2c-11.2-0.8-22.5-1.4-33.7-2c-4.1-0.2-8.3,3.4-8.4,7.5
	C1369.3,352.3,1368.7,368.8,1368.1,385.4z M1424.5,258.2c-2.8-1.3-5.8-4.1-8.1-3.6c-15.4,3.1-30.8,6.9-46.1,10.6
	c-3.4,0.8-8.2,8.1-7.7,11.6c1.6,11.6,3.1,23.2,4.8,34.8c0.6,4.1,0,8.9,5.3,10.7c0.6,0.2,0.6,1.5,1.2,2c0.9,0.8,1.9,1.8,2.9,1.9
	c11.6,0.8,23.1,1.5,34.7,2.2c0.9,0.1,2.3-0.1,2.6-0.7c2.5-4.4,7-6.9,7.1-13.5C1421.5,295.7,1423.3,277,1424.5,258.2z M1284.3,579.8
	c1.1-3.5,1.9-5.4,2.3-7.4c7-28.9,13.9-57.8,20.7-86.8c0.5-2,0.1-4.5-0.9-6.3c-1.7-3.2-4.6-1.7-7.2-0.8
	c-17.9,6.3-35.8,12.7-53.7,18.9c-7.2,2.5-8.7,6.5-4.8,12.9c12.6,20.4,25.2,40.8,37.8,61.2C1280.2,573.9,1281.8,576.2,1284.3,579.8z
	 M1357.4,539.7c0.1,0.2-0.3-0.5-0.8-1.2c-13.4-18.5-26.8-37-40.2-55.4c-0.9-1.3-2.5-2.1-3.8-3.1c-0.9,1.4-2.2,2.6-2.6,4.1
	c-7.4,30.3-14.7,60.6-21.9,90.9c-0.4,1.6,0.2,4.3,1.3,4.9c1.1,0.7,3.6,0.1,5.2-0.7c19.3-9.1,38.6-18.4,57.8-27.7
	c1.1-0.6,2.1-2.1,2.5-3.3C1355.8,545.9,1356.4,543.3,1357.4,539.7z M1518.9,427.6c-1.1-6.9-1.9-13.3-3.2-19.5
	c-1.2-6.1-0.3-13.3-7.5-16.9c-0.5-0.3-0.5-1.6-1-2.1c-1-1.1-2-2.6-3.2-2.9c-16.2-4-32.5-7.8-48.8-11.6c-3.6-0.8-6.5,2.4-5.2,5.9
	c8.2,22.5,16.4,45,24.6,67.5c0.9,2.6,8.6,5.6,11.1,4.4c8.7-4.2,17.4-8.3,26-12.7c1.2-0.6,2-2.1,2.8-3.3c1.3-2.2,2.3-4.5,3.4-6.8
	C1518.3,428.8,1518.8,428,1518.9,427.6z M1513,283.3c-1.9,1.2-2.4,1.4-2.6,1.8c-19.1,26.5-38.2,53-57.2,79.6
	c-2.8,3.9-1.4,7.2,3.5,8.4c14.9,3.5,29.8,6.9,44.6,10.4c7.8,1.8,12.2-1.4,12.3-9.2c0-3.4-0.2-6.7-0.3-10.1
	c-0.1-16.6-0.2-33.1-0.3-49.7C1513,304.5,1513,294.5,1513,283.3z M1355.4,474.3c-0.1-0.4-0.1-0.8-0.2-1.2c2.1-1.7,4.3-3.3,6.2-5.1
	c1-1,2-2.5,2-3.8c0.7-15,1.2-29.9,1.6-44.9c0.2-5.4-4.3-8.5-9.4-6.7c-21,7.3-41.9,14.7-62.8,22.1c-4.5,1.6-5.5,5.5-2.5,9.2
	c3.7,4.7,7.3,9.5,11.1,14c3.4,4,5.6,9.6,12,10.2c0.9,0.1,1.6,1.6,2.5,2.2c1.4,0.9,2.8,2.1,4.3,2.2
	C1331.9,473.3,1343.6,473.8,1355.4,474.3z M1338.6,185.8c0,0,0-0.1,0-0.1c-4,0-8,0-12.1,0c-4.2,0-5.9,2.5-4,6.3
	c11.3,21.5,22.7,43,34.1,64.4c2.3,4.4,7.2,4.3,9.7,0.1c1.4-2.4,2.8-4.7,4.1-7.1c9.7-18,19.5-35.9,29-53.9c1.9-3.6-0.8-7.7-4.9-7.8
	C1375.9,186.9,1357.2,186.4,1338.6,185.8z M1236.5,507c-0.3,0.2-0.7,0.3-1,0.5c-0.5,7.5-1.2,15.1-1.6,22.6
	c-1.7,30.2-3.3,60.4-4.8,90.6c-0.1,1.7,0.8,3.7,1.9,4.9c0.5,0.5,3.1-0.5,4.3-1.5c13-10.2,26-20.6,39-30.9c2.5-2,5.9-3.7,3.8-8
	c-0.3-0.7,0.1-2.1,0.7-2.7c3.1-3.2,0.9-5.7-0.8-8.4c-9.2-14.8-18.4-29.5-27.5-44.3C1245.8,522.2,1241.1,514.6,1236.5,507z
	 M1262.5,353c-1.9-11.4-3.2-22.4-5.9-33.2c-0.9-3.7-5.2-6.5-8-9.6c-0.2-0.2-0.6-0.2-0.9-0.3c-11.7-3.1-23.3-6.2-35-9.2
	c-4-1-7.4,2.4-6.5,6.3c5.2,23.2,10.5,46.5,15.8,69.7c1.5,6.7,3.7,7.5,9.7,3.9c7.9-4.8,16.2-8.9,23.3-14.6
	C1258.6,362.9,1260.2,357.2,1262.5,353z M1231.7,635.9c-0.5,0.2-0.9,0.5-1.4,0.7c0.3,1.4,0.5,2.9,1,4.3c7.2,21.3,14.5,42.6,21.7,64
	c2.7,7.9,5.2,15.9,7.9,23.8c1.4,4.1,4.9,5,7.4,2c10.2-12.6,20.5-25.2,30.6-37.9c2.9-3.6,1.7-10.5-2.1-13.1
	c-13.7-9.3-27.5-18.5-41.2-27.7C1247.6,646.6,1239.7,641.2,1231.7,635.9z M1423.7,453.8c1.5-1.8,3.7-3.3,4.1-5.1
	c5.3-22.6,10.3-45.2,15.2-67.8c0.3-1.2-0.3-3.3-1.2-3.9c-1.1-0.8-3.2-1.1-4.5-0.6c-4.3,1.7-8.5,3.9-12.7,5.9
	c-16.4,7.8-32.9,15.6-49.2,23.6c-4.2,2-4.4,4.8-0.9,7.7c15.2,12.7,30.5,25.3,45.7,37.9C1421.1,452.1,1422,452.7,1423.7,453.8z
	 M1235.5,493.5c0.6,0.2,1.1,0.4,1.7,0.6c2.9-3.8,5.7-7.6,8.6-11.4c9.7-12.6,19.4-25.3,29.1-37.9c2.8-3.7,1.9-10.1-1.6-13
	c-9-7.3-17.9-14.7-26.9-22c-6.6-5.4-13.2-10.7-19.7-16c-0.5,0.2-1,0.3-1.6,0.5C1227.9,427.3,1232.3,460.4,1235.5,493.5z M1352.7,263
	c3.2,0,4.1-2.2,1.8-6.5c-11.1-21.1-22.3-42.1-33.5-63c-0.7-1.2-2.6-2.4-3.9-2.5c-1,0-2.6,1.5-3.2,2.7c-7.8,17.3-15.4,34.7-23.1,52.1
	c-1.8,4.2,0.5,8.1,5.1,8.9c7.3,1.1,14.6,2.2,21.9,3.3C1329.3,259.6,1340.8,261.2,1352.7,263z M1367.7,338.6c0.2-5.5-5-10.4-10.8-9.6
	c-14.6,2-29.3,4.1-43.9,6.3c-1.4,0.2-3.6,1.5-3.8,2.6c-0.3,1.5,0.4,3.7,1.5,4.9c16.1,18.9,32.2,37.6,48.5,56.3
	c1.2,1.4,3.2,2.2,4.8,3.3c0.7-1.8,1.9-3.7,2-5.5C1366.7,377.5,1367.2,358,1367.7,338.6z M1509.7,282.5c-0.3-0.4-0.6-0.7-0.9-1.1
	c-1.5,0.6-3.1,1.1-4.5,1.9c-15.5,8.9-31,17.7-46.4,26.7c-9,5.3-18,10.6-26.8,16.2c-5.5,3.5-6.4,9.1-3,14.4
	c4.4,6.9,8.8,13.8,13.2,20.8c3.5,5.5,7.6,5.6,11.5,0.3c15.7-21.6,31.4-43.2,47-64.8C1503.1,292.1,1506.4,287.3,1509.7,282.5z
	 M1462.7,458.7c-8.2,0.6-16.4,1.2-24.6,1.8c-7.4,0.5-10.4,4-9.8,11.1c0.3,3,0.4,6.1,0.6,9.1c0.3,4.1-0.8,8.9,5.2,10.3
	c0.9,0.2,1.3,1.8,2.2,2.5c1,0.8,2.1,2,3.2,2.1c19.5,1.6,39.1,3.1,58.7,4.4c1.8,0.1,3.7-1.1,5.5-1.7c-0.7-1.8-1-3.8-2.1-5.3
	c-5.6-7.5-11.3-14.9-17.1-22.2c-2.8-3.5-4.5-8.9-10.7-8c-0.5,0.1-1.5-0.4-1.6-0.9C1470.2,457,1466.2,458.8,1462.7,458.7z
	 M1368.8,476.1c-1.3,3-3.4,5.7-3.5,8.5c-0.8,17.3-1.2,34.6-1.6,51.9c0,1.7,0.6,4.1,1.8,4.9c0.9,0.6,3.5-0.3,4.8-1.3
	c17.4-13.2,34.8-26.4,52.1-39.7c3.1-2.4,2.5-4.3-1.9-5.9C1403.7,488.5,1386.9,482.5,1368.8,476.1z M1415.4,595.2
	c1.3,2.9,1.6,5.5,3.1,7c8.9,8.7,18,17.1,27,25.5c6.6,6.2,13.1,12.3,19.7,18.4c0.8,0.7,2.2,0.8,3.3,0.9c0.2,0,0.9-1.6,0.7-2.3
	c-4.8-25.7-9.6-51.4-14.5-77.2c-0.8-4-4.2-5-7.4-2.3c-9.4,8-18.9,16-28.2,24.1C1417.6,590.9,1416.7,593.2,1415.4,595.2z
	 M1440.6,497.9c-4.7-0.4-7.2,2.9-5.6,7.5c4.9,13.9,9.9,27.8,14.9,41.8c2,5.7,7,6.8,11.2,2.4c13.3-13.9,26.6-27.9,39.9-41.9
	c1-1,1.3-2.7,2-4.1c-1.4-0.6-2.8-1.5-4.2-1.6C1479.3,500.5,1459.9,499.2,1440.6,497.9z M1465.7,650.6c-1.5-1.9-2.1-2.8-2.9-3.6
	c-15.4-14.4-30.7-28.8-46.1-43.2c-2.5-2.4-10.9-1.7-13.1,1.1c-6.3,8.3-12.5,16.7-18.8,25.1c-3.8,5-2.8,7.7,3.2,8.7
	c24,4,47.9,7.9,71.9,11.8C1461.5,650.8,1463,650.6,1465.7,650.6z M1446.5,377.4c-0.9,2.8-1.5,4.3-1.8,5.7
	c-2.2,9.7-4.5,19.4-6.6,29.1c-2.7,12.1-5.4,24.2-8,36.2c-0.8,3.8,2.9,10.4,5.7,10.2c10.1-0.6,20.2-1.2,30.3-2
	c4.5-0.4,7.6-5.4,6.1-9.6c-7-19.7-14-39.3-21.1-59C1449.9,384.9,1448.4,381.8,1446.5,377.4z M1421.5,243.5c-0.2-0.7-0.5-1.6-0.8-2.5
	c-4.8-14.5-9.6-29-14.4-43.5c-0.4-1.3-1.3-2.3-2-3.5c-1.2,1.2-2.7,2.1-3.4,3.5c-2.5,4.5-4.7,9.1-7.2,13.6
	c-8.6,15.6-17.4,31.2-26,46.8c-0.7,1.4-0.5,3.2-0.8,4.9c1.6,0.1,3.3,0.6,4.7,0.2c14.1-3.3,28.1-6.8,42.1-10.2
	C1415.8,252.3,1421.4,245.9,1421.5,243.5z M1365.6,461.9c-0.3,7.7,2.1,9.9,9.4,8.3c13.7-3.1,27.3-6.3,40.8-9.7
	c1.6-0.4,4.2-1.8,4.2-2.7c0.1-1.9-0.9-4.4-2.3-5.6c-14.7-12.5-29.6-24.8-44.5-37c-1-0.8-3.1-1.3-4.1-0.8c-1.1,0.5-2,2.4-2.1,3.7
	C1366.5,432.7,1366.1,447.3,1365.6,461.9z M1345.1,606.1c0.5-0.1,1.2-0.1,1.8-0.2c17-2.6,34.1-5.2,51.1-8c1.7-0.3,3.4-1.2,5.1-1.9
	c-0.8-2-1.1-4.4-2.5-5.8c-11.2-11.8-22.6-23.4-33.9-35.1c-2.7-2.8-5.5-2.4-7.1,1.2c-6.2,14.9-12.2,29.8-18.2,44.7
	C1340.2,604.3,1341.5,606.1,1345.1,606.1z M1309.9,678.8c0.3,0.2,0.7,0.5,1,0.7c2.2-1.3,4.4-2.6,6.5-4c16-10.6,31.9-21.2,47.8-31.7
	c6.8-4.5,6.9-9.2,0.3-13.9c-6.7-4.7-13.3-9.5-20-14.3c-5.1-3.7-8.7-2.7-11.1,3c-4.6,11-9.2,21.9-13.7,32.9
	C1317.1,660.6,1313.6,669.7,1309.9,678.8z M1277.5,432.4c0.5-0.2,0.9-0.4,1.4-0.6c-0.1-1.4,0-2.7-0.3-4.1
	c-3.9-18.2-7.8-36.4-11.8-54.6c-1.2-5.6-6.3-7.8-11.4-4.8c-7.8,4.6-15.5,9.2-23.1,13.9c-4.7,2.9-5.1,9-1,12.5
	c9.9,8.2,19.7,16.4,29.7,24.6C1266.4,423.8,1272,428.1,1277.5,432.4z M1359,553.2c-1.8-0.1-3.5-0.7-4.6-0.2
	c-20.3,9.7-40.6,19.5-60.8,29.3c-1,0.5-2.2,1.7-2.3,2.6c-0.1,0.7,1.4,1.9,2.4,2.4c11.1,5.1,22.2,10.2,33.4,15.1
	c5.2,2.3,12-0.7,14.2-6c5.1-12.2,10.2-24.3,15.2-36.5C1357.2,558.2,1357.8,556.4,1359,553.2z M1363.3,481.5
	c-3.5-1.9-6.4-4.6-9.5-4.9c-10.7-1-21.5-1.2-32.3-1.5c-1.7-0.1-3.5,0.9-5.2,1.3c0.5,1.7,0.6,3.7,1.6,5.1c9.9,13.9,20,27.6,30,41.4
	c4.2,5.8,8.4,11.6,12.7,17.4c0.4-0.1,0.8-0.1,1.1-0.2C1362.3,520.6,1362.8,501.1,1363.3,481.5z M1238.8,495.7
	c0.4,0.4,0.8,0.7,1.2,1.1c1.2-0.3,2.4-0.6,3.6-1c17.2-6,34.2-12.3,51.5-17.8c5.8-1.8,9.6-4.4,10.7-10.6c-5.1-6.4-10.3-13-15.4-19.6
	c-4.7-6-10.5-6.2-15.2,0c-8.2,10.7-16.4,21.5-24.5,32.3C1246.7,485.3,1242.8,490.5,1238.8,495.7z M1378.9,731c0,0.6,0,1.2,0,1.8
	c13.7,8.9,27.4,17.9,41.3,26.6c3.5,2.2,8.9-0.3,10.3-4.2c3.9-11.4,7.8-22.8,11.6-34.3c0.5-1.7,0.3-3.6,0.5-5.4c-2-0.1-4-0.6-5.9-0.1
	c-14.8,3.8-29.5,7.8-44.2,11.7C1387.9,728.2,1383.4,729.6,1378.9,731z M1300.5,326.9c-0.1-0.5-0.2-1-0.3-1.4
	c-4.5-20.9-9-41.8-13.6-62.6c-0.2-0.9-1.1-1.7-1.7-2.6c-0.8,0.7-1.8,1.2-2.3,2.1c-6.9,13.5-14.1,26.8-20.2,40.6
	c-1.2,2.8,0.7,9.2,3.3,11c8.9,6.3,18.6,11.4,28.1,16.8C1296.9,332.6,1300.5,330.3,1300.5,326.9z M1476.7,659
	c-7.2-0.4-8.8,4-10.2,8.9c-0.7,2.5-1.9,4.8-2.9,7.1c-3.7,9.1-7.4,18.1-11,27.2c-1.6,4-0.4,6.7,2.7,5.9c15.3-3.9,30.5-7.9,45.7-12.1
	c3.8-1.1,4.5-4,1.9-7C1494.1,678.8,1485.2,668.7,1476.7,659z M1509.3,690.4c1.5-1.5,3.5-2.7,4.1-4.3c4.5-13.1,8.7-26.2,12.9-39.4
	c1.2-3.7-1.3-6.5-5-5.5c-13.8,3.7-27.6,7.5-41.4,11.4c-3.1,0.9-4,2.7-1.7,5.3c8.8,10,17.6,20.1,26.5,30
	C1505.6,688.8,1507.1,689.2,1509.3,690.4z M1481,462.9c7.9,10.3,15.9,20.8,24,31.1c0.6,0.8,2.1,1.6,3,1.4c0.9-0.2,1.9-1.5,2.4-2.5
	c0.6-1.1,0.7-2.5,0.9-3.7c2.5-14.6,5.1-29.1,7.4-43.7c0.2-1.3-0.4-3.3-1.3-4c-0.9-0.7-3-0.7-4.2-0.2c-7,3.2-13.9,6.7-20.9,9.9
	C1487.2,453.7,1481.8,455.6,1481,462.9z M1267.6,734.8c2.9,1,5,2.4,6.8,2.2c10.8-1.3,21.6-2.9,32.4-4.6c4.1-0.6,6.9-4.9,6.2-9
	c-1.9-9.9-3.9-19.8-6-29.7c-0.2-1-1.2-2.3-2.1-2.7c-0.6-0.3-2.1,0.6-2.7,1.3c-3.6,4.1-7,8.4-10.5,12.6
	C1283.9,714.4,1276.2,724.1,1267.6,734.8z M1404.8,599.7c-1.9-0.2-2.7-0.4-3.4-0.3c-18.8,2.9-37.5,5.7-56.2,8.7
	c-0.9,0.1-1.7,1.1-2.5,1.7c0.6,0.8,1,1.9,1.8,2.5c7.7,5.6,15.4,11,23.1,16.6c6.3,4.6,12.8,3.7,17.3-2.6c0.9-1.3,2-2.5,3-3.8
	C1393.3,615.1,1398.7,607.8,1404.8,599.7z M1369.8,473.5c1.1,0.9,1.5,1.4,1.9,1.5c16.6,5.9,33.3,11.9,49.9,17.7
	c3.5,1.2,5.6-1.1,5.6-3.9c0-7.2-0.2-14.5-1.5-21.6c-0.4-2.1-4.8-5.4-6.8-5C1402.8,465.6,1386.7,469.6,1369.8,473.5z M1258.8,318.3
	c2,12,3.7,23.1,5.8,34.2c0.6,3.5,6,5.5,9,3.5c6.8-4.6,13.5-9.3,20.2-14c4.6-3.2,4.5-6.1-0.2-9c-9.6-5.8-19.3-11.6-29-17.3
	c-0.9-0.5-2.5-0.6-3.4-0.1C1260,316.2,1259.3,317.7,1258.8,318.3z"/>
<path class="st1" d="M959,481.3c10.5,39.7,10.6,79.5,3.4,120.4c6.4-0.9,12.4-1.7,18.4-2.6c2.7-0.4,5.4-1.1,8.1-1.4
	c2.8-0.3,4.6-1.1,5.7-4c1.4-3.4,6.1-4.3,9.6-2.3c2.9,1.6,3.9,5.8,2.2,8.9c-1.9,3.2-6.9,5.1-9.1,2.4c-3.9-5-8.3-2.8-12.7-2.3
	c-6.4,0.8-12.7,2-19.1,2.9c-2.5,0.3-3.9,1.2-4.5,4c-1,5.2-2.6,10.3-3.6,15.5c-0.4,1.9-0.4,5.1,0.6,5.8c2.9,1.9,4.7,6.6,9.7,4.3
	c3.3-1.5,6.4-0.3,8.3,2.8c1.9,3,1.7,6.2-1.4,8c-1.8,1.1-4.7,1.6-6.7,0.9c-1.7-0.5-4.1-3.2-3.9-4.7c0.6-6.4-5-6.9-8.3-10.7
	c-3,8.1-5.3,15.4-8.4,22.4c-9.4,21.5-19,43-28.6,64.4c-1.5,3.4-3.3,6.6-4.9,9.9c-2.4,5-0.4,8.1,5.2,8c11.8-0.1,23.5-0.2,35.3-0.3
	c2.5,0,4.3-0.1,5.5-3.2c1.5-3.9,6.2-4.5,9.9-2c3,2.1,3.7,6.6,1.5,9.4c-2.3,3-7,2.8-10.3,0.1c-1.4-1.2-3.5-2.3-5.3-2.3
	c-11.8-0.2-23.6-0.1-35.3-0.1c-7.3,0-10.5,3.6-9.5,10.6c2.2,14.3,4.4,28.6,6.8,42.9c0.3,1.8,1.6,3.6,3,4.9c3.5,3.2,4.3,7.1,1.5,10.1
	c-2.7,2.9-7.4,3-10,0.2c-2.6-2.8-2-7.1,1.2-10.3c1-1,2-2.6,1.8-3.8c-2.1-15.1-4.3-30.3-6.6-45.4c-0.7-4.5-3.4-5.6-7.1-2.9
	c-22,15.7-44.1,31.4-66.1,47c-1.7,1.2-3.7,2.1-5.1,3.6c-1.4,1.4-2.8,3.3-3.3,5.2c-1,3.5-4.1,6.2-7.3,5.5c-3.3-0.7-6-4.9-5.1-8.1
	c1.1-3.7,4.9-6,8.3-4.1c3.5,2.1,5.6,0.5,8.1-1.2c23.1-16.4,46.1-32.9,69.2-49.3c0.8-0.6,1.5-1.5,2.2-2.2c-0.1-0.4-0.3-0.9-0.4-1.3
	c-4.9,0.8-9.9,1.4-14.8,2.4c-7.4,1.4-14.9,2.8-22.2,4.6c-2.1,0.5-4.3,2-5.9,3.5c-3.1,3.1-6.7,3.4-9.7,0.4c-2.4-2.5-2.5-7-0.1-9.2
	c2.8-2.6,7.8-2.3,9.7,1.1c1.6,2.8,3.2,2.8,5.8,2.3c10.9-2.3,21.8-4.2,32.6-6.5c1.5-0.3,2.8-2,4-3.3c0.9-0.9,1.6-2,2.2-3.1
	c0.7-1.7,2-3.6,1.7-5.2c-2-10.1-4.2-20.2-6.6-30.2c-0.3-1.4-1.7-2.9-2.9-3.8c-4.1-3-5.2-7-2.7-10.3c2.1-2.7,6.7-3,9.5-0.6
	c3.3,2.8,3,6.8-0.5,10.5c-0.9,0.9-1.7,2.5-1.5,3.6c2.4,11.2,5,22.3,7.5,33.4c0.1,0.5,0.7,1,1.6,2.3c1.6-2.7,3.2-4.8,4.3-7.2
	c9.7-21,19.5-42,28.9-63.2c3.8-8.7,6.5-17.8,9.8-26.7c0.9-2.6,1-4.3-1.9-5.9c-3.7-2.1-7.1-4.9-10.5-7.7c-3.4-2.8-6.6-5.3-11.5-2.8
	c-1.3,0.7-4.5-0.4-5.5-1.7c-2.4-3-4.7-2.2-7.6-1.5c-28.1,7-56.3,13.9-84.4,20.8c-2.7,0.7-4.6,1.4-5.4,4.5c-1,3.8-5.6,5.6-8.9,4.1
	c-2.9-1.4-4.4-6.2-2.8-9.2c1.7-3.3,6.1-5,9-2.5c3.2,2.8,6.2,1.8,9.3,1c28.1-6.9,56.3-13.8,84.4-20.8c1.4-0.4,2.8-1.1,5.6-2.2
	c-2.5-1.3-3.6-2.1-4.8-2.5c-10.9-3.9-21.8-7.9-32.8-11.6c-1.4-0.5-3.2,0.5-4.8,0.6c-2.7,0.1-6.2,1.1-7.8-0.2
	c-1.7-1.4-2.6-5.4-1.9-7.5c0.6-1.8,4.3-3.8,6.3-3.5c2.2,0.4,4,3.3,5.9,5.2c1.1,1.1,1.9,2.9,3.2,3.4c11,4.2,22,8.2,33.1,12.1
	c4.8,1.7,10.1-1.5,11-6.5c6.5-34,13-68,19.5-102c0.6-3.2,1.2-6.3,1.8-9.5c1.1-5.4-0.5-7.3-6-6.4c-11.9,2.1-23.7,4.4-35.6,6.6
	c-24.5,4.6-49.1,9.3-73.6,14.1c-1.7,0.3-3.6,1.7-4.7,3.2c-2.5,3.1-6.6,4.1-9.7,1.7c-2.6-2-3.4-6.6-1.4-9.1c2.4-3.1,7.3-3.7,9.7-0.5
	c2.2,2.9,4.4,2.8,7.4,2.3c32.4-6.1,64.9-12.1,97.3-18.1c3.9-0.7,7.8-1.4,11.6-3.2c-4.5-0.3-9-0.7-13.5-0.9
	c-5.1-0.3-10.3-0.6-15.4-0.5c-3.2,0-6.5-0.5-9.2,2.7c-2.2,2.7-7.1,1.8-9-0.8c-2.2-3.1-1.7-7.6,1.1-9.6c3.1-2.2,8.3-1.4,9.5,2.2
	c1.4,3.9,4,3.9,7.1,3.9c9.8-0.1,19.5,0,29.8,0c-6.7-2.9-13.1-5.9-19.6-8.6c-14.4-6-28.8-11.9-43.3-17.7c-1.9-0.7-4.2-0.8-6.2-0.5
	c-4.2,0.8-7.7-1.1-8.3-5.1c-0.6-3.6,1.6-7.1,5-7.7c4.1-0.7,7.9,2.1,7.7,6.5c-0.1,3.1,0.9,4.2,3.5,5.2c15.8,6.5,31.5,13.2,47.2,19.8
	c0.7,0.3,1.5,0.2,2.6-0.4c-7.6-4.8-15.1-9.7-22.7-14.5c-29.6-18.5-59.3-37-89-55.4c-1.6-1-4.1-1.2-6-1c-4.7,0.5-7.9-1.5-8.3-5.8
	c-0.3-3.7,2.5-6.9,6.3-7.1c4.2-0.2,6.7,2.8,6.8,7.3c0,1.5,1.1,3.5,2.4,4.3c14.2,9.2,28.5,18.2,42.8,27.2
	c24.8,15.6,49.6,31.1,74.5,46.7c1.2,0.7,2.4,1.3,4.1,1.3c-7.1-8.2-14.1-16.5-21.3-24.7c-20.6-23.3-41.3-46.5-61.8-69.8
	c-2-2.3-3.7-3.9-7.1-3.9c-4,0-6.5-3.8-5.9-7.8c0.6-3.8,3.8-5.8,7.9-4.9c4.1,0.9,5.3,3.6,4.7,8c-0.3,2.1,0,4.9,1.2,6.4
	c17.4,20,35,39.9,52.6,59.8c10.6,11.9,21.1,23.9,31.7,35.8c0.4,0.5,0.9,0.8,2.4,0.8c-20.8-64.6-41.6-129.3-62.4-193.9
	c-0.3,0.1-0.5,0.1-0.8,0.2c2,9.1,3.9,18.2,5.9,27.2c1.5,6.6,3,13.2,4.5,19.8c0.9,3.9,1.4,7.7,4.9,10.6c2.8,2.3,1.9,7.3-1,9.4
	c-2.8,2-7,1.4-9.1-1.3c-2.2-2.8-1.8-7.5,1.4-9.3c2.3-1.3,3.3-2.6,2.7-5.3c-4.3-19-8.4-38-12.6-57c-0.4-1.9-1.3-3.8-2.5-7.2
	c-1.9,3.4-3.2,5.4-4.3,7.6c-5.7,11.4-11.4,22.7-16.9,34.2c-1,2.2-1.2,5.1-0.9,7.6c0.4,3.8-1.5,7.7-4.8,8.2c-4.4,0.8-7.4-1.3-8-5.5
	c-0.6-3.9,1.6-7.3,5.8-7.3c3.5,0,4.7-1.7,5.9-4.3c6.1-12.3,12.3-24.4,18.5-36.7c0.6-1.3,0.8-2.8,1.5-5.7
	c-8.7,4.2-16.1,7.7-23.4,11.3c-14.1,7-28.3,13.9-42.3,21.1c-2.6,1.3-5.2,3.6-6.6,6.1c-2,3.5-5.5,5.5-9.1,3.9c-3-1.4-4.4-5.5-2.9-8.7
	c1.7-3.6,5.9-4.9,9.3-2.9c0.9,0.6,1.7,1.4,2.8,2.4c13.2-6.5,26.5-13,39.7-19.6c8.8-4.4,17.6-8.7,26.4-13.2c4.7-2.4,4.9-4.6,0.6-7.6
	c-12.7-8.8-25.4-17.7-38-26.5c-2.2-1.5-4.1-2.2-6.9-0.9c-4,1.8-7.5-0.3-8.5-4.4c-0.9-3.6,1.2-7.2,4.4-8c3.8-0.9,7,1.6,8.2,5.6
	c0.6,2,1.8,4.3,3.5,5.5c12.8,9.2,25.8,18.2,38.7,27.2c0.7,0.5,1.7,0.6,3.9,1.4c-1.3-3-1.9-5-3-6.8c-12.4-20.3-24.8-40.6-37.3-60.9
	c-4.2-6.9-8.3-13.8-12.8-20.5c-0.9-1.4-3-2.5-4.8-2.9c-3.8-0.8-6.5-4.1-5.9-8c0.6-3.9,3.8-5.9,7.9-4.9c3.2,0.8,4.9,4.9,4.2,8.6
	c-0.4,1.9-0.3,4.5,0.6,6c17,28.1,34.2,56.1,51.4,84.1c2.4,4,5.6,4,7.4-0.2c7.7-18.1,15.2-36.2,22.6-54.4c0.5-1.3,0-3.3-0.6-4.8
	c-1.7-4.3-0.5-8.3,3.3-9.7c3.6-1.3,7.3,0.5,8.5,4.1c1.3,3.9-1,7.4-5.3,8.8c-1.5,0.5-3.4,1.8-4,3.2c-7.7,18.1-15.3,36.2-22.8,54.3
	c-1.8,4.4-0.8,5.7,3.9,4.8c23.9-4.6,47.7-9.3,71.5-14c31.6-6.3,63.1-12.6,94.6-19c3-0.6,5.8-1.6,8.8-2.3c0-0.6,0-1.3,0-1.9
	c-19.9-8.8-39.8-17.7-59.3-26.3c-2.6,0.9-4.7,2.1-6.9,2.4c-3.6,0.5-6-1.6-6.6-4.9c-0.6-3.5,0.4-6.5,4.3-7.5c3.6-1,6.9,0.3,7.8,3.7
	c0.9,3.6,3.1,4.9,6,6.1c17.2,7.6,34.4,15.3,51.7,22.9c5.1,2.3,10.2-0.4,11.4-5.7c5.1-22.3,10.2-44.5,15.2-66.8
	c0.3-1.5-0.9-3.2-1.3-4.9c-0.6-2.8-2.1-5.9-1.3-8.3c0.6-1.7,4.5-3.5,6.5-3.1c2,0.4,4.4,3.2,5,5.4c1,3.1-0.8,5.8-4.2,7.1
	c-1.1,0.4-2.1,1.9-2.4,3c-5.4,23.2-10.7,46.4-15.8,69.7c-0.4,1.6,0.5,3.5,0.9,5.3c0.4,1.7,1.6,3.7,1,4.9c-1.8,3.9,0.3,6.4,2.2,9.2
	c8.8,12.7,17.5,25.5,26.4,38.1c0.9,1.3,2.6,2.4,4.1,2.9c5.5,1.6,7.5,4.2,6.3,8.4c-1.2,3.8-5.8,6-9.4,4.4c-3.4-1.6-4.4-6.2-2.3-10.5
	c0.3-0.5,0.6-1.1,1-1.7c-9.9-14.4-19.7-28.8-29.5-43.1c-2.4-3.4-4.4-3.1-6.4,1.3c-8.3,17.6-16.4,35.3-24.6,53
	c-15.5,33.4-31,66.9-46.5,100.3c-13.1,28.5-26.2,57.1-39.1,85.7c-0.9,1.9-0.8,4.8,0,6.7c0.4,1,3.5,1.3,5.3,1.1
	c27.7-3.7,55.5-7.6,83.2-11.4c3.3-0.5,6.7-0.7,10.1-1.2c1.1-0.2,2.1-0.8,2.9-2.2c-4.8,0-9.6-0.1-14.4,0c-5.8,0.2-11.6,0.4-17.3,1.1
	c-2.4,0.3-4.9,1.6-6.9,3.1c-3.2,2.4-7.4,2.4-10-0.6c-2.4-2.9-1.9-7.4,1-9.4c3.4-2.4,8.3-1.6,9.9,2.1c1.2,2.8,2.8,3.2,5.5,3
	c9.6-0.8,19.3-1.3,28.9-1.8c5.5-0.3,8.1-3.9,6.3-9.2c-7.5-22.1-15-44.2-22.5-66.4c-0.8-2.4-1.5-4-4.8-4.1c-3.6-0.1-6.2-4.6-5.3-7.8
	c1-3.7,4.7-5.7,8.3-4.6c3.5,1,6,5.2,4,8.5c-2.1,3.4-0.9,6,0.1,9c7.5,21.9,14.9,43.9,22.6,65.8c0.6,1.7,2.4,3,3.7,4.5
	c1.2-1.1,2.7-2.1,3.5-3.4c10-17.1,19.9-34.2,29.7-51.4c0.8-1.3,0.6-3.6,0.1-5.1c-1.3-3.9,0.3-8.1,3.8-9.1c3.8-1.2,7.8,1.2,8.5,5
	c0.7,3.7-2.2,8-6,7.7c-3.1-0.2-3.7,1.4-4.9,3.3c-10,17.1-20,34.2-29.9,51.3c-0.7,1.3-1.1,2.8-2.2,5.4c2.7-0.8,4-1.1,5.2-1.6
	c10.6-4.7,21.1-9.6,31.7-14.3c2.5-1.1,4.3-2.1,4.5-5.4c0.3-4.1,4-6.1,8.2-5.2c3.4,0.8,5.4,4,4.7,7.8c-0.7,3.5-4.7,6.1-8.3,4.4
	c-4-2-7-0.5-10.3,1c-10.1,4.5-20.3,9-30.5,13.6c-4.6,2-5.8,6.7-2.7,10.6c6.7,8.6,13.4,17.3,20.4,25.8c0.9,1.1,3,1.9,4.6,1.8
	c4-0.1,6.7,2.1,6.9,6.2c0.2,3.9-2.2,6.6-5.9,6.8c-3.8,0.2-7.3-2.9-6.5-6.7c1-4.2-0.9-6.7-3-9.5c-6.4-8.3-12.8-16.5-19.2-24.8
	c-0.6-0.8-0.9-1.7-1.3-2.6c-0.6,0.2-1.1,0.4-1.7,0.6c-0.8,2.6-1.7,5.2-2.3,7.9c-5.3,27.3-10.6,54.6-15.8,82c-0.3,1.8,0.3,4,1.2,5.7
	c2.2,3.9,1.5,8.1-2.1,10.1c-3.1,1.7-6.9,0.4-8.5-3c-1.9-3.9-0.2-7.5,3.9-9.2c1.2-0.5,2.8-1.7,3-2.8c4.5-22.4,8.9-44.9,13.3-67.3
	c1.1-5.8,2.4-11.7,3.6-17.5c0.3-1.8,0.4-3.7,0.7-6.6c-2.2,1-3.6,1.4-4.5,2.2c-9.6,8.5-19.2,17.2-28.8,25.7c-1.9,1.7-3,3.2-2.2,6.1
	c1.2,4.2-1.6,7.5-5.6,7.8c-4,0.3-7.2-2.4-7.3-6.1c-0.1-4.2,3.2-7,7.6-6.8c1.5,0.1,3.5-0.2,4.6-1.2c9.4-8.1,18.6-16.4,27.9-24.6
	c1-0.9,2.3-1.6,3.5-2.4c-0.3-0.5-0.6-1-0.9-1.5c-8.2,1-16.4,2-24.6,3.1c-24.4,3.3-48.8,6.5-73.2,9.8c-4.6,0.6-5,1.3-2.3,5.3
	c26,39.7,52.1,79.5,78.1,119.2c19.6,29.9,39.1,59.9,58.7,89.7c1.1,1.6,3.3,3.2,5,3.3c1.2,0.1,3-2.4,3.7-4
	c5.4-12,10.5-24.2,15.9-36.3c1-2.3,1.4-3.8-1-5.7c-3-2.5-2.6-6.9,0.3-9.3c3.2-2.7,8.1-2.3,10.3,0.8c2.2,3,1.3,8.2-2.3,9.5
	c-3.5,1.2-4.5,3.7-5.7,6.5c-5.3,12.4-10.8,24.8-16,37.3c-0.7,1.7-0.7,4-0.3,5.9c1,5.3-1.2,8.2-6.5,8.9c-2,0.2-4.3,1.3-5.8,2.6
	c-17.5,15-34.8,30.2-52.2,45.3c-3.4,3-6.8,5.9-10.3,8.7c-2.8,2.2-5,4.5-5.3,8.5c-0.2,3.7-3.1,5.5-6.8,5.2c-3.5-0.3-5.5-2.5-5.8-6
	c-0.3-3.6,1.8-7.2,4.8-6.6c11.5,2.5,16.5-6.9,23.2-12.4c17.2-14.2,33.9-29.2,50.7-44c1.2-1,1.8-2.7,2.6-4.1
	c-1.6-0.2-3.4-0.9-4.9-0.5c-14.8,3.3-29.5,6.7-44.2,10.3c-1.7,0.4-3.5,1.6-4.5,3.1c-2.1,3.1-4.6,4.4-8.2,3.3c-3.3-1-4.9-3.7-4.2-6.7
	c0.5-2.1,2.4-4.6,4.4-5.5c3.4-1.5,6.7-0.6,8.3,3.4c0.2,0.4,0.6,0.8,1.1,1.4c15.8-3.8,31.8-7.5,47.7-11.4c4.7-1.2,5.6-4.9,2.3-8.6
	c-8.8-9.6-17.7-19.1-26.7-28.6c-0.9-0.9-2.8-0.8-4.1-1.4c-2.6-1.1-6.1-1.8-7.4-3.9c-1-1.5,0-5.9,1.6-7.1c1.8-1.4,5.6-1.6,7.8-0.7
	c2.8,1.2,4,4.4,2.6,7.8c-0.3,0.9,0,2.6,0.7,3.3c7.8,8.5,15.7,17,23.6,25.4c0.4-0.3,0.8-0.6,1.2-0.9C1048.9,618.7,1004,550,959,481.3
	z M887.4,262.8c-0.3,0.2-0.6,0.4-0.8,0.6c22,68.2,43.9,136.3,66.1,205c0.9-1,1.2-1.2,1.3-1.5c1.4-14.6,2.9-29.1,4.2-43.7
	c0.1-1-1.3-2.1-1.8-3.3c-1.1-2.4-3.5-5.3-2.9-7.2c0.6-2,4-4.2,6.3-4.4c2-0.1,5.4,2.3,5.8,4.1c0.5,2.2-1.3,5-2.4,7.5
	c-0.8,1.9-2.6,3.5-2.9,5.3c-1.1,7.6-1.8,15.3-2.5,23c-0.6,6.4-1,12.8-1.5,19.2c0.4,0.1,0.9,0.2,1.3,0.3c35-76,70-152,105.1-228
	c-1.4,0.9-2.2,2.1-2.9,3.4c-13.3,24.1-26.7,48.1-40,72.2c-1.6,2.9-3.5,5.3-1.5,9.2c1.5,2.9-1.9,6.8-5.2,7.4c-4,0.6-7.6-2.1-8-5.8
	c-0.4-3.7,2-7,5.8-6.8c4,0.3,5.3-2,6.8-4.7c11.6-20.8,23.2-41.6,34.8-62.5c5.3-9.5,10.4-19.1,15.6-28.6c-1.5-0.2-2.3,0.1-3,0.6
	c-11.2,7.5-22.5,15-33.6,22.8c-1.5,1.1-2.5,3.1-3.3,4.9c-1.5,3.3-4.9,5.1-8.3,3.9c-3.3-1.1-5.3-5.5-3.9-8.7c1.3-3.2,5-4.7,8.4-3.2
	c1.4,0.6,2.7,1.6,4.2,2.4c12.3-8.3,24.6-16.5,36.9-24.7c-0.2-0.5-0.4-0.9-0.7-1.4c-58.7,11.7-117.3,23.4-176,35.1
	c0.9,1.5,1.7,2,2.6,2.1c17.4,2.3,34.8,4.6,52.1,6.9c2.6,0.3,4.2-0.3,5.9-2.8c2-3,7-2.9,9.5-0.4c2.6,2.5,2.5,7.2-0.1,9.5
	c-2.8,2.5-6.5,2-9.5-0.7c-1.8-1.7-4.3-3.2-6.6-3.6c-11.6-1.9-23.2-3.3-34.9-4.9c-6.5-0.9-12.9-1.6-19.4-2.4
	c-0.2,0.4-0.4,0.8-0.6,1.2c4.9,4.3,9.7,8.7,14.6,13c17.6,15.6,35.3,31.1,52.9,46.6c1.8,1.6,3.3,2.8,6.3,1.9c3.8-1.1,7.6,2.4,7.7,6.1
	c0.1,4.3-2.9,7.1-7.5,6.8c-4.4-0.2-6.3-2.9-5.9-7.5c0.1-1.7-0.5-4.1-1.7-5.1c-14.9-13.5-29.9-26.9-45-40.3
	C901.8,275.4,894.6,269.1,887.4,262.8z M956.8,487c-0.3,0.1-0.6,0.1-0.9,0.2c-0.1,0.4-0.3,0.8-0.3,1.2c0.2,16.6,0.2,33.2,0.7,49.8
	c0.1,2.4,1.7,4.9,3.1,7c2,2.8,2.1,7.6-0.5,9.6c-2.5,2-7.3,1.4-9.2-1.1c-2.3-3.1-2-7.4,1.4-9.3c2.9-1.6,3.1-3.7,3.1-6.4
	c-0.1-10.2,0-20.3,0-30.5c0-7,0-14,0-21c-0.5,0-1,0-1.4,0c-4.2,22.1-8.4,44.2-12.6,66.3c-2.9,15.3-5.8,30.7-8.6,46
	c-0.8,4.4,1.9,7.7,5.9,7.1c6.2-0.9,12.4-2,18.6-2.9c2.7-0.4,4.3-1.3,4.6-4.5c1.3-15,3.8-30.1,3.9-45.1c0.1-15.4-1.8-30.8-3.4-46.1
	C960.5,500.5,958.3,493.8,956.8,487z M959.6,604.4c-8.2,1.3-15.6,2.3-22.8,3.8c-2.6,0.5-2.4,2.9-0.5,4.4c5.8,4.5,11.7,8.8,18,13.6
	C956.1,618.6,957.7,612,959.6,604.4z"/>
<path class="st1" d="M549.2,523.9c0,7.6-0.1,15.2,0,22.9c0.9,40.6,1.7,81.2,2.7,121.8c0.5,18.8,1.6,37.6,2.6,56.4
	c0.1,1.5,1.4,3.3,2.7,4.2c3.3,2.4,4.3,6.7,1.9,10.2c-1.9,2.8-6.7,3.2-9.6,0.9c-3-2.3-3.6-7.4-0.4-9.8c2.7-2,2.8-4.3,2.7-7.1
	c-0.6-20.3-1.4-40.5-1.9-60.8c-0.5-19.9-0.7-39.8-1.1-59.8c-0.4-21.2-0.8-42.5-1.3-63.7c-0.1-5.1-0.5-10.2-0.8-15.3
	C547.6,523.9,548.4,523.9,549.2,523.9z"/>
<path class="st1" d="M523.7,536.3c-2.1,6.3-3.9,12.8-6.4,19c-15.2,38.1-30.7,76.1-45.9,114.1c-8.5,21.4-16.7,42.9-24.9,64.4
	c-0.6,1.5-0.3,3.7,0.2,5.3c1.4,4.3,0.3,8.2-3,9.5c-3.4,1.3-7.8-1.1-8.8-4.6c-0.9-3.4,1.7-6.6,5.9-7.9c1.5-0.5,3.2-2,3.7-3.5
	c12.2-30.5,24.3-61,36.5-91.4c13.5-33.9,27.2-67.8,40.8-101.7c0.5-1.1,1.3-2.1,1.9-3.1C523.8,536.4,523.7,536.3,523.7,536.3z"/>
<path class="st1" d="M529.4,469.7c-19.4-8.2-38.8-16.5-58.2-24.8c-3.3-1.4-6.1-2.8-9.9-1c-3,1.4-6.8-1.5-7.5-4.9
	c-0.8-4.2,1.5-7.6,5.4-8.1c3.5-0.4,7.2,2.1,7,5.7c-0.2,3.7,1.6,4.9,4.6,6.2c17.9,7.7,35.7,15.6,53.5,23.5c1.8,0.8,3.4,2.3,5,3.5
	C529.3,469.8,529.4,469.7,529.4,469.7z"/>
<g>
	<path class="st0" d="M427.4,896.7c0,1.5,0.2,2.8,0.6,3.9c0.4,1.1,0.9,2,1.5,2.7c0.6,0.7,1.3,1.3,2.1,1.6c0.8,0.4,1.6,0.5,2.4,0.5
		c0.8,0,1.6-0.2,2.2-0.5c0.7-0.3,1.3-0.8,1.8-1.3c0.5-0.5,0.9-1.1,1.2-1.8c0.3-0.7,0.6-1.4,0.7-2.1h3.2c-0.2,1.2-0.6,2.2-1.1,3.3
		c-0.5,1-1.1,1.9-1.9,2.7c-0.8,0.8-1.7,1.4-2.7,1.8c-1,0.4-2.2,0.7-3.4,0.7c-1.5,0-2.8-0.3-4-0.8s-2.2-1.3-3-2.3
		c-0.8-1-1.5-2.2-1.9-3.6c-0.5-1.4-0.7-3-0.7-4.9c0-1.4,0.2-2.7,0.6-4s1.1-2.5,1.9-3.5c0.8-1,1.8-1.8,3-2.4s2.5-0.9,4.1-0.9
		c1.3,0,2.4,0.2,3.5,0.5c1,0.4,1.9,0.9,2.7,1.5c0.8,0.6,1.4,1.4,1.9,2.3c0.5,0.9,0.9,1.9,1.2,2.9h-3.3c-0.5-1.5-1.3-2.7-2.2-3.4
		s-2.2-1.1-3.7-1.1c-1,0-1.8,0.2-2.6,0.7c-0.8,0.4-1.5,1-2,1.8c-0.6,0.8-1,1.6-1.3,2.6C427.6,894.6,427.4,895.6,427.4,896.7z"/>
	<path class="st0" d="M460.4,886.4v2.8H449v6.1h10.8v2.8H449v6.8h11.9v2.8h-15.1v-21.2H460.4z"/>
	<path class="st0" d="M467.3,886.4l9.7,16.1v-16.1h3.1v21.2h-3.7l-9.6-16.2v16.2h-3.1v-21.2H467.3z"/>
	<path class="st0" d="M499.6,886.4v2.8h-6.8v18.4h-3.1v-18.4h-6.8v-2.8H499.6z"/>
	<path class="st0" d="M517.9,892.6c0,1-0.2,1.9-0.6,2.7c-0.4,0.9-1,1.6-1.8,2.2c0.8,0.4,1.4,1,1.7,1.8c0.3,0.8,0.5,1.6,0.5,2.4v3.1
		c0,0.4,0.1,0.9,0.2,1.4c0.2,0.5,0.4,1,0.7,1.5h-3.4c-0.3-0.4-0.4-0.9-0.5-1.4c-0.1-0.5-0.1-1-0.1-1.3v-3.2c0-0.3-0.1-0.7-0.2-1
		c-0.1-0.3-0.3-0.6-0.6-0.9c-0.3-0.3-0.6-0.5-1-0.6c-0.4-0.2-0.9-0.2-1.5-0.2h-5.7v8.8h-3.1v-21.2h8.8c1.1,0,2,0.2,2.8,0.6
		c0.8,0.4,1.5,0.9,2.1,1.4c0.6,0.6,1,1.3,1.3,2C517.8,891.1,517.9,891.9,517.9,892.6z M505.5,896.1h5.7c0.5,0,0.9-0.1,1.3-0.3
		c0.4-0.2,0.8-0.4,1.1-0.7c0.3-0.3,0.6-0.7,0.8-1.1c0.2-0.4,0.3-0.9,0.3-1.4c0-1-0.3-1.8-1-2.4c-0.7-0.6-1.5-1-2.5-1h-5.7V896.1z"/>
	<path class="st0" d="M531,886.4l7.8,21.2h-3.3l-2.3-6.3h-8c-0.4,1-0.8,2.1-1.2,3.1c-0.4,1.1-0.8,2.1-1.1,3.1h-3.4l7.8-21.2H531z
		 M529.2,890.4c-0.5,1.4-1,2.7-1.5,4.1c-0.5,1.3-1,2.7-1.5,4.2h6L529.2,890.4z"/>
	<path class="st0" d="M543.4,886.4v18.4h10.3v2.8h-13.4v-21.2H543.4z"/>
	<path class="st0" d="M560.5,886.4v21.2h-3.2v-21.2H560.5z"/>
	<path class="st0" d="M564.1,904.9l12.6-15.7h-12.6v-2.8h16.3v3l-12.4,15.4h12.4v2.8h-16.3V904.9z"/>
	<path class="st0" d="M597.8,886.4v2.8h-11.5v6.1h10.8v2.8h-10.8v6.8h11.9v2.8h-15.1v-21.2H597.8z"/>
	<path class="st0" d="M601.1,886.4h8.1c1.4,0,2.7,0.3,3.9,0.8s2.1,1.3,2.9,2.3c0.8,1,1.4,2.1,1.9,3.4c0.4,1.3,0.6,2.6,0.6,4.1
		c0,1.5-0.2,2.9-0.7,4.2c-0.5,1.3-1.1,2.4-1.9,3.4c-0.8,1-1.8,1.7-2.9,2.2c-1.1,0.5-2.4,0.8-3.8,0.8h-8.1V886.4z M604.2,904.8h4.1
		c1,0,2-0.2,2.8-0.5c0.9-0.4,1.6-0.9,2.2-1.5c0.6-0.7,1.1-1.5,1.5-2.5c0.4-1,0.5-2.1,0.5-3.3c0-1.4-0.2-2.5-0.5-3.5
		c-0.4-1-0.8-1.8-1.5-2.4c-0.6-0.6-1.4-1.1-2.2-1.4c-0.9-0.3-1.8-0.5-2.8-0.5h-4.1V904.8z"/>
</g>
<g>
	<path class="st0" d="M508.4,926.8c-1.2,2.3-2.2,4.7-2.7,7c-0.6,2.4-0.9,4.8-0.9,7.2c0,2.4,0.3,4.8,0.9,7.2c0.6,2.4,1.5,4.7,2.7,7
		H507c-1.6-2.1-2.7-4.3-3.5-6.7c-0.8-2.4-1.2-4.9-1.2-7.5c0-2.6,0.4-5.1,1.2-7.5c0.8-2.4,1.9-4.7,3.5-6.8H508.4z"/>
	<path class="st0" d="M519.8,929.9l7.7,21.2h-2.1l-2.3-6.5h-9.4l-2.3,6.5h-2.1l7.8-21.2H519.8z M518.4,931.8l-4,10.8h7.9
		L518.4,931.8z"/>
	<path class="st0" d="M529.8,926.8c1.6,2.1,2.8,4.3,3.6,6.8c0.8,2.4,1.1,4.9,1.1,7.5c0,2.6-0.4,5.1-1.2,7.5s-1.9,4.7-3.5,6.7h-1.4
		c1.3-2.3,2.2-4.6,2.8-7c0.6-2.3,0.9-4.8,0.9-7.2s-0.3-4.9-0.9-7.2c-0.6-2.4-1.5-4.7-2.8-7H529.8z"/>
</g>
<g>
	<path class="st0" d="M848.7,886.4h8.1c1.4,0,2.7,0.3,3.9,0.8s2.1,1.3,2.9,2.3c0.8,1,1.4,2.1,1.9,3.4c0.4,1.3,0.6,2.6,0.6,4.1
		c0,1.5-0.2,2.9-0.7,4.2c-0.5,1.3-1.1,2.4-1.9,3.4c-0.8,1-1.8,1.7-2.9,2.2c-1.1,0.5-2.4,0.8-3.8,0.8h-8.1V886.4z M851.8,904.8h4.1
		c1,0,2-0.2,2.8-0.5c0.9-0.4,1.6-0.9,2.2-1.5c0.6-0.7,1.1-1.5,1.5-2.5c0.4-1,0.5-2.1,0.5-3.3c0-1.4-0.2-2.5-0.5-3.5
		c-0.4-1-0.8-1.8-1.5-2.4c-0.6-0.6-1.4-1.1-2.2-1.4c-0.9-0.3-1.8-0.5-2.8-0.5h-4.1V904.8z"/>
	<path class="st0" d="M883.5,886.4v2.8H872v6.1h10.8v2.8H872v6.8H884v2.8h-15.1v-21.2H883.5z"/>
	<path class="st0" d="M890,896.7c0,1.5,0.2,2.8,0.6,3.9c0.4,1.1,0.9,2,1.5,2.7c0.6,0.7,1.3,1.3,2.1,1.6c0.8,0.4,1.6,0.5,2.4,0.5
		c0.8,0,1.6-0.2,2.2-0.5c0.7-0.3,1.3-0.8,1.8-1.3c0.5-0.5,0.9-1.1,1.2-1.8c0.3-0.7,0.6-1.4,0.7-2.1h3.2c-0.2,1.2-0.6,2.2-1.1,3.3
		c-0.5,1-1.1,1.9-1.9,2.7c-0.8,0.8-1.7,1.4-2.7,1.8c-1,0.4-2.2,0.7-3.4,0.7c-1.5,0-2.8-0.3-4-0.8s-2.2-1.3-3-2.3
		c-0.8-1-1.5-2.2-1.9-3.6c-0.5-1.4-0.7-3-0.7-4.9c0-1.4,0.2-2.7,0.6-4s1.1-2.5,1.9-3.5c0.8-1,1.8-1.8,3-2.4s2.5-0.9,4.1-0.9
		c1.3,0,2.4,0.2,3.5,0.5c1,0.4,1.9,0.9,2.7,1.5c0.8,0.6,1.4,1.4,1.9,2.3c0.5,0.9,0.9,1.9,1.2,2.9h-3.3c-0.5-1.5-1.3-2.7-2.2-3.4
		s-2.2-1.1-3.7-1.1c-1,0-1.8,0.2-2.6,0.7c-0.8,0.4-1.5,1-2,1.8c-0.6,0.8-1,1.6-1.3,2.6C890.1,894.6,890,895.6,890,896.7z"/>
	<path class="st0" d="M922.9,886.4v2.8h-11.5v6.1h10.8v2.8h-10.8v6.8h11.9v2.8h-15.1v-21.2H922.9z"/>
	<path class="st0" d="M929.9,886.4l9.7,16.1v-16.1h3.1v21.2h-3.7l-9.6-16.2v16.2h-3.1v-21.2H929.9z"/>
	<path class="st0" d="M962.1,886.4v2.8h-6.8v18.4h-3.1v-18.4h-6.8v-2.8H962.1z"/>
	<path class="st0" d="M980.4,892.6c0,1-0.2,1.9-0.6,2.7c-0.4,0.9-1,1.6-1.8,2.2c0.8,0.4,1.4,1,1.7,1.8c0.3,0.8,0.5,1.6,0.5,2.4v3.1
		c0,0.4,0.1,0.9,0.2,1.4c0.2,0.5,0.4,1,0.7,1.5h-3.4c-0.3-0.4-0.4-0.9-0.5-1.4c-0.1-0.5-0.1-1-0.1-1.3v-3.2c0-0.3-0.1-0.7-0.2-1
		s-0.3-0.6-0.6-0.9c-0.3-0.3-0.6-0.5-1-0.6c-0.4-0.2-0.9-0.2-1.5-0.2H968v8.8h-3.1v-21.2h8.8c1.1,0,2,0.2,2.8,0.6s1.5,0.9,2.1,1.4
		c0.6,0.6,1,1.3,1.3,2S980.4,891.9,980.4,892.6z M968,896.1h5.7c0.5,0,0.9-0.1,1.3-0.3c0.4-0.2,0.8-0.4,1.1-0.7s0.6-0.7,0.8-1.1
		s0.3-0.9,0.3-1.4c0-1-0.3-1.8-1-2.4s-1.5-1-2.5-1H968V896.1z"/>
	<path class="st0" d="M993.5,886.4l7.8,21.2h-3.3l-2.3-6.3h-8c-0.4,1-0.8,2.1-1.2,3.1c-0.4,1.1-0.8,2.1-1.1,3.1H982l7.8-21.2H993.5z
		 M991.7,890.4c-0.5,1.4-1,2.7-1.5,4.1c-0.5,1.3-1,2.7-1.5,4.2h6L991.7,890.4z"/>
	<path class="st0" d="M1006,886.4v18.4h10.3v2.8h-13.4v-21.2H1006z"/>
	<path class="st0" d="M1023.1,886.4v21.2h-3.2v-21.2H1023.1z"/>
	<path class="st0" d="M1026.7,904.9l12.6-15.7h-12.6v-2.8h16.3v3l-12.4,15.4h12.4v2.8h-16.3V904.9z"/>
	<path class="st0" d="M1060.4,886.4v2.8h-11.5v6.1h10.8v2.8h-10.8v6.8h11.9v2.8h-15.1v-21.2H1060.4z"/>
	<path class="st0" d="M1063.7,886.4h8.1c1.4,0,2.7,0.3,3.9,0.8c1.1,0.6,2.1,1.3,2.9,2.3c0.8,1,1.4,2.1,1.9,3.4
		c0.4,1.3,0.6,2.6,0.6,4.1c0,1.5-0.2,2.9-0.7,4.2c-0.5,1.3-1.1,2.4-1.9,3.4c-0.8,1-1.8,1.7-2.9,2.2s-2.4,0.8-3.8,0.8h-8.1V886.4z
		 M1066.8,904.8h4.1c1,0,2-0.2,2.8-0.5c0.9-0.4,1.6-0.9,2.2-1.5s1.1-1.5,1.5-2.5s0.5-2.1,0.5-3.3c0-1.4-0.2-2.5-0.5-3.5
		c-0.4-1-0.8-1.8-1.5-2.4c-0.6-0.6-1.4-1.1-2.2-1.4c-0.9-0.3-1.8-0.5-2.8-0.5h-4.1V904.8z"/>
</g>
<g>
	<path class="st0" d="M610.7,1022v1.8h-10.2v6.3h8.9v1.8h-8.9v8.8h-1.7V1022H610.7z"/>
	<path class="st0" d="M616.5,1022v18.7h-1.7V1022H616.5z"/>
	<path class="st0" d="M622.3,1031.3c0,1.3,0.2,2.4,0.5,3.4c0.3,1,0.8,1.8,1.4,2.5c0.6,0.7,1.3,1.2,2.1,1.6c0.8,0.4,1.6,0.6,2.5,0.6
		c0.8,0,1.5-0.2,2.3-0.6c0.7-0.4,1.4-0.9,2-1.5s1.1-1.3,1.4-2.2c0.4-0.8,0.6-1.6,0.6-2.5h-5.8v-1.8h7.4v9.8h-0.9l-0.6-3.3
		c-0.3,0.5-0.7,1-1.2,1.5c-0.5,0.5-1,0.9-1.6,1.2c-0.6,0.4-1.2,0.6-1.8,0.8c-0.6,0.2-1.2,0.3-1.8,0.3c-1.3,0-2.4-0.3-3.5-0.8
		c-1-0.5-1.9-1.2-2.6-2.1c-0.7-0.9-1.3-1.9-1.6-3.1s-0.6-2.5-0.6-3.9c0-1.2,0.2-2.4,0.6-3.6c0.4-1.2,0.9-2.2,1.6-3.2
		c0.7-0.9,1.6-1.7,2.6-2.2c1-0.6,2.2-0.9,3.5-0.9c1.1,0,2,0.2,2.9,0.5c0.9,0.3,1.6,0.7,2.2,1.2s1.2,1.1,1.6,1.9
		c0.4,0.7,0.8,1.5,1,2.4h-1.8c-0.5-1.4-1.2-2.4-2.2-3.1c-1-0.7-2.2-1-3.8-1c-1,0-1.8,0.2-2.6,0.6c-0.8,0.4-1.5,1-2,1.8
		c-0.6,0.7-1,1.6-1.3,2.6C622.5,1029.1,622.3,1030.2,622.3,1031.3z"/>
	<path class="st0" d="M654.1,1040.6v-14.8c-1,1.1-1.9,2-3,2.5c-1,0.5-2.2,0.8-3.5,0.8v-1.9c1.1,0,2-0.2,2.8-0.5
		c0.8-0.4,1.5-0.8,2-1.3c0.5-0.5,0.9-1.1,1.2-1.6c0.3-0.6,0.4-1.1,0.4-1.5h1.6v18.4H654.1z"/>
	<path class="st0" d="M709.6,1031.1c0,1.4,0.2,2.7,0.6,3.7s0.9,1.9,1.5,2.6c0.6,0.7,1.3,1.2,2.1,1.5c0.8,0.3,1.6,0.5,2.4,0.5
		c0.8,0,1.6-0.1,2.3-0.4c0.7-0.3,1.3-0.7,1.8-1.2c0.5-0.5,0.9-1,1.2-1.6c0.3-0.6,0.5-1.3,0.7-1.9h1.7c-0.2,1-0.5,1.9-0.9,2.7
		c-0.4,0.8-1,1.6-1.6,2.2c-0.6,0.6-1.4,1.1-2.2,1.5c-0.9,0.4-1.8,0.5-2.9,0.5c-1.3,0-2.4-0.2-3.4-0.7c-1-0.5-1.9-1.1-2.6-2
		c-0.7-0.9-1.3-1.9-1.6-3.2c-0.4-1.2-0.6-2.7-0.6-4.3c0-1.2,0.2-2.4,0.6-3.6s0.9-2.2,1.6-3.1c0.7-0.9,1.6-1.6,2.6-2.2
		c1-0.5,2.2-0.8,3.5-0.8c1.1,0,2,0.2,2.9,0.5c0.9,0.3,1.6,0.7,2.2,1.2s1.2,1.1,1.6,1.9c0.4,0.7,0.8,1.5,1,2.4H722
		c-0.5-1.4-1.2-2.4-2.2-3.1c-1-0.7-2.2-1-3.8-1c-1,0-1.8,0.2-2.6,0.6c-0.8,0.4-1.5,1-2,1.7s-1,1.6-1.3,2.5
		C709.7,1029,709.6,1030,709.6,1031.1z"/>
	<path class="st0" d="M728.7,1034.3c0,0.6,0.2,1.2,0.4,1.8s0.5,1.1,0.9,1.6c0.4,0.5,0.8,0.8,1.3,1.1c0.5,0.3,1,0.4,1.6,0.4
		c2,0,3.4-0.9,4-2.7h1.5c-0.2,0.7-0.4,1.3-0.8,1.9c-0.4,0.5-0.8,1-1.3,1.4c-0.5,0.4-1,0.7-1.6,0.9c-0.6,0.2-1.2,0.3-1.8,0.3
		c-0.9,0-1.8-0.2-2.5-0.6c-0.7-0.4-1.4-0.9-1.9-1.6c-0.5-0.6-0.9-1.4-1.2-2.3c-0.3-0.9-0.4-1.8-0.4-2.7c0-0.9,0.1-1.8,0.4-2.6
		c0.3-0.8,0.7-1.5,1.2-2.1c0.5-0.6,1.1-1.1,1.9-1.5c0.7-0.4,1.6-0.6,2.5-0.6c0.9,0,1.7,0.2,2.4,0.5c0.7,0.3,1.3,0.8,1.8,1.4
		s0.9,1.3,1.2,2.1s0.4,1.7,0.4,2.6v0.8H728.7z M732.8,1028.7c-0.6,0-1.1,0.1-1.6,0.3c-0.5,0.2-0.9,0.5-1.3,0.9
		c-0.4,0.4-0.6,0.8-0.9,1.3c-0.2,0.5-0.4,1-0.4,1.5h8.2c0-0.6-0.1-1.1-0.3-1.6c-0.2-0.5-0.5-0.9-0.8-1.3c-0.4-0.4-0.8-0.6-1.3-0.9
		S733.4,1028.7,732.8,1028.7z"/>
	<path class="st0" d="M741.8,1027.2h1.7v2c0.8-0.9,1.6-1.5,2.4-1.8c0.9-0.3,1.7-0.5,2.5-0.5c1.2,0,2.2,0.4,2.9,1.1
		c0.7,0.7,1,1.7,1,3v9.6h-1.7v-9.4c0-0.9-0.2-1.6-0.7-2c-0.5-0.4-1.1-0.6-1.9-0.6c-0.6,0-1.2,0.1-1.8,0.3c-0.6,0.2-1,0.5-1.4,0.9
		c-0.4,0.4-0.7,0.8-1,1.2c-0.2,0.5-0.4,0.9-0.4,1.4v8.1h-1.7V1027.2z"/>
	<path class="st0" d="M758.1,1023.2v4h2.1v1.7h-2.1v8.7c0,0.6,0.2,1,0.5,1.2c0.3,0.2,0.7,0.3,1.2,0.3c0.1,0,0.3,0,0.4,0
		c0.1,0,0.2,0,0.4-0.1v1.6c-0.2,0.1-0.5,0.1-0.7,0.1c-0.3,0-0.5,0-0.8,0c-0.7,0-1.3-0.2-1.8-0.6c-0.5-0.4-0.8-1.1-0.8-2v-9.4h-2.1
		v-1.7h2.1v-4H758.1z"/>
	<path class="st0" d="M763.6,1027.2h1.7v2c0.5-0.7,1.1-1.3,1.6-1.7c0.5-0.4,1.2-0.6,1.9-0.6c0.1,0,0.2,0,0.4,0c0.1,0,0.3,0,0.4,0.1
		v2c-0.3-0.1-0.6-0.2-0.8-0.2c-0.5,0-1,0.1-1.5,0.3c-0.4,0.2-0.8,0.5-1.1,0.8c-0.3,0.3-0.5,0.7-0.7,1.1s-0.2,0.9-0.2,1.4v8.1h-1.7
		V1027.2z"/>
	<path class="st0" d="M772.4,1030.8c0-0.7,0.2-1.2,0.5-1.7c0.3-0.5,0.7-0.9,1.2-1.2c0.5-0.3,1-0.5,1.6-0.7c0.6-0.2,1.2-0.2,1.8-0.2
		c0.6,0,1.3,0.1,1.9,0.2c0.6,0.1,1.1,0.4,1.6,0.7c0.5,0.3,0.8,0.7,1.1,1.2c0.3,0.5,0.4,1.1,0.4,1.8v7.1c0,0.3,0.1,0.5,0.3,0.8
		c0.2,0.2,0.5,0.4,0.8,0.4c0.1,0,0.2,0,0.3,0c0.1,0,0.1,0,0.2,0v1.6c-0.4,0.1-0.9,0.2-1.2,0.2c-0.3,0-0.5-0.1-0.8-0.2
		s-0.5-0.3-0.7-0.5c-0.2-0.2-0.3-0.5-0.5-0.8c-0.1-0.3-0.2-0.7-0.2-1c-0.8,1-1.7,1.7-2.5,2.1c-0.8,0.3-1.7,0.5-2.5,0.5
		c-0.5,0-1-0.1-1.5-0.3c-0.5-0.2-0.9-0.4-1.2-0.8c-0.3-0.3-0.6-0.7-0.8-1.2c-0.2-0.5-0.3-1-0.3-1.6c0-0.7,0.2-1.3,0.6-1.8
		c0.4-0.5,1-0.8,1.6-1.2c0.7-0.3,1.4-0.6,2.1-0.8s1.5-0.4,2.1-0.6c0.7-0.2,1.2-0.5,1.6-0.7c0.4-0.3,0.6-0.6,0.6-1.1
		c0-0.8-0.3-1.3-0.9-1.7c-0.6-0.3-1.4-0.5-2.5-0.5c-0.8,0-1.6,0.2-2.2,0.5c-0.6,0.3-1,0.9-1.1,1.6H772.4z M780.8,1033.1
		c-0.2,0.3-0.6,0.5-1,0.7c-0.5,0.2-0.9,0.4-1.5,0.5c-0.5,0.1-1.1,0.3-1.6,0.4c-0.6,0.1-1.1,0.3-1.5,0.5c-0.5,0.2-0.8,0.4-1.1,0.7
		c-0.3,0.3-0.4,0.6-0.4,1c0,0.4,0.1,0.7,0.2,1c0.1,0.3,0.3,0.5,0.6,0.7c0.2,0.2,0.5,0.3,0.8,0.4c0.3,0.1,0.6,0.1,0.9,0.1
		c0.9,0,1.7-0.2,2.5-0.8c0.8-0.5,1.5-1.3,2.2-2.3V1033.1z"/>
	<path class="st0" d="M789.4,1021.9v18.8h-1.7v-18.8H789.4z"/>
	<path class="st0" d="M795.2,1021.9v2.3h-1.7v-2.3H795.2z M795.2,1027.2v13.4h-1.7v-13.4H795.2z"/>
	<path class="st0" d="M809.1,1027.2v1.9l-8.1,9.7h8.1v1.8h-10.4v-1.8l8-9.7h-8v-1.9H809.1z"/>
	<path class="st0" d="M814.1,1034.3c0,0.6,0.2,1.2,0.4,1.8s0.5,1.1,0.9,1.6c0.4,0.5,0.8,0.8,1.3,1.1c0.5,0.3,1,0.4,1.6,0.4
		c2,0,3.4-0.9,4-2.7h1.5c-0.2,0.7-0.4,1.3-0.8,1.9c-0.4,0.5-0.8,1-1.3,1.4c-0.5,0.4-1,0.7-1.6,0.9c-0.6,0.2-1.2,0.3-1.8,0.3
		c-0.9,0-1.8-0.2-2.5-0.6c-0.7-0.4-1.4-0.9-1.9-1.6c-0.5-0.6-0.9-1.4-1.2-2.3c-0.3-0.9-0.4-1.8-0.4-2.7c0-0.9,0.1-1.8,0.4-2.6
		c0.3-0.8,0.7-1.5,1.2-2.1c0.5-0.6,1.1-1.1,1.9-1.5c0.7-0.4,1.6-0.6,2.5-0.6c0.9,0,1.7,0.2,2.4,0.5c0.7,0.3,1.3,0.8,1.8,1.4
		s0.9,1.3,1.2,2.1s0.4,1.7,0.4,2.6v0.8H814.1z M818.2,1028.7c-0.6,0-1.1,0.1-1.6,0.3c-0.5,0.2-0.9,0.5-1.3,0.9
		c-0.4,0.4-0.6,0.8-0.9,1.3c-0.2,0.5-0.4,1-0.4,1.5h8.2c0-0.6-0.1-1.1-0.3-1.6c-0.2-0.5-0.5-0.9-0.8-1.3c-0.4-0.4-0.8-0.6-1.3-0.9
		S818.8,1028.7,818.2,1028.7z"/>
	<path class="st0" d="M838.2,1040.6h-1.6v-2c-0.6,0.9-1.2,1.5-1.9,1.8s-1.4,0.5-2,0.5c-0.9,0-1.7-0.2-2.3-0.5
		c-0.7-0.4-1.3-0.9-1.7-1.5c-0.5-0.6-0.8-1.4-1-2.2c-0.2-0.8-0.3-1.8-0.3-2.7s0.1-1.9,0.3-2.7c0.2-0.8,0.6-1.6,1-2.2s1-1.1,1.7-1.5
		c0.7-0.4,1.4-0.6,2.3-0.6c0.6,0,1.3,0.2,2,0.5c0.7,0.3,1.4,0.9,2,1.7v-7.3h1.6V1040.6z M836.6,1033.8c-0.1-0.6-0.2-1.3-0.4-1.9
		c-0.2-0.6-0.5-1.1-0.8-1.6c-0.3-0.5-0.7-0.8-1.2-1.1c-0.4-0.3-0.9-0.4-1.5-0.4c-0.6,0-1.1,0.1-1.6,0.4c-0.5,0.3-0.9,0.7-1.2,1.1
		c-0.3,0.5-0.6,1-0.8,1.7c-0.2,0.6-0.3,1.3-0.3,2s0.1,1.4,0.3,2s0.4,1.2,0.8,1.6c0.3,0.5,0.7,0.8,1.2,1.1s1,0.4,1.6,0.4
		c0.6,0,1.1-0.1,1.6-0.4s0.9-0.6,1.2-1.1c0.3-0.5,0.6-1,0.8-1.6s0.3-1.3,0.3-2V1033.8z"/>
	<path class="st0" d="M848,1022h6.8c1.2,0,2.3,0.2,3.3,0.7c1,0.5,1.8,1.2,2.5,2c0.7,0.9,1.2,1.8,1.6,3c0.4,1.1,0.6,2.3,0.6,3.6
		c0,1.3-0.2,2.6-0.6,3.7c-0.4,1.1-0.9,2.1-1.6,3c-0.7,0.8-1.5,1.5-2.5,2c-1,0.5-2,0.7-3.2,0.7H848V1022z M849.7,1038.8h4.3
		c1,0,2-0.2,2.8-0.5s1.6-0.8,2.2-1.5c0.6-0.6,1.1-1.4,1.5-2.4c0.3-0.9,0.5-2,0.5-3.2c0-1.3-0.2-2.4-0.5-3.3
		c-0.4-0.9-0.8-1.7-1.5-2.3c-0.6-0.6-1.4-1.1-2.2-1.4s-1.8-0.5-2.8-0.5h-4.3V1038.8z"/>
	<path class="st0" d="M867.6,1034.3c0,0.6,0.2,1.2,0.4,1.8s0.5,1.1,0.9,1.6c0.4,0.5,0.8,0.8,1.3,1.1c0.5,0.3,1,0.4,1.6,0.4
		c2,0,3.4-0.9,4-2.7h1.5c-0.2,0.7-0.4,1.3-0.8,1.9c-0.4,0.5-0.8,1-1.3,1.4c-0.5,0.4-1,0.7-1.6,0.9c-0.6,0.2-1.2,0.3-1.8,0.3
		c-0.9,0-1.8-0.2-2.5-0.6c-0.7-0.4-1.4-0.9-1.9-1.6c-0.5-0.6-0.9-1.4-1.2-2.3c-0.3-0.9-0.4-1.8-0.4-2.7c0-0.9,0.1-1.8,0.4-2.6
		c0.3-0.8,0.7-1.5,1.2-2.1c0.5-0.6,1.1-1.1,1.9-1.5c0.7-0.4,1.6-0.6,2.5-0.6c0.9,0,1.7,0.2,2.4,0.5c0.7,0.3,1.3,0.8,1.8,1.4
		s0.9,1.3,1.2,2.1s0.4,1.7,0.4,2.6v0.8H867.6z M871.7,1028.7c-0.6,0-1.1,0.1-1.6,0.3c-0.5,0.2-0.9,0.5-1.3,0.9
		c-0.4,0.4-0.6,0.8-0.9,1.3c-0.2,0.5-0.4,1-0.4,1.5h8.2c0-0.6-0.1-1.1-0.3-1.6c-0.2-0.5-0.5-0.9-0.8-1.3c-0.4-0.4-0.8-0.6-1.3-0.9
		S872.3,1028.7,871.7,1028.7z"/>
	<path class="st0" d="M890,1031.3c-0.3-1-0.7-1.6-1.2-2c-0.6-0.4-1.3-0.6-2.2-0.6c-0.6,0-1.2,0.1-1.7,0.4c-0.5,0.3-0.9,0.6-1.3,1.1
		c-0.4,0.5-0.6,1-0.8,1.6c-0.2,0.6-0.3,1.2-0.3,1.9c0,0.7,0.1,1.4,0.3,2c0.2,0.7,0.5,1.2,0.8,1.7c0.3,0.5,0.8,0.9,1.3,1.2
		c0.5,0.3,1.1,0.5,1.7,0.5c0.5,0,0.9-0.1,1.4-0.3c0.4-0.2,0.7-0.4,1-0.7c0.3-0.3,0.5-0.6,0.7-1c0.2-0.4,0.3-0.8,0.4-1.2h1.9
		c-0.2,1.6-0.8,2.8-1.7,3.7c-0.9,0.9-2.2,1.3-3.7,1.3c-1,0-1.8-0.2-2.5-0.6c-0.7-0.4-1.3-1-1.7-1.7c-0.5-0.7-0.8-1.5-1-2.3
		c-0.2-0.9-0.3-1.7-0.3-2.6c0-0.9,0.1-1.8,0.4-2.6c0.3-0.8,0.7-1.5,1.2-2.1c0.5-0.6,1.1-1.1,1.8-1.4c0.7-0.3,1.5-0.5,2.4-0.5
		c0.8,0,1.4,0.1,2,0.3c0.6,0.2,1.1,0.5,1.6,0.9c0.4,0.4,0.8,0.9,1.1,1.4c0.3,0.5,0.5,1.1,0.6,1.7H890z"/>
	<path class="st0" d="M896.7,1034.3c0,0.6,0.2,1.2,0.4,1.8s0.5,1.1,0.9,1.6c0.4,0.5,0.8,0.8,1.3,1.1c0.5,0.3,1,0.4,1.6,0.4
		c2,0,3.4-0.9,4-2.7h1.5c-0.2,0.7-0.4,1.3-0.8,1.9c-0.4,0.5-0.8,1-1.3,1.4c-0.5,0.4-1,0.7-1.6,0.9c-0.6,0.2-1.2,0.3-1.8,0.3
		c-0.9,0-1.8-0.2-2.5-0.6c-0.7-0.4-1.4-0.9-1.9-1.6c-0.5-0.6-0.9-1.4-1.2-2.3c-0.3-0.9-0.4-1.8-0.4-2.7c0-0.9,0.1-1.8,0.4-2.6
		c0.3-0.8,0.7-1.5,1.2-2.1c0.5-0.6,1.1-1.1,1.9-1.5c0.7-0.4,1.6-0.6,2.5-0.6c0.9,0,1.7,0.2,2.4,0.5c0.7,0.3,1.3,0.8,1.8,1.4
		s0.9,1.3,1.2,2.1s0.4,1.7,0.4,2.6v0.8H896.7z M900.8,1028.7c-0.6,0-1.1,0.1-1.6,0.3c-0.5,0.2-0.9,0.5-1.3,0.9
		c-0.4,0.4-0.6,0.8-0.9,1.3c-0.2,0.5-0.4,1-0.4,1.5h8.2c0-0.6-0.1-1.1-0.3-1.6c-0.2-0.5-0.5-0.9-0.8-1.3c-0.4-0.4-0.8-0.6-1.3-0.9
		S901.4,1028.7,900.8,1028.7z"/>
	<path class="st0" d="M909.9,1027.2h1.7v2c0.8-0.9,1.6-1.5,2.4-1.8c0.9-0.3,1.7-0.5,2.5-0.5c1.2,0,2.2,0.4,2.9,1.1
		c0.7,0.7,1,1.7,1,3v9.6h-1.7v-9.4c0-0.9-0.2-1.6-0.7-2c-0.5-0.4-1.1-0.6-1.9-0.6c-0.6,0-1.2,0.1-1.8,0.3c-0.6,0.2-1,0.5-1.4,0.9
		c-0.4,0.4-0.7,0.8-1,1.2c-0.2,0.5-0.4,0.9-0.4,1.4v8.1h-1.7V1027.2z"/>
	<path class="st0" d="M926.2,1023.2v4h2.1v1.7h-2.1v8.7c0,0.6,0.2,1,0.5,1.2c0.3,0.2,0.7,0.3,1.2,0.3c0.1,0,0.3,0,0.4,0
		c0.1,0,0.2,0,0.4-0.1v1.6c-0.2,0.1-0.5,0.1-0.7,0.1c-0.3,0-0.5,0-0.8,0c-0.7,0-1.3-0.2-1.8-0.6c-0.5-0.4-0.8-1.1-0.8-2v-9.4h-2.1
		v-1.7h2.1v-4H926.2z"/>
	<path class="st0" d="M931.7,1027.2h1.7v2c0.5-0.7,1.1-1.3,1.6-1.7c0.5-0.4,1.2-0.6,1.9-0.6c0.1,0,0.2,0,0.4,0c0.1,0,0.3,0,0.4,0.1
		v2c-0.3-0.1-0.6-0.2-0.8-0.2c-0.5,0-1,0.1-1.5,0.3c-0.4,0.2-0.8,0.5-1.1,0.8c-0.3,0.3-0.5,0.7-0.7,1.1s-0.2,0.9-0.2,1.4v8.1h-1.7
		V1027.2z"/>
	<path class="st0" d="M940.4,1030.8c0-0.7,0.2-1.2,0.5-1.7c0.3-0.5,0.7-0.9,1.2-1.2c0.5-0.3,1-0.5,1.6-0.7c0.6-0.2,1.2-0.2,1.8-0.2
		c0.6,0,1.3,0.1,1.9,0.2c0.6,0.1,1.2,0.4,1.6,0.7c0.5,0.3,0.8,0.7,1.1,1.2s0.4,1.1,0.4,1.8v7.1c0,0.3,0.1,0.5,0.3,0.8
		s0.5,0.4,0.8,0.4c0.1,0,0.2,0,0.3,0c0.1,0,0.1,0,0.2,0v1.6c-0.4,0.1-0.9,0.2-1.2,0.2c-0.3,0-0.5-0.1-0.8-0.2s-0.5-0.3-0.7-0.5
		c-0.2-0.2-0.3-0.5-0.5-0.8c-0.1-0.3-0.2-0.7-0.2-1c-0.8,1-1.7,1.7-2.5,2.1c-0.8,0.3-1.7,0.5-2.5,0.5c-0.5,0-1-0.1-1.5-0.3
		s-0.9-0.4-1.2-0.8c-0.3-0.3-0.6-0.7-0.8-1.2c-0.2-0.5-0.3-1-0.3-1.6c0-0.7,0.2-1.3,0.6-1.8c0.4-0.5,1-0.8,1.6-1.2
		c0.7-0.3,1.4-0.6,2.1-0.8s1.5-0.4,2.1-0.6s1.2-0.5,1.6-0.7c0.4-0.3,0.6-0.6,0.6-1.1c0-0.8-0.3-1.3-0.9-1.7
		c-0.6-0.3-1.4-0.5-2.5-0.5c-0.8,0-1.6,0.2-2.2,0.5c-0.6,0.3-1,0.9-1.1,1.6H940.4z M948.9,1033.1c-0.2,0.3-0.6,0.5-1,0.7
		c-0.5,0.2-0.9,0.4-1.5,0.5c-0.5,0.1-1.1,0.3-1.6,0.4c-0.6,0.1-1,0.3-1.5,0.5c-0.5,0.2-0.8,0.4-1.1,0.7c-0.3,0.3-0.4,0.6-0.4,1
		c0,0.4,0.1,0.7,0.2,1c0.1,0.3,0.3,0.5,0.6,0.7s0.5,0.3,0.8,0.4s0.6,0.1,0.9,0.1c0.9,0,1.7-0.2,2.5-0.8s1.5-1.3,2.2-2.3V1033.1z"/>
	<path class="st0" d="M957.5,1021.9v18.8h-1.7v-18.8H957.5z"/>
	<path class="st0" d="M963.2,1021.9v2.3h-1.7v-2.3H963.2z M963.2,1027.2v13.4h-1.7v-13.4H963.2z"/>
	<path class="st0" d="M977.2,1027.2v1.9l-8.1,9.7h8.1v1.8h-10.4v-1.8l8-9.7h-8v-1.9H977.2z"/>
	<path class="st0" d="M982.1,1034.3c0,0.6,0.2,1.2,0.4,1.8c0.2,0.6,0.5,1.1,0.9,1.6c0.4,0.5,0.8,0.8,1.3,1.1s1,0.4,1.6,0.4
		c2,0,3.4-0.9,4-2.7h1.5c-0.2,0.7-0.4,1.3-0.8,1.9s-0.8,1-1.3,1.4s-1,0.7-1.6,0.9c-0.6,0.2-1.2,0.3-1.8,0.3c-0.9,0-1.8-0.2-2.5-0.6
		c-0.7-0.4-1.4-0.9-1.9-1.6c-0.5-0.6-0.9-1.4-1.2-2.3s-0.4-1.8-0.4-2.7c0-0.9,0.1-1.8,0.4-2.6c0.3-0.8,0.7-1.5,1.2-2.1
		c0.5-0.6,1.1-1.1,1.9-1.5c0.7-0.4,1.6-0.6,2.5-0.6c0.9,0,1.7,0.2,2.4,0.5s1.3,0.8,1.8,1.4c0.5,0.6,0.9,1.3,1.2,2.1
		c0.3,0.8,0.4,1.7,0.4,2.6v0.8H982.1z M986.2,1028.7c-0.6,0-1.1,0.1-1.6,0.3c-0.5,0.2-0.9,0.5-1.3,0.9c-0.4,0.4-0.7,0.8-0.9,1.3
		c-0.2,0.5-0.4,1-0.4,1.5h8.2c0-0.6-0.1-1.1-0.3-1.6c-0.2-0.5-0.5-0.9-0.8-1.3c-0.4-0.4-0.8-0.6-1.3-0.9S986.8,1028.7,986.2,1028.7z
		"/>
	<path class="st0" d="M1006.3,1040.6h-1.6v-2c-0.6,0.9-1.2,1.5-1.9,1.8s-1.4,0.5-2,0.5c-0.9,0-1.7-0.2-2.3-0.5
		c-0.7-0.4-1.2-0.9-1.7-1.5c-0.5-0.6-0.8-1.4-1-2.2c-0.2-0.8-0.3-1.8-0.3-2.7s0.1-1.9,0.3-2.7c0.2-0.8,0.6-1.6,1-2.2s1-1.1,1.7-1.5
		s1.4-0.6,2.3-0.6c0.6,0,1.3,0.2,2,0.5c0.7,0.3,1.4,0.9,2,1.7v-7.3h1.6V1040.6z M1004.6,1033.8c-0.1-0.6-0.2-1.3-0.4-1.9
		c-0.2-0.6-0.5-1.1-0.8-1.6c-0.3-0.5-0.7-0.8-1.2-1.1c-0.4-0.3-0.9-0.4-1.5-0.4c-0.6,0-1.1,0.1-1.6,0.4c-0.5,0.3-0.9,0.7-1.2,1.1
		c-0.3,0.5-0.6,1-0.8,1.7c-0.2,0.6-0.3,1.3-0.3,2s0.1,1.4,0.3,2c0.2,0.6,0.4,1.2,0.8,1.6c0.3,0.5,0.7,0.8,1.2,1.1
		c0.5,0.3,1,0.4,1.6,0.4c0.6,0,1.1-0.1,1.6-0.4c0.5-0.3,0.9-0.6,1.2-1.1c0.3-0.5,0.6-1,0.8-1.6c0.2-0.6,0.3-1.3,0.3-2V1033.8z"/>
	<path class="st0" d="M1016.4,1030.8c0-0.7,0.2-1.2,0.5-1.7c0.3-0.5,0.7-0.9,1.2-1.2c0.5-0.3,1-0.5,1.6-0.7c0.6-0.2,1.2-0.2,1.8-0.2
		c0.6,0,1.3,0.1,1.9,0.2c0.6,0.1,1.2,0.4,1.6,0.7c0.5,0.3,0.8,0.7,1.1,1.2s0.4,1.1,0.4,1.8v7.1c0,0.3,0.1,0.5,0.3,0.8
		s0.5,0.4,0.8,0.4c0.1,0,0.2,0,0.3,0c0.1,0,0.1,0,0.2,0v1.6c-0.4,0.1-0.9,0.2-1.2,0.2c-0.3,0-0.5-0.1-0.8-0.2s-0.5-0.3-0.7-0.5
		c-0.2-0.2-0.3-0.5-0.5-0.8c-0.1-0.3-0.2-0.7-0.2-1c-0.8,1-1.7,1.7-2.5,2.1c-0.8,0.3-1.7,0.5-2.5,0.5c-0.5,0-1-0.1-1.5-0.3
		s-0.9-0.4-1.2-0.8c-0.3-0.3-0.6-0.7-0.8-1.2c-0.2-0.5-0.3-1-0.3-1.6c0-0.7,0.2-1.3,0.6-1.8c0.4-0.5,1-0.8,1.6-1.2
		c0.7-0.3,1.4-0.6,2.1-0.8s1.5-0.4,2.1-0.6s1.2-0.5,1.6-0.7c0.4-0.3,0.6-0.6,0.6-1.1c0-0.8-0.3-1.3-0.9-1.7
		c-0.6-0.3-1.4-0.5-2.5-0.5c-0.8,0-1.6,0.2-2.2,0.5c-0.6,0.3-1,0.9-1.1,1.6H1016.4z M1024.8,1033.1c-0.2,0.3-0.6,0.5-1,0.7
		c-0.5,0.2-0.9,0.4-1.5,0.5c-0.5,0.1-1.1,0.3-1.6,0.4c-0.6,0.1-1,0.3-1.5,0.5c-0.5,0.2-0.8,0.4-1.1,0.7c-0.3,0.3-0.4,0.6-0.4,1
		c0,0.4,0.1,0.7,0.2,1c0.1,0.3,0.3,0.5,0.6,0.7s0.5,0.3,0.8,0.4s0.6,0.1,0.9,0.1c0.9,0,1.7-0.2,2.5-0.8s1.5-1.3,2.2-2.3V1033.1z"/>
	<path class="st0" d="M1031.3,1027.2h1.7v2c0.8-0.9,1.6-1.5,2.4-1.8c0.9-0.3,1.7-0.5,2.5-0.5c1.2,0,2.2,0.4,2.8,1.1s1,1.7,1,3v9.6
		h-1.7v-9.4c0-0.9-0.2-1.6-0.7-2c-0.5-0.4-1.1-0.6-1.9-0.6c-0.6,0-1.2,0.1-1.8,0.3s-1,0.5-1.4,0.9c-0.4,0.4-0.7,0.8-1,1.2
		s-0.4,0.9-0.4,1.4v8.1h-1.7V1027.2z"/>
	<path class="st0" d="M1055.9,1040.6h-1.6v-2c-0.6,0.9-1.2,1.5-1.9,1.8s-1.4,0.5-2,0.5c-0.9,0-1.7-0.2-2.3-0.5
		c-0.7-0.4-1.2-0.9-1.7-1.5c-0.5-0.6-0.8-1.4-1-2.2c-0.2-0.8-0.3-1.8-0.3-2.7s0.1-1.9,0.3-2.7c0.2-0.8,0.6-1.6,1-2.2s1-1.1,1.7-1.5
		s1.4-0.6,2.3-0.6c0.6,0,1.3,0.2,2,0.5c0.7,0.3,1.4,0.9,2,1.7v-7.3h1.6V1040.6z M1054.2,1033.8c-0.1-0.6-0.2-1.3-0.4-1.9
		c-0.2-0.6-0.5-1.1-0.8-1.6c-0.3-0.5-0.7-0.8-1.2-1.1c-0.4-0.3-0.9-0.4-1.5-0.4c-0.6,0-1.1,0.1-1.6,0.4c-0.5,0.3-0.9,0.7-1.2,1.1
		c-0.3,0.5-0.6,1-0.8,1.7c-0.2,0.6-0.3,1.3-0.3,2s0.1,1.4,0.3,2c0.2,0.6,0.4,1.2,0.8,1.6c0.3,0.5,0.7,0.8,1.2,1.1
		c0.5,0.3,1,0.4,1.6,0.4c0.6,0,1.1-0.1,1.6-0.4c0.5-0.3,0.9-0.6,1.2-1.1c0.3-0.5,0.6-1,0.8-1.6c0.2-0.6,0.3-1.3,0.3-2V1033.8z"/>
	<path class="st0" d="M1065.6,1022h6.8c1.2,0,2.3,0.2,3.3,0.7c1,0.5,1.8,1.2,2.5,2c0.7,0.9,1.2,1.8,1.6,3s0.6,2.3,0.6,3.6
		c0,1.3-0.2,2.6-0.6,3.7c-0.4,1.1-0.9,2.1-1.6,3s-1.5,1.5-2.5,2c-1,0.5-2,0.7-3.2,0.7h-6.8V1022z M1067.3,1038.8h4.3
		c1,0,2-0.2,2.8-0.5c0.8-0.3,1.6-0.8,2.2-1.5c0.6-0.6,1.1-1.4,1.5-2.4s0.5-2,0.5-3.2c0-1.3-0.2-2.4-0.5-3.3
		c-0.3-0.9-0.8-1.7-1.5-2.3s-1.4-1.1-2.2-1.4c-0.9-0.3-1.8-0.5-2.8-0.5h-4.3V1038.8z"/>
	<path class="st0" d="M1085.6,1021.9v2.3h-1.7v-2.3H1085.6z M1085.6,1027.2v13.4h-1.7v-13.4H1085.6z"/>
	<path class="st0" d="M1090.9,1036.5c0,1,0.3,1.7,0.9,2.1c0.6,0.4,1.4,0.6,2.3,0.6c0.4,0,0.7,0,1.2-0.1c0.4-0.1,0.8-0.2,1.1-0.3
		c0.3-0.2,0.6-0.4,0.9-0.7c0.2-0.3,0.3-0.6,0.3-1c0-0.3-0.1-0.6-0.3-0.9c-0.2-0.2-0.5-0.5-0.8-0.7s-0.7-0.4-1.1-0.5
		s-0.9-0.3-1.3-0.5c-0.5-0.2-1-0.4-1.6-0.6c-0.5-0.2-1-0.5-1.4-0.8c-0.4-0.3-0.8-0.7-1.1-1.1c-0.3-0.4-0.4-0.9-0.4-1.5
		s0.1-1.1,0.4-1.5c0.2-0.4,0.6-0.8,1-1.1s0.9-0.5,1.4-0.6c0.5-0.1,1.1-0.2,1.7-0.2c1.3,0,2.4,0.3,3.3,0.9c0.9,0.6,1.4,1.5,1.5,2.7
		h-1.7c-0.1-0.7-0.4-1.2-1-1.5c-0.6-0.3-1.3-0.4-2.1-0.4c-0.9,0-1.6,0.2-2.1,0.5c-0.5,0.3-0.7,0.8-0.7,1.3c0,0.3,0.1,0.6,0.3,0.8
		c0.2,0.2,0.5,0.4,0.8,0.6c0.3,0.2,0.7,0.4,1.1,0.6s0.9,0.3,1.3,0.5c0.5,0.2,1,0.4,1.5,0.6c0.5,0.2,1,0.5,1.4,0.8
		c0.4,0.3,0.8,0.7,1,1c0.3,0.4,0.4,0.9,0.4,1.4c0,0.7-0.1,1.3-0.4,1.9c-0.3,0.5-0.7,0.9-1.1,1.3c-0.5,0.3-1,0.6-1.7,0.7
		s-1.3,0.2-2,0.2c-0.7,0-1.3-0.1-1.9-0.3s-1.1-0.5-1.6-0.8s-0.8-0.8-1.1-1.4c-0.3-0.5-0.4-1.2-0.5-1.9H1090.9z"/>
	<path class="st0" d="M1105.2,1023.2v4h2.1v1.7h-2.1v8.7c0,0.6,0.2,1,0.5,1.2c0.3,0.2,0.7,0.3,1.2,0.3c0.1,0,0.3,0,0.4,0
		s0.2,0,0.4-0.1v1.6c-0.2,0.1-0.5,0.1-0.7,0.1c-0.3,0-0.5,0-0.8,0c-0.7,0-1.3-0.2-1.8-0.6c-0.5-0.4-0.8-1.1-0.8-2v-9.4h-2.1v-1.7
		h2.1v-4H1105.2z"/>
	<path class="st0" d="M1110.7,1027.2h1.7v2c0.5-0.7,1.1-1.3,1.6-1.7c0.5-0.4,1.2-0.6,1.9-0.6c0.1,0,0.2,0,0.4,0c0.1,0,0.3,0,0.4,0.1
		v2c-0.3-0.1-0.6-0.2-0.8-0.2c-0.5,0-1,0.1-1.5,0.3c-0.4,0.2-0.8,0.5-1.1,0.8c-0.3,0.3-0.5,0.7-0.7,1.1s-0.2,0.9-0.2,1.4v8.1h-1.7
		V1027.2z"/>
	<path class="st0" d="M1121.3,1021.9v2.3h-1.7v-2.3H1121.3z M1121.3,1027.2v13.4h-1.7v-13.4H1121.3z"/>
	<path class="st0" d="M1124.8,1021.9h1.7v7.3c0.6-0.8,1.2-1.3,2-1.7c0.7-0.3,1.4-0.5,2-0.5c0.9,0,1.7,0.2,2.4,0.6s1.2,0.9,1.7,1.5
		c0.5,0.6,0.8,1.4,1,2.2c0.2,0.9,0.3,1.8,0.3,2.7s-0.1,1.9-0.3,2.7c-0.2,0.9-0.6,1.6-1,2.2c-0.5,0.6-1,1.1-1.7,1.5
		c-0.7,0.4-1.5,0.5-2.4,0.5c-0.6,0-1.3-0.2-2-0.5s-1.3-0.9-1.9-1.8v2h-1.7V1021.9z M1126.5,1034c0,0.7,0.1,1.4,0.3,2
		c0.2,0.6,0.4,1.2,0.8,1.6c0.3,0.5,0.7,0.8,1.2,1.1s1,0.4,1.6,0.4s1.1-0.1,1.6-0.4c0.5-0.3,0.9-0.6,1.2-1.1c0.3-0.5,0.6-1,0.8-1.6
		c0.2-0.6,0.3-1.3,0.3-2s-0.1-1.4-0.3-2c-0.2-0.6-0.4-1.2-0.8-1.7c-0.3-0.5-0.7-0.8-1.2-1.1c-0.5-0.3-1-0.4-1.6-0.4
		c-0.6,0-1.1,0.1-1.5,0.4c-0.4,0.3-0.8,0.7-1.1,1.1c-0.3,0.5-0.6,1-0.8,1.6c-0.2,0.6-0.3,1.2-0.4,1.9V1034z"/>
	<path class="st0" d="M1149.4,1040.4h-1.7v-2c-0.4,0.5-0.8,0.9-1.2,1.2c-0.4,0.3-0.8,0.5-1.2,0.7c-0.4,0.2-0.8,0.3-1.3,0.3
		c-0.4,0.1-0.8,0.1-1.2,0.1c-1.2,0-2.2-0.4-2.8-1.1c-0.7-0.7-1-1.7-1-3v-9.6h1.7v9.4c0,0.9,0.2,1.6,0.7,2s1.1,0.6,1.9,0.6
		c0.6,0,1.2-0.1,1.8-0.3s1-0.5,1.4-0.9c0.4-0.4,0.7-0.8,1-1.2c0.2-0.5,0.4-0.9,0.4-1.4v-8h1.7V1040.4z"/>
	<path class="st0" d="M1155.3,1023.2v4h2.1v1.7h-2.1v8.7c0,0.6,0.2,1,0.5,1.2c0.3,0.2,0.7,0.3,1.2,0.3c0.1,0,0.3,0,0.4,0
		s0.2,0,0.4-0.1v1.6c-0.2,0.1-0.5,0.1-0.7,0.1c-0.3,0-0.5,0-0.8,0c-0.7,0-1.3-0.2-1.8-0.6c-0.5-0.4-0.8-1.1-0.8-2v-9.4h-2.1v-1.7
		h2.1v-4H1155.3z"/>
	<path class="st0" d="M1162.6,1034.3c0,0.6,0.2,1.2,0.4,1.8c0.2,0.6,0.5,1.1,0.9,1.6c0.4,0.5,0.8,0.8,1.3,1.1s1,0.4,1.6,0.4
		c2,0,3.4-0.9,4-2.7h1.5c-0.2,0.7-0.4,1.3-0.8,1.9s-0.8,1-1.3,1.4s-1,0.7-1.6,0.9c-0.6,0.2-1.2,0.3-1.8,0.3c-0.9,0-1.8-0.2-2.5-0.6
		c-0.7-0.4-1.4-0.9-1.9-1.6c-0.5-0.6-0.9-1.4-1.2-2.3s-0.4-1.8-0.4-2.7c0-0.9,0.1-1.8,0.4-2.6c0.3-0.8,0.7-1.5,1.2-2.1
		c0.5-0.6,1.1-1.1,1.9-1.5c0.7-0.4,1.6-0.6,2.5-0.6c0.9,0,1.7,0.2,2.4,0.5s1.3,0.8,1.8,1.4c0.5,0.6,0.9,1.3,1.2,2.1
		c0.3,0.8,0.4,1.7,0.4,2.6v0.8H1162.6z M1166.6,1028.7c-0.6,0-1.1,0.1-1.6,0.3c-0.5,0.2-0.9,0.5-1.3,0.9c-0.4,0.4-0.7,0.8-0.9,1.3
		c-0.2,0.5-0.4,1-0.4,1.5h8.2c0-0.6-0.1-1.1-0.3-1.6c-0.2-0.5-0.5-0.9-0.8-1.3c-0.4-0.4-0.8-0.6-1.3-0.9
		S1167.3,1028.7,1166.6,1028.7z"/>
	<path class="st0" d="M1186.7,1040.6h-1.6v-2c-0.6,0.9-1.2,1.5-1.9,1.8s-1.4,0.5-2,0.5c-0.9,0-1.7-0.2-2.3-0.5
		c-0.7-0.4-1.2-0.9-1.7-1.5c-0.5-0.6-0.8-1.4-1-2.2c-0.2-0.8-0.3-1.8-0.3-2.7s0.1-1.9,0.3-2.7c0.2-0.8,0.6-1.6,1-2.2s1-1.1,1.7-1.5
		s1.4-0.6,2.3-0.6c0.6,0,1.3,0.2,2,0.5c0.7,0.3,1.4,0.9,2,1.7v-7.3h1.6V1040.6z M1185.1,1033.8c-0.1-0.6-0.2-1.3-0.4-1.9
		c-0.2-0.6-0.5-1.1-0.8-1.6c-0.3-0.5-0.7-0.8-1.2-1.1c-0.4-0.3-0.9-0.4-1.5-0.4c-0.6,0-1.1,0.1-1.6,0.4c-0.5,0.3-0.9,0.7-1.2,1.1
		c-0.3,0.5-0.6,1-0.8,1.7c-0.2,0.6-0.3,1.3-0.3,2s0.1,1.4,0.3,2c0.2,0.6,0.4,1.2,0.8,1.6c0.3,0.5,0.7,0.8,1.2,1.1
		c0.5,0.3,1,0.4,1.6,0.4c0.6,0,1.1-0.1,1.6-0.4c0.5-0.3,0.9-0.6,1.2-1.1c0.3-0.5,0.6-1,0.8-1.6c0.2-0.6,0.3-1.3,0.3-2V1033.8z"/>
	<path class="st0" d="M1198.9,1022l9.8,16.4V1022h1.7v18.7h-2.4l-9.8-16.5v16.5h-1.7V1022H1198.9z"/>
	<path class="st0" d="M1215.2,1034.3c0,0.6,0.2,1.2,0.4,1.8c0.2,0.6,0.5,1.1,0.9,1.6c0.4,0.5,0.8,0.8,1.3,1.1s1,0.4,1.6,0.4
		c2,0,3.4-0.9,4-2.7h1.5c-0.2,0.7-0.4,1.3-0.8,1.9s-0.8,1-1.3,1.4s-1,0.7-1.6,0.9c-0.6,0.2-1.2,0.3-1.8,0.3c-0.9,0-1.8-0.2-2.5-0.6
		c-0.7-0.4-1.4-0.9-1.9-1.6c-0.5-0.6-0.9-1.4-1.2-2.3s-0.4-1.8-0.4-2.7c0-0.9,0.1-1.8,0.4-2.6c0.3-0.8,0.7-1.5,1.2-2.1
		c0.5-0.6,1.1-1.1,1.9-1.5c0.7-0.4,1.6-0.6,2.5-0.6c0.9,0,1.7,0.2,2.4,0.5s1.3,0.8,1.8,1.4c0.5,0.6,0.9,1.3,1.2,2.1
		c0.3,0.8,0.4,1.7,0.4,2.6v0.8H1215.2z M1219.3,1028.7c-0.6,0-1.1,0.1-1.6,0.3c-0.5,0.2-0.9,0.5-1.3,0.9c-0.4,0.4-0.7,0.8-0.9,1.3
		c-0.2,0.5-0.4,1-0.4,1.5h8.2c0-0.6-0.1-1.1-0.3-1.6c-0.2-0.5-0.5-0.9-0.8-1.3c-0.4-0.4-0.8-0.6-1.3-0.9
		S1219.9,1028.7,1219.3,1028.7z"/>
	<path class="st0" d="M1231.1,1023.2v4h2.1v1.7h-2.1v8.7c0,0.6,0.2,1,0.5,1.2c0.3,0.2,0.7,0.3,1.2,0.3c0.1,0,0.3,0,0.4,0
		s0.2,0,0.4-0.1v1.6c-0.2,0.1-0.5,0.1-0.7,0.1c-0.3,0-0.5,0-0.8,0c-0.7,0-1.3-0.2-1.8-0.6c-0.5-0.4-0.8-1.1-0.8-2v-9.4h-2.1v-1.7
		h2.1v-4H1231.1z"/>
	<path class="st0" d="M1244,1029.3l-3.3,11.3h-1.8l-3.8-13.4h1.7l3,11.2l3.2-11.2h1.9l3.2,11.2c0.2-0.9,0.5-1.8,0.7-2.7
		c0.2-0.9,0.5-1.9,0.8-2.9c0.3-1,0.5-1.9,0.8-2.9c0.3-0.9,0.5-1.9,0.8-2.7h1.7l-3.8,13.4h-1.8L1244,1029.3z"/>
	<path class="st0" d="M1254.7,1034c0-1,0.1-1.9,0.4-2.7c0.3-0.8,0.6-1.6,1.1-2.2c0.5-0.6,1.1-1.1,1.8-1.5c0.7-0.4,1.6-0.6,2.5-0.6
		s1.8,0.2,2.5,0.6c0.7,0.4,1.4,0.9,1.9,1.5s0.9,1.4,1.2,2.2c0.3,0.8,0.4,1.7,0.4,2.7s-0.1,1.9-0.4,2.7c-0.3,0.8-0.7,1.6-1.2,2.2
		s-1.1,1.1-1.9,1.5c-0.7,0.4-1.6,0.5-2.5,0.5s-1.8-0.2-2.5-0.5c-0.7-0.4-1.3-0.9-1.8-1.5c-0.5-0.6-0.9-1.4-1.1-2.2
		S1254.7,1034.9,1254.7,1034z M1256.3,1034c0,0.7,0.1,1.4,0.3,2c0.2,0.6,0.5,1.2,0.8,1.7s0.8,0.8,1.3,1.1c0.5,0.3,1.1,0.4,1.8,0.4
		s1.3-0.1,1.8-0.4c0.5-0.3,1-0.6,1.3-1.1s0.7-1,0.9-1.7c0.2-0.6,0.3-1.3,0.3-2c0-0.7-0.1-1.4-0.3-2c-0.2-0.6-0.5-1.2-0.9-1.7
		c-0.4-0.5-0.8-0.8-1.3-1.1c-0.5-0.3-1.1-0.4-1.8-0.4s-1.3,0.1-1.8,0.4c-0.5,0.3-1,0.7-1.3,1.1c-0.4,0.5-0.6,1-0.8,1.7
		C1256.4,1032.6,1256.3,1033.2,1256.3,1034z"/>
	<path class="st0" d="M1269.7,1027.2h1.7v2c0.5-0.7,1.1-1.3,1.6-1.7c0.5-0.4,1.2-0.6,1.9-0.6c0.1,0,0.2,0,0.4,0c0.1,0,0.3,0,0.4,0.1
		v2c-0.3-0.1-0.6-0.2-0.8-0.2c-0.5,0-1,0.1-1.5,0.3c-0.4,0.2-0.8,0.5-1.1,0.8c-0.3,0.3-0.5,0.7-0.7,1.1s-0.2,0.9-0.2,1.4v8.1h-1.7
		V1027.2z"/>
	<path class="st0" d="M1283.6,1032.2l5,8.5h-1.9l-4.3-7.2l-2.7,2.6v4.6h-1.7v-18.8h1.7v11.9l6.7-6.5h2.2L1283.6,1032.2z"/>
	<path class="st0" d="M1293.5,1036.5c0,1,0.3,1.7,0.9,2.1c0.6,0.4,1.4,0.6,2.3,0.6c0.4,0,0.7,0,1.2-0.1c0.4-0.1,0.8-0.2,1.1-0.3
		c0.3-0.2,0.6-0.4,0.9-0.7c0.2-0.3,0.3-0.6,0.3-1c0-0.3-0.1-0.6-0.3-0.9c-0.2-0.2-0.5-0.5-0.8-0.7s-0.7-0.4-1.1-0.5
		s-0.9-0.3-1.3-0.5c-0.5-0.2-1-0.4-1.6-0.6c-0.5-0.2-1-0.5-1.4-0.8c-0.4-0.3-0.8-0.7-1.1-1.1c-0.3-0.4-0.4-0.9-0.4-1.5
		s0.1-1.1,0.4-1.5c0.2-0.4,0.6-0.8,1-1.1s0.9-0.5,1.4-0.6c0.5-0.1,1.1-0.2,1.7-0.2c1.3,0,2.4,0.3,3.3,0.9c0.9,0.6,1.4,1.5,1.5,2.7
		h-1.7c-0.1-0.7-0.4-1.2-1-1.5c-0.6-0.3-1.3-0.4-2.1-0.4c-0.9,0-1.6,0.2-2.1,0.5c-0.5,0.3-0.7,0.8-0.7,1.3c0,0.3,0.1,0.6,0.3,0.8
		c0.2,0.2,0.5,0.4,0.8,0.6c0.3,0.2,0.7,0.4,1.1,0.6s0.9,0.3,1.3,0.5c0.5,0.2,1,0.4,1.5,0.6c0.5,0.2,1,0.5,1.4,0.8
		c0.4,0.3,0.8,0.7,1,1c0.3,0.4,0.4,0.9,0.4,1.4c0,0.7-0.1,1.3-0.4,1.9c-0.3,0.5-0.7,0.9-1.1,1.3c-0.5,0.3-1,0.6-1.7,0.7
		s-1.3,0.2-2,0.2c-0.7,0-1.3-0.1-1.9-0.3s-1.1-0.5-1.6-0.8s-0.8-0.8-1.1-1.4c-0.3-0.5-0.4-1.2-0.5-1.9H1293.5z"/>
</g>
<g>
	<path class="st0" d="M951.1,926.5c-1.2,2.3-2.2,4.7-2.7,7c-0.6,2.4-0.9,4.8-0.9,7.2c0,2.4,0.3,4.8,0.9,7.2c0.6,2.4,1.5,4.7,2.7,7
		h-1.4c-1.6-2.1-2.7-4.3-3.5-6.7c-0.8-2.4-1.2-4.9-1.2-7.5c0-2.6,0.4-5.1,1.2-7.5c0.8-2.4,1.9-4.7,3.5-6.8H951.1z"/>
	<path class="st0" d="M953.9,929.6h8.1c0.9,0,1.7,0.1,2.4,0.4c0.7,0.3,1.3,0.6,1.8,1.1c0.5,0.5,0.9,1,1.1,1.6
		c0.3,0.6,0.4,1.2,0.4,1.9c0,1-0.2,2-0.7,2.8c-0.5,0.9-1.3,1.6-2.3,2.1c0.8,0.2,1.5,0.5,2,0.9c0.5,0.4,1,0.8,1.3,1.2
		c0.3,0.5,0.6,1,0.7,1.5c0.2,0.5,0.2,1.1,0.2,1.7c0,0.8-0.2,1.6-0.5,2.3s-0.8,1.4-1.3,1.9c-0.6,0.5-1.2,1-1.9,1.3
		c-0.7,0.3-1.5,0.5-2.2,0.5h-9V929.6z M955.8,938.5h5.6c0.7,0,1.3-0.1,1.8-0.3c0.5-0.2,1-0.5,1.4-0.8s0.7-0.7,0.9-1.2
		c0.2-0.4,0.3-0.9,0.3-1.4c0-0.9-0.3-1.7-1-2.3c-0.7-0.6-1.7-0.9-3.1-0.9h-6V938.5z M955.8,948.7h6.2c0.6,0,1.2-0.1,1.8-0.2
		c0.6-0.2,1.1-0.4,1.6-0.7c0.5-0.3,0.9-0.7,1.2-1.3c0.3-0.5,0.4-1.1,0.4-1.8c0-0.6-0.1-1.1-0.4-1.6c-0.3-0.5-0.6-1-1.1-1.3
		c-0.5-0.4-1.1-0.7-1.8-0.9c-0.7-0.2-1.5-0.3-2.4-0.3h-5.4V948.7z"/>
	<path class="st0" d="M972.4,926.5c1.6,2.1,2.8,4.3,3.6,6.8c0.8,2.4,1.1,4.9,1.1,7.5c0,2.6-0.4,5.1-1.2,7.5c-0.8,2.4-2,4.7-3.5,6.7
		h-1.4c1.3-2.3,2.2-4.6,2.8-7c0.6-2.3,0.9-4.8,0.9-7.2s-0.3-4.9-0.9-7.2c-0.6-2.4-1.5-4.7-2.8-7H972.4z"/>
</g>
<g>
	<path class="st0" d="M1296,886.4h8.1c1.4,0,2.7,0.3,3.9,0.8c1.1,0.6,2.1,1.3,2.9,2.3c0.8,1,1.4,2.1,1.9,3.4
		c0.4,1.3,0.6,2.6,0.6,4.1c0,1.5-0.2,2.9-0.7,4.2c-0.5,1.3-1.1,2.4-1.9,3.4c-0.8,1-1.8,1.7-2.9,2.2s-2.4,0.8-3.8,0.8h-8.1V886.4z
		 M1299.1,904.8h4.1c1,0,2-0.2,2.8-0.5c0.9-0.4,1.6-0.9,2.2-1.5s1.1-1.5,1.5-2.5s0.5-2.1,0.5-3.3c0-1.4-0.2-2.5-0.5-3.5
		c-0.4-1-0.8-1.8-1.5-2.4c-0.6-0.6-1.4-1.1-2.2-1.4c-0.9-0.3-1.8-0.5-2.8-0.5h-4.1V904.8z"/>
	<path class="st0" d="M1320.3,886.4v21.2h-3.2v-21.2H1320.3z"/>
	<path class="st0" d="M1327,900.4c0,0.7,0.2,1.4,0.5,2c0.3,0.6,0.6,1.2,1,1.6c0.4,0.4,0.9,0.8,1.5,1c0.6,0.2,1.2,0.4,1.9,0.4
		c0.6,0,1.2-0.1,1.8-0.2c0.6-0.1,1.1-0.4,1.5-0.6c0.4-0.3,0.8-0.7,1-1.1s0.4-1,0.4-1.7c0-0.6-0.1-1.1-0.4-1.5
		c-0.3-0.4-0.7-0.8-1.1-1.1c-0.5-0.3-1-0.6-1.6-0.8c-0.6-0.2-1.2-0.5-1.9-0.7c-0.9-0.3-1.7-0.6-2.6-0.9c-0.9-0.3-1.6-0.7-2.3-1.2
		c-0.7-0.5-1.2-1.1-1.6-1.7c-0.4-0.7-0.6-1.5-0.6-2.5c0-0.9,0.2-1.7,0.5-2.4c0.4-0.7,0.9-1.3,1.5-1.8c0.6-0.5,1.4-0.8,2.3-1.1
		c0.9-0.2,1.9-0.4,2.9-0.4c1.4,0,2.6,0.2,3.6,0.6c0.9,0.4,1.7,1,2.3,1.7c0.6,0.7,1,1.4,1.3,2.2c0.3,0.8,0.4,1.6,0.5,2.3h-3.2
		c-0.1-1.4-0.6-2.4-1.4-3.1c-0.8-0.7-1.8-1.1-2.9-1.1c-0.5,0-1,0.1-1.5,0.2c-0.5,0.1-0.9,0.3-1.3,0.5s-0.7,0.5-1,0.9
		c-0.2,0.4-0.4,0.8-0.4,1.3c0,0.6,0.1,1.1,0.4,1.5c0.3,0.4,0.7,0.8,1.2,1.1c0.5,0.3,1,0.6,1.6,0.8c0.6,0.2,1.2,0.5,1.9,0.7
		c0.9,0.3,1.7,0.6,2.6,0.9c0.8,0.3,1.6,0.7,2.3,1.2c0.7,0.5,1.2,1,1.6,1.7c0.4,0.7,0.6,1.5,0.6,2.5c0,1.1-0.2,2-0.6,2.8
		s-0.9,1.5-1.6,2c-0.7,0.5-1.5,1-2.5,1.2c-1,0.3-2,0.4-3.1,0.4c-1,0-2-0.2-3-0.5c-1-0.4-1.8-0.9-2.6-1.5c-0.7-0.7-1.4-1.5-1.8-2.4
		s-0.7-2-0.7-3.2H1327z"/>
	<path class="st0" d="M1359.3,886.4v2.8h-6.8v18.4h-3.1v-18.4h-6.8v-2.8H1359.3z"/>
	<path class="st0" d="M1377.6,892.6c0,1-0.2,1.9-0.6,2.7c-0.4,0.9-1,1.6-1.8,2.2c0.8,0.4,1.4,1,1.7,1.8c0.3,0.8,0.5,1.6,0.5,2.4v3.1
		c0,0.4,0.1,0.9,0.2,1.4c0.2,0.5,0.4,1,0.7,1.5h-3.4c-0.3-0.4-0.4-0.9-0.5-1.4c-0.1-0.5-0.1-1-0.1-1.3v-3.2c0-0.3-0.1-0.7-0.2-1
		s-0.3-0.6-0.6-0.9c-0.3-0.3-0.6-0.5-1-0.6c-0.4-0.2-0.9-0.2-1.5-0.2h-5.7v8.8h-3.1v-21.2h8.8c1.1,0,2,0.2,2.8,0.6s1.5,0.9,2.1,1.4
		c0.6,0.6,1,1.3,1.3,2S1377.6,891.9,1377.6,892.6z M1365.2,896.1h5.7c0.5,0,0.9-0.1,1.3-0.3c0.4-0.2,0.8-0.4,1.1-0.7
		s0.6-0.7,0.8-1.1s0.3-0.9,0.3-1.4c0-1-0.3-1.8-1-2.4s-1.5-1-2.5-1h-5.7V896.1z"/>
	<path class="st0" d="M1384.8,886.4v21.2h-3.2v-21.2H1384.8z"/>
	<path class="st0" d="M1388.3,886.4h8.5c1,0,1.8,0.1,2.6,0.4c0.8,0.3,1.4,0.6,1.9,1.1c0.5,0.5,0.9,1,1.2,1.7c0.3,0.6,0.4,1.3,0.4,2
		c0,0.9-0.2,1.8-0.6,2.6c-0.4,0.8-1,1.5-1.9,2.1c1.4,0.5,2.3,1.2,2.9,2.2s0.9,1.9,0.9,3c0,0.8-0.2,1.6-0.5,2.4s-0.8,1.4-1.4,2
		c-0.6,0.6-1.3,1-2,1.3c-0.8,0.3-1.6,0.5-2.4,0.5h-9.4V886.4z M1391.5,895h4.8c1.1,0,2-0.3,2.7-0.9c0.7-0.6,1-1.3,1-2.2
		c0-0.8-0.3-1.4-0.8-1.9c-0.5-0.5-1.4-0.7-2.5-0.7h-5.2V895z M1391.5,904.8h5.3c0.5,0,1-0.1,1.5-0.2c0.5-0.1,0.9-0.3,1.3-0.6
		c0.4-0.3,0.7-0.6,1-1.1c0.2-0.4,0.4-1,0.4-1.6c0-0.5-0.1-1-0.3-1.4c-0.2-0.4-0.6-0.8-1-1.2s-0.9-0.6-1.5-0.8s-1.3-0.3-2.1-0.3h-4.5
		V904.8z"/>
	<path class="st0" d="M1410,886.4v14.1c0,0.8,0.1,1.5,0.4,2.1s0.6,1.1,1.1,1.6c0.4,0.4,0.9,0.8,1.5,1c0.6,0.2,1.1,0.3,1.7,0.3
		c0.6,0,1.2-0.1,1.8-0.3c0.6-0.2,1.2-0.5,1.6-0.9s0.9-0.9,1.2-1.5c0.3-0.6,0.4-1.3,0.4-2.1v-14.2h3.2v14.1c0,1.2-0.2,2.4-0.7,3.3
		c-0.5,1-1.1,1.8-1.9,2.4c-0.8,0.7-1.7,1.2-2.7,1.5c-1,0.3-2,0.5-2.9,0.5c-0.9,0-1.9-0.2-2.8-0.5c-0.9-0.3-1.8-0.8-2.5-1.5
		c-0.8-0.7-1.4-1.5-1.9-2.4c-0.5-1-0.7-2.1-0.7-3.4v-14H1410z"/>
	<path class="st0" d="M1442.5,886.4v2.8h-6.8v18.4h-3.1v-18.4h-6.8v-2.8H1442.5z"/>
	<path class="st0" d="M1459.9,886.4v2.8h-11.5v6.1h10.8v2.8h-10.8v6.8h11.9v2.8h-15.1v-21.2H1459.9z"/>
	<path class="st0" d="M1463.2,886.4h8.1c1.4,0,2.7,0.3,3.9,0.8c1.1,0.6,2.1,1.3,2.9,2.3c0.8,1,1.4,2.1,1.9,3.4
		c0.4,1.3,0.6,2.6,0.6,4.1c0,1.5-0.2,2.9-0.7,4.2c-0.5,1.3-1.1,2.4-1.9,3.4c-0.8,1-1.8,1.7-2.9,2.2s-2.4,0.8-3.8,0.8h-8.1V886.4z
		 M1466.3,904.8h4.1c1,0,2-0.2,2.8-0.5c0.9-0.4,1.6-0.9,2.2-1.5s1.1-1.5,1.5-2.5s0.5-2.1,0.5-3.3c0-1.4-0.2-2.5-0.5-3.5
		c-0.4-1-0.8-1.8-1.5-2.4c-0.6-0.6-1.4-1.1-2.2-1.4c-0.9-0.3-1.8-0.5-2.8-0.5h-4.1V904.8z"/>
</g>
<g>
	<path class="st0" d="M1374.6,926.5c-1.2,2.3-2.2,4.7-2.7,7c-0.6,2.4-0.9,4.8-0.9,7.2c0,2.4,0.3,4.8,0.9,7.2s1.5,4.7,2.7,7h-1.4
		c-1.6-2.1-2.7-4.3-3.5-6.7c-0.8-2.4-1.2-4.9-1.2-7.5c0-2.6,0.4-5.1,1.2-7.5s1.9-4.7,3.5-6.8H1374.6z"/>
	<path class="st0" d="M1379.3,939.9c0,1.6,0.2,3,0.6,4.2c0.4,1.2,1,2.2,1.7,3c0.7,0.8,1.5,1.4,2.4,1.7s1.8,0.6,2.7,0.6
		c1,0,1.8-0.2,2.6-0.5s1.4-0.8,2-1.3c0.6-0.5,1-1.2,1.4-1.9c0.4-0.7,0.6-1.4,0.7-2.2h2c-0.2,1.1-0.5,2.1-1,3.1
		c-0.5,1-1.1,1.8-1.8,2.5c-0.7,0.7-1.6,1.3-2.5,1.7c-1,0.4-2.1,0.6-3.3,0.6c-1.4,0-2.7-0.3-3.9-0.8c-1.1-0.5-2.1-1.3-2.9-2.3
		c-0.8-1-1.4-2.2-1.9-3.6c-0.4-1.4-0.6-3-0.6-4.8c0-1.4,0.2-2.7,0.6-4c0.4-1.3,1-2.5,1.8-3.5c0.8-1,1.8-1.8,2.9-2.4s2.5-0.9,3.9-0.9
		c1.2,0,2.3,0.2,3.3,0.5c1,0.3,1.8,0.8,2.5,1.4c0.7,0.6,1.3,1.3,1.8,2.1c0.5,0.8,0.9,1.7,1.2,2.7h-2.1c-0.6-1.6-1.4-2.8-2.5-3.5
		c-1.1-0.8-2.5-1.2-4.2-1.2c-1.1,0-2.1,0.2-3,0.7s-1.7,1.1-2.3,2c-0.6,0.8-1.2,1.8-1.5,2.8S1379.3,938.7,1379.3,939.9z"/>
	<path class="st0" d="M1398.9,926.5c1.6,2.1,2.8,4.3,3.6,6.8c0.8,2.4,1.1,4.9,1.1,7.5c0,2.6-0.4,5.1-1.2,7.5c-0.8,2.4-2,4.7-3.5,6.7
		h-1.4c1.3-2.3,2.2-4.6,2.8-7c0.6-2.3,0.9-4.8,0.9-7.2s-0.3-4.9-0.9-7.2c-0.6-2.4-1.5-4.7-2.8-7H1398.9z"/>
</g>
<path class="st0" d="M714.1,644c-1.4-3.1-4.1-5-7.9-3.5c-1.2,0.5-2.3,1-3.7,1.6c-22.4-23.8-44.7-47.6-67.3-71.8
	c1.5-0.6,2.4-0.8,3.2-1.2c3.2-1.6,4.3-4.4,3.5-7.6c-0.8-3.3-3.2-5.7-6.7-4.7c-3.9,1.1-5.8-1-8.1-3.3c-20.9-20.8-41.8-41.6-62.7-62.3
	c-2.9-2.9-5.7-6-8.6-9c0.3-0.3,0.5-0.6,0.8-0.9c16.4,6.4,32.9,12.7,49.3,19.2c1,0.4,1.8,1.6,2.4,2.7c2.3,4.1,5.9,5.5,9.2,3.4
	c3.5-2.2,4.3-6.3,1.9-9.7c-2.3-3.2-6.6-3.3-10.2-0.5c-1.2,0.9-3.4,1.4-4.7,1c-7.2-2.3-14.3-5-21.4-7.7c-7.6-2.8-15.1-5.8-22.6-8.7
	c1-0.7,1.8-0.8,2.6-0.7c40.1,6.9,80.2,13.8,120.3,20.9c1.3,0.2,2.7,1.7,3.3,3c1.8,4,5.4,5.9,8.9,4.2c3.6-1.7,4.9-6,2.9-9.5
	c-2-3.5-5.9-4-9.6-1.8c-1.7,1-4.1,1.7-6,1.4c-8.6-1.1-17.2-2.7-25.7-4.1c-30.3-5.1-60.6-10.2-90.9-15.3c-3.9-0.7-7.7-1.6-11.5-2.5
	c4.4-1.4,8.5-1.9,12.7-2.3c24.2-2.2,48.3-4.6,72.5-6.5c5-0.4,10.7-3.2,15.3,2.2c0.8,0.9,5.3,0.3,6.4-1.1c1.6-1.9,2.3-5.3,1.9-7.8
	c-0.3-1.5-3.4-3.2-5.4-3.5c-4.7-0.8-6.3,2.9-7.4,6.9c-12.5,1.3-24.9,2.6-37.6,4c0.9-4.6,0.4-8.4,6.6-9.6c23.8-4.4,47.3-9.7,71-14.5
	c3.9-0.8,7.8-2.3,12,0.5c2.9,1.9,7-0.6,8-4c1.1-3.8-1-7.9-4.7-8.8c-3.8-0.9-7.1,1.2-7.5,5.4c-0.2,2.6-1.1,3.5-3.6,4
	c-22.5,4.7-45,9.7-67.5,14.2c-6.1,1.2-12.2,4.2-18.8,1.4c-1.3-0.6-3.6,0.8-5.3,1.6c-2.6,1.1-4.9,2.9-7.5,3.6
	c-4.8,1.3-9.7,2.1-14.6,3.1c-7.1,1.5-14.2,2.9-21.4,4.3c1-1.8,2.3-2.7,3.7-3.5c41.2-22.5,82.5-45.1,123.8-67.4
	c2.5-1.3,5.7-1.6,8.7-1.6c3.6-0.1,6.6-2.1,7-5.7c0.4-3.8-2.2-6.9-6.1-7.2c-4-0.3-6.5,1.8-6.3,6c0.2,3.4-1.2,4.7-3.9,6.2
	c-33.2,18.1-66.3,36.4-99.4,54.6c-9.8,5.4-19.6,10.7-29.3,16.1c1.8-3.5,4-6.5,6.4-9.3c18-21.2,36-42.5,54-63.7
	c4.1-4.8,7.7-10.3,12.6-13.8c7.4-5.4,8.2-7.8,1.6-14.4c0.7-1,1.3-2.1,2.1-3.1c19.4-25.5,38.8-51,58.3-76.4c0.9-1.2,3.1-1.9,4.8-2.1
	c4.6-0.6,7.1-3.2,6.6-7.3c-0.5-3.9-4.2-6.7-7.9-6c-3.7,0.7-6.1,4.6-4.4,8.7c1.1,2.7,0.2,4.1-1.2,6c-9.8,12.8-19.3,25.8-29.4,38.3
	c-11.9,14.9-21.4,31.8-35.9,44.6c-0.6,0.5-0.7,1.4-1.1,2.1c-1.4,2.5-2.5,5.2-4.2,7.4c-17.7,23.4-35.4,46.7-53.2,70
	c-3,4-6.2,7.8-9.3,11.7c-0.4-1.7-0.1-2.9,0.4-4c14-31.1,28-62.2,41.9-93.4c19.5-43.9,38.8-87.8,58.1-131.7c1.1-2.5,2.1-4.7,5.4-5.4
	c3.8-0.8,5.4-4.8,4-8.3c-1.4-3.3-6.1-5.2-9.3-3.7c-3,1.3-4.9,6-2.7,8.6c3,3.6,1.4,6.4,0,9.6c-8.5,19.3-17,38.5-25.5,57.8
	c-6,13.7-12.1,27.4-18.1,41c-2.3-2-4.5-3.9-6.9-6c23.2-62.5,46.4-125.3,69.2-186.8c3.8-1.3,7.5-1.4,8.8-3.3c1.4-2,1.4-6.1,0.2-8.2
	c-0.9-1.6-5.5-2.8-7-1.9c-2.1,1.3-3.1,4.7-3.9,7.4c-0.7,2.2,0.2,4.8-0.6,6.9c-6.8,18.6-13.7,37.1-20.6,55.7
	c-11.5,30.9-22.8,61.9-34.7,92.7c-5.5,14.1-8.8,29.3-17.5,42.1c-0.6,0.9-0.4,2.5-0.6,3.7c-0.3,2-0.4,4.1-1.1,6
	c-7.5,20.6-15.1,41.1-22.7,61.6c-4.2,11.4-8.6,22.8-12.9,34.2c-0.7-0.9-0.8-1.7-0.6-2.4c5-18.5,10-37,15-55.4
	c10.4-38.2,20.8-76.3,31.1-114.5c0.7-2.7,1.5-4.4,4.6-5.2c3.9-0.9,5.4-4.7,3.9-8.4c-1.4-3.4-5.3-5-8.9-3.6c-3.1,1.3-4.6,5.8-2.3,9.1
	c1.9,2.7,1.5,4.9,0.7,7.6c-15.6,57.3-31.1,114.7-46.6,172c-2.1,7.8-4.4,15.5-6.5,23.3c-0.8-1.5-0.8-2.8-0.6-4
	c1.4-9.4,2.9-18.7,4.3-28.1c5.7-39.8,11.3-79.6,16.9-119.4c4.9-35,9.6-70.1,14.5-105.1c0.3-2.2,1.7-4.8,3.4-6.3
	c3.3-2.9,4.4-7,2-10.1c-1.9-2.5-6.3-3.2-8.7-1.3c-3.4,2.6-3.3,6.9-0.3,10.6c1,1.2,2.1,3.1,1.9,4.5c-5.1,38.1-10.2,76.2-15.6,114.2
	c-4.9,34.6-10.1,69.1-15.1,103.6c-1.2,7.9-2.3,15.9-3.6,24.7c-0.7-1.1-0.8-1.3-0.8-1.4c1.5-34.7,2.9-69.4,4.5-104
	c0.1-1.4,1.5-2.9,2.7-3.9c3.1-2.6,3.8-6.7,1.4-9.8c-2.3-2.9-6.6-3.2-9.4-0.6c-2.8,2.5-3,7.6,0.3,9.8c3.1,2,3.2,4.4,3.1,7.3
	c-0.9,18.6-1.7,37.3-2.5,55.9c-0.5,11-1,21.9-1.4,32.9c-1.1-1.3-1.4-2.6-1.4-4c-0.5-25.8-0.9-51.5-1.5-77.3
	c-0.5-21.9-1.2-43.8-1.8-65.7c-0.1-2.2-0.4-4.1,2.5-5.5c3.9-1.9,4.6-6.7,2.3-9.9c-2.1-2.8-6.8-3.3-9.5-1c-2.9,2.5-2.5,7.1,0.2,10.4
	c1.3,1.5,2.4,3.7,2.4,5.6c0.6,18.7,1,37.4,1.4,56.1c0.9,37.5,1.9,75,2.9,112.4c0.1,2.5,0,5,0,7.5c-1.4-2.3-1.9-4.7-2.3-7
	c-5.2-31.7-10.3-63.5-15.6-95.2c-4.7-28.1-9.6-56.1-14.4-84.2c-3.9-22.8-7.6-45.7-11.5-68.5c-0.7-3.8-1.6-7.2,1.3-10.9
	c2.3-2.9,0.5-7.5-2.7-9c-3.1-1.5-7.3-0.1-8.7,2.9c-1.5,3.3-0.2,8.6,2.9,9c4.5,0.7,4.6,3.7,5.1,6.9c1.2,7.5,2.3,14.9,3.6,22.4
	c4.7,26.9,9.5,53.9,14,80.8c4.8,28.5,9.5,57.1,14.2,85.7c3.6,21.9,7.2,43.7,10.8,65.6c-1.4-1.5-2.2-3.2-2.8-5
	c-8.3-22.7-16.7-45.3-25-68c-14.2-38.8-28.4-77.7-42.5-116.6c-0.6-1.7-0.5-4.1,0.3-5.6c2.4-4.5,1.8-8.3-2.2-10.2
	c-2.9-1.4-8.5,0.3-9.9,3c-1.8,3.6,0.5,7.4,5.2,9.3c1.6,0.6,3.6,1.9,4.2,3.3c8.6,22.9,17,45.8,25.5,68.8c11,29.9,21.9,59.8,32.8,89.7
	c2.8,7.8,5.5,15.6,8.3,23.5c-0.4,0.2-0.8,0.5-1.1,0.7c-0.3-0.5-0.6-1.1-0.8-1.6c-4.4-10.5-8.7-21.1-13.3-31.6
	c-14-32.3-28.2-64.6-42.3-96.9c-18.9-43.6-38.1-87-56.5-130.8c-4-9.4-11.5-18.1-8.3-29.9c1-3.4-2.4-5.3-5.8-5.6
	c-3.7-0.3-5.9,1.6-6.5,5c-0.6,3.5,0.5,7.1,4.2,7.6c4.5,0.6,5.6,3.5,7,6.8c13.5,31.3,27,62.7,40.6,94c13.6,31.3,27.4,62.5,41,93.8
	c9.7,22.4,19.2,45,28.8,67.4c2.9,6.8,6.1,13.4,9.2,20.2c-1.5-0.3-2.1-1.1-2.5-2c-16-30.7-32-61.3-48.1-92
	c-18.2-34.8-36.9-69.4-54.6-104.5c-4.8-9.5-13-18.1-11.4-30.3c0.5-3.6-3.1-5.2-6.4-4.8c-3.5,0.4-6.1,2.6-6.1,6.3
	c-0.1,3.7,2,6.6,5.7,6.5c4.2-0.1,5.6,2.2,7.1,5.2c1.1,2.3,2.2,4.6,3.4,6.9c19.6,37.3,39.3,74.6,58.9,111.9
	c14.7,27.9,29.3,55.9,43.9,83.8c3.1,6,6,12.2,8.9,18.3c-9-12.4-17.3-25.2-25.6-38c-19.1-29.2-38.2-58.4-57.1-87.8
	c-2.5-3.9-6.3-7.4-3.5-13.4c1.5-3.2-0.6-6.6-5-7.2c-3.7-0.5-6.8,1.6-7.2,5.3c-0.5,3.8,1,6.3,5,7.6c2.3,0.7,4.9,2.3,6.2,4.3
	c7.7,11.5,15.1,23.2,22.6,34.8c19.9,30.5,39.8,60.9,59.7,91.3c2.8,4.2,5.4,8.5,8.1,12.8c-1.2,0.1-1.8-0.3-2.2-0.8
	c-23.7-26.5-47.4-53.1-71.1-79.6c-21.8-24.3-43.6-48.6-65.5-72.8c-2-2.2-3-4-2.2-7.2c1-3.7-2.1-7.1-5.8-7.4
	c-3.7-0.3-7.2,2.8-7.2,6.2c0.1,3.9,3.3,6.8,7.1,7c2,0.1,4.5,0.8,5.7,2.1c20,21.7,39.9,43.4,59.6,65.3c25,27.7,49.8,55.6,74.7,83.4
	c3.7,4.2,7.4,8.4,11.1,12.6c-1.4,0.4-2.1,0.1-2.8-0.3c-40.6-24.4-81.2-48.8-121.6-73.3c-1.4-0.8-2.4-3.1-2.6-4.8
	c-0.4-4.4-2.8-6.8-7.1-6.5c-3.5,0.3-6.4,3.6-5.9,6.9c0.6,3.9,4.7,7,8.1,5.4c3.2-1.5,5.1-0.1,7.4,1.3c36.1,21.5,72.2,43,108.3,64.6
	c4,2.4,7.7,5,12.2,8c-2.4-0.1-3.8-0.2-5.2-0.2c1.8,1,3.6,2.1,5.4,3.1c-1.8,1-3.5,1.1-5.2,1c-8.4-0.5-16.7-1.1-25.1-1.4
	c-3.3-0.1-6.1-0.1-8-3.7c-1.7-3.1-6.8-3.1-9.4-0.7c-2.2,2-2.2,6.8-0.2,9.3c2.2,2.6,7.1,3.3,8.9,0.4c2.6-4.2,6-3.3,9.6-3.2
	c5,0.2,9.9,0.1,14.9,0.2c5.5,0.2,11.1,0.5,16.6,0.8c-0.4,1.2-0.6,1.4-0.9,1.5c-37.6,7.4-75.2,14.7-112.8,22.1
	c-2.4,0.5-4,0.5-5.7-1.9c-2.4-3.4-7.1-3.4-9.7-0.6c-2.6,2.7-2.1,7.6,1,9.8c3.3,2.4,7.1,1.4,9.6-2c1-1.3,2.7-2.7,4.2-3
	c35.3-7.3,70.6-14.4,105.9-21.6c4-0.8,8-1.4,12-2.1c0.3,0.5,0.6,1,0.9,1.5c-1.6,2-3.2,4.1-4.9,6c-24.3,27.7-48.6,55.4-73,83
	c-16.7,19-33.5,37.9-50.4,56.7c-1.3,1.5-3.9,2.5-5.9,2.5c-4.2,0-7.6,2.3-7.8,6.2c-0.2,3.7,3.8,7.5,7.6,7.2c3-0.2,5.4-4.2,5.2-8
	c-0.1-1.6,0.4-3.5,1.3-4.7c11.7-13.5,23.5-26.9,35.3-40.4c20.8-23.7,41.7-47.4,62.5-71c4.6-5.2,9.2-10.4,13.8-15.6
	c0.5,1.1,0.2,1.7-0.1,2.1c-19.4,26.5-38.8,53-58.3,79.4c-0.9,1.2-3.4,1.7-5.1,1.7c-3.9-0.1-6.9,1.8-7.3,5.3c-0.4,3.8,2,7.2,5.6,7.8
	c3.5,0.6,7.4-1.9,7-5.6c-0.7-6.2,3.2-9.8,6.2-14c16.2-22.6,32.5-45.2,48.9-67.7c5.6-7.8,11.4-15.4,17.8-24.1
	c-0.2,1.8-0.2,2.4-0.4,2.9c-12,27.8-24,55.5-36.1,83.3c-19.8,45.6-39.6,91.2-59.6,136.8c-11.1,25.4-22.4,50.6-33.8,75.9
	c-0.9,1.9-2.9,3.6-4.8,4.6c-3.6,1.9-5.5,5.3-4,8.6c1.5,3.5,5.2,5,8.4,3.6c3.4-1.5,5.2-6.2,2.7-9.3c-2-2.6-1.1-4.3-0.1-6.5
	c17.5-40.1,34.9-80.3,52.4-120.4c19.7-45.3,39.5-90.6,59.3-135.8c1.6-3.6,3.2-7.3,4.8-10.9c0.2,0.1,0.4,0.2,0.6,0.3
	c-1.8,5.5-3.6,11.1-5.4,16.6c1.1-1.8,2.2-3.6,3.1-5.5c2.2-5,4.2-10.1,6.3-15.1c-4.9,20.6-10.6,40.8-16.3,61.1c-9.3,33-18.6,66-28,99
	c-0.4,1.4-1.9,2.8-3.2,3.4c-4.2,1.9-6,5.4-4.2,9.2c1.5,3.2,5.6,4.7,8.6,3.1c3.4-1.8,4.2-6.3,2.3-10.1c-0.8-1.6-1.4-3.9-0.9-5.6
	c3.7-14.2,7.7-28.3,11.6-42.4c2-7.2,4.1-14.5,5.9-21c2.9,2.2,5.7,4.3,9,6.8c-2.2,10.6-4.5,21.9-6.8,33.3
	c-4.5,22.4-8.9,44.8-13.4,67.2c-0.3,1.4-1.8,3.4-3.1,3.7c-5.1,1.3-7.1,3.9-5.8,8.5c0.9,3.2,5.2,5.5,8.5,4.5c3.7-1.1,4.8-5,3.1-9.7
	c-0.6-1.7-1.1-3.8-0.8-5.5c5.8-30.3,11.7-60.6,17.7-90.9c0.9-4.7,2.4-9.3,3.6-13.9c0.6-2.5,1.4-5.1,1.8-7.7c0.4-2.4,0.1-4.8,0.5-7.2
	c1.7-9.2,3.6-18.3,5.4-27.5c1.5-7.6,2.9-15.3,4.3-23c0.4,0,0.8,0,1.2,0.1c0.1,2.3,0.5,4.6,0.3,6.8c-2.2,16.2-4.5,32.5-6.7,48.7
	c-4.7,34.6-9.2,69.1-14,103.7c-3.7,26.4-7.6,52.8-11.6,79.2c-0.3,1.7-1.7,3.9-3.2,4.6c-3.8,1.9-5,4.8-3.7,8.3
	c1.2,3.5,3.8,4.9,7.5,4.5c6.1-1.6,5.1-7.3,4.1-10.1c-4.2-3.3-2.6-7.5-2.1-11.4c2.4-17.3,5.1-34.7,7.5-52c3.5-25.3,6.8-50.6,10.2-76
	c3.3-24.5,6.8-49.1,10.1-73.6c1.2-8.9,2.5-17.7,3.5-24.8c4-1.6,7.6-1.9,9.4-3.9c2.6-2.9,1.7-6.5-1.3-9.4c-0.8-0.8-1.1-2.6-1.1-3.9
	c0.4-9.8,0.8-19.6,1.4-29.4c0.3-5,1-9.9,1.5-14.9c0.5,0,0.9,0.1,1.4,0.1c0,8,0,16.1,0,24.1c0.3,0,0.7,0,1,0c0-4.9,0-9.8,0-14.6
	c0.9,1.6,1.3,3.3,1.4,5c1.1,15.7,2.1,31.4,3.3,47.2c1.8,23.7,3.8,47.5,5.6,71.2c0.1,1.6-0.8,3.7-2,4.8c-3.5,3.3-4.1,7.1-1,10.5
	c2.2,2.4,6.8,2.3,9.1-0.1c2.6-2.8,1.9-6.5-1.3-9.8c-1.4-1.4-2.6-3.6-2.8-5.5c-1.1-11.4-2-22.8-2.9-34.1c-2.3-27.6-4.5-55.1-6.8-82.7
	c-0.3-3.8-0.6-7.5-0.9-11.3c3.7,11.9,6.2,24,8.7,36c8.4,39.2,16.7,78.3,25.3,117.5c7.4,33.8,15.2,67.5,22.8,101.3
	c0.9,3.8,2.3,7.3-1.5,11c-2.7,2.6-1.8,7,1.5,8.7c2.1,1.1,6.1,0.5,8.1-0.9c2.8-1.9,2-7.5-1.1-9.2c-4.6-2.6-4.6-6.5-4.9-10.8l-1.5-6.2
	c-0.1,0.1-0.3,0.1-0.4,0.2c-18.3-83.6-36.5-166.5-54.7-249.3c0.3,0,0.5-0.1,0.8-0.1c1.4,2.6,2.8,5.2,4.2,7.9c-1-3.2-1.9-6.3-2.9-9.5
	c0.3-0.1,0.7-0.2,1-0.3c2.5,6.9,5.1,13.8,7.6,20.8c8.5,23.7,17,47.5,25.7,71.2c1.2,3.4,0.5,5.4-2.6,7.6c-3.7-11.7-7.4-23.1-11-34.5
	c-5-15.8-10-31.5-15-47.3c-0.3-1-1-1.9-1.6-2.9c0.3,1.6,0.3,3.2,0.8,4.7c5,16.1,10.2,32.2,15.2,48.3c6.7,21.5,13.3,43.1,20.1,64.5
	c6.3,19.8,13,39.5,19,59.3c2.6,8.6,7,16.8,6.6,26.3c-0.2,4,3.1,5.7,7.1,5.5c3.5-0.2,5.3-2.6,5.4-5.8c0-3.7-1.8-6.6-5.9-7.1
	c-1.6-0.2-3.2,0-5.1,0c-10.9-33.9-21.8-67.8-33-102.4c5.1,1.4,8.6,0.8,10.2-3.5c1.2-3.4,0.4-7-3.2-8.1c-3.4-1.1-4.3-3.4-5.3-6.1
	c-8.5-23.3-17.1-46.6-25.6-69.8c-2.5-6.9-5-13.8-7.5-20.7c2.2,2.1,3.5,4.6,4.9,7.1c11.6,20.8,23.3,41.6,35,62.3
	c15.1,26.8,30.3,53.5,45.3,80.4c1.4,2.5,2.1,5.6,2.2,8.4c0.1,4.2,2.6,8.2,6.3,8.5c3.5,0.3,6.5-2.8,6.6-6.8c0.1-4.2-2.3-6-7.3-6.5
	c-1.7-0.1-3.9-1.3-4.7-2.7c-3.9-6.3-7.4-12.8-11.1-19.3c-19-33.5-37.9-66.9-56.9-100.4c-2.3-4.1-4.4-8.3-6.6-12.4
	c1.3,0.4,1.9,1.1,2.4,1.9c14.5,22.8,29,45.7,43.5,68.5c21.9,34.3,43.8,68.7,65.8,103c2.2,3.4,5.4,6.5,2.5,11.2
	c-0.6,1-0.2,2.9,0.2,4.2c1,3.4,4.1,4.8,6.8,3.8c2.2-0.8,4.7-3.7,5-5.9c0.3-2-2.2-6.3-3.5-6.3c-5.2-0.1-6.6-3.7-8.7-7.1
	c-2.9-4.6-5.9-9.2-8.9-13.8c-14.4-22.5-28.9-45-43.3-67.5c-19.6-30.7-39.2-61.3-58.7-92c-5-7.8-9.9-15.5-14.8-23.3
	c1.2-0.1,1.7,0.3,2.1,0.7c11,12,22,24,33,35.9c12.9,13.9,25.9,27.8,38.9,41.7c17.6,18.8,35.5,37.3,52.7,56.5
	c5.9,6.6,14.3,11.5,16.6,21.3c0.8,3.3,5.6,4.6,8.6,3C714.8,650.5,715.5,647.2,714.1,644z M600.5,463.3c0.1,0.6,0.2,1.3,0.4,1.9
	c-6.6,3-13.9,2-20.7,3.6c-0.1-0.5-0.2-1-0.3-1.5C586.8,466.1,593.6,464.7,600.5,463.3z M623.5,376.7c2.8,1.4,4.1,2.8,1.9,5.4
	c-15.9,18.8-31.7,37.6-47.6,56.3c-0.1,0.1-0.3,0.1-1.6,0.5C592.5,417.6,608,397.1,623.5,376.7z M599.7,338.1
	c0.6,0.2,1.3,0.5,1.9,0.7c-5.7,14.3-11.3,28.6-17,43c-0.4-0.1-0.7-0.3-1.1-0.4C588.9,366.9,594.3,352.5,599.7,338.1z M591.5,369.8
	c3.7-9.2,7.4-18.5,11.3-27.7c0.7-1.6,2.5-2.7,3.8-4c0.4,0.4,0.9,0.8,1.3,1.2c-9.4,20.8-18.7,41.6-28.1,62.4
	c-0.3-0.1-0.6-0.2-0.9-0.3C583.1,390.9,587.3,380.4,591.5,369.8z M521,603.5c-0.4-0.1-0.8-0.2-1.3-0.3c1.7-8,3.4-16,5.2-24.1
	c0.3,0.1,0.6,0.1,0.9,0.2C524.2,587.4,522.6,595.4,521,603.5z M529.3,550.8c-3.6,16.5-7.1,33-11.2,49.3c-0.6,2.5-3.9,4.3-6,6.5
	c-0.5-0.4-0.9-0.7-1.4-1.1c8.4-30.2,16.9-60.4,25.3-90.6c0.3,0.1,0.7,0.2,1,0.3C534.5,527.1,531.9,538.9,529.3,550.8z M535.3,548.6
	c-0.6-0.1-1.2-0.3-1.9-0.4c1.6-7.8,3.1-15.5,4.7-23.3c0.4,0.1,0.8,0.1,1.2,0.2C538,533,536.6,540.8,535.3,548.6z M540.5,544.5
	c-0.8-0.1-1.6-0.2-2.4-0.3c1.1-8.8,2.2-17.6,3.4-26.4c0.5,0.1,1,0.1,1.4,0.2C542.2,526.8,541.3,535.7,540.5,544.5z M628.2,562.7
	c-16.1-17.2-32.3-34.4-48.4-51.6c0.2-0.2,0.4-0.4,0.6-0.6c13,12.9,26,25.7,39,38.6c2.7,2.7,5.5,5.5,8,8.4c1.1,1.2,1.6,2.9,2.4,4.3
	C629.2,562,628.7,562.4,628.2,562.7z"/>
<g>
	<rect x="674" y="1031" class="st0" width="21" height="2"/>
</g>
</svg>
