<?xml version="1.0" encoding="utf-8"?>
<!-- Generator: Adobe Illustrator 16.0.0, SVG Export Plug-In . SVG Version: 6.00 Build 0)  -->
<!DOCTYPE svg PUBLIC "-//W3C//DTD SVG 1.1//EN" "http://www.w3.org/Graphics/SVG/1.1/DTD/svg11.dtd">
<svg version="1.1" id="Layer_1" xmlns="http://www.w3.org/2000/svg" xmlns:xlink="http://www.w3.org/1999/xlink" x="0px" y="0px"
	 width="400px" height="380.9px" viewBox="0 0 400 380.9" enable-background="new 0 0 400 380.9" xml:space="preserve">
<g>
	<defs>
		<rect id="SVGID_1_" y="172.2" width="116.2" height="28.8"/>
	</defs>
	<clipPath id="SVGID_2_">
		<use xlink:href="#SVGID_1_"  overflow="visible"/>
	</clipPath>
	<path clip-path="url(#SVGID_2_)" d="M42.4,185c-0.7,1.2-0.5,2.6,0.3,3.6c0.1,0.2,0.3,0.5,0.6,0.6c0,0,0,0,0,0
		c0.6,0.5,1.3,0.8,2.1,0.8c0.9,0,1.8,0,2.8,0c4,0,8,0,12.1,0c3.3,0,6.6,0,9.8,0c0.7,0,1.3-0.2,1.9-0.7c1.6-1.2,1.9-3.5,0.7-4.9
		c-0.7-0.8-1.5-1.3-2.5-1.3c-1.8,0-3.5,0-5.3,0c-6.4,0-12.8,0-19.1,0C44.2,183.1,43.1,183.7,42.4,185"/>
	<path clip-path="url(#SVGID_2_)" d="M55.1,192.4c-2.2,0-4.3,0-6.5,0c0,0.3,0,0.6,0,0.9c0,0.5-0.3,0.8-0.8,0.8c-2.6,0-5.2,0-7.8,0
		c-2.7,0-5.4,0-8.1,0c-0.6,0-0.8-0.3-0.8-0.8c0-1.6,0-3.2,0-4.7c0-2.9,0-5.8,0-8.6c0-0.6,0.3-0.8,0.9-0.8c2.9,0,5.8,0,8.7,0
		c2.4,0,4.8,0,7.1,0c0.5,0,0.8,0.2,0.8,0.8c0,0.3,0,0.6,0,0.8c0,0,0.1,0,0.1,0c2.2,0,4.4,0,6.6,0c0.1,0,0.2-0.1,0.2-0.2
		c0-0.5,0-1-0.1-1.6c0-0.2,0-0.3,0-0.5c-0.2-0.9-0.5-1.8-1-2.6c-1.3-2.1-3.2-3.4-5.7-3.6c-2.1-0.2-4.3-0.1-6.4-0.1
		c-3.2,0-6.5,0-9.7,0c-2,0-3.8,0.4-5.4,1.7c-1.9,1.5-2.9,3.5-2.9,5.9c0,1.4,0,2.8,0,4.2H0v5h24.1c0,1.4,0,2.8,0,4.2
		c0,1.8,0.5,3.5,1.6,4.9c1.5,1.9,3.5,2.9,6,3c5.1,0,10.3,0,15.4,0c2,0,3.8-0.4,5.4-1.7c1.1-0.9,1.9-2,2.4-3.4
		c0.4-1.1,0.5-2.2,0.5-3.3C55.4,192.5,55.3,192.4,55.1,192.4"/>
	<path clip-path="url(#SVGID_2_)" d="M116.2,183.9H90.8c0-1.1,0-2.2,0-3.3c0-1.9-0.3-3.7-1.5-5.3c-1.3-1.7-3-2.8-5.2-3
		c-1.4-0.1-2.7-0.1-4.1-0.1c-4,0-8,0-12.1,0c-1.9,0-3.7,0.3-5.3,1.6c-1.2,0.9-2.1,2.1-2.6,3.5c-0.4,1-0.5,2.1-0.4,3.1
		c0,0.3,0,0.4,0.4,0.4c1.4,0,2.9,0,4.3,0c0.7,0,1.5,0,2.2,0.1c0-0.3,0-0.5,0-0.8c0-0.7,0.2-0.9,0.9-0.9c2.5,0,5.1,0,7.6,0
		c2.7,0,5.4,0,8.1,0c0.6,0,0.8,0.3,0.8,0.8c0,2.7,0,5.3,0,8c0,1.8,0,3.6,0,5.4c0,0.6-0.3,0.8-0.9,0.8c-0.2,0-0.4,0-0.6,0
		c-2.8,0-5.6,0-8.5,0c-2.3,0-4.6,0-6.8,0c-0.5,0-0.7-0.2-0.8-0.8c0-0.3,0-0.6,0-0.9c-0.7,0-1.4,0-2,0c-1.5,0-3,0-4.6,0
		c-0.2,0-0.3,0-0.3,0.2c-0.1,1.7,0.2,3.3,1.1,4.7c1.2,1.9,2.9,3.1,5,3.5c1.1,0.2,2.3,0.2,3.4,0.2c4,0,8,0,12.1,0
		c1.1,0,2.3-0.1,3.4-0.1c0.2,0,0.4-0.1,0.6-0.1c1.3-0.2,2.3-0.9,3-1.6c0,0,0,0,0,0c0.1-0.1,0.2-0.2,0.2-0.3c0.2-0.2,0.4-0.5,0.6-0.7
		c0.1-0.2,0.3-0.3,0.4-0.5c0.1-0.2,0.3-0.4,0.4-0.7c0.1-0.2,0.2-0.3,0.2-0.3h0c0.5-1.1,0.8-2.2,0.8-3.4c0-1.5,0-2.9,0-4.4h25.4
		V183.9z"/>
</g>
<rect x="156.4" y="190.9" fill="#F1F2F2" width="199.2" height="146.6"/>
<text transform="matrix(1 0 0 1 185.8828 65.772)"><tspan x="0" y="0" font-family="'Krungthep'" font-size="30.2919" letter-spacing="-1">B</tspan><tspan x="18.7" y="0" font-family="'Krungthep'" font-size="30.2919" letter-spacing="-1">L</tspan><tspan x="34.9" y="0" font-family="'Krungthep'" font-size="30.2919" letter-spacing="-1">OCK </tspan><tspan x="99.3" y="0" font-family="'Krungthep'" font-size="30.2919" letter-spacing="-1">#</tspan><tspan x="123.1" y="0" font-family="'Krungthep'" font-size="30.2919">3</tspan></text>
<text transform="matrix(1 0 0 1 192.873 228.4565)" font-family="'Krungthep'" font-size="23.3014">TX   82JV ...</text>
<text transform="matrix(1 0 0 1 192.873 269.8169)" font-family="'Krungthep'" font-size="23.3014">TX   3LKD ...</text>
<text transform="matrix(1 0 0 1 192.873 314.0894)" font-family="'Krungthep'" font-size="23.3014">TX   V8F1 ...</text>
<text transform="matrix(1 0 0 1 194.0371 162.6299)" font-family="'Krungthep'" font-size="23.3014">Prev TX #2</text>
<path d="M117.8,108.9h276.4v266.2H117.8V108.9z M117.8,5.8h276.4v98.4H117.8V5.8z M112,380.9h288V0H112V380.9z"/>
</svg>
