<?xml version="1.0" encoding="utf-8"?>
<!-- Generator: Adobe Illustrator 16.0.0, SVG Export Plug-In . SVG Version: 6.00 Build 0)  -->
<!DOCTYPE svg PUBLIC "-//W3C//DTD SVG 1.1//EN" "http://www.w3.org/Graphics/SVG/1.1/DTD/svg11.dtd">
<svg version="1.1" id="Layer_1" xmlns="http://www.w3.org/2000/svg" xmlns:xlink="http://www.w3.org/1999/xlink" x="0px" y="0px"
	 width="247.2px" height="327.1px" viewBox="0 0 247.2 327.1" enable-background="new 0 0 247.2 327.1" xml:space="preserve">
<rect x="38.7" y="163.5" fill="#F1F2F2" width="171" height="125.9"/>
<path d="M5,93.5h237.2V322H5V93.5z M5,5.1h237.2v84.5H5V5.1z M0,327h247.2V0.1H0V327z"/>
<text transform="matrix(1 0 0 1 63.084 58.5146)"><tspan x="0" y="0" font-family="'Krungthep'" font-size="26" letter-spacing="-1">B</tspan><tspan x="16" y="0" font-family="'Krungthep'" font-size="26" letter-spacing="-1">L</tspan><tspan x="29.9" y="0" font-family="'Krungthep'" font-size="26" letter-spacing="-1">OCK </tspan><tspan x="85.2" y="0" font-family="'Krungthep'" font-size="26" letter-spacing="-1">#</tspan><tspan x="105.6" y="0" font-family="'Krungthep'" font-size="26">1</tspan></text>
<text transform="matrix(1 0 0 1 66.0835 196.1489)" font-family="'Krungthep'" font-size="20">TX   4AH7 ...</text>
<text transform="matrix(1 0 0 1 66.0835 231.6489)" font-family="'Krungthep'" font-size="20">TX   008Z ...</text>
<text transform="matrix(1 0 0 1 66.0835 269.6489)" font-family="'Krungthep'" font-size="20">TX   9AK7 ...</text>
<text transform="matrix(1 0 0 1 80.4233 140.6484)" font-family="'Krungthep'" font-size="20">Genesis</text>
</svg>
