<?xml version="1.0" encoding="utf-8"?>
<!-- Generator: Adobe Illustrator 16.0.0, SVG Export Plug-In . SVG Version: 6.00 Build 0)  -->
<!DOCTYPE svg PUBLIC "-//W3C//DTD SVG 1.1//EN" "http://www.w3.org/Graphics/SVG/1.1/DTD/svg11.dtd">
<svg version="1.1" id="Layer_1" xmlns="http://www.w3.org/2000/svg" xmlns:xlink="http://www.w3.org/1999/xlink" x="0px" y="0px"
	 width="247.2px" height="327.1px" viewBox="0 0 247.2 327.1" style="enable-background:new 0 0 247.2 327.1;" xml:space="preserve"
	>
<style type="text/css">
<![CDATA[
	.st0{enable-background:new    ;}
	.st1{fill:#F1F2F2;}
]]>
</style>
<rect x="38.7" y="163.5" class="st1" width="171" height="125.9"/>
<path d="M5,93.5h237.2V322H5V93.5z M5,5.1h237.2v84.5H5V5.1z M0,327h247.2V0.1H0V327z"/>
<g class="st0">
	<path d="M65.3,58.5V39h8.7c1.2,0,2.2,0.4,3.1,1.3c0.8,0.9,1.3,1.9,1.3,3v1.1c0,1.3-0.4,2.3-1.1,3s-1.8,1.2-3.2,1.3
		c1.4,0,2.5,0.4,3.2,1.3c0.7,0.9,1.1,1.9,1.1,3v1.1c0,1.2-0.4,2.2-1.3,3c-0.9,0.9-1.9,1.3-3,1.3H65.3z M69.6,47.7h2.2
		c0.6,0,1.1-0.2,1.5-0.6c0.4-0.4,0.6-0.9,0.6-1.5v-2.2c0-0.6-0.2-1.1-0.6-1.5c-0.4-0.4-0.9-0.6-1.5-0.6h-2.2V47.7z M69.6,56.3h2.2
		c0.6,0,1.1-0.2,1.5-0.6c0.4-0.4,0.6-0.9,0.6-1.5V52c0-1.4-0.7-2.2-2.2-2.2h-2.2V56.3z"/>
</g>
<g class="st0">
	<path d="M81.3,58.5V39h4.3v17.3h6.5v2.2H81.3z"/>
</g>
<g class="st0">
	<path d="M99.5,39h4.3c1.2,0,2.2,0.4,3.1,1.3c0.8,0.9,1.3,1.9,1.3,3v10.8c0,1.2-0.4,2.2-1.3,3c-0.9,0.9-1.9,1.3-3.1,1.3h-4.3
		c-1.2,0-2.2-0.4-3.1-1.3c-0.9-0.8-1.3-1.9-1.3-3.1V43.3c0-1.2,0.4-2.2,1.3-3.1C97.3,39.4,98.3,39,99.5,39z M99.5,43.3v10.8
		c0,0.6,0.2,1.1,0.6,1.5c0.4,0.4,0.9,0.6,1.5,0.6s1.1-0.2,1.5-0.6c0.4-0.4,0.6-0.9,0.6-1.5V43.3c0-0.6-0.2-1.1-0.6-1.5
		c-0.4-0.4-0.9-0.6-1.5-0.6c-0.6,0-1.1,0.2-1.5,0.6C99.7,42.2,99.5,42.8,99.5,43.3z"/>
	<path d="M124.5,54.2c-0.2,2.9-1.6,4.3-4.3,4.3h-4.3c-1.2,0-2.2-0.4-3.1-1.3c-0.9-0.8-1.3-1.9-1.3-3.1V43.3c0-1.2,0.4-2.2,1.3-3
		c0.8-0.9,1.9-1.3,3.1-1.3h4.3c2.7,0,4.2,1.4,4.3,4.3h-2.2c-0.2-1.4-0.9-2.2-2.2-2.2H118c-0.6,0-1.1,0.2-1.5,0.6
		c-0.4,0.4-0.6,0.9-0.6,1.5v10.8c0,0.6,0.2,1.1,0.6,1.5c0.4,0.4,0.9,0.6,1.5,0.6h2.2c1.3,0,2-0.7,2.2-2.2H124.5z"/>
	<path d="M127.8,58.5V39h4.3v8l7-8h3.8l-8.7,9.8l8.7,9.8h-4.3l-6.5-7.6v7.6H127.8z"/>
</g>
<g class="st0">
	<path d="M157,39h2.2l-1.1,4.3h4.3l1.1-4.3h2.2l-1.1,4.3h3.2v2.2H164l-1.1,4.3h2.7V52h-3.2l-1.1,4.3h-2.2l1.1-4.3h-4.3l-1.1,4.3
		h-2.2l1.1-4.3h-3.2v-2.2h3.8l1.1-4.3h-2.7v-2.2h3.2L157,39z M157.5,45.5l-1.1,4.3h4.3l1.1-4.3H157.5z"/>
</g>
<g class="st0">
	<path d="M175.2,58.5V43.3H173v-2.2l4.3-2.2h2.2v19.5H175.2z"/>
</g>
<g class="st0">
	<path d="M87.1,132.3h5v5c0,1.1-0.4,1.9-1.1,2.5s-1.5,0.8-2.3,0.8h-3.3c-0.9,0-1.7-0.3-2.3-1c-0.7-0.7-1-1.4-1-2.3V129
		c0-0.9,0.3-1.7,1-2.3c0.6-0.7,1.4-1,2.4-1h3.3c2.1,0,3.2,1.1,3.3,3.3h-1.7c-0.1-1.1-0.7-1.7-1.7-1.7h-1.7c-0.5,0-0.9,0.2-1.2,0.5
		s-0.5,0.7-0.5,1.2v8.3c0,0.5,0.2,0.8,0.5,1.2s0.7,0.5,1.2,0.5c1.1-0.1,1.6-0.6,1.7-1.7V134h-1.7V132.3z"/>
	<path d="M105.4,135.6h-6.7v1.7c0,0.4,0.2,0.8,0.5,1.2c0.3,0.3,0.7,0.5,1.2,0.5h1.7c1.1,0,1.7-0.6,1.7-1.7h1.7
		c-0.3,2.2-1.4,3.3-3.3,3.3h-3.3c-0.9,0-1.7-0.3-2.3-1c-0.7-0.7-1-1.4-1-2.3v-5c0-0.9,0.3-1.7,1-2.4s1.4-1,2.3-1h3.3
		c0.9,0,1.7,0.3,2.3,1c0.7,0.7,1,1.4,1,2.4V135.6z M98.8,134h3.3v-1.7c0-0.5-0.2-0.9-0.5-1.2c-0.3-0.3-0.7-0.5-1.2-0.5
		c-0.5,0-0.9,0.2-1.2,0.5s-0.5,0.7-0.5,1.2V134z"/>
	<path d="M108.8,140.6V129h3.3v1.7c0.1-0.6,0.2-1,0.5-1.3c0.3-0.3,0.7-0.4,1.2-0.4h1.7c0.9,0,1.7,0.3,2.3,1c0.7,0.7,1,1.4,1,2.4v8.3
		h-3.3v-8.3c0-0.5-0.2-0.9-0.5-1.2c-0.3-0.3-0.7-0.5-1.2-0.5c-0.5,0-0.9,0.2-1.2,0.5s-0.5,0.7-0.5,1.2v8.3H108.8z"/>
	<path d="M132.1,135.6h-6.7v1.7c0,0.4,0.2,0.8,0.5,1.2c0.3,0.3,0.7,0.5,1.2,0.5h1.7c1.1,0,1.7-0.6,1.7-1.7h1.7
		c-0.3,2.2-1.4,3.3-3.3,3.3h-3.3c-0.9,0-1.7-0.3-2.3-1c-0.7-0.7-1-1.4-1-2.3v-5c0-0.9,0.3-1.7,1-2.4s1.4-1,2.3-1h3.3
		c0.9,0,1.7,0.3,2.3,1c0.7,0.7,1,1.4,1,2.4V135.6z M125.4,134h3.3v-1.7c0-0.5-0.2-0.9-0.5-1.2c-0.3-0.3-0.7-0.5-1.2-0.5
		c-0.5,0-0.9,0.2-1.2,0.5s-0.5,0.7-0.5,1.2V134z"/>
	<path d="M143.7,132.3h-1.7c-0.1-1.1-0.7-1.7-1.6-1.7c-0.6,0-1,0.1-1.3,0.3s-0.4,0.6-0.4,1c0,0.5,0.8,1.2,2.4,2
		c1.3,0.7,2.1,1.3,2.3,1.8c0.2,0.5,0.3,1,0.3,1.5c0,0.9-0.3,1.7-1,2.4c-0.7,0.7-1.4,1-2.3,1h-1.7c-2.2,0-3.3-1.1-3.3-3.3h1.7
		c0.1,1.1,0.7,1.7,1.6,1.7c0.6,0,1-0.1,1.3-0.4s0.4-0.6,0.4-1c0-0.5-0.8-1.1-2.4-2c-1.3-0.7-2.1-1.3-2.3-1.8c-0.2-0.5-0.3-1-0.3-1.5
		c0-0.9,0.3-1.7,1-2.4s1.4-1,2.3-1h1.7C142.5,129,143.6,130.1,143.7,132.3z"/>
	<path d="M147.1,127.3v-1.7h3.3v1.7H147.1z M147.1,140.6V129h3.3v11.7H147.1z"/>
	<path d="M162.1,132.3h-1.7c-0.1-1.1-0.7-1.7-1.6-1.7c-0.6,0-1,0.1-1.3,0.3s-0.4,0.6-0.4,1c0,0.5,0.8,1.2,2.4,2
		c1.3,0.7,2.1,1.3,2.3,1.8c0.2,0.5,0.3,1,0.3,1.5c0,0.9-0.3,1.7-1,2.4c-0.7,0.7-1.4,1-2.3,1h-1.7c-2.2,0-3.3-1.1-3.3-3.3h1.7
		c0.1,1.1,0.7,1.7,1.6,1.7c0.6,0,1-0.1,1.3-0.4s0.4-0.6,0.4-1c0-0.5-0.8-1.1-2.4-2c-1.3-0.7-2.1-1.3-2.3-1.8c-0.2-0.5-0.3-1-0.3-1.5
		c0-0.9,0.3-1.7,1-2.4s1.4-1,2.3-1h1.7C160.8,129,161.9,130.1,162.1,132.3z"/>
</g>
<g>
	<g>
		<path d="M48.6,189.8V186h1.3v3.8H48.6z M51.1,189.8V186h1.2v3.8H51.1z"/>
		<path d="M57.3,197.3v-10h-2.5V186h7.5v1.3h-2.5v10H57.3z"/>
		<path d="M63.6,197.3V186h2.5v3.8c0.1-0.4,0.2-0.7,0.4-0.9s0.5-0.3,0.9-0.3h1.3c0.7,0,1.3,0.2,1.8,0.7s0.7,1.1,0.7,1.8v6.2h-2.5
			v-6.2c0-0.3-0.1-0.6-0.4-0.9s-0.5-0.4-0.9-0.4c-0.3,0-0.6,0.1-0.9,0.4s-0.4,0.5-0.4,0.9v6.2H63.6z"/>
		<path d="M81.1,193.5h-5v1.3c0,0.3,0.1,0.6,0.4,0.9s0.5,0.4,0.9,0.4h1.3c0.8,0,1.2-0.4,1.2-1.2h1.3c-0.2,1.7-1,2.5-2.5,2.5h-2.5
			c-0.7,0-1.3-0.2-1.8-0.7s-0.7-1.1-0.7-1.8v-3.8c0-0.7,0.2-1.3,0.7-1.8s1.1-0.7,1.8-0.7h2.5c0.7,0,1.3,0.2,1.8,0.7s0.7,1.1,0.7,1.8
			V193.5z M76.1,192.3h2.5v-1.2c0-0.3-0.1-0.6-0.4-0.9s-0.5-0.4-0.9-0.4c-0.3,0-0.6,0.1-0.9,0.4s-0.4,0.5-0.4,0.9V192.3z"/>
		<path d="M88.5,197.3v-10H86V186h7.5v1.3H91v10H88.5z"/>
		<path d="M94.8,187.3V186h2.5v1.3H94.8z M94.8,197.3v-8.8h2.5v8.8H94.8z"/>
		<path d="M107.3,197.3h-2.5v-6.2c0-0.3-0.1-0.6-0.4-0.9s-0.5-0.4-0.9-0.4c-0.3,0-0.6,0.1-0.9,0.4s-0.4,0.5-0.4,0.9v6.2h-2.5v-8.8
			h2.5v1.3c0.1-0.4,0.2-0.7,0.4-0.9s0.5-0.3,0.9-0.3h1.3c0.8,0,1.5,0.3,1.9,0.9c0.2-0.3,0.4-0.5,0.8-0.7s0.7-0.2,1.1-0.2h1.2
			c0.7,0,1.3,0.2,1.8,0.7s0.7,1.1,0.7,1.8v6.2h-2.5v-6.2c0-0.3-0.1-0.6-0.4-0.9s-0.5-0.4-0.9-0.4c-0.3,0-0.6,0.1-0.9,0.4
			s-0.4,0.5-0.4,0.9V197.3z"/>
		<path d="M122.3,193.5h-5v1.3c0,0.3,0.1,0.6,0.4,0.9s0.5,0.4,0.9,0.4h1.3c0.8,0,1.2-0.4,1.2-1.2h1.3c-0.2,1.7-1,2.5-2.5,2.5h-2.5
			c-0.7,0-1.3-0.2-1.8-0.7s-0.7-1.1-0.7-1.8v-3.8c0-0.7,0.2-1.3,0.7-1.8s1.1-0.7,1.8-0.7h2.5c0.7,0,1.3,0.2,1.8,0.7s0.7,1.1,0.7,1.8
			V193.5z M117.3,192.3h2.5v-1.2c0-0.3-0.1-0.6-0.4-0.9s-0.5-0.4-0.9-0.4c-0.3,0-0.6,0.1-0.9,0.4s-0.4,0.5-0.4,0.9V192.3z"/>
		<path d="M131,191.1h-1.2c-0.1-0.8-0.5-1.3-1.2-1.3c-0.4,0-0.8,0.1-1,0.3s-0.3,0.4-0.3,0.8c0,0.4,0.6,0.9,1.8,1.5
			c1,0.5,1.6,1,1.7,1.3s0.2,0.7,0.2,1.1c0,0.7-0.2,1.3-0.7,1.8s-1.1,0.7-1.8,0.7h-1.3c-1.7,0-2.5-0.8-2.5-2.5h1.3
			c0.1,0.8,0.5,1.2,1.2,1.2c0.4,0,0.8-0.1,1-0.3s0.3-0.4,0.3-0.8c0-0.4-0.6-0.9-1.8-1.5c-1-0.5-1.6-1-1.7-1.3s-0.2-0.7-0.2-1.1
			c0-0.7,0.2-1.3,0.7-1.8s1.1-0.7,1.8-0.7h1.3C130.1,188.5,130.9,189.4,131,191.1z"/>
		<path d="M49.8,204h2.5c0.7,0,1.3,0.2,1.8,0.7s0.7,1.1,0.7,1.8v6.3c0,0.7-0.2,1.3-0.7,1.8s-1.1,0.7-1.8,0.7h-2.5
			c-0.7,0-1.3-0.2-1.8-0.7s-0.7-1.1-0.7-1.8v-6.3c0-0.7,0.2-1.3,0.7-1.8S49.2,204,49.8,204z M52.3,206.3c-0.2-0.7-0.6-1-1.2-1
			c-0.3,0-0.6,0.1-0.9,0.4s-0.4,0.5-0.4,0.9v4.3L52.3,206.3z M49.9,213c0.1,0.3,0.2,0.6,0.4,0.8s0.5,0.3,0.8,0.3
			c0.3,0,0.6-0.1,0.9-0.4s0.4-0.5,0.4-0.9v-4.2L49.9,213z"/>
		<path d="M57.3,204h7.5l0,1.3l-3.7,2.5h1.3c0.7,0,1.3,0.3,1.8,0.8s0.7,1.1,0.7,1.7v2.5c0,0.7-0.2,1.3-0.7,1.8s-1.1,0.7-1.8,0.7
			h-2.5c-1.5,0-2.3-0.8-2.5-2.5h1.3c0.1,0.8,0.5,1.2,1.2,1.2h1.3c0.3,0,0.6-0.1,0.9-0.4s0.4-0.5,0.4-0.9v-2.5c0-0.2-0.1-0.5-0.3-0.8
			s-0.5-0.5-0.9-0.5h-2.5v-1.3l3.8-2.5h-5V204z"/>
		<path d="M67.3,215.3l5-12.5h1.2l-5,12.5H67.3z"/>
		<path d="M82.3,204v8.8c0,0.8-0.2,1.5-0.6,1.9s-1,0.6-1.9,0.6h-2.5c-0.8,0-1.5-0.2-1.9-0.6s-0.6-1-0.6-1.9v-2.5h2.5v2.5
			c0,0.3,0.1,0.6,0.4,0.9s0.5,0.4,0.9,0.4c0.3,0,0.6-0.1,0.9-0.4s0.4-0.5,0.4-0.9V204H82.3z"/>
		<path d="M89.9,210.3v-1.2c0-0.3-0.1-0.6-0.4-0.9s-0.5-0.4-0.9-0.4h-1.3c-0.7,0-1.2,0.4-1.2,1.3h-1.3c0.2-1.7,1-2.5,2.5-2.5h2.5
			c0.7,0,1.3,0.2,1.8,0.7s0.7,1.1,0.7,1.8v6.2h-2.5V214c-0.1,0.8-0.5,1.3-1.3,1.3h-1.3c-0.7,0-1.3-0.2-1.8-0.7s-0.7-1.1-0.7-1.8v0
			c0-0.7,0.2-1.3,0.7-1.8s1.1-0.7,1.8-0.7H89.9z M89.9,211.5h-1.3c-0.3,0-0.6,0.1-0.9,0.4s-0.4,0.5-0.4,0.9v0c0,0.3,0.1,0.6,0.4,0.9
			s0.5,0.4,0.9,0.4s0.6-0.1,0.9-0.4s0.4-0.5,0.4-0.9V211.5z"/>
		<path d="M94.8,215.3v-8.8h2.5v1.3c0.1-0.4,0.2-0.7,0.4-0.9s0.5-0.3,0.9-0.3h1.3c0.7,0,1.3,0.2,1.8,0.7s0.7,1.1,0.7,1.8v6.2h-2.5
			v-6.2c0-0.3-0.1-0.6-0.4-0.9s-0.5-0.4-0.9-0.4c-0.3,0-0.6,0.1-0.9,0.4s-0.4,0.5-0.4,0.9v6.2H94.8z"/>
		<path d="M104.8,215.3l5-12.5h1.2l-5,12.5H104.8z"/>
		<path d="M114.9,206.5h-1.3c0.2-1.7,1-2.5,2.5-2.5h2.5c0.7,0,1.3,0.2,1.8,0.7s0.7,1.1,0.7,1.8v0.6c0,0.9-0.8,2-2.4,3.4l-0.2,0.1
			c-1.6,1.4-2.4,2.5-2.4,3.3v0.1h5v1.3h-7.5V214c0-0.9,0.8-2,2.4-3.4l0.2-0.1c1.6-1.4,2.4-2.5,2.4-3.4v-0.6c0-0.3-0.1-0.6-0.4-0.9
			s-0.5-0.4-0.9-0.4h-1.3C115.3,205.3,114.9,205.7,114.9,206.5z"/>
		<path d="M126.1,204h2.5c0.7,0,1.3,0.2,1.8,0.7s0.7,1.1,0.7,1.8v6.3c0,0.7-0.2,1.3-0.7,1.8s-1.1,0.7-1.8,0.7h-2.5
			c-0.7,0-1.3-0.2-1.8-0.7c-0.5-0.5-0.7-1.1-0.7-1.8v-6.3c0-0.7,0.2-1.3,0.7-1.8C124.8,204.3,125.4,204,126.1,204z M128.6,206.3
			c-0.2-0.7-0.6-1-1.2-1c-0.3,0-0.6,0.1-0.9,0.4s-0.4,0.5-0.4,0.9v4.3L128.6,206.3z M126.1,213c0.1,0.3,0.2,0.6,0.4,0.8
			s0.5,0.3,0.8,0.3c0.3,0,0.6-0.1,0.9-0.4s0.4-0.5,0.4-0.9v-4.2L126.1,213z"/>
		<path d="M136.1,204h2.5c0.7,0,1.3,0.2,1.8,0.7s0.7,1.1,0.7,1.8v6.3c0,0.7-0.2,1.3-0.7,1.8s-1.1,0.7-1.8,0.7h-2.5
			c-0.7,0-1.3-0.2-1.8-0.7s-0.7-1.1-0.7-1.8v-6.3c0-0.7,0.2-1.3,0.7-1.8S135.4,204,136.1,204z M138.6,206.3c-0.2-0.7-0.6-1-1.2-1
			c-0.3,0-0.6,0.1-0.9,0.4s-0.4,0.5-0.4,0.9v4.3L138.6,206.3z M136.1,213c0.1,0.3,0.2,0.6,0.4,0.8s0.5,0.3,0.8,0.3
			c0.3,0,0.6-0.1,0.9-0.4s0.4-0.5,0.4-0.9v-4.2L136.1,213z"/>
		<path d="M148.6,210.3c-0.1,0.8-0.5,1.3-1.2,1.3h-1.3c-0.7,0-1.3-0.2-1.8-0.7s-0.7-1.1-0.7-1.8v-2.5c0-0.7,0.2-1.3,0.7-1.8
			s1.1-0.7,1.8-0.7h2.5c0.7,0,1.3,0.2,1.8,0.7s0.7,1.1,0.7,1.8v4.4c0,1.2-0.4,2.2-1.3,3.1s-1.9,1.3-3.1,1.3h-1.9V214h1.2
			c0.7,0,1.3-0.2,1.8-0.7s0.7-1.1,0.7-1.8V210.3z M146.1,206.5v2.5c0,0.3,0.1,0.6,0.4,0.9s0.5,0.4,0.9,0.4c0.3,0,0.6-0.1,0.9-0.4
			s0.4-0.5,0.4-0.9v-2.5c0-0.3-0.1-0.6-0.4-0.9s-0.5-0.4-0.9-0.4c-0.3,0-0.6,0.1-0.9,0.4S146.1,206.2,146.1,206.5z"/>
		<path d="M54.9,230.8c-0.1,1.7-0.9,2.5-2.5,2.5h-2.5c-0.7,0-1.3-0.2-1.8-0.7s-0.7-1.1-0.7-1.8v-6.3c0-0.7,0.2-1.3,0.7-1.8
			s1.1-0.7,1.8-0.7h2.5c1.6,0,2.4,0.8,2.5,2.5h-1.3c-0.1-0.8-0.5-1.2-1.2-1.2h-1.3c-0.3,0-0.6,0.1-0.9,0.4s-0.4,0.5-0.4,0.9v6.3
			c0,0.3,0.1,0.6,0.4,0.9s0.5,0.4,0.9,0.4h1.3c0.7,0,1.1-0.4,1.2-1.2H54.9z"/>
		<path d="M57.3,233.3V222h2.5v3.8c0.1-0.4,0.2-0.7,0.4-0.9s0.5-0.3,0.9-0.3h1.3c0.7,0,1.3,0.2,1.8,0.7s0.7,1.1,0.7,1.8v6.2h-2.5
			v-6.2c0-0.3-0.1-0.6-0.4-0.9s-0.5-0.4-0.9-0.4c-0.3,0-0.6,0.1-0.9,0.4s-0.4,0.5-0.4,0.9v6.2H57.3z"/>
		<path d="M72.3,228.3v-1.2c0-0.3-0.1-0.6-0.4-0.9s-0.5-0.4-0.9-0.4h-1.3c-0.7,0-1.2,0.4-1.2,1.3h-1.3c0.2-1.7,1-2.5,2.5-2.5h2.5
			c0.7,0,1.3,0.2,1.8,0.7s0.7,1.1,0.7,1.8v6.2h-2.5V232c-0.1,0.8-0.5,1.3-1.3,1.3h-1.3c-0.7,0-1.3-0.2-1.8-0.7s-0.7-1.1-0.7-1.8v0
			c0-0.7,0.2-1.3,0.7-1.8s1.1-0.7,1.8-0.7H72.3z M72.3,229.5h-1.3c-0.3,0-0.6,0.1-0.9,0.4s-0.4,0.5-0.4,0.9v0c0,0.3,0.1,0.6,0.4,0.9
			s0.5,0.4,0.9,0.4s0.6-0.1,0.9-0.4s0.4-0.5,0.4-0.9V229.5z"/>
		<path d="M77.3,233.3v-8.8h2.5v1.3c0.1-0.4,0.2-0.7,0.4-0.9s0.5-0.3,0.9-0.3h1.3c0.7,0,1.3,0.2,1.8,0.7s0.7,1.1,0.7,1.8v6.2h-2.5
			v-6.2c0-0.3-0.1-0.6-0.4-0.9s-0.5-0.4-0.9-0.4c-0.3,0-0.6,0.1-0.9,0.4s-0.4,0.5-0.4,0.9v6.2H77.3z"/>
		<path d="M93.6,227.1h-1.2c-0.1-0.8-0.5-1.3-1.3-1.3c-0.3,0-0.6,0.1-0.9,0.4s-0.4,0.5-0.4,0.9v3.8c0,0.3,0.1,0.6,0.4,0.9
			s0.5,0.4,0.9,0.4c0.7,0,1.2-0.4,1.3-1.2h1.2c-0.1,1.7-0.9,2.5-2.5,2.5h-1.3c-0.7,0-1.3-0.2-1.8-0.7s-0.7-1.1-0.7-1.8v-3.8
			c0-0.7,0.2-1.3,0.7-1.8s1.1-0.7,1.8-0.7h1.3C92.7,224.5,93.5,225.4,93.6,227.1z"/>
		<path d="M103.6,229.5h-5v1.3c0,0.3,0.1,0.6,0.4,0.9s0.5,0.4,0.9,0.4h1.3c0.8,0,1.2-0.4,1.2-1.2h1.3c-0.2,1.7-1,2.5-2.5,2.5h-2.5
			c-0.7,0-1.3-0.2-1.8-0.7s-0.7-1.1-0.7-1.8v-3.8c0-0.7,0.2-1.3,0.7-1.8s1.1-0.7,1.8-0.7h2.5c0.7,0,1.3,0.2,1.8,0.7s0.7,1.1,0.7,1.8
			V229.5z M98.6,228.3h2.5v-1.2c0-0.3-0.1-0.6-0.4-0.9s-0.5-0.4-0.9-0.4c-0.3,0-0.6,0.1-0.9,0.4s-0.4,0.5-0.4,0.9V228.3z"/>
		<path d="M106.1,233.3V222h2.5v11.2H106.1z"/>
		<path d="M111.1,233.3V222h2.5v11.2H111.1z"/>
		<path d="M118.6,224.5h2.5c0.7,0,1.3,0.2,1.8,0.7s0.7,1.1,0.7,1.8v3.8c0,0.7-0.2,1.3-0.7,1.8s-1.1,0.7-1.8,0.7h-2.5
			c-0.7,0-1.3-0.2-1.8-0.7s-0.7-1.1-0.7-1.8v-3.8c0-0.7,0.2-1.3,0.7-1.8S117.9,224.5,118.6,224.5z M118.6,227.1v3.8
			c0,0.3,0.1,0.6,0.4,0.9s0.5,0.4,0.9,0.4s0.6-0.1,0.9-0.4s0.4-0.5,0.4-0.9v-3.8c0-0.3-0.1-0.6-0.4-0.9s-0.5-0.4-0.9-0.4
			c-0.3,0-0.6,0.1-0.9,0.4S118.6,226.7,118.6,227.1z"/>
		<path d="M128.6,233.3h-2.5v-8.8h2.5v2.5c0.1-0.8,0.4-1.5,0.8-1.9s1-0.6,1.7-0.6h1.2v2.5h-2.5c-0.3,0-0.6,0.1-0.9,0.4
			s-0.4,0.5-0.4,0.9V233.3z"/>
		<path d="M139.7,224.5h2.5c0.7,0,1.3,0.2,1.8,0.7s0.7,1.1,0.7,1.8v3.8c0,0.7-0.2,1.3-0.7,1.8s-1.1,0.7-1.8,0.7h-2.5
			c-0.7,0-1.3-0.2-1.8-0.7s-0.7-1.1-0.7-1.8v-3.8c0-0.7,0.2-1.3,0.7-1.8S139.1,224.5,139.7,224.5z M139.7,227.1v3.8
			c0,0.3,0.1,0.6,0.4,0.9s0.5,0.4,0.9,0.4s0.6-0.1,0.9-0.4s0.4-0.5,0.4-0.9v-3.8c0-0.3-0.1-0.6-0.4-0.9s-0.5-0.4-0.9-0.4
			c-0.3,0-0.6,0.1-0.9,0.4S139.7,226.7,139.7,227.1z"/>
		<path d="M147.2,233.3v-8.8h2.5v1.3c0.1-0.4,0.2-0.7,0.4-0.9s0.5-0.3,0.9-0.3h1.3c0.7,0,1.3,0.2,1.8,0.7s0.7,1.1,0.7,1.8v6.2h-2.5
			v-6.2c0-0.3-0.1-0.6-0.4-0.9s-0.5-0.4-0.9-0.4c-0.3,0-0.6,0.1-0.9,0.4s-0.4,0.5-0.4,0.9v6.2H147.2z"/>
		<path d="M160.9,233.3V222h2.5v3.8c0.1-0.4,0.2-0.7,0.4-0.9s0.5-0.3,0.9-0.3h1.3c0.7,0,1.3,0.2,1.8,0.7s0.7,1.1,0.7,1.8v3.8
			c0,0.7-0.2,1.3-0.7,1.8s-1.1,0.7-1.8,0.7H160.9z M163.4,232h1.3c0.3,0,0.6-0.1,0.9-0.4s0.4-0.5,0.4-0.9v-3.8
			c0-0.3-0.1-0.6-0.4-0.9s-0.5-0.4-0.9-0.4c-0.3,0-0.6,0.1-0.9,0.4s-0.4,0.5-0.4,0.9V232z"/>
		<path d="M173.4,233.3h-2.5v-8.8h2.5v2.5c0.1-0.8,0.4-1.5,0.8-1.9s1-0.6,1.7-0.6h1.2v2.5h-2.5c-0.3,0-0.6,0.1-0.9,0.4
			s-0.4,0.5-0.4,0.9V233.3z"/>
		<path d="M178.4,223.3V222h2.5v1.3H178.4z M178.4,233.3v-8.8h2.5v8.8H178.4z"/>
		<path d="M183.4,233.3v-8.8h2.5v1.3c0.1-0.4,0.2-0.7,0.4-0.9s0.5-0.3,0.9-0.3h1.3c0.7,0,1.3,0.2,1.8,0.7s0.7,1.1,0.7,1.8v6.2h-2.5
			v-6.2c0-0.3-0.1-0.6-0.4-0.9s-0.5-0.4-0.9-0.4c-0.3,0-0.6,0.1-0.9,0.4s-0.4,0.5-0.4,0.9v6.2H183.4z"/>
		<path d="M193.4,233.3V222h2.5v5.6l3.8-3.1h2.5l-5.2,4.4l5.2,4.4h-2.5l-3.8-3.1v3.1H193.4z"/>
		<path d="M49.8,242.5h2.5c0.7,0,1.3,0.2,1.8,0.7s0.7,1.1,0.7,1.8v3.8c0,0.7-0.2,1.3-0.7,1.8s-1.1,0.7-1.8,0.7h-2.5
			c-0.7,0-1.3-0.2-1.8-0.7s-0.7-1.1-0.7-1.8v-3.8c0-0.7,0.2-1.3,0.7-1.8S49.2,242.5,49.8,242.5z M49.8,245.1v3.8
			c0,0.3,0.1,0.6,0.4,0.9s0.5,0.4,0.9,0.4s0.6-0.1,0.9-0.4s0.4-0.5,0.4-0.9v-3.8c0-0.3-0.1-0.6-0.4-0.9s-0.5-0.4-0.9-0.4
			c-0.3,0-0.6,0.1-0.9,0.4S49.8,244.7,49.8,245.1z"/>
		<path d="M58.6,251.3v-7.5h-1.3v-1.3h1.3v-0.1c0-0.7,0.2-1.2,0.7-1.7s1-0.7,1.7-0.7h2.6v1.3h-1.4c-0.3,0-0.6,0.1-0.8,0.3
			s-0.3,0.5-0.3,0.8v0.1h1.3v1.3h-1.3v7.5H58.6z"/>
		<path d="M74.8,245.1h-1.2c-0.1-0.8-0.5-1.3-1.2-1.3c-0.4,0-0.8,0.1-1,0.3s-0.3,0.4-0.3,0.8c0,0.4,0.6,0.9,1.8,1.5
			c1,0.5,1.6,1,1.7,1.3s0.2,0.7,0.2,1.1c0,0.7-0.2,1.3-0.7,1.8s-1.1,0.7-1.8,0.7H71c-1.7,0-2.5-0.8-2.5-2.5h1.3
			c0.1,0.8,0.5,1.2,1.2,1.2c0.4,0,0.8-0.1,1-0.3s0.3-0.4,0.3-0.8c0-0.4-0.6-0.9-1.8-1.5c-1-0.5-1.6-1-1.7-1.3s-0.2-0.7-0.2-1.1
			c0-0.7,0.2-1.3,0.7-1.8s1.1-0.7,1.8-0.7h1.3C73.8,242.5,74.7,243.4,74.8,245.1z"/>
		<path d="M84.8,247.5h-5v1.3c0,0.3,0.1,0.6,0.4,0.9s0.5,0.4,0.9,0.4h1.3c0.8,0,1.2-0.4,1.2-1.2h1.3c-0.2,1.7-1,2.5-2.5,2.5h-2.5
			c-0.7,0-1.3-0.2-1.8-0.7s-0.7-1.1-0.7-1.8v-3.8c0-0.7,0.2-1.3,0.7-1.8s1.1-0.7,1.8-0.7h2.5c0.7,0,1.3,0.2,1.8,0.7s0.7,1.1,0.7,1.8
			V247.5z M79.8,246.3h2.5v-1.2c0-0.3-0.1-0.6-0.4-0.9s-0.5-0.4-0.9-0.4c-0.3,0-0.6,0.1-0.9,0.4s-0.4,0.5-0.4,0.9V246.3z"/>
		<path d="M93.5,245.1h-1.2c-0.1-0.8-0.5-1.3-1.3-1.3c-0.3,0-0.6,0.1-0.9,0.4s-0.4,0.5-0.4,0.9v3.8c0,0.3,0.1,0.6,0.4,0.9
			s0.5,0.4,0.9,0.4c0.7,0,1.2-0.4,1.3-1.2h1.2c-0.1,1.7-0.9,2.5-2.5,2.5h-1.3c-0.7,0-1.3-0.2-1.8-0.7s-0.7-1.1-0.7-1.8v-3.8
			c0-0.7,0.2-1.3,0.7-1.8s1.1-0.7,1.8-0.7H91C92.6,242.5,93.4,243.4,93.5,245.1z"/>
		<path d="M98.5,242.5h2.5c0.7,0,1.3,0.2,1.8,0.7s0.7,1.1,0.7,1.8v3.8c0,0.7-0.2,1.3-0.7,1.8s-1.1,0.7-1.8,0.7h-2.5
			c-0.7,0-1.3-0.2-1.8-0.7s-0.7-1.1-0.7-1.8v-3.8c0-0.7,0.2-1.3,0.7-1.8S97.8,242.5,98.5,242.5z M98.5,245.1v3.8
			c0,0.3,0.1,0.6,0.4,0.9s0.5,0.4,0.9,0.4s0.6-0.1,0.9-0.4s0.4-0.5,0.4-0.9v-3.8c0-0.3-0.1-0.6-0.4-0.9s-0.5-0.4-0.9-0.4
			c-0.3,0-0.6,0.1-0.9,0.4S98.5,244.7,98.5,245.1z"/>
		<path d="M106,251.3v-8.8h2.5v1.3c0.1-0.4,0.2-0.7,0.4-0.9s0.5-0.3,0.9-0.3h1.3c0.7,0,1.3,0.2,1.8,0.7s0.7,1.1,0.7,1.8v6.2H111
			v-6.2c0-0.3-0.1-0.6-0.4-0.9s-0.5-0.4-0.9-0.4c-0.3,0-0.6,0.1-0.9,0.4s-0.4,0.5-0.4,0.9v6.2H106z"/>
		<path d="M123.5,251.3H121V250c-0.1,0.8-0.5,1.3-1.3,1.3h-1.3c-0.7,0-1.3-0.2-1.8-0.7s-0.7-1.1-0.7-1.8v-3.8c0-0.7,0.2-1.3,0.7-1.8
			s1.1-0.7,1.8-0.7h2.5V240h2.5V251.3z M121,243.8h-1.3c-0.3,0-0.6,0.1-0.9,0.4s-0.4,0.5-0.4,0.9v3.8c0,0.3,0.1,0.6,0.4,0.9
			s0.5,0.4,0.9,0.4s0.6-0.1,0.9-0.4s0.4-0.5,0.4-0.9V243.8z"/>
		<path d="M129.7,251.3V240h2.5v3.8c0.1-0.4,0.2-0.7,0.4-0.9s0.5-0.3,0.9-0.3h1.3c0.7,0,1.3,0.2,1.8,0.7s0.7,1.1,0.7,1.8v3.8
			c0,0.7-0.2,1.3-0.7,1.8s-1.1,0.7-1.8,0.7H129.7z M132.2,250h1.3c0.3,0,0.6-0.1,0.9-0.4s0.4-0.5,0.4-0.9v-3.8
			c0-0.3-0.1-0.6-0.4-0.9s-0.5-0.4-0.9-0.4c-0.3,0-0.6,0.1-0.9,0.4s-0.4,0.5-0.4,0.9V250z"/>
		<path d="M144.7,246.3v-1.2c0-0.3-0.1-0.6-0.4-0.9s-0.5-0.4-0.9-0.4h-1.3c-0.7,0-1.2,0.4-1.2,1.3h-1.3c0.2-1.7,1-2.5,2.5-2.5h2.5
			c0.7,0,1.3,0.2,1.8,0.7s0.7,1.1,0.7,1.8v6.2h-2.5V250c-0.1,0.8-0.5,1.3-1.3,1.3h-1.3c-0.7,0-1.3-0.2-1.8-0.7s-0.7-1.1-0.7-1.8v0
			c0-0.7,0.2-1.3,0.7-1.8s1.1-0.7,1.8-0.7H144.7z M144.7,247.5h-1.3c-0.3,0-0.6,0.1-0.9,0.4s-0.4,0.5-0.4,0.9v0
			c0,0.3,0.1,0.6,0.4,0.9s0.5,0.4,0.9,0.4s0.6-0.1,0.9-0.4s0.4-0.5,0.4-0.9V247.5z"/>
		<path d="M149.7,241.3V240h2.5v1.3H149.7z M149.7,251.3v-8.8h2.5v8.8H149.7z"/>
		<path d="M154.7,251.3V240h2.5v11.2H154.7z"/>
		<path d="M162.2,242.5h2.5c0.7,0,1.3,0.2,1.8,0.7s0.7,1.1,0.7,1.8v3.8c0,0.7-0.2,1.3-0.7,1.8s-1.1,0.7-1.8,0.7h-2.5
			c-0.7,0-1.3-0.2-1.8-0.7s-0.7-1.1-0.7-1.8v-3.8c0-0.7,0.2-1.3,0.7-1.8S161.5,242.5,162.2,242.5z M162.2,245.1v3.8
			c0,0.3,0.1,0.6,0.4,0.9s0.5,0.4,0.9,0.4s0.6-0.1,0.9-0.4s0.4-0.5,0.4-0.9v-3.8c0-0.3-0.1-0.6-0.4-0.9s-0.5-0.4-0.9-0.4
			c-0.3,0-0.6,0.1-0.9,0.4S162.2,244.7,162.2,245.1z"/>
		<path d="M177.2,242.5v8.8h-2.5V250c-0.1,0.8-0.5,1.3-1.3,1.3h-1.3c-0.7,0-1.3-0.2-1.8-0.7s-0.7-1.1-0.7-1.8v-6.3h2.5v6.3
			c0,0.3,0.1,0.6,0.4,0.9s0.5,0.4,0.9,0.4s0.6-0.1,0.9-0.4s0.4-0.5,0.4-0.9v-6.3H177.2z"/>
		<path d="M180.9,240h2.5v2.5h1.3v1.3h-1.3v5c0,0.4,0.1,0.7,0.4,0.9s0.5,0.3,0.7,0.3h0.1v1.3h-1.3c-0.7,0-1.3-0.2-1.8-0.7
			s-0.7-1.1-0.7-1.8v-5h-1.3v-1.3h1.3V240z"/>
		<path d="M48.6,269.3v-7.5h-1.3v-1.3h1.3v-0.1c0-0.7,0.2-1.2,0.7-1.7s1-0.7,1.7-0.7h2.6v1.3h-1.4c-0.3,0-0.6,0.1-0.8,0.3
			s-0.3,0.5-0.3,0.8v0.1h1.3v1.3h-1.3v7.5H48.6z"/>
		<path d="M57.3,260.5h2.5c0.7,0,1.3,0.2,1.8,0.7s0.7,1.1,0.7,1.8v3.8c0,0.7-0.2,1.3-0.7,1.8s-1.1,0.7-1.8,0.7h-2.5
			c-0.7,0-1.3-0.2-1.8-0.7s-0.7-1.1-0.7-1.8v-3.8c0-0.7,0.2-1.3,0.7-1.8S56.7,260.5,57.3,260.5z M57.3,263.1v3.8
			c0,0.3,0.1,0.6,0.4,0.9s0.5,0.4,0.9,0.4s0.6-0.1,0.9-0.4s0.4-0.5,0.4-0.9v-3.8c0-0.3-0.1-0.6-0.4-0.9s-0.5-0.4-0.9-0.4
			c-0.3,0-0.6,0.1-0.9,0.4S57.3,262.7,57.3,263.1z"/>
		<path d="M67.3,269.3h-2.5v-8.8h2.5v2.5c0.1-0.8,0.4-1.5,0.8-1.9s1-0.6,1.7-0.6h1.2v2.5h-2.5c-0.3,0-0.6,0.1-0.9,0.4
			s-0.4,0.5-0.4,0.9V269.3z"/>
		<path d="M76,269.3V258h2.5v3.8c0.1-0.4,0.2-0.7,0.4-0.9s0.5-0.3,0.9-0.3H81c0.7,0,1.3,0.2,1.8,0.7s0.7,1.1,0.7,1.8v3.8
			c0,0.7-0.2,1.3-0.7,1.8s-1.1,0.7-1.8,0.7H76z M78.5,268h1.3c0.3,0,0.6-0.1,0.9-0.4s0.4-0.5,0.4-0.9v-3.8c0-0.3-0.1-0.6-0.4-0.9
			s-0.5-0.4-0.9-0.4c-0.3,0-0.6,0.1-0.9,0.4s-0.4,0.5-0.4,0.9V268z"/>
		<path d="M91,264.3v-1.2c0-0.3-0.1-0.6-0.4-0.9s-0.5-0.4-0.9-0.4h-1.3c-0.7,0-1.2,0.4-1.2,1.3H86c0.2-1.7,1-2.5,2.5-2.5H91
			c0.7,0,1.3,0.2,1.8,0.7s0.7,1.1,0.7,1.8v6.2H91V268c-0.1,0.8-0.5,1.3-1.3,1.3h-1.3c-0.7,0-1.3-0.2-1.8-0.7s-0.7-1.1-0.7-1.8v0
			c0-0.7,0.2-1.3,0.7-1.8s1.1-0.7,1.8-0.7H91z M91,265.5h-1.3c-0.3,0-0.6,0.1-0.9,0.4s-0.4,0.5-0.4,0.9v0c0,0.3,0.1,0.6,0.4,0.9
			s0.5,0.4,0.9,0.4s0.6-0.1,0.9-0.4s0.4-0.5,0.4-0.9V265.5z"/>
		<path d="M96,269.3v-8.8h2.5v1.3c0.1-0.4,0.2-0.7,0.4-0.9s0.5-0.3,0.9-0.3h1.3c0.7,0,1.3,0.2,1.8,0.7s0.7,1.1,0.7,1.8v6.2H101v-6.2
			c0-0.3-0.1-0.6-0.4-0.9s-0.5-0.4-0.9-0.4c-0.3,0-0.6,0.1-0.9,0.4s-0.4,0.5-0.4,0.9v6.2H96z"/>
		<path d="M106,269.3V258h2.5v5.6l3.8-3.1h2.5l-5.2,4.4l5.2,4.4h-2.5l-3.8-3.1v3.1H106z"/>
		<path d="M122.2,263.1H121c-0.1-0.8-0.5-1.3-1.2-1.3c-0.4,0-0.8,0.1-1,0.3s-0.3,0.4-0.3,0.8c0,0.4,0.6,0.9,1.8,1.5
			c1,0.5,1.6,1,1.7,1.3s0.2,0.7,0.2,1.1c0,0.7-0.2,1.3-0.7,1.8s-1.1,0.7-1.8,0.7h-1.3c-1.7,0-2.5-0.8-2.5-2.5h1.3
			c0.1,0.8,0.5,1.2,1.2,1.2c0.4,0,0.8-0.1,1-0.3s0.3-0.4,0.3-0.8c0-0.4-0.6-0.9-1.8-1.5c-1-0.5-1.6-1-1.7-1.3s-0.2-0.7-0.2-1.1
			c0-0.7,0.2-1.3,0.7-1.8s1.1-0.7,1.8-0.7h1.3C121.3,260.5,122.1,261.4,122.2,263.1z"/>
		<path d="M124.7,269.3v-2.5h2.5v2.5H124.7z"/>
		<path d="M131,261.8V258h1.3v3.8H131z M133.5,261.8V258h1.2v3.8H133.5z"/>
	</g>
</g>
</svg>
