<?xml version="1.0" encoding="utf-8"?>
<!-- Generator: Adobe Illustrator 16.0.0, SVG Export Plug-In . SVG Version: 6.00 Build 0)  -->
<!DOCTYPE svg PUBLIC "-//W3C//DTD SVG 1.1//EN" "http://www.w3.org/Graphics/SVG/1.1/DTD/svg11.dtd">
<svg version="1.1" id="Layer_1" xmlns="http://www.w3.org/2000/svg" xmlns:xlink="http://www.w3.org/1999/xlink" x="0px" y="0px"
	 width="100px" height="100px" viewBox="0 0 100 100" style="enable-background:new 0 0 100 100;" xml:space="preserve">
<style type="text/css">
<![CDATA[
	.st0{fill:#1C75BC;}
]]>
</style>
<path class="st0" d="M49.8,4.1C24.3,4.1,3.6,24.8,3.6,50.3s20.7,46.2,46.2,46.2s46.2-20.7,46.2-46.2S75.4,4.1,49.8,4.1z M18.5,53.1
	c-0.2,0-0.3-0.1-0.2-0.3c0.3-0.8,0.6-1.7,0.9-2.5c0.6-1.8,1.2-3.6,1.8-5.4c0.1-0.4,0.1-0.4,0.6-0.4c7.2,0,14.4,0,21.7,0
	c0.1,0,0.3,0,0.4,0c0,0.2-0.1,0.3-0.1,0.4c-0.9,2.6-1.8,5.2-2.6,7.9c-0.1,0.3-0.2,0.4-0.5,0.4c-7.3,0-14.5,0-21.8,0
	C18.6,53.1,18.6,53.1,18.5,53.1z M79.3,40.9c-1.8,5.4-3.5,10.9-5.2,16.3c-0.9,2.8-2.5,5-4.7,6.9c-1.5,1.2-3.1,2.2-4.9,2.8
	c-1,0.3-2,0.5-3,0.5c-13.8,0-27.6,0-41.4,0c-0.1,0-0.3,0-0.5,0c0.1-0.3,0.2-0.5,0.2-0.8c0.9-2.7,1.8-5.5,2.6-8.2
	C22.6,58,22.8,58,23,58c12.3,0,24.6,0,37,0c0.1,0,0.2,0,0.2,0c0.2,0,0.3-0.1,0.4-0.3c1.7-5.4,3.5-10.8,5.2-16.2
	c0.2-0.6,0.4-1.1,0.5-1.7c0-0.1,0-0.2,0.1-0.3c-12.6,0-25.2,0-37.8,0c0.1-0.4,0.2-0.7,0.3-1c0.8-2.6,1.7-5.2,2.5-7.9
	c0.1-0.3,0.2-0.4,0.5-0.4c13.9,0,27.8,0,41.8,0c2.3,0,4.1,1,5.4,3c0.5,0.9,0.8,1.8,0.9,2.8C80.3,37.8,79.8,39.3,79.3,40.9z"/>
</svg>
