<?xml version="1.0" encoding="utf-8"?>
<!-- Generator: Adobe Illustrator 16.0.0, SVG Export Plug-In . SVG Version: 6.00 Build 0)  -->
<!DOCTYPE svg PUBLIC "-//W3C//DTD SVG 1.1//EN" "http://www.w3.org/Graphics/SVG/1.1/DTD/svg11.dtd">
<svg version="1.1" id="Layer_1" xmlns="http://www.w3.org/2000/svg" xmlns:xlink="http://www.w3.org/1999/xlink" x="0px" y="0px"
	 width="200px" height="200px" viewBox="0 0 200 200" style="enable-background:new 0 0 200 200;" xml:space="preserve">
<style type="text/css">
<![CDATA[
	.st0{fill-rule:evenodd;clip-rule:evenodd;fill:#076BB3;}
	.st1{fill-rule:evenodd;clip-rule:evenodd;fill:#0776C1;}
	.st2{fill-rule:evenodd;clip-rule:evenodd;fill:#0777C1;}
	.st3{fill-rule:evenodd;clip-rule:evenodd;fill:#3BA1EA;}
	.st4{fill-rule:evenodd;clip-rule:evenodd;fill:#0969B1;}
	.st5{fill-rule:evenodd;clip-rule:evenodd;fill:#3D5877;}
	.st6{fill-rule:evenodd;clip-rule:evenodd;fill:#3DA5EF;}
	.st7{fill-rule:evenodd;clip-rule:evenodd;fill:#0B67AF;}
	.st8{fill-rule:evenodd;clip-rule:evenodd;fill:#0D66AD;}
	.st9{fill-rule:evenodd;clip-rule:evenodd;fill:#0D7CC7;}
	.st10{fill-rule:evenodd;clip-rule:evenodd;fill:#0E64AB;}
	.st11{fill-rule:evenodd;clip-rule:evenodd;fill:#405873;}
	.st12{fill-rule:evenodd;clip-rule:evenodd;fill:#414042;}
	.st13{fill-rule:evenodd;clip-rule:evenodd;fill:#425E7D;}
	.st14{fill-rule:evenodd;clip-rule:evenodd;fill:#445C78;}
	.st15{fill-rule:evenodd;clip-rule:evenodd;fill:#445F7F;}
	.st16{fill-rule:evenodd;clip-rule:evenodd;fill:#445F80;}
	.st17{fill-rule:evenodd;clip-rule:evenodd;fill:#454A75;}
	.st18{fill-rule:evenodd;clip-rule:evenodd;fill:#456284;}
	.st19{fill-rule:evenodd;clip-rule:evenodd;fill:#466284;}
	.st20{fill-rule:evenodd;clip-rule:evenodd;fill:#466486;}
	.st21{fill-rule:evenodd;clip-rule:evenodd;fill:#484948;}
	.st22{fill-rule:evenodd;clip-rule:evenodd;fill:#486588;}
	.st23{fill-rule:evenodd;clip-rule:evenodd;fill:#48989B;}
	.st24{fill-rule:evenodd;clip-rule:evenodd;fill:#1063AA;}
	.st25{fill-rule:evenodd;clip-rule:evenodd;fill:#AE4CBF;}
	.st26{fill-rule:evenodd;clip-rule:evenodd;fill:#1162A9;}
	.st27{fill-rule:evenodd;clip-rule:evenodd;fill:#AF4CBF;}
	.st28{fill-rule:evenodd;clip-rule:evenodd;fill:#AF4CC0;}
	.st29{fill-rule:evenodd;clip-rule:evenodd;fill:#1280CA;}
	.st30{fill-rule:evenodd;clip-rule:evenodd;fill:#1360A6;}
	.st31{fill-rule:evenodd;clip-rule:evenodd;fill:#1361A7;}
	.st32{fill-rule:evenodd;clip-rule:evenodd;fill:#1370B5;}
	.st33{fill-rule:evenodd;clip-rule:evenodd;fill:#1371B5;}
	.st34{fill-rule:evenodd;clip-rule:evenodd;fill:#E3B371;}
	.st35{fill-rule:evenodd;clip-rule:evenodd;fill:#E3B372;}
	.st36{fill-rule:evenodd;clip-rule:evenodd;fill:#1583CD;}
	.st37{fill-rule:evenodd;clip-rule:evenodd;fill:#165EA3;}
	.st38{fill-rule:evenodd;clip-rule:evenodd;fill:#4A698D;}
	.st39{fill-rule:evenodd;clip-rule:evenodd;fill:#16A0FE;}
	.st40{fill-rule:evenodd;clip-rule:evenodd;fill:#4A9DA0;}
	.st41{fill-rule:evenodd;clip-rule:evenodd;fill:#4B698E;}
	.st42{fill-rule:evenodd;clip-rule:evenodd;fill:#4C6888;}
	.st43{fill-rule:evenodd;clip-rule:evenodd;fill:#4C6B8F;}
	.st44{fill-rule:evenodd;clip-rule:evenodd;fill:#195CA0;}
	.st45{fill-rule:evenodd;clip-rule:evenodd;fill:#4D647F;}
	.st46{fill-rule:evenodd;clip-rule:evenodd;fill:#4D6C91;}
	.st47{fill-rule:evenodd;clip-rule:evenodd;fill:#4E647E;}
	.st48{fill-rule:evenodd;clip-rule:evenodd;fill:#4E6C92;}
	.st49{fill-rule:evenodd;clip-rule:evenodd;fill:#4E6D93;}
	.st50{fill-rule:evenodd;clip-rule:evenodd;fill:#4F6E94;}
	.st51{fill-rule:evenodd;clip-rule:evenodd;fill:#4F6F94;}
	.st52{fill-rule:evenodd;clip-rule:evenodd;fill:#4F6F95;}
	.st53{fill-rule:evenodd;clip-rule:evenodd;fill:#B04DC1;}
	.st54{fill-rule:evenodd;clip-rule:evenodd;fill:#821CA7;}
	.st55{fill-rule:evenodd;clip-rule:evenodd;fill:#B2B2B2;}
	.st56{fill-rule:evenodd;clip-rule:evenodd;fill:#1D88D2;}
	.st57{fill-rule:evenodd;clip-rule:evenodd;fill:#8991B1;}
	.st58{fill-rule:evenodd;clip-rule:evenodd;fill:#1E88D2;}
	.st59{fill-rule:evenodd;clip-rule:evenodd;fill:#506F96;}
	.st60{fill-rule:evenodd;clip-rule:evenodd;fill:#507097;}
	.st61{fill-rule:evenodd;clip-rule:evenodd;fill:#517198;}
	.st62{fill-rule:evenodd;clip-rule:evenodd;fill:#52729A;}
	.st63{fill-rule:evenodd;clip-rule:evenodd;fill:#52739A;}
	.st64{fill-rule:evenodd;clip-rule:evenodd;fill:#53749C;}
	.st65{fill-rule:evenodd;clip-rule:evenodd;fill:#54759D;}
	.st66{fill-rule:evenodd;clip-rule:evenodd;fill:#55769E;}
	.st67{fill-rule:evenodd;clip-rule:evenodd;fill:#55779E;}
	.st68{fill-rule:evenodd;clip-rule:evenodd;fill:#578FCB;}
	.st69{fill-rule:evenodd;clip-rule:evenodd;fill:#BA945F;}
	.st70{fill-rule:evenodd;clip-rule:evenodd;fill:#594A42;}
	.st71{fill-rule:evenodd;clip-rule:evenodd;fill:#BCBEC0;}
	.st72{fill-rule:evenodd;clip-rule:evenodd;}
	.st73{fill:#FFA400;}
	.st74{fill-rule:evenodd;clip-rule:evenodd;fill:#F1F1F1;}
	.st75{fill-rule:evenodd;clip-rule:evenodd;fill:#F3F3F3;}
	.st76{fill-rule:evenodd;clip-rule:evenodd;fill:#292A29;}
	.st77{fill-rule:evenodd;clip-rule:evenodd;fill:#295789;}
	.st78{fill-rule:evenodd;clip-rule:evenodd;fill:#F7F7F7;}
	.st79{fill-rule:evenodd;clip-rule:evenodd;fill:#297EE1;}
	.st80{fill-rule:evenodd;clip-rule:evenodd;fill:#98BCE4;}
	.st81{fill:#003A70;}
	.st82{fill-rule:evenodd;clip-rule:evenodd;fill:#FDFCFC;}
	.st83{fill-rule:evenodd;clip-rule:evenodd;fill:#FDFDFD;}
	.st84{fill-rule:evenodd;clip-rule:evenodd;fill:#FDFEFE;}
	.st85{fill-rule:evenodd;clip-rule:evenodd;fill:#FE7100;}
	.st86{fill-rule:evenodd;clip-rule:evenodd;fill:#FEFEFE;}
	.st87{fill-rule:evenodd;clip-rule:evenodd;fill:#62688E;}
	.st88{fill-rule:evenodd;clip-rule:evenodd;fill:#63D2D6;}
	.st89{fill-rule:evenodd;clip-rule:evenodd;fill:#9C1CB1;}
	.st90{fill-rule:evenodd;clip-rule:evenodd;fill:#9F7757;}
	.st91{fill-rule:evenodd;clip-rule:evenodd;fill:#333333;}
	.st92{fill-rule:evenodd;clip-rule:evenodd;fill:#344D6A;}
	.st93{fill-rule:evenodd;clip-rule:evenodd;fill:#00458D;}
	.st94{fill-rule:evenodd;clip-rule:evenodd;fill:#005196;}
	.st95{fill-rule:evenodd;clip-rule:evenodd;fill:#0171BC;}
	.st96{fill-rule:evenodd;clip-rule:evenodd;fill:#025B92;}
	.st97{fill-rule:evenodd;clip-rule:evenodd;fill:#025D94;}
	.st98{fill-rule:evenodd;clip-rule:evenodd;fill:#0270BB;}
	.st99{fill-rule:evenodd;clip-rule:evenodd;fill:#036EB8;}
	.st100{fill-rule:evenodd;clip-rule:evenodd;fill:#055890;}
	.st101{fill-rule:evenodd;clip-rule:evenodd;fill:#056CB5;}
]]>
</style>
<path class="st55" d="M151.5,157.9c-0.1,2.2,0.9,3.8,2.9,4.7c3.8,1.8,2.5,3.3-0.1,5.1c-2.4,1.8-5.3,3.1-6.6,6.1
	c-3.3,3-7.1,5.3-10.5,8c-1.5,1.1-3.3,1.8-5,2.7c-2.1,0.4-2.7-1.1-3.5-2.6c-5-9.6-10-19.3-15-28.9c-3.4-1.6-4.1-5.3-5.8-8.1
	c-2.9-5.1-6-10.1-7.5-15.9c0.1-0.3,0.1-0.5,0.2-0.8c0.4-0.3,0.9-0.5,1.4-0.6c4.2,1.3,7.4,4.3,11.1,6.3c2.6,2.2,5.7,3.6,8.5,5.5
	c2.1,1.5,4.3,3,6.5,4.4c2.1,1.6,4.5,2.7,6.7,4.2c2.2,1.5,4.4,2.9,6.6,4.4C144.7,154.6,147.5,157.4,151.5,157.9z"/>
<path class="st55" d="M88,153.3c-5.4,8.7-9.4,18.2-14.3,27.3c-0.9,1.7-1.2,4.5-4.2,4.1c-1.7-0.9-3.4-1.6-5-2.7
	c-3.7-2.4-7.1-5.2-10.5-8.1c-1.6-3-4.5-4.6-7.2-6.3c-2.6-1.7-2.7-3.2-0.1-4.7c1.9-1.2,3.7-2.3,3.5-4.9c3.2-0.3,5.6-2.2,7.9-4.2
	c2.4-2.5,5.9-3.4,8.4-5.6c2.1-1.6,4.6-2.6,6.7-4.2c2.2-1.4,4.4-2.9,6.6-4.4c2.9-1.8,6-3.4,8.7-5.6c3.7-2,6.5-6.1,11.5-5.4
	c0.3,0.9,0.5,1.8,0.1,2.6C96.4,138.8,93.7,146.9,88,153.3z"/>
<path class="st79" d="M106.2,46.3c9.1,11.1,21.4,15.4,35.2,16c2.5,0.1,4.3,0.1,5.3,3.1c5.5,16,11.1,31.9,16.8,47.8
	c-4.4,0-6.9-3.5-9.9-5.9c-3.1-2.4-6.1-5.1-9.1-7.6c-13.6-13.1-26.4-27-35.6-43.7C107.3,53.1,104.2,50.4,106.2,46.3z"/>
<path class="st8" d="M38.3,118.7c-0.2-1.5-1.3-2.8-0.4-4.4c5.9-3.1,12.2-1.1,18.3-1.5c4.4-0.2,8.7-0.1,13.1,0
	c3.9-0.1,7.8-0.1,11.7,0c3-0.1,6,0,8.9,0.1c2.3,0,4.6,0.4,7.7-0.2C91,104.3,85.1,96.2,79,88.3c-2-2.6-5-4.9-4.9-8.7
	c0.6-2,1.8-3.4,3.9-3.7c2.7,0.3,3.8,2.6,5.2,4.4c7.9,10.1,15.8,20.2,23.3,30.5c3,4.2,6.7,3.4,10.6,2.4c2.6-0.5,5.3-0.4,8-0.4
	c3.1-0.2,6.3,0,9.4-0.1c2.9-0.1,5.8,0,8.7,0c3.6-0.2,7.1-0.1,10.7,0c3.5,0.2,7.4-1,10,2.6c-0.1,1.1-0.2,2.2-0.3,3.3
	c-1.6,2.9-4.5,2.8-7.1,2.6c-23.9-2-47.9-0.2-71.8-1c-14.4-0.5-28.7-1.5-43.1-0.6C40.2,119.7,39.2,119.5,38.3,118.7z"/>
<path class="st99" d="M153.9,114.4c-3.6,0-7.2,0-10.8,0c-9.4-11.6-18.2-23.6-27.3-35.4c-6.3-8.1-12.4-16.3-18.7-24.4
	c-2.5-3.3-3.1-6.3-0.6-9.8c1.2-3.4,3.4-6.5,3.5-10.2c0.3-1.4,1-0.7,1.7-0.3c0.3,4.4,2.6,8.2,4.5,12c2.8,10.1,9.4,18.1,15.3,26.4
	c6.9,9.7,15.9,17.6,23.8,26.5c2.1,3.1,4.5,6,6.7,9.1C153.3,110,155.5,111.7,153.9,114.4z"/>
<path class="st74" d="M101.7,34.3c-0.6,0.1-1.1,0.2-1.7,0.3c1.4-6,0.7-12.1,0.9-18.2c0.1-1.6-0.7-4.2,2.6-3.1
	c7.4,2.4,14-0.7,20.7-3.1c5.9-2.2,11.8-4.9,18.3-0.3c-6.6,1.7-11.7,5.3-16.5,9.6c-2.2,1.9-2.7,3.1,1,4.1c6.1,1.7,11.5,4.8,15.5,10.3
	c-7.9-3.9-15.5-1.1-23,1C113.4,36.5,107.5,36.9,101.7,34.3z"/>
<path class="st30" d="M102,128.3c-0.4,0-0.8,0.1-1.2,0.1c-16.4,1.3-32.7,0.5-49.1,0.7c-2.9,0-5.8,0.3-8.3-1.6
	c-4.5,0.6-4.3-2.5-4.2-5.5c2-2,4.6-1.7,7.1-1.7c36.3-0.3,72.6,1.6,108.9,1.2c2.8,0,5.4,0.1,7.2,2.7c0.5,3.3-1.7,3.4-4,3.3
	c-1.8,1.5-4,1.6-6.1,1.6c-14.6,0.1-29.2,0-43.8,0C106.2,129.1,104.2,128.3,102,128.3z"/>
<path class="st101" d="M96.5,44.9c-1.2,3.5-0.4,6.2,2,9.3c14.3,18.3,28.4,36.9,42.5,55.4c1.1,1.4,2,3,2.2,4.8c-2.9,0-5.8,0-8.7,0
	c-4.7-3.3-7.3-8.4-10.7-12.8c-10.5-13.3-20.7-26.8-30.9-40.2c-1.1-1.4-2.3-2.8-2.4-4.7c-0.2-3.6,3.1-5.7,3.9-8.8
	C95,46.8,95.7,45.9,96.5,44.9z"/>
<path class="st24" d="M162.4,124.2c-2.4-0.8-4.8-1.2-7.4-1.1c-38.6,0.8-77.2-1.7-115.8-1.1c-0.3-1.1-0.5-2.2-0.8-3.3
	c12.7-1.7,25.3-1.7,38-0.1c1.6,0.2,3.2,0.1,4.8,0.1c20.7,0,41.4,0,62,0c3.8,0,7.5,0,11.2,0.8c2.8,0.7,6.1,1,8.9-0.8
	C163,120.6,162.7,122.4,162.4,124.2z"/>
<path class="st100" d="M39.1,111.1c3.8-12.1,8-24,12.8-35.8c0.4-0.3,1-0.8,1.4-0.7c6.3,2.2,12.7,4.2,15.9,10.9
	C69.1,88,67.5,89.4,66,91c-2.3,2.2-4.6,4.5-6.8,6.8c-2.7,2.9-5.8,5.3-8.9,7.9c-2.3,2.3-4.9,4.2-7.5,6.1
	C41.6,112.6,39.8,114.1,39.1,111.1z"/>
<path class="st96" d="M68.4,86.2c-3.7-6.4-10.2-8.5-16.5-10.9c0-0.2,0-0.4,0-0.5c3.4-12.5,3.4-12.5,19.6-13.5
	c4.4,1.4,8.1,3.9,11.5,7c0.1,0.5,0.2,1,0.1,1.5c-0.9,2.8-2.7,4.9-5,6.6c-1.4,0.7-2.5,1.8-3.2,3.3c-1.2,2-1.7,4.5-3.8,5.9
	C70.2,86.2,69.4,86.8,68.4,86.2z"/>
<path class="st95" d="M102,128.3c1.3-1.3,3-0.9,4.6-0.9c17.3,0,34.5,0,51.8,0c-0.7,2.5-1.4,5.1-2.1,7.6c-1.6,1.3-3.6,1.6-5.6,1.6
	c-10.4,0.1-20.9,0.1-31.3,0c-2.4,0-4.6-0.6-6.8-1.6C109.1,132.8,105.5,130.6,102,128.3z"/>
<path class="st95" d="M43.3,127.5c17.6,0,35.3-0.1,52.9,0c1.6,0,3.3-0.5,4.5,1c0,0-0.1,0.1-0.1,0.1c-0.2,0-0.5,0-0.7,0
	c-4.2,1.2-7.2,4.7-11.2,6.3c-2.5,1.2-5,1.8-7.8,1.8c-9.7,0-19.4,0-29.1,0c-2.4,0-4.7-0.2-6.7-1.6C44.6,132.6,44,130,43.3,127.5z"/>
<path class="st91" d="M100,128.6c0.2,0,0.5,0,0.7,0c4.4,8.2,8.8,16.4,13.1,24.6c-8.6,0-17.2,0.1-25.8,0.1
	C92,145.1,96,136.8,100,128.6z"/>
<path class="st1" d="M112.6,135c14.5,0,29.1,0,43.6,0c-0.1,1.9-0.1,3.7-1.2,5.4c-0.7,0.6-1.4,1.2-2.3,1.3
	c-10.6,0.4-21.2,1.8-31.6-1.1C118,139.1,115.1,137.4,112.6,135z"/>
<path class="st2" d="M45.2,135.1c14.5-0.1,29-0.1,43.5-0.2c-2.4,2.4-5.4,4-8.4,5.5c-11.2,2.5-22.5,3-33.7,0
	C45.5,138.8,45.7,136.9,45.2,135.1z"/>
<path class="st97" d="M82.5,68.9c-3.5-2.8-8-4.1-11-7.7c8.6-2.7,16.7-6.4,22.8-13.4c0.5,3.6-2.5,6-3.2,9.2c-0.4,3-2.1,5.5-3.7,8
	C85.9,66.5,85.4,69.3,82.5,68.9z"/>
<path class="st9" d="M121.1,140.5c11.3,0,22.6-0.1,33.9-0.1c0,1.5,0,3.1-1,4.4c-8.8,2.7-17.5,2.3-26.3,0.1
	C125.2,143.9,123,142.4,121.1,140.5z"/>
<path class="st9" d="M46.7,140.4c11.2,0,22.5,0,33.7,0c-1.9,1.9-4.1,3.2-6.6,4.3c-8.7,2.4-17.4,2.8-26.1,0
	C46.6,143.5,46.7,141.9,46.7,140.4z"/>
<path class="st44" d="M39.1,111.1c2.6,2.2,3.2-0.9,4.5-1.8c2.2-1.4,4.2-3.1,6.4-4.7c3.9,2.1,6.6,5,6.5,9.7c-6.2,0-12.4,0-18.6,0
	C37.9,113.1,38,111.9,39.1,111.1z"/>
<path class="st98" d="M153.9,114.4c-0.8-4.1-4.4-6.4-6.4-9.8c-1-1.7-2.1-3.4-2.2-5.5c6.1,4.7,12.1,9.4,18.2,14.1
	c0.1,0.7,0.1,1.4,0.2,2.2C160.6,113.7,157.2,114.6,153.9,114.4z"/>
<path class="st36" d="M67,149.1c-2.8,1.9-5.5,3.7-8.3,5.6c-3.3-0.2-7.1,1.6-9.6-2.3c-0.4-1.8-0.8-3.6-1.2-5.4
	C54.4,146.6,61.1,144.7,67,149.1z"/>
<path class="st29" d="M127.7,144.8c8.8,0,17.5,0,26.3-0.1c-0.1,0.7-0.2,1.4-0.3,2.2c-0.9,1.9-2.6,2.5-4.4,2.5c-5,0-10,0.9-15-0.3
	C131.9,147.9,129.5,146.9,127.7,144.8z"/>
<path class="st29" d="M67,149.1c-6.1-2.4-12.8,0.3-19-2.1c-0.1-0.7-0.2-1.4-0.3-2.2c8.7,0,17.4,0,26.1,0
	C72,146.9,69.2,147.6,67,149.1z"/>
<path class="st36" d="M134.3,149.1c4.3-1.6,8.8-1.1,13.2-1.1c2.1,0,4.3,0.3,6.2-1.1c-0.4,1.8-0.8,3.6-1.2,5.4
	c-3.6,3.4-7.8,1-11.7,1.1C138.4,152.4,136.2,150.9,134.3,149.1z"/>
<path class="st56" d="M140.9,153.4c3.7-2.2,7.9,0,11.7-1.1c-0.3,1.9-0.7,3.7-1,5.6c-0.9,1.3-1.9,1.8-3.4,0.6
	C145.8,156.8,143.3,155.1,140.9,153.4z"/>
<path class="st3" d="M136.4,181.5c3.5-3,6.6-6.5,11.3-7.6c-0.5,2.2-1.1,4.4-1.6,6.6C143.2,184.1,139.9,183.7,136.4,181.5z"/>
<path class="st3" d="M54,173.9c4.7,1.1,7.7,4.8,11.3,7.6c-3.5,2.2-6.8,2.6-9.7-1C55.1,178.3,54.6,176.1,54,173.9z"/>
<path class="st6" d="M55.6,180.5c3.1,1.8,6.4,0.8,9.7,1c1.9,0.4,3.2,1.6,4.2,3.2c-3,0-6-0.1-9,0.2C57.1,185.2,55.5,183.9,55.6,180.5
	z"/>
<path class="st6" d="M136.4,181.5c3.3-0.1,6.6,0.9,9.7-0.9c0.1,3.4-1.6,4.6-4.9,4.3c-3-0.3-6-0.1-9-0.2
	C133.2,183.1,134.5,181.9,136.4,181.5z"/>
<path class="st58" d="M49.2,152.4c2.8,2.4,6.9-0.5,9.6,2.3c-2.8,1.3-4.2,6-8.5,3.3C49.8,156.1,49.5,154.2,49.2,152.4z"/>
<path class="st0" d="M86.8,64.6c0.8-2.9,2.5-5.3,4.4-7.6c13.7,17.9,27.5,35.8,41.2,53.7c0.9,1.1,1.4,2.5,2.2,3.7c-3.2,0-6.5,0-9.7,0
	c-11.2-13.9-21.9-28.2-32.6-42.5C90.3,69.5,87.7,67.7,86.8,64.6z"/>
<path class="st4" d="M86.8,64.6c6.2,4.3,9.4,11.2,14,16.9c7.4,9,14.2,18.5,21.4,27.7c1.2,1.6,2.3,3.2,2.5,5.3c-2.9,0-5.8,0-8.7,0
	c-6.1-4.9-9.7-12-14.6-17.9c-6.1-7.3-11.5-15.3-17.5-22.7c-0.9-1.1-2-2.1-1.4-3.8c0-0.4,0-0.7,0-1.1C83.9,67.5,85.3,66,86.8,64.6z"
	/>
<path class="st7" d="M82.5,70c10.5,13.6,21,27.1,31.4,40.7c0.9,1.1,1.4,2.5,2.2,3.7c-4.4,1.9-7.6,1.5-10.9-2.9
	c-8.8-11.9-17.3-23.9-27.1-35C78.5,73.6,80.9,72.1,82.5,70z"/>
<path class="st10" d="M70.5,85.1c1.5-1.8,2.1-4.2,4.3-5.4c4.1,8,10.7,14.2,15.7,21.6c2,3,4.3,5.7,6.5,8.6c0.9,1.1,2.4,2.3,1.7,3.7
	c-0.7,1.6-2.6,0.6-3.9,0.7c-1.2,0.1-2.5,0-3.8,0c-7.8-8.3-14.3-17.5-20.9-26.8C69.7,86.9,69.9,85.9,70.5,85.1z"/>
<path class="st26" d="M70.5,85.1c4.1,8,10.5,14.3,15.6,21.6c1.7,2.5,3.3,5.1,5,7.6c-3.2,0-6.5,0-9.7,0c-5.9-6.1-10.6-13.2-15.7-19.9
	c-0.9-1.1-1.7-2.4-0.5-3.9c1.1-1.4,2.2-2.9,3.3-4.3C69.1,85.9,69.8,85.5,70.5,85.1z"/>
<path class="st31" d="M65.1,90.6c2.9,6.3,7.8,11.2,11.9,16.7c1.7,2.3,3.8,4.2,4.4,7.1c-4,0-7.9,0-11.9,0c-3.5-3.8-6.3-8.1-9.6-12.1
	c-1.1-1.4-2.8-3-1.3-5.2C60.4,94.5,62.5,92.3,65.1,90.6z"/>
<path class="st37" d="M58.6,97.1c1.2,4.9,5.5,7.7,8,11.7c1.2,1.8,2.6,3.4,2.8,5.6c-4.3,0-8.7,0-13,0c-1.6-3.6-4.2-6.6-6.5-9.7
	C52.8,102.1,55.7,99.6,58.6,97.1z"/>
</svg>
