<?xml version="1.0" encoding="utf-8"?>
<!-- Generator: Adobe Illustrator 16.0.0, SVG Export Plug-In . SVG Version: 6.00 Build 0)  -->
<!DOCTYPE svg PUBLIC "-//W3C//DTD SVG 1.1//EN" "http://www.w3.org/Graphics/SVG/1.1/DTD/svg11.dtd">
<svg version="1.1" id="Layer_1" xmlns="http://www.w3.org/2000/svg" xmlns:xlink="http://www.w3.org/1999/xlink" x="0px" y="0px"
	 width="100px" height="100px" viewBox="0 0 100 100" style="enable-background:new 0 0 100 100;" xml:space="preserve">
<style type="text/css">
<![CDATA[
	.st0{fill-rule:evenodd;clip-rule:evenodd;fill:#D7C07D;}
	.st1{fill-rule:evenodd;clip-rule:evenodd;fill:#D8C07E;}
	.st2{fill-rule:evenodd;clip-rule:evenodd;fill:#D8C07F;}
	.st3{fill-rule:evenodd;clip-rule:evenodd;fill:#D9C17F;}
	.st4{fill-rule:evenodd;clip-rule:evenodd;fill:#D9C180;}
	.st5{fill-rule:evenodd;clip-rule:evenodd;fill:#A18A47;}
	.st6{fill-rule:evenodd;clip-rule:evenodd;fill:#DFCA8D;}
	.st7{fill-rule:evenodd;clip-rule:evenodd;fill:#E1CC8F;}
	.st8{fill-rule:evenodd;clip-rule:evenodd;fill:#B99E47;}
	.st9{fill-rule:evenodd;clip-rule:evenodd;fill:#BA9F47;}
	.st10{fill-rule:evenodd;clip-rule:evenodd;fill:#C0A34E;}
	.st11{fill-rule:evenodd;clip-rule:evenodd;fill:#C1A450;}
	.st12{fill-rule:evenodd;clip-rule:evenodd;fill:#998440;}
	.st13{fill-rule:evenodd;clip-rule:evenodd;fill:#C8B46A;}
	.st14{fill-rule:evenodd;clip-rule:evenodd;fill:#FDFDFC;}
	.st15{fill-rule:evenodd;clip-rule:evenodd;fill:#FFFFFE;}
	.st16{fill-rule:evenodd;clip-rule:evenodd;fill:#FFFFFF;}
	.st17{fill-rule:evenodd;clip-rule:evenodd;fill:#9A8541;}
	.st18{fill-rule:evenodd;clip-rule:evenodd;fill:#9B8541;}
	.st19{fill-rule:evenodd;clip-rule:evenodd;fill:#9B8642;}
	.st20{fill-rule:evenodd;clip-rule:evenodd;fill:#CAB66D;}
	.st21{fill-rule:evenodd;clip-rule:evenodd;fill:#9C8642;}
	.st22{fill-rule:evenodd;clip-rule:evenodd;fill:#9D8642;}
	.st23{fill-rule:evenodd;clip-rule:evenodd;fill:#9D8744;}
	.st24{fill-rule:evenodd;clip-rule:evenodd;fill:#9E8844;}
	.st25{fill-rule:evenodd;clip-rule:evenodd;fill:#9F8945;}
	.st26{fill-rule:evenodd;clip-rule:evenodd;fill:#CFBA77;}
]]>
</style>
<g>
	<path class="st12" d="M4.1,49.7C4.4,24.8,24.7,4.4,49.9,4.5c25.2,0.1,45.7,20.6,45.5,46c-0.1,25-20.6,45.6-46.1,45.4
		C24.2,95.7,3.8,75,4.1,49.7z"/>
	<path class="st8" d="M18.4,80.1c-0.3-0.3-0.6-0.6-0.9-0.9c0,0-0.1-0.1-0.1-0.1c-0.2-0.2-0.4-0.5-0.6-0.8c-0.1-0.2-0.3-0.4-0.5-0.5
		c-0.2-0.3-0.4-0.5-0.7-0.8c-0.2-0.3-0.5-0.6-0.7-1c-0.2-0.3-0.4-0.6-0.6-0.9c-0.2-0.3-0.4-0.6-0.7-0.9c-0.4-0.6-0.8-1.3-1.2-1.9
		c-0.3-0.5-0.5-0.9-0.8-1.4c0-0.1-0.1-0.1-0.1-0.2c-0.3-0.6-0.6-1.2-0.9-1.7c-0.2-0.5-0.4-0.9-0.6-1.4c-0.2-0.5-0.4-1-0.6-1.4
		c-0.3-0.8-0.6-1.6-0.9-2.4c-0.4-1.2-0.7-2.5-1.1-3.8c-0.2-0.6-0.3-1.2-0.4-1.9C7,57.7,7,57.4,6.9,57c0-0.1,0-0.2-0.1-0.3
		c-0.1-0.4-0.1-0.8-0.2-1.2c0,0,0-0.1,0-0.2c0-0.3,0-0.6-0.1-1c0-0.1,0-0.1,0-0.2c0-0.2,0-0.4-0.1-0.6c0-0.2,0-0.3,0-0.5
		c0-0.1,0-0.2,0-0.4c0-0.1,0-0.2,0-0.2c0-0.3,0-0.5,0-0.8c0-0.2,0-0.4-0.1-0.6c0-0.1,0-0.1,0-0.2c0-0.3,0-0.6,0-0.9
		c0-0.1,0-0.2,0-0.3c0-0.1,0-0.2,0-0.3c0-0.3,0-0.7,0-1c0-0.2,0-0.4,0-0.5c0-0.1,0-0.3,0-0.4c0-0.2,0-0.4,0-0.5c0,0,0-0.1,0-0.2
		c0-0.3,0-0.6,0.1-1c0-0.1,0-0.1,0-0.2c0-0.5,0.1-1,0.2-1.5c0-0.2,0-0.4,0.1-0.6c0.1-0.4,0.1-0.9,0.2-1.3c0.1-0.5,0.2-0.9,0.3-1.4
		c0.1-0.4,0.2-0.8,0.3-1.2C7.8,39.2,8,38.6,8.1,38c0.2-0.8,0.5-1.6,0.8-2.3c0.3-0.7,0.6-1.5,0.8-2.2c0.1-0.2,0.2-0.4,0.3-0.7
		c0.1-0.3,0.3-0.6,0.4-0.9c0.1-0.3,0.3-0.6,0.5-1c0.3-0.5,0.6-1.1,0.8-1.6c0.2-0.4,0.4-0.7,0.6-1.1c0.4-0.6,0.7-1.2,1.1-1.8
		c0.3-0.5,0.7-1.1,1.1-1.6c0.3-0.4,0.6-0.8,0.9-1.2c0.3-0.4,0.6-0.7,0.9-1.1c0.1-0.2,0.3-0.3,0.4-0.5c0.2-0.2,0.4-0.4,0.6-0.6
		c0.3-0.3,0.6-0.6,0.9-1c0.5-0.6,1.2-1.2,1.7-1.8c0.4-0.2,0.6-0.6,1-0.8c0.2-0.2,0.5-0.4,0.7-0.6c0.2-0.1,0.3-0.3,0.5-0.4
		c0.4-0.3,0.7-0.6,1.1-0.9c0.3-0.2,0.6-0.5,0.9-0.7c0.2-0.1,0.4-0.3,0.6-0.4c0.6-0.4,1.1-0.8,1.7-1.1c0.6-0.4,1.3-0.8,1.9-1.2
		c0.5-0.3,1-0.5,1.5-0.8c0.2-0.1,0.4-0.2,0.6-0.3c0.5-0.3,1.1-0.5,1.6-0.8c0.8-0.4,1.7-0.7,2.5-1C35,9.5,35.6,9.3,36.3,9
		c0.9-0.3,1.7-0.6,2.6-0.8c0.4-0.1,0.7-0.2,1.1-0.3c0.6-0.1,1.3-0.3,1.9-0.4c0.4-0.1,0.8-0.1,1.2-0.2c0.3-0.1,0.7-0.1,1-0.2
		c0,0,0.1,0,0.1,0c0.4,0,0.7-0.1,1.1-0.1c0.3,0,0.6-0.1,0.9-0.1c0.2,0,0.3,0,0.5,0c0.1,0,0.1,0,0.2,0c0.1,0,0.2,0,0.4,0
		c0.1,0,0.2,0,0.3,0c0.4,0,0.7,0,1.1,0c0.2,0,0.4,0,0.6,0c0.3,0,0.7-0.1,1.1,0c0,0,0.1,0,0.1,0c0.2-0.1,0.5,0,0.7,0
		c0.2,0,0.5,0,0.7,0c0.3,0,0.6,0,1,0.1c0.3,0.1,0.6,0,1,0.1c0.1,0,0.1,0,0.2,0c0.1,0,0.2,0,0.3,0c0,0,0.1,0,0.2,0
		c0.3,0,0.6,0.1,1,0.1c0.2,0,0.4,0.1,0.6,0.1c0.5,0,0.9,0.1,1.3,0.2c0.5,0.1,0.9,0.2,1.4,0.3C59.4,8,60,8.1,60.6,8.3
		c0.7,0.2,1.3,0.4,2,0.6c1,0.3,2,0.7,3,1c0.3,0.1,0.6,0.2,0.9,0.4c0.4,0.1,0.7,0.3,1.1,0.4c0.8,0.4,1.6,0.8,2.4,1.2
		c0.4,0.2,0.8,0.5,1.2,0.7c0.3,0.2,0.7,0.4,1,0.6c0.2,0.1,0.4,0.2,0.6,0.3c0.3,0.2,0.7,0.4,1,0.7c0.9,0.6,1.7,1.2,2.5,1.8
		c0.3,0.2,0.5,0.4,0.8,0.7c0.2,0.1,0.3,0.3,0.5,0.4c0.2,0.1,0.3,0.3,0.5,0.4c0.4,0.4,0.8,0.7,1.2,1.1c0.2,0.2,0.5,0.4,0.7,0.6
		c0.2,0.2,0.5,0.4,0.7,0.7c0.1,0.1,0.2,0.2,0.3,0.3c0.2,0.2,0.4,0.4,0.5,0.5c0.3,0.3,0.5,0.6,0.8,0.9c0.2,0.2,0.4,0.4,0.6,0.6
		s0.4,0.4,0.5,0.6c0.2,0.2,0.4,0.5,0.6,0.7c0.2,0.2,0.4,0.4,0.5,0.7c0.2,0.3,0.5,0.6,0.7,1c0.3,0.5,0.6,0.9,0.9,1.4
		c0.4,0.7,0.8,1.4,1.2,2c0.4,0.6,0.7,1.2,1,1.9c0.3,0.6,0.6,1.1,0.8,1.7c0.2,0.4,0.4,0.8,0.5,1.3c0.2,0.4,0.3,0.8,0.5,1.2
		c0.3,0.6,0.5,1.2,0.7,1.9c0.1,0.4,0.3,0.8,0.4,1.2c0.3,0.9,0.5,1.7,0.7,2.6c0.1,0.4,0.2,0.8,0.3,1.2c0.1,0.5,0.2,1,0.3,1.6
		c0,0.3,0.1,0.7,0.2,1c0,0.2,0.1,0.5,0.1,0.7c0,0.2,0,0.3,0.1,0.5c0,0.1,0,0.2,0,0.3c0,0.2,0,0.3,0,0.5c0,0.1,0,0.2,0,0.2
		c0,0.1,0,0.2,0,0.3c0,0,0,0.1,0,0.1c0,0.6,0.1,1.1,0.1,1.7c0,0.1,0,0.3,0,0.4c0,0.1,0,0.2,0,0.2c0,0.7,0,1.5,0,2.2
		c0,0.1,0,0.1,0,0.2c-0.1,0.3,0,0.5-0.1,0.8c0,0.2,0,0.4-0.1,0.7c0,0.1,0,0.2,0,0.3c0,0.2,0,0.4-0.1,0.6c0,0,0,0.1,0,0.1
		c0,0.4,0,0.7-0.1,1c0,0,0,0.1,0,0.1c0,0.5-0.1,1-0.2,1.4c-0.1,0.3-0.1,0.7-0.1,1c-0.1,0.4-0.1,0.7-0.2,1.1c-0.2,1-0.5,2-0.7,3.1
		c-0.1,0.2-0.1,0.4-0.2,0.6c-0.3,0.9-0.5,1.7-0.9,2.6c-0.2,0.7-0.5,1.3-0.8,1.9c-0.3,0.6-0.6,1.3-0.8,1.9c-0.2,0.4-0.4,0.8-0.6,1.2
		c-0.2,0.4-0.4,0.7-0.6,1.1c-0.2,0.3-0.3,0.6-0.4,0.8c-0.2,0.4-0.4,0.7-0.6,1.1c-0.2,0.4-0.5,0.8-0.7,1.2c-0.4,0.6-0.9,1.3-1.4,1.9
		c-0.2,0.3-0.4,0.5-0.6,0.8c-0.2,0.3-0.4,0.5-0.6,0.8c-0.3,0.3-0.6,0.7-0.8,1c0,0,0,0,0,0c-0.3,0.3-0.6,0.6-0.9,0.9
		c-0.6,0.7-1.3,1.4-2,2c-0.4,0.4-0.8,0.8-1.2,1.1c-0.3,0.3-0.7,0.5-1,0.8c-0.1,0.1-0.2,0.1-0.2,0.2c-0.4,0.3-0.9,0.7-1.3,1.1
		c-0.2,0.2-0.5,0.4-0.8,0.6c-0.5,0.4-1.1,0.8-1.6,1.1c-0.6,0.4-1.2,0.8-1.8,1.1c-0.1,0.1-0.2,0.1-0.4,0.1c0,0-0.1,0-0.1,0
		c-1-0.7-1.9-0.4-2.9,0.1c-0.2,0.1-0.4,0.3-0.7,0.4c-0.1,0-0.3-0.1-0.3-0.2c0-0.1,0.1-0.2,0.2-0.3c0.4-0.2,0.7-0.6,1.1-0.8
		c0.1-0.1,0.1-0.1,0.1-0.2c-0.1-0.1,0-0.2,0.1-0.3c0.3-0.1,0.4-0.4,0.5-0.6c0.2-0.4,0.5-0.7,0.9-1c0.3-0.2,0.5-0.4,0.8-0.5
		c0.1-0.1,0.2-0.1,0.2-0.2c-0.1-0.3,0.1-0.3,0.3-0.3c0.5-0.1,1-0.4,1.2-0.9c0-0.1,0.1-0.2,0.1-0.3c0.2-0.3,0.5-0.5,0.5-0.9
		c0-0.2,0.2-0.3,0.4-0.4c0.5-0.2,0.8-0.5,1.1-0.9c0.3-0.4,0.5-0.8,0.9-1c0,0,0.1-0.1,0.1-0.1c0.2-0.5,0.6-0.9,1-1.3
		c0.3-0.4,0.5-0.8,0.7-1.3c0.1-0.3,0.1-0.6,0.1-1c0,0,0,0,0-0.1c-0.3-0.3-0.1-0.6,0-0.9c0.1-0.4,0.1-0.8,0.1-1.2
		c0-0.6,0.2-1.1,0.3-1.6c0.1-0.2,0.1-0.5-0.1-0.7c-0.1-0.2-0.1-0.3,0-0.5c0.6-0.6,0.4-1.4,0.3-2.1c-0.1-0.6-0.6-1-1.2-1
		c-0.9,0-1.7,0.2-2.3,0.9c-0.6,0.7-1.4,1.1-2.3,1.2c-0.2,0-0.3,0.1-0.5,0c-0.1-0.1-0.2,0-0.3,0c-0.7,0.1-1.3,0.4-1.9,0.8
		c-0.6,0.4-1.2,0.8-1.8,1.1c-0.1,0.1-0.2,0.2-0.3,0c-0.1-0.1,0-0.2,0.1-0.3c0.1-0.2,0.3-0.4,0.3-0.6c0.1-0.1,0.2-0.2,0.3-0.3
		c1-0.8,1.8-1.7,2.4-2.8c0.3-0.6,0.7-1.2,1.1-1.7c0.2-0.3,0.5-0.5,0.7-0.7c-0.2,0-0.4,0.1-0.5-0.1c-0.1-0.2,0.1-0.3,0.2-0.5
		c0.3-0.5,0.6-1,0.6-1.7c0-0.4,0-0.4-0.4-0.3c0,0-0.1,0-0.1,0c-0.1,0.1-0.3,0.2-0.4,0c-0.1-0.1,0-0.3,0-0.4c0.2-0.5,0.5-1,0.8-1.4
		c0.3-0.4,0.6-0.8,0.9-1.3c-0.2,0-0.4,0.1-0.5,0.2c-1,1.2-2.2,2.3-3.4,3.2c-0.8,0.6-1.5,1.2-2.3,1.7c-0.6,0.4-0.9,0.9-1.2,1.5
		c-0.1,0.1,0,0.2,0.1,0.3c0.4,0.2,0.4,0.2,0.2,0.6c0,0,0,0,0,0.1c0,0.1-0.2,0.2,0,0.3c0.1,0.1,0.2,0,0.3-0.1
		c0.4-0.3,0.8-0.5,1.2-0.8c0.1,0,0.1-0.1,0.2-0.1c0.1-0.1,0.2-0.1,0.3-0.1c0.1,0.1,0,0.2,0,0.3c-0.4,1.1-0.9,2.3-1.5,3.3
		c-0.3,0.5-0.6,0.9-1,1.2c-0.2,0.2-0.3,0.5-0.5,0.6c-0.5,0.1-1,0.4-1.6,0.6c-0.3,0.1-0.6,0.2-0.9,0.3c-0.1,0-0.2,0.1-0.3,0
		c-0.1-0.1,0-0.2,0-0.3c0.2-0.4,0.4-0.7,0.7-1c0.2-0.3,0.5-0.5,0.7-0.8c0.3-0.3,0.6-0.7,0.8-1.1c0.2-0.3,0.2-0.7,0.1-1.1
		c0-0.2-0.1-0.3-0.4-0.3c-0.3,0-0.6,0.1-0.9,0.3c-0.1,0-0.2,0.1-0.3,0.1c-0.1-0.1-0.1-0.2-0.1-0.3c0-0.4,0.1-0.7,0.2-1
		c0.1-0.3,0.2-0.5,0.3-0.8c0.1-0.2,0-0.3-0.2-0.3c0,0-0.1,0-0.1,0c-0.1,0-0.3,0.1-0.4,0c-0.1-0.2,0-0.3,0.1-0.4
		c0.5-0.7,1.1-1.4,1.8-1.9c-0.4,0.1-0.9,0.3-1.3,0.5c-0.6,0.3-1.2,0.5-1.8,0.8c-0.1,0-0.1,0.1-0.2,0.1c-0.1,0-0.2,0.1-0.2,0
		c-0.1-0.1,0-0.2,0-0.3c0.1-0.1,0.1-0.2,0.2-0.3c1.2-1.8,2.3-3.7,3.4-5.5c0.6-1,0.9-2.1,1.4-3.1c0.2-0.5,0.5-0.9,0.7-1.4
		c0.5-1.1,1-2.3,1.3-3.5c0.1-0.2,0.1-0.4,0.2-0.5c0.5-0.7,0.4-1.5,0.4-2.2c0.1-0.5,0-1,0-1.5c0,0.1,0,0.2,0,0.3c0,0.1,0,0.2-0.2,0.2
		c-0.1,0-0.1-0.1-0.2-0.2c-0.1-0.2-0.2-0.5-0.2-0.7c-0.3-1.2-0.5-2.4-0.6-3.7c0-0.4,0-0.8-0.1-1.2c0-0.6-0.4-1.1-0.7-1.5
		c-0.1-0.2-0.3-0.4-0.5-0.6c-0.4-0.8-0.6-1.7-1-2.5c-0.7-1.7-1.8-3.1-3.4-3.9c-0.3-0.2-0.6-0.3-1-0.4c-0.3-0.1-0.5,0-0.6,0.3
		c-0.2,0.3-0.3,0.3-0.4,0c-0.3-0.6-0.6-1.3-1-1.9c-0.2-0.3-0.2-0.3-0.6-0.2c-0.5,0.3-1,0.4-1.5,0.8c-0.3,0.2-0.5,0.6-0.6,0.9
		C56.9,33,57,33,57.2,33c0.1,0,0.2-0.1,0.3-0.1c0.4-0.1,0.9,0.1,1.1,0.4c0.2,0.2,0.1,0.7-0.2,0.9c-0.4,0.3-0.5,0.7-0.6,1.2
		c0,0.5-0.4,0.8-0.7,1.2c-0.4,0.5-0.9,1.1-1.3,1.6c-0.2,0.3-0.4,0.3-0.6-0.1c-0.1-0.2-0.2-0.4-0.2-0.6c-0.1-0.2-0.1-0.2-0.2,0
		c-0.2,0.3-0.4,0.6-0.3,1c0.1,0.7-0.3,1.2-1.1,1.2c-0.2,0-0.5,0.1-0.7-0.1c0-0.2,0.1-0.4,0.2-0.5c0.3-0.5,0.2-0.7-0.2-1.1
		c-0.9-0.7-1.9-1.3-3-1.7c-0.5-0.2-1-0.3-1.6-0.3c-0.1,0-0.2,0-0.3-0.1c-0.1-0.3,0.1-0.4,0.3-0.6c0.2-0.2,0.4-0.3,0.7-0.5
		c0.1-0.1,0.2-0.2,0.3-0.4c0-0.2,0.1-0.3,0.3-0.4c0,0,0.1-0.1,0.1-0.2c0-0.1-0.1-0.1-0.2-0.1c-0.1,0-0.3,0-0.4,0.1
		c-0.2,0.1-0.3,0.1-0.5,0.1c-0.1,0-0.2,0-0.2-0.1c0-0.1,0-0.2,0.1-0.2c0.1-0.1,0.2-0.2,0.2-0.3c0-0.1,0.1-0.2,0.2-0.3
		c0.2-0.1,0.4-0.2,0.5-0.3c0.2-0.1,0.4-0.3,0.5-0.6c0-0.2,0.2-0.3,0.3-0.4c0.2-0.1,0.4-0.1,0.6-0.2c0.2,0,0.4,0,0.5,0.2
		c0.1,0.1,0.1,0.2,0.3,0.1c0.4-0.3,0.7-0.6,1-1.1c0.1-0.2,0.1-0.3-0.1-0.4c-0.6-0.5-1.1-1.1-1.7-1.6c-0.2-0.1-0.3-0.2-0.5-0.3
		c-0.2-0.1-0.5-0.1-0.6-0.3c0-0.1-0.2-0.1-0.3-0.1c-0.6,0-1.1,0-1.7,0.1c-0.3,0-0.5,0-0.7-0.2c-0.1-0.1-0.2-0.1-0.4,0
		c-0.1,0.1-0.2,0.2-0.3,0.3c-0.3,0.4-0.5,0.8-0.9,1c-0.1,0-0.1,0.2-0.2,0.3c-0.1,0.4-0.3,0.7-0.6,1c-0.3,0.3-0.5,0.7-0.7,1.1
		c-0.1,0.3-0.2,0.6-0.4,0.9c0,0-0.1,0.1-0.1,0.1c0.1,0.4-0.2,0.6-0.3,0.8c-0.3,0.7-0.8,1.1-1.5,1.5c-0.8,0.4-1.3,1-1.9,1.6
		c-0.2,0.3-0.5,0.6-0.7,0.9c-0.1,0.1-0.2,0.2-0.3,0.2c-0.1,0.1-0.2,0-0.2-0.1c0-0.1,0-0.1,0-0.2c0.3-0.6,0.3-1.3,0.3-1.9
		c0-0.3,0.1-0.7,0.2-1c0-0.1,0.1-0.2,0.1-0.3c0-0.1,0-0.2-0.1-0.3c-0.1-0.1-0.2,0.1-0.3,0.1c-0.2,0.2-0.4,0.4-0.7,0.5
		c-0.2,0.1-0.4,0.2-0.7,0.2c-0.3-0.1-0.6,0.1-0.9,0.4c-0.4,0.5-0.8,0.9-1.2,1.3c0,0-0.1,0.1-0.1,0.1c-0.1,0.1-0.2,0.2-0.4,0.1
		c-0.1-0.1,0-0.2,0-0.4c0.1-0.4,0.2-0.7,0.4-1c0.2-0.3,0.3-0.7,0.5-1.1c0,0,0,0,0.1-0.1c0,0,0.1-0.1,0.1-0.1
		c0.5-0.7,1.1-1.2,1.7-1.8c0.6-0.6,1-1.3,1-2.2c0-0.2,0.1-0.4,0.3-0.3c0.4,0.2,0.7,0.6,0.9,1.1c0.1-0.9,0.5-1.7,0.8-2.4
		c0.2-0.5,0.4-1,0.6-1.5c0.3-1,0.3-2.1,0-3.1c-0.2-0.7-0.7-1.2-1.5-1.3c-0.5-0.1-0.9-0.1-1.4,0c-0.8,0.1-1.4,0.6-2,1.1
		c-0.8,0.6-1.5,1.3-2.3,1.9c-0.3,0.2-0.6,0.4-1,0.6c-0.1,0.1-0.2,0.1-0.3,0c-0.1-0.1,0-0.2,0.1-0.3c0.5-0.4,0.8-0.9,1.1-1.5
		c0.1-0.1,0.1-0.2,0.2-0.3c1-1.2,1.5-2.7,1.9-4.2c0.4-1.5,0.6-2.9,0.5-4.4c0-0.5-0.1-0.9-0.4-1.3c-0.4-0.7-0.9-1.3-1.4-1.9
		c-0.1,0-0.1,0.1-0.1,0.2c-0.2,0.6-0.2,1.3-0.3,1.9c-0.1,1.4-0.1,2.7-0.2,4.1c-0.1,1.2-0.3,2.4-0.5,3.6c-0.1,0.3-0.1,0.7-0.2,1
		c-0.4,1.6-1.3,2.7-2.9,3.4c-0.6,0.3-1.2,0.5-1.9,0.5c-1.4,0.2-2.4,0.8-3.3,1.9c-1.2,1.4-2.1,2.9-2.8,4.6c-0.5,1.4-0.9,2.9-1.2,4.4
		c-0.2,1-0.5,2.1-0.6,3.1c0,0.2-0.1,0.3,0,0.5c0,0.3-0.1,0.5-0.3,0.7c-0.5,1-0.8,2-1,3.1c0,0.1,0,0.3-0.1,0.4
		c-0.5,0.1-1-0.1-1.5-0.2c-1.4-0.2-2.7-0.4-4.1-0.5c-0.5-0.1-1-0.1-1.5-0.2c-0.2-0.1-0.5,0-0.7-0.1c0,0,0,0,0,0c0.1,0,0.2,0,0.4,0
		c1,0.1,2,0.2,3,0.4c1.4,0.2,2.7,0.4,4.1,0.6c0.1,0,0.2,0,0.3,0.1c0.1,0.1,0,0.2,0,0.3c-0.1,0.6-0.2,1.3-0.3,1.9
		c0,0.2-0.1,0.3-0.3,0.3c-1.4,0.3-2.8,0.8-4.1,1.2c0,0,0,0-0.1,0c0,0,0,0,0,0c0,0,0.1,0,0.1,0c1.3-0.4,2.6-0.8,3.8-1.1
		c0.4-0.1,0.4,0,0.5,0.3c0,0.3,0,0.5,0,0.8c0,0,0,0.1,0.1,0.1c0,0,0,0,0.1,0c0,0,0.1,0,0.1,0c0,0,0,0,0.1,0c0,0,0.1,0,0.1-0.1
		c0,0,0,0,0.1,0c0.1,0,0.1,0,0.1,0.1c0,0,0,0,0,0.1c0,0-0.1,0-0.1,0.1c0,0,0,0-0.1,0c0,0-0.1,0-0.1,0c0,0,0,0-0.1,0c0,0-0.1,0-0.1,0
		c0,0,0,0-0.1,0c0,0-0.1,0.1-0.1,0.1c-0.1,0.3-0.1,0.6-0.1,0.9c0,0.1,0.1,0.2,0,0.4c0,0.1-0.1,0.2-0.2,0.3c-1.4,0.8-2.7,1.6-3.6,2.1
		c0.7-0.4,1.8-1,2.9-1.6c0.2-0.1,0.4-0.2,0.6-0.3c0.1-0.1,0.2-0.1,0.3,0c0.1,0.4,0.1,0.8,0.1,1.1c0.2,2.9,0.9,5.7,2.2,8.4
		c0.2,0.4,0.4,0.8,0.6,1.2c0.1,0.3,0.2,0.5,0.2,0.8c-0.1,1.1-0.2,2.2-0.6,3.2c-0.1,0.3-0.3,0.6-0.5,0.8c-0.4,0.6-0.4,0.5,0,1
		c0.3,0.4,0.5,0.8,0.4,1.3c0,0.3-0.1,0.6-0.3,0.9c-0.2,0.3-0.3,0.7-0.5,1.1c-0.2,0.5-0.2,1-0.1,1.5c0.1,0.5,0.1,0.9,0,1.4
		c-0.1,0.6-0.3,1.2-0.3,1.8c0,0.6-0.3,1.1-0.5,1.6c-0.3,0.8-0.7,1.5-1,2.3C18.6,80,18.5,80.1,18.4,80.1z"/>
	<path class="st7" d="M18.8,51c0-0.3-0.1-0.6-0.1-0.9c0-0.1,0-0.1,0-0.2c0-0.2,0.1-0.3,0.2-0.3c0,0,0.1,0,0.1-0.1c0,0,0,0,0.1,0
		c0,0,0,0,0.1-0.1c0,0,0,0,0.1,0c0,0,0,0,0.1-0.1c0,0,0,0,0.1,0c0,0,0,0,0.1-0.1c0,0,0,0,0.1,0c0.2-0.2,0.5-0.3,0.7-0.4
		c-0.3,0.1-0.5,0.3-0.9,0.3c0,0,0,0-0.1,0c0,0-0.1,0-0.1,0.1h0c0,0-0.1,0-0.1,0.1c0,0,0,0-0.1,0c-0.1,0-0.1,0-0.2,0
		c0-0.3,0-0.6,0-0.9c0-0.1,0-0.1,0-0.2c0-0.1-0.1-0.1-0.1-0.1c-0.1,0-0.1,0-0.2,0c-0.7,0.2-1.5,0.4-2.2,0.6
		c-0.5,0.2-1.1,0.3-1.6,0.5c-0.1,0-0.1,0-0.2,0l0,0c0.1-0.1,0.2-0.1,0.2-0.1c0.9-0.3,1.9-0.6,2.8-0.8c0.4-0.1,0.8-0.2,1.1-0.3
		c0.1,0,0.2-0.1,0.2-0.2c0-0.3,0.1-0.6,0.1-0.9c0.1-0.3,0.1-0.7,0.1-1c0-0.1,0-0.2,0.1-0.3c0.2-0.1,0.5,0,0.7,0
		c0.6,0.1,1.2,0.1,1.6,0.2c-0.5-0.1-1.2-0.2-1.9-0.3c-0.1,0-0.2-0.1-0.3-0.2c0-0.2,0-0.4,0.1-0.6c0.2-0.6,0.3-1.1,0.5-1.7
		c0.1-0.4,0.3-0.7,0.4-1c0.1-0.3,0.2-0.5,0.3-0.8c0,0,0,0,0,0c0,0,0-0.1,0-0.1c0.3-0.8,0.6-1.6,1-2.4c0.3-0.5,0.4-1.1,0.5-1.7
		c0.2-1.4,0.7-2.6,1.3-3.9c0.5-1.1,1.1-2.2,1.9-3.2c0.4-0.5,0.8-0.9,1.2-1.3c0.1-0.1,0.2-0.2,0.3-0.2c0.3,0.1,0.4,0.2,0.1,0.5
		c-0.8,0.9-1,2-1,3.1c0,0.2,0.1,0.4,0.1,0.6c0,0.2,0.1,0.2,0.2,0.2c0.2-0.1,0.4-0.1,0.6,0c0.1,0.1,0.2,0,0.3,0
		c0.1,0,0.1-0.1,0.2-0.1c0.1-0.1,0.2-0.2,0.4-0.1c0.2,0.1,0.1,0.3,0.1,0.4c0,0.4,0,0.8,0.1,1.2c0.1,0.4,0.2,0.7,0.3,1
		c0.1,0.2,0.2,0.5,0.4,0.6c0.1,0.1,0.1,0.2,0.2,0.3c0.1,0.6,0.2,1.2,0.6,1.7c0,0,0,0.1,0,0.1c-0.1,0.3-0.3,0.3-0.5,0.2
		c-0.2-0.1-0.3-0.2-0.5-0.1c-0.3,0.1-0.7,0.2-0.9,0.5c0,0,0,0,0,0.1c-0.2,0.3-0.6,0.5-0.4,1c0.1,0.3,0.1,0.7,0.4,1
		c0.2,0.2,0.1,0.3-0.2,0.4c-0.3,0.1-0.5,0.2-0.7,0.5c-0.2,0.3-0.4,0.2-0.5-0.1c-0.1-0.2-0.1-0.5-0.2-0.7c0-0.2-0.1-0.3-0.3-0.1
		c-0.2,0.2-0.4,0.4-0.6,0.6c-0.7,0.8-1,1.7-1.4,2.6c-0.1,0.2,0,0.4-0.1,0.6c0,0.2-0.3,0.2-0.5,0.3c-0.2,0.4-0.4,0.8-0.5,1.2
		c-0.1,0.7-0.2,1.3-0.3,2c-0.1,0.5-0.1,1,0.1,1.5c0,0.1,0,0.2,0.1,0.2c0.3,0,0.4,0.3,0.5,0.6c0-0.1,0-0.2,0-0.2
		c0.2-1.3,0.2-2.6,0.5-3.9c0.2-0.6,0.3-1.3,0.8-1.8c0.6-0.6,1.2-1.3,2.1-1.5c0.2,0,0.3-0.2,0.5-0.2c0.4,0,0.7,0.2,1.1,0.4
		c0.1,0.1,0.2,0.1,0.2,0.3c-0.1,0.1-0.3,0.1-0.4,0.1c-0.8,0.2-1.4,0.4-2,1c-0.2,0.2-0.3,0.5-0.5,0.8c-0.3,0.8-0.3,1.7-0.5,2.6
		c-0.1,0.5-0.3,1.1-0.4,1.6c-0.2,0.8-0.3,1.5-0.3,2.3c0,0.5,0.1,0.9,0.4,1.4c0.3,0.4,0.6,0.8,0.8,1.3c0.2,0.4,0.4,0.8,0.4,1.3
		c0,0.4,0.1,0.8,0.2,1.2c0,0.2,0,0.3,0.1,0.5c0.3,0.6,0.8,1.2,1,1.9c0.2,0.6,0.6,1,0.9,1.5c0.2,0.4,0.5,0.8,0.7,1.2
		c0.1,0.2,0.2,0.4,0.4,0.5c0.4,0.2,0.8,0.5,1.2,0.7c0.3,0.2,0.3,0.3,0,0.5c-0.1,0.1-0.2,0.1-0.1,0.2c0,0.1,0.1,0.1,0.2,0.1
		c0.2,0,0.4,0,0.6-0.1c0.5,0,0.7,0.1,0.9,0.5c0.2,0.4,0.5,0.8,0.7,1.2c0.6,0.8,1.3,1,2.2,0.7c0.7-0.2,1.4-0.5,2-0.8
		c0.3-0.2,0.6-0.5,0.8-0.7c0.1-0.1,0.1-0.1,0.1-0.2c0-0.2,0.1-0.3,0.2-0.3c0.1,0,0.2-0.1,0.1-0.2c-0.1-0.2,0-0.3,0.1-0.4
		c0.3-0.1,0.5-0.2,0.8-0.2c0.2,0,0.4,0.1,0.5,0.3c0.2,0.4,0.4,0.8,0.6,1.2c0.5,1,1,1.9,1.4,2.9c-0.2-1-0.5-1.9-1-2.8
		c-0.2-0.4-0.5-0.8-0.8-1.2c-0.2-0.3-0.2-0.5,0.2-0.6c0.3-0.1,0.6-0.1,0.9-0.3c-0.4-0.1-0.6-0.1-0.9-0.1c-0.2,0-0.3,0-0.5,0
		c-0.1,0-0.3,0-0.3-0.2c0-0.2,0.1-0.2,0.3-0.2c0.2-0.1,0.4-0.1,0.6-0.1c0.3,0,0.6,0,0.9,0c0.3,0,0.5-0.1,0.7-0.2
		c0-0.1,0-0.1-0.1-0.1c-0.2-0.1-0.4-0.1-0.4-0.4c0-0.3,0.1-0.5,0.4-0.7c0.3-0.2,0.7-0.2,1-0.1c0.6,0.1,1.2,0,1.7-0.3
		c0.8-0.4,1.5-0.7,2.2-1.2c0.1,0,0.1-0.1,0.2-0.1c0.4-0.3,0.4-0.4-0.1-0.6c-0.2-0.1-0.3-0.2-0.2-0.4c0.2-0.3,0.1-0.7-0.1-1
		c-0.3-0.4-0.6-0.7-1.1-1c-0.4-0.2-0.7-0.5-1-0.8c-0.2-0.2-0.5-0.4-0.8-0.5c-0.1,0-0.2-0.1-0.2-0.1c0-0.1,0.1-0.2,0.2-0.2
		c0.2-0.1,0.4-0.2,0.6-0.3c0.3-0.1,0.3-0.2,0.1-0.4c-0.3-0.2-0.5-0.5-0.6-0.9c-0.3-0.6-0.3-1.2-0.1-1.8c0-0.1,0.1-0.2,0-0.3
		c-0.1-0.2,0-0.4,0.1-0.6c0.1-0.1,0.1-0.2,0-0.3c-0.1-0.1-0.2-0.2-0.1-0.3c0.1-0.1,0.2-0.2,0.3-0.1c0.5,0.1,1,0,1.5,0.1
		c1.4,0.1,2.7,0.4,4,0.7c0.2,0.1,0.5,0.2,0.7,0.2c-0.1-0.1-0.3-0.1-0.5-0.2c-1.5-0.4-3-0.7-4.6-0.8c-0.5,0-0.9,0-1.4,0
		c-0.2,0-0.3,0-0.3-0.3c0-0.6,0.1-1.1,0.5-1.5c0.1-0.1,0.1-0.3,0.1-0.5c0-0.7,0.5-1.1,1-1.5c0.2-0.2,0.4-0.3,0.6-0.4
		c0.4-0.2,0.9-0.3,1.4-0.1c0.9,0.3,1.7,0.3,2.6-0.1c0.5-0.2,0.9-0.4,1.4-0.6c0.6-0.3,1.2-0.6,1.8-0.8c1-0.3,1.6-0.9,2.2-1.7
		c0.4-0.6,0.7-1.2,1.2-1.6c0.1,0,0.1-0.1,0-0.2c-0.1-0.1-0.1-0.2,0-0.3c0.5-0.5,1.1-0.7,1.8-0.6c0.4,0.1,0.8,0.1,1.2,0.1
		c0.5,0,0.9,0,1.4,0.1c0.3,0.1,0.6,0.1,1,0.1c1.1,0,2.2,0.2,3.2,0.1c0.7,0,1.3-0.1,2-0.1c0.1,0,0.3,0,0.4,0.1
		c0.2,0.4,0.5,0.7,0.7,1.1c0.1,0.2,0.2,0.4,0.3,0.6c0.1,0.3,0.2,0.5,0.2,0.8c0,0.3,0,0.5,0.1,0.8c0,0,0,0.1,0,0.2
		c0,0.4,0.1,0.8,0.1,1.2c0.1,0.5,0.2,1,0.3,1.6c0.1,0.4,0.2,0.7,0.3,1.1c0.1,0.2,0.1,0.4,0.2,0.6c0,0,0,0,0,0c0,0,0.1,0,0.1,0
		c0-0.2,0.1-0.4,0.2-0.5c0.1,0,0,0.1,0,0.1c0,0.6,0,1.1,0,1.7c0,0.3,0,0.6-0.1,0.8c0,0.1,0,0.2,0,0.3c0,0.1,0,0.2,0,0.4
		c0,0,0,0.1,0,0.1c-0.3,0.3-0.4,0.8-0.5,1.2c-0.2,0.6-0.4,1.1-0.6,1.7c-0.1,0.2-0.1,0.4-0.3,0.6c-0.1,0.1-0.1,0.2-0.2,0.4
		c-0.2,0.6-0.5,1.1-0.7,1.6c-0.1,0.3-0.3,0.5-0.3,0.8c0,0.1-0.1,0.2-0.2,0.4c-0.1,0.2-0.2,0.5-0.3,0.7c-0.1,0.4-0.3,0.8-0.5,1.2
		c-0.1,0.1-0.1,0.2-0.2,0.3c-0.2,0.2-0.2,0.4-0.4,0.5c-0.3,0.5-0.5,0.9-0.8,1.4c-0.3,0.5-0.6,0.9-0.8,1.4c-0.4,0.6-0.8,1.2-1.2,1.9
		c-0.2,0.3-0.4,0.6-0.6,1c0,0.1-0.1,0.1-0.1,0.2c0,0,0,0.1,0,0.1c0,0,0.1,0,0.1-0.1c0.2-0.1,0.4-0.2,0.6-0.3c0.8-0.4,1.5-0.7,2.3-1
		c0.1-0.1,0.3-0.1,0.4-0.1c0,0,0,0,0.1,0c0,0,0,0.1,0,0.1c-0.4,0.3-0.7,0.6-1,0.9c-0.4,0.4-0.7,0.8-1,1.2c0,0-0.1,0.1-0.1,0.1
		c0,0,0,0.1,0.1,0.1c0.1,0,0.2-0.1,0.4-0.1c0.1,0,0.2,0,0.3,0c0.1,0,0.1,0.1,0.1,0.1c0,0.1,0,0.1-0.1,0.2c-0.2,0.4-0.3,0.9-0.4,1.4
		c0,0.1-0.1,0.3-0.1,0.5c0,0.1,0,0.2,0,0.2c0,0,0.1,0,0.1,0c0.3-0.2,0.6-0.3,0.9-0.4c0.1,0,0.2,0,0.4-0.1c0.1,0,0.1,0,0.2,0.1
		c0,0.1,0,0.1,0.1,0.2c0,0.3,0.1,0.6,0,0.8c-0.2,0.6-0.5,1.2-1,1.6c-0.7,0.5-1.3,0.9-2,1.4c-0.6,0.4-1.3,0.4-1.9,0.1
		c-0.3-0.1-0.5-0.3-0.8-0.5c-0.5-0.4-1.1-0.4-1.6-0.1c-0.2,0.1-0.3,0.2-0.5,0.3c-0.3,0.2-0.5,0.1-0.5-0.3c0-0.3-0.1-0.5-0.2-0.8
		c-0.1-0.4-0.3-0.5-0.7-0.4c-0.7,0.2-1.4,0.4-2.1,0.6c-0.3,0.1-0.6,0.2-0.9,0.2c-0.2,0-0.4,0-0.3-0.3c0-0.1,0.1-0.1,0.2-0.1
		c1.2-0.6,2.1-1.5,3.2-2.3c0.6-0.5,1.2-1,1.9-1.4c-0.2,0-0.4,0-0.5,0c-0.1,0-0.2,0-0.3-0.1c0-0.1,0.1-0.2,0.1-0.2
		c0.3-0.2,0.5-0.5,0.7-0.8c0-0.1,0.1-0.2,0.1-0.3c-0.1-0.1-0.2,0-0.3,0.1c-0.5,0.2-0.9,0.5-1.3,0.8c-1.2,0.8-2.4,1.3-3.7,1.9
		C51.2,69,50,69.6,48.7,70c-1.4,0.5-2.9,0.7-4.3,0.8c-1.3,0.1-2.5,0.4-3.7,0.6c-1.3,0.2-2.6,0.5-3.9,0.5c-0.9,0-1.8-0.2-2.7-0.4
		c-1.4-0.3-2.7-0.7-4-1.2c-0.2-0.1-0.3-0.1-0.4-0.3c-0.3-0.4-0.5-0.9-0.7-1.3c-0.3-0.5-0.7-0.9-1.1-1.2c-0.8-0.7-1.7-1.3-2.6-1.9
		c-0.1-0.1-0.3-0.2-0.5-0.3c0,0.2,0.1,0.4,0.1,0.6c0,0.1,0,0.1-0.1,0.2c-0.1,0-0.1,0-0.2-0.1c-0.1-0.1-0.1-0.1-0.1-0.2
		c-0.2-0.3-0.4-0.5-0.6-0.7c-0.3-0.2-0.6-0.5-0.7-0.9c0-0.1-0.1-0.2-0.1-0.2C23,64,23,64,22.9,64c-0.1,0-0.2,0.1-0.2,0.2
		c0,0.1,0,0.1,0,0.2c0.2,0.6,0.4,1.3,0.7,1.8c0.3,0.5,0.5,1,0.7,1.5c0.5,1.1,1,2.1,1.8,3c0.4,0.5,0.9,0.8,1.5,1
		c1.4,0.5,2.7,1.4,3.6,2.6c0.3,0.4,0.7,0.7,1,1.1c0.1,0.1,0.2,0.2,0.2,0.3c-0.1,0.1-0.2,0.2-0.1,0.4c0.1,0.1,0.1,0.3,0,0.4
		c-0.2,0.3-0.4,0.6-0.2,1c0.1,0.2,0.1,0.5,0.2,0.8c0,0.1,0,0.1,0,0.2c-0.3,0.2-0.1,0.3-0.1,0.5c0.1,0.2,0.1,0.4,0,0.6
		c-0.1,0.3,0,0.5,0.2,0.6c0.2,0.2,0.3,0.4,0.1,0.6c-0.1,0.1,0,0.2,0.1,0.3c0.2,0.3,0.3,0.6,0.4,0.9c0.2,0.7-0.1,1.3-0.8,1.6
		c-0.5,0.1-0.9,0.4-1.3,0.7c0,0,0,0-0.1,0c0,0-0.1,0-0.1,0.1c-0.1,0.1-0.2,0.2-0.2,0.3c-0.1,0.1-0.2,0.2-0.3,0.3
		c-0.1,0.1-0.2,0.2-0.4,0c-0.1-0.1-0.2-0.1-0.3,0.1c-0.1,0.1-0.2,0.3-0.2,0.4C29,85.8,29,86,28.9,86.1c-0.2,0.3-0.4,0.5-0.3,0.9
		c0,0.1-0.1,0.3-0.2,0.3c-0.2,0.1-0.4,0.2-0.7,0.2c-0.6-0.3-1.1-0.7-1.7-1c-0.7-0.5-1.5-1-2.2-1.5c-0.4-0.3-0.9-0.7-1.3-1
		c-0.3-0.2-0.6-0.5-0.9-0.7c-0.2-0.2-0.4-0.3-0.6-0.5c-0.6-0.5-1.2-1.1-1.8-1.7c-0.2-0.2-0.5-0.5-0.7-0.7c0,0-0.1-0.1-0.1-0.1
		c0.1-0.2,0.2-0.5,0.2-0.7c0.3-0.8,0.6-1.5,1-2.3c0.1-0.2,0.2-0.4,0.2-0.5c0.1-0.3,0.2-0.5,0.2-0.8c0-0.3,0.1-0.5,0.1-0.7
		c0.1-0.5,0.2-0.9,0.3-1.4c0-0.2,0-0.5,0-0.7c-0.1-0.4-0.1-0.7-0.1-1.1c0-0.3,0.1-0.6,0.2-0.9c0.1-0.3,0.2-0.5,0.3-0.8
		c0.1-0.1,0.1-0.3,0.2-0.5c0.2-0.5,0.1-0.9-0.1-1.4c-0.1-0.2-0.2-0.3-0.4-0.5c-0.1-0.1-0.1-0.2-0.2-0.2c-0.1-0.1,0-0.1,0-0.2
		c0.1-0.1,0.2-0.3,0.3-0.4c0.4-0.6,0.7-1.2,0.8-1.9c0.1-0.5,0.2-1,0.2-1.5c0-0.2,0.1-0.5,0.1-0.7c0-0.2-0.1-0.4-0.2-0.6
		c-0.3-0.6-0.6-1.2-0.9-1.8c-0.3-0.7-0.6-1.4-0.8-2.1c-0.2-0.7-0.5-1.4-0.6-2.2c-0.1-0.5-0.2-0.9-0.3-1.4c0-0.2-0.1-0.5-0.1-0.7
		c0-0.1,0-0.3-0.1-0.4c0-0.2-0.1-0.5-0.1-0.7c0,0,0-0.1,0-0.1c0-0.5-0.1-1-0.1-1.5c0-0.2,0.2-0.3,0.3-0.4c0.9-0.5,1.8-1,2.8-1.5
		c-0.5,0.3-1.1,0.6-1.7,0.9c-0.4,0.2-0.7,0.4-1.1,0.6C19,51,18.9,51.1,18.8,51z"/>
	<path class="st1" d="M30.6,84.5c0.1-0.1,0.2-0.2,0.3-0.3c0.3-0.1,0.5-0.3,0.8-0.4c0.1-0.1,0.2-0.1,0.3-0.1c0.3,0.5,0.3,0.5-0.1,1
		c-0.2,0.3-0.5,0.6-0.7,0.9c-0.1,0.1-0.2,0.2-0.1,0.3c0.1,0.1,0.2,0,0.3,0c0.5-0.1,0.9-0.4,1.3-0.6c0.1-0.1,0.2-0.2,0.3-0.1
		c0.1,0.1,0.1,0.2,0.1,0.4c0,0.1,0,0.2,0,0.4c0,0.1,0,0.2,0.1,0.2c0.1,0,0.1-0.1,0.2-0.1c0.6-0.7,1.1-1.5,1.3-2.4
		c0.1-0.5,0.5-0.9,0.9-1.1c0.3-0.2,0.7-0.1,1,0.1c0.3,0.2,0.3,0.2,0.5-0.1c0.2-0.3,0.3-0.7,0.4-1c0.1-0.4,0.2-0.4,0.5-0.2
		c0.1,0,0.2,0.1,0.3,0.1c0.1,0.1,0.2,0,0.3-0.1c0.3-0.4,0.6-0.7,0.8-1c0.2-0.3,0.4-0.7,0.3-1.1c-0.1-0.3,0-0.4,0.3-0.4
		c0.5,0,1-0.2,1.4-0.3c0.2,0,0.2-0.1,0.2-0.3c-0.1-0.2-0.1-0.4-0.2-0.7c-0.1-0.2,0-0.3,0.2-0.5c0.4-0.3,0.8-0.6,1.2-0.9
		c0.3-0.2,0.3-0.3,0.1-0.5c-0.2-0.4-0.2-0.5,0.3-0.7c0.2-0.1,0.5-0.2,0.7-0.2c0.3,0,0.6,0,0.8-0.2c0,0,0.1,0,0.1,0
		c0.5,0,1-0.3,1.5-0.4c0.3-0.1,0.7-0.2,1.1-0.3c0.5-0.1,1-0.3,1.4-0.4c0.1,0,0.1-0.1,0.2-0.1c0.9-0.9,1.9-1.5,3-2
		c0.1,0,0.2-0.1,0.3,0c0,0.2,0.1,0.3,0.3,0.2c0.3-0.1,0.6-0.1,0.9-0.2c0.7-0.2,1.4-0.5,2.1-0.6c0.1,0,0.2,0,0.3,0
		c0.2,0,0.4,0.1,0.5,0.3c0,0.1,0.1,0.2,0.1,0.3c0.1,0.3,0.1,0.5,0.1,0.8c0,0,0,0.1,0,0.1c0.1,0.1,0.1,0.2,0.2,0.1
		c0.2-0.1,0.4-0.2,0.6-0.3c0.2-0.1,0.3-0.1,0.5-0.2c0.3-0.1,0.7-0.1,1,0.1c0.3,0.1,0.5,0.3,0.7,0.4c0.2,0.1,0.4,0.2,0.6,0.3
		c0.4,0.2,0.8,0.2,1.2,0.1c0.3-0.1,0.6-0.3,0.9-0.5c0.4-0.3,0.9-0.6,1.3-0.9c0.1-0.1,0.2-0.1,0.4-0.2c-0.1,0.1-0.1,0.2-0.2,0.3
		c-0.1,0.1-0.2,0.2-0.3,0.3c-0.3,0.3-0.5,0.6-0.8,0.9c-0.1,0.1-0.1,0.3-0.2,0.4c0,0,0,0.1,0.1,0.1c0,0,0.1,0,0.1,0
		c0.5-0.2,1-0.4,1.5-0.6c0.3-0.1,0.6-0.2,0.9-0.3c0.1,0,0.1,0,0.1,0c0.1,0.1,0,0.2,0.1,0.3c0.1,0,0.2-0.1,0.3-0.1
		c0.6-0.4,1.2-0.8,1.9-1.3c0.1-0.1,0.2-0.2,0.4-0.1c0,0,0.1,0.1,0,0.1c-0.1,0.2-0.2,0.3-0.3,0.5c0,0.1-0.1,0.1-0.1,0.2
		c0,0,0,0.1,0,0.1c0,0,0,0,0.1,0c0.3-0.1,0.6-0.3,0.9-0.5c0.5-0.3,1-0.7,1.6-1c0.5-0.3,1-0.4,1.5-0.5c0.1,0,0.1,0,0.2,0
		c0.1,0,0.2,0,0.2,0.1c0,0,0.1,0.1,0.1,0.1c0.4-0.1,0.8-0.1,1.2-0.3c0.2-0.1,0.3-0.2,0.5-0.2c0.2-0.1,0.3-0.2,0.4-0.3
		c0.2-0.2,0.3-0.3,0.5-0.5c0.3-0.4,0.7-0.6,1.2-0.7c0.4-0.1,0.7-0.2,1.1-0.2c0.6,0,1.1,0.3,1.3,0.9c0,0.1,0.1,0.3,0.1,0.5
		c0,0.3,0,0.6,0,0.9c0,0.1,0,0.2,0,0.3c0,0.1-0.1,0.3-0.2,0.4c-0.1,0.1-0.1,0.1-0.2,0.2c-0.1,0.2-0.1,0.2,0,0.4c0,0,0.1,0.1,0.1,0.1
		c0.1,0.1,0.1,0.2,0.1,0.3c-0.1,0.3-0.1,0.5-0.2,0.8c-0.1,0.3-0.1,0.6-0.1,0.9c0,0.1,0,0.1,0,0.2c0,0.1,0,0.2,0,0.4
		c0,0.4-0.1,0.7-0.2,1.1c0,0,0,0.1,0,0.1c0,0.1,0,0.1,0.1,0.2c0.1,0.1,0.2,0.2,0.2,0.3c0,0.2,0,0.5,0,0.7c0,0.2-0.1,0.4-0.2,0.6
		c-0.2,0.4-0.4,0.8-0.7,1.1c-0.2,0.2-0.4,0.5-0.6,0.7c-0.1,0.2-0.2,0.3-0.3,0.5c0,0.1,0,0.1-0.1,0.1c-0.1,0-0.1,0-0.1,0.1
		c-0.1,0.1-0.2,0.2-0.3,0.3c-0.2,0.2-0.3,0.5-0.5,0.7c-0.3,0.4-0.6,0.7-1.1,0.9c-0.2,0.1-0.4,0.3-0.4,0.5c0,0.2-0.1,0.2-0.2,0.3
		c-0.2,0.1-0.3,0.3-0.4,0.5c0,0,0,0-0.1,0.1c-0.1-0.1-0.3,0-0.4,0c-0.3,0.1-0.7,0.2-1,0.3c-0.1,0-0.2,0.1-0.3,0
		c-0.1-0.1,0-0.2,0.1-0.3c0.9-0.7,1.2-1.7,1.6-2.6c0.3-0.7,0.6-1.4,0.9-2.1c0.2-0.4,0.4-0.8,0.7-1.2c0.1-0.2,0.1-0.3-0.1-0.4
		c0,0-0.1,0-0.1-0.1c-0.5-0.4-0.6-0.4-0.2-0.9c0.1-0.2,0.2-0.4,0.3-0.5c0.1-0.2,0.1-0.3-0.1-0.4c-0.4-0.1-0.4-0.4-0.4-0.7
		c0-0.2,0-0.5,0-0.7c0-0.2-0.1-0.3-0.3-0.2c-0.5,0.2-1,0-1.5-0.1c-0.7-0.2-1.4-0.2-2.1,0.2c-0.6,0.3-1.2,0.7-1.7,1.1
		c-0.4,0.3-0.8,0.6-1.2,0.8c-0.1,0.1-0.3,0.1-0.4-0.1c-0.1-0.1-0.2-0.1-0.2,0c-0.7,0.6-1.3,1.2-1.7,2c0,0,0,0.1,0,0.1
		c0,0.4-0.3,0.6-0.6,0.8c-1,0.6-2,1.4-2.9,2.2c-0.3,0.3-0.6,0.6-1,0.9c-0.2,0.1-0.4,0.2-0.6,0.1c-0.5-0.2-1-0.3-1.6,0
		c-0.4,0.2-0.8,0.5-1.1,0.9c-0.5,0.5-1.1,0.8-1.9,0.5c-0.1,0-0.2,0-0.3,0.1c-0.4,0.3-0.8,0.6-1.2,1c-0.1,0.1-0.2,0.2-0.4,0.2
		c-1.2-0.1-2.3,0.3-3.3,1C49,85.3,48.4,86,48,86.8c-0.1,0.2-0.2,0.3-0.4,0.4c-0.9,0.2-1.5,0.8-2.1,1.5c-0.2,0.2-0.4,0.5-0.6,0.7
		c-0.2,0.2-0.3,0.2-0.5-0.1c-0.1-0.1-0.1-0.2-0.1-0.3c-0.1-0.2-0.2-0.2-0.4-0.1c-0.4,0.3-0.8,0.6-1.2,0.9c-0.3,0.2-0.6,0.4-0.9,0.6
		c-0.7,0.3-1.3,0.3-1.5-0.6c-0.1-0.2-0.2-0.3-0.4-0.2c-0.3,0.1-0.7,0.1-1,0.4c-0.2,0.2-0.4,0.4-0.1,0.7c0.1,0.2,0,0.3-0.2,0.3
		c-0.6,0.4-1.3,0.6-2.1,0.5c0,0-0.1,0-0.1,0c-0.7-0.2-1.5-0.5-2.2-0.7c-0.6-0.3-1.3-0.5-1.9-0.8c-0.3-0.1-0.6-0.2-0.9-0.4
		c-0.7-0.4-1.4-0.7-2.1-1.1c-0.5-0.3-1.1-0.6-1.6-0.9c0,0,0,0-0.1-0.1c0,0,0.1-0.1,0.1-0.1c0.1-0.1,0.2-0.1,0.3-0.1
		c0.3,0,0.3-0.1,0.4-0.4c0,0,0,0,0,0c0-0.3,0-0.5,0.2-0.7c0.1-0.1,0.2-0.3,0.3-0.5c0.1-0.1,0.1-0.3,0.2-0.4c0-0.1,0.1-0.2,0.2-0.2
		c0.2-0.1,0.2-0.1,0.3,0c0,0,0,0,0,0.1c0,0.1,0.1,0.1,0.2,0c0.1-0.1,0.3-0.3,0.4-0.4C30.4,84.8,30.5,84.6,30.6,84.5z"/>
	<path class="st7" d="M36.4,91.5c0-0.1,0.1-0.1,0.2-0.1c0.3,0,0.6,0,0.8-0.1c0.3-0.1,0.5-0.1,0.8-0.3c0.1-0.1,0.3-0.1,0.4-0.2
		c0.1-0.1,0.1-0.1,0-0.2c-0.2-0.2-0.2-0.2,0-0.5c0.2-0.2,0.4-0.4,0.6-0.6c0.1,0,0.1,0,0.2,0c0.1,0,0.2,0,0.2,0
		c0.1-0.1,0.3-0.1,0.4-0.1c0.1,0,0.2,0,0.3,0.1c0,0.1,0.1,0.3,0.1,0.4c0.1,0.2,0.2,0.3,0.3,0.4c0.2,0.1,0.4,0.1,0.6,0.1
		c0.2,0,0.3-0.1,0.5-0.2c0.3-0.2,0.6-0.4,0.9-0.6c0.2-0.2,0.4-0.4,0.7-0.5c0.1-0.1,0.3-0.2,0.4-0.3c0.1,0,0.2-0.1,0.3-0.2
		c0.1,0,0.2,0,0.2,0.1c0.1,0.2,0.2,0.4,0.3,0.6c0,0.1,0.1,0.1,0.2,0c0.1-0.1,0.2-0.2,0.3-0.3c0.1-0.1,0.2-0.2,0.3-0.3
		c0.3-0.4,0.6-0.7,1-1c0.3-0.3,0.6-0.5,1.1-0.6c0.1,0,0.2,0,0.2-0.1c0.1,0,0.2-0.1,0.3-0.2c0.2-0.4,0.5-0.8,0.8-1.1
		c0.2-0.2,0.4-0.4,0.6-0.6c0.2-0.2,0.4-0.3,0.6-0.5c0.6-0.4,1.1-0.7,1.8-0.9c0.4-0.1,0.9-0.2,1.3-0.2c0,0,0.1,0,0.1,0
		c0.2,0.1,0.4,0,0.5-0.2c0.1-0.2,0.3-0.3,0.4-0.4c0.3-0.2,0.6-0.4,0.8-0.7c0.1-0.1,0.1-0.1,0.2,0c0,0,0.1,0,0.1,0
		c0.3,0.1,0.5,0.1,0.8,0.1c0.1,0,0.1,0,0.2-0.1c0.3-0.1,0.5-0.3,0.7-0.5c0.3-0.3,0.7-0.6,1.1-0.9c0.4-0.2,0.7-0.3,1.2-0.2
		c0.3,0.1,0.5,0.1,0.7,0.2c0.1,0,0.2,0,0.3,0c0.2-0.2,0.5-0.4,0.7-0.6c0.3-0.2,0.5-0.5,0.8-0.7c0,0,0.1-0.1,0.2-0.1
		c0.2-0.1,0.3-0.2,0.5-0.4c0.2-0.2,0.5-0.4,0.7-0.6c0.2-0.2,0.5-0.3,0.7-0.5c0.3-0.2,0.5-0.3,0.8-0.5c0.1-0.1,0.2-0.1,0.2-0.2
		c0-0.2,0.1-0.4,0.2-0.6c0.2-0.3,0.3-0.5,0.5-0.8c0.1-0.1,0.1-0.1,0.2-0.2c0.3-0.3,0.5-0.5,0.8-0.8c0.1-0.1,0.2-0.2,0.3-0.2
		c0.1,0,0.1,0,0.1,0.1s0,0.2,0.1,0.2c0.1,0,0.2,0,0.2-0.1c0.4-0.2,0.8-0.5,1.2-0.8c0.6-0.4,1.1-0.8,1.7-1.1c0.2-0.1,0.5-0.2,0.8-0.3
		c0.1,0,0.1,0,0.2,0c0.2,0,0.3,0,0.5,0c0.3,0,0.6,0.1,0.9,0.2c0.1,0,0.2,0.1,0.3,0.1c0.2,0.1,0.3,0.1,0.5,0c0.2-0.1,0.4-0.1,0.5-0.1
		c0.2,0,0.2,0,0.2,0.2c0,0.3,0,0.7,0,1c0,0.3,0,0.3,0.3,0.4c0.1,0,0.2,0.1,0.2,0.1c0.1,0.1,0.2,0.1,0.1,0.3c0,0.1-0.1,0.1-0.1,0.2
		c-0.1,0.3-0.3,0.5-0.5,0.7c-0.1,0.1-0.1,0.2,0,0.3c0.2,0.2,0.4,0.3,0.6,0.4c0.1,0,0.1,0.1,0.1,0.2c0,0,0,0.1-0.1,0.1
		c-0.3,0.4-0.5,0.8-0.7,1.2c-0.1,0.3-0.3,0.6-0.4,0.9c-0.1,0.3-0.2,0.5-0.3,0.8c-0.2,0.5-0.4,1-0.6,1.5c-0.2,0.4-0.3,0.7-0.6,1
		c-0.2,0.2-0.3,0.4-0.5,0.5c-0.1,0.1-0.2,0.2-0.3,0.3c0,0,0,0.1,0,0.1c0,0,0.1,0,0.1,0c0.1,0,0.2,0,0.2-0.1c0.3-0.1,0.7-0.2,1-0.3
		c0.1,0,0.1,0,0.2,0c0.1,0,0.1,0,0.2,0.1c-0.1,0.4-0.3,0.6-0.6,0.8c-0.3,0.1-0.5,0.2-0.8,0.3c0,0.1,0.1,0.1,0.1,0.1c0,0,0,0.1,0,0.1
		c-0.1,0.1-0.2,0.2-0.3,0.3c-0.4,0.2-0.8,0.5-1.1,0.8c-0.2,0.2-0.3,0.4-0.5,0.6c0,0.1-0.1,0.1-0.1,0.2c-0.1,0.2-0.2,0.4-0.5,0.5
		c-0.2,0.1-0.2,0.1,0,0.2c0,0,0,0,0.1,0.1c0,0.1,0,0.1,0,0.1c-0.1,0-0.2,0.1-0.3,0.1c-0.2,0.1-0.4,0.2-0.5,0.4
		c-0.2,0.2-0.4,0.3-0.6,0.4c0,0-0.1,0.1,0,0.1c0.1,0.1,0.1,0.1,0.2,0.2c-0.1,0.3-0.6,0.7-0.9,0.6c-0.2,0-0.4,0.1-0.5,0.3
		c-0.2,0.3-0.4,0.3-0.7,0.4c-0.6,0.2-1.2,0.3-1.7,0.5c-0.4,0.2-0.7,0.4-1,0.5c-0.1,0-0.2,0.1-0.3,0.1c-0.1,0-0.3,0.1-0.4,0
		c-0.1-0.1,0-0.2,0-0.4c0-0.2,0.2-0.4,0-0.5c-0.1-0.1-0.3,0-0.5,0.1c-0.7,0.3-1.5,0.4-2.2,0.6c-1.2,0.2-2.2,0.7-3,1.6
		c-0.3,0.4-0.8,0.7-1.4,0.7c-0.2,0-0.5,0-0.7,0.1c-0.3,0-0.6,0.3-0.9,0.3c-0.3,0-0.6-0.1-0.9,0c-0.5,0.1-0.9,0.3-1.4,0.4
		c-0.4,0.1-0.8,0.1-1-0.3c-0.1-0.1-0.2-0.1-0.3-0.1c-0.4,0-0.8,0.1-1.1,0.3c-0.2,0.1-0.5,0.2-0.7,0.1c-0.1-0.1-0.3-0.1-0.4-0.1
		c-0.7-0.1-1.4-0.2-2.1-0.5c-0.7-0.2-1.4-0.2-2.1,0.1C43,93,42.8,93,42.6,93c-0.2,0-0.4,0-0.6-0.1c-1.5-0.3-2.9-0.6-4.4-1
		c-0.3-0.1-0.7-0.2-1-0.3C36.6,91.5,36.5,91.5,36.4,91.5z"/>
	<path class="st1" d="M42.6,93c0.2,0,0.3,0,0.5-0.1c0.5-0.3,1.1-0.3,1.6-0.3c0.3,0,0.5,0.1,0.8,0.2c0.2,0.1,0.4,0.1,0.7,0.2
		c0.3,0.1,0.5,0.1,0.8,0.1c0.4,0,0.7,0.1,1.1,0.2c0.1,0,0.1,0,0.2,0c0.1,0,0.2-0.1,0.3-0.2c0.4-0.2,0.8-0.3,1.2-0.3
		c0.2,0,0.3,0.1,0.4,0.2c0.1,0.2,0.2,0.3,0.5,0.3c0.3,0,0.7-0.1,1-0.2c0.3-0.1,0.6-0.2,0.9-0.3c0.3-0.1,0.6-0.1,0.9,0
		c0.1,0,0.1,0,0.2,0c0.2-0.1,0.3-0.2,0.5-0.2c0.3,0,0.6-0.1,0.9-0.1c0.5,0,1-0.2,1.3-0.6c0.1-0.2,0.3-0.3,0.4-0.4
		c0.5-0.6,1.2-1,2-1.1c0.5-0.1,1-0.2,1.5-0.3c0.4-0.1,0.8-0.2,1.2-0.4c0.2-0.1,0.4-0.1,0.6-0.2c0.1,0,0.2,0.1,0.2,0.2
		c0,0,0,0.1,0,0.1c0,0.2-0.1,0.3-0.1,0.5c0,0.2,0,0.2,0.2,0.2c0.1,0,0.1,0,0.2,0c0.3-0.1,0.5-0.2,0.8-0.4c0.2-0.1,0.3-0.2,0.5-0.3
		c0.5-0.2,1-0.4,1.4-0.5c0.2,0,0.4-0.1,0.6-0.2c0.2-0.1,0.3-0.2,0.4-0.4c0,0,0-0.1,0-0.1c0.1-0.2,0.1-0.2,0.4-0.2
		c0.2,0,0.3,0,0.4-0.1c0.2-0.2,0.4-0.3,0.6-0.5c0.2,0,0.3-0.1,0.4-0.2c0.3-0.2,0.6-0.4,1-0.5c0.3-0.1,0.6-0.2,1-0.2
		c0.3,0,0.6,0,0.9,0.1c0.2,0.1,0.4,0.2,0.6,0.4c-0.1,0.1-0.1,0.2-0.2,0.2c-0.8,0.4-1.5,0.9-2.3,1.2c-0.8,0.4-1.5,0.7-2.3,1
		c-1.3,0.5-2.5,1-3.8,1.4c-0.9,0.3-1.8,0.5-2.7,0.7c-0.5,0.1-1.1,0.2-1.6,0.3c-0.3,0.1-0.7,0.1-1,0.2c-0.3,0.1-0.7,0.1-1,0.2
		c-0.2,0-0.5,0.1-0.7,0.1c-0.2,0-0.5,0.1-0.7,0.1c-0.3,0-0.6,0.1-0.9,0.1c0,0,0,0-0.1,0c-0.4,0-0.7,0-1.1,0.1c-0.5,0.1-1,0-1.6,0.1
		c-0.8,0.1-1.7,0.1-2.5,0c-0.6,0-1.1-0.1-1.7-0.1c-0.3-0.1-0.7,0-1-0.1c-0.3-0.1-0.6,0-0.8-0.1c-0.3-0.1-0.6,0-0.9-0.1
		c-0.2,0-0.4,0-0.6-0.1c-0.2,0-0.4-0.1-0.7-0.1c-0.1,0-0.2,0-0.2,0C42.7,93,42.7,93,42.6,93z"/>
	<path class="st1" d="M28.8,36.2C28.8,36.2,28.8,36.2,28.8,36.2c-0.1-0.2-0.1-0.2-0.2-0.3c-0.1,0-0.1-0.1-0.2-0.2
		c-0.3-0.3-0.4-0.7-0.5-1.1c-0.1-0.5-0.2-1.1-0.2-1.7c0-0.1,0.1-0.3-0.1-0.3c-0.1,0-0.2,0.1-0.3,0.2c-0.1,0.1-0.2,0.1-0.3,0.2
		c-0.1,0.1-0.2,0.1-0.3,0c-0.1-0.1-0.2-0.1-0.4-0.1c-0.1,0-0.2,0.1-0.2,0.1c-0.1,0-0.2,0-0.2-0.1c0-0.3-0.1-0.7-0.1-1
		c0-0.2,0-0.4,0-0.6c0-0.2,0-0.4,0.1-0.5c0-0.3,0.1-0.6,0.2-0.8c0.2-0.4,0.4-0.8,0.7-1.2c0,0,0,0,0,0c0.1-0.2,0.1-0.2-0.1-0.3
		c0,0,0,0-0.1,0c0-0.4,0.1-0.6,0.5-0.7c1-0.3,2-0.8,3-1.2c0.6-0.3,1.1-0.5,1.7-0.8c0.2-0.1,0.3-0.2,0.4-0.3c0.6-1.1,1.4-2.1,1.8-3.3
		c0.4-1.2,0.6-2.4,0.5-3.7c-0.1-1.2-0.3-2.4-0.4-3.5c-0.1-0.9,0-1.8,0.1-2.6c0-0.1,0-0.3,0.2-0.3c0.1,0,0.2,0.1,0.2,0.1
		c0.3,0.4,0.6,0.8,0.9,1.2c0.2,0.3,0.4,0.6,0.5,1c0.1,0.3,0.2,0.7,0.2,1.1c0,0.3,0,0.7,0,1c0,0.2,0,0.4-0.1,0.6c0,0,0,0,0,0.1
		c0,0.6-0.1,1.1-0.3,1.6c-0.2,0.9-0.5,1.9-0.8,2.8c-0.1,0.2-0.2,0.5-0.2,0.7c-0.1,0.2-0.2,0.4-0.3,0.6c-0.4,0.6-0.8,1.3-1.2,1.9
		c-0.2,0.3-0.4,0.6-0.7,0.9c-0.1,0.1-0.2,0.2-0.3,0.2c-0.1,0-0.1,0.1-0.1,0.2c0,0.1,0.1,0.1,0.2,0c0.4-0.2,0.7-0.4,1-0.6
		c0.4-0.3,0.8-0.6,1.2-0.9c0.2-0.2,0.5-0.4,0.7-0.6c0.5-0.4,1-0.8,1.5-1.2c0.2-0.2,0.5-0.2,0.8-0.3c0.4-0.1,0.8-0.1,1.3-0.1
		c0.5,0,0.9,0.2,1.3,0.5c0.1,0.1,0.1,0.1,0.2,0.2c0.2,0.3,0.4,0.7,0.4,1c0.1,0.6,0.2,1.2,0.1,1.7c0,0.3-0.1,0.7-0.2,1
		c-0.1,0.5-0.4,1-0.6,1.5c-0.2,0.5-0.4,1-0.6,1.5c-0.1,0.3-0.1,0.6-0.2,1c0,0,0,0.1,0,0.1c0,0,0,0.1-0.1,0.1s-0.1,0-0.1,0
		c0,0,0-0.1,0-0.1c-0.1-0.4-0.3-0.7-0.7-0.9c-0.1,0-0.1-0.1-0.2-0.2c-0.1-0.2-0.1-0.5-0.1-0.8c-0.1-0.7-0.1-1.4-0.2-2
		c-0.1-0.4-0.1-0.8-0.3-1.1c-0.2-0.3-0.4-0.4-0.8-0.3c-0.6,0.2-1,0.6-1.4,1c-0.5,0.6-1,1.2-1.6,1.6c-0.2,0.1-0.3,0.2-0.5,0.3
		c-0.3,0.1-0.5,0.3-0.5,0.7c0,0.2-0.2,0.4-0.3,0.5c-0.1,0.1-0.1,0.2,0.1,0.3c0.4,0.2,0.8,0.3,1.2,0.1c0.2-0.1,0.4-0.1,0.6-0.2
		c0.4-0.1,0.8,0,0.9,0.4c0.1,0.1,0.1,0.3,0.1,0.5c0.1,1.1,0.1,2.1-0.1,3.2c0,0.1-0.1,0.2-0.1,0.3c-0.1,0.5-0.3,1-0.6,1.4
		c-0.1,0.2-0.2,0.4-0.2,0.6c0,0.1-0.1,0.2-0.1,0.3c0,0.1,0,0.1,0,0.2c0.1,0,0.3-0.1,0.4-0.2c0.4-0.4,0.7-0.7,1.1-1.1
		c0,0,0.1-0.1,0.1-0.1c0.1-0.2,0.3-0.3,0.6-0.4c0.2-0.1,0.4-0.1,0.5,0c0.1,0,0.1,0,0.2,0c0.2-0.1,0.4-0.2,0.6-0.4
		c0.2-0.2,0.4-0.3,0.6-0.5c0,0,0.1-0.1,0.1-0.1c0,0,0.1,0,0.1,0c0.1,0.2,0.1,0.3,0.1,0.5c-0.1,0.3-0.2,0.6-0.2,0.9
		c0,0.1,0,0.1,0,0.2c0,0.3,0,0.6-0.1,0.9c0,0.4-0.1,0.8-0.3,1.2c0,0.1,0,0.1-0.1,0.2c0,0,0,0.1,0,0.1c0,0,0.1,0,0.1,0
		c0.2-0.2,0.4-0.4,0.6-0.7c0.2-0.2,0.4-0.5,0.6-0.7c0.1-0.1,0.3-0.2,0.3-0.4c0,0,0.1-0.1,0.1-0.1c0.4-0.3,0.8-0.6,1.2-0.9
		c0.3-0.1,0.6-0.3,0.8-0.5c0.1-0.1,0.2-0.2,0.3-0.3c0.3-0.4,0.5-0.8,0.8-1.2c0,0,0-0.1,0-0.1c-0.1,0-0.1-0.1-0.1-0.1
		c0,0,0-0.1,0-0.1c0.2-0.3,0.3-0.7,0.5-1c0.1-0.3,0.2-0.5,0.4-0.8c0.1-0.1,0.1-0.2,0.2-0.2c0.2-0.2,0.3-0.4,0.5-0.5
		c0.1-0.1,0.2-0.3,0.2-0.5c0-0.1,0-0.1,0.1-0.2c0-0.1,0.1-0.2,0.2-0.2c0.2-0.1,0.4-0.2,0.5-0.4c0.1-0.2,0.3-0.4,0.4-0.6
		c0.1-0.2,0.3-0.3,0.5-0.3c0.1,0,0.1,0,0.2,0c0.1,0.1,0.1,0.1,0.2,0.2c0.1,0.1,0.2,0.1,0.3,0.1c0.2,0,0.5,0,0.7,0c0,0,0.1,0,0.2,0
		c0.5,0,0.9,0,1.4,0c0.1,0,0.1,0,0.1,0.1c0,0.1,0,0.1,0.1,0.1c0.1,0,0.3,0.1,0.4,0.1c0.2,0,0.4,0.1,0.6,0.3c0.1,0.1,0.3,0.2,0.4,0.3
		c0.2,0.2,0.4,0.4,0.6,0.6c0.1,0.1,0.3,0.3,0.4,0.4c0.1,0.1,0.2,0.2,0.4,0.3c0.1,0,0.1,0.1,0.1,0.2c-0.1,0.2-0.2,0.4-0.3,0.6
		c-0.3,0.3-0.6,0.6-0.9,0.9c0,0-0.1,0-0.1,0c0-0.1,0-0.1-0.1-0.2c-0.1-0.2-0.2-0.2-0.4-0.2c-0.2,0-0.4,0.1-0.6,0.2
		c-0.2,0.1-0.3,0.2-0.3,0.4c0,0.2-0.2,0.4-0.4,0.5c-0.2,0.1-0.5,0.2-0.7,0.4c-0.1,0-0.1,0.1-0.1,0.2c0,0,0,0.1,0,0.1
		c0,0.1,0,0.2-0.1,0.2c-0.1,0-0.2,0.1-0.2,0.2c0,0.1,0.1,0.1,0.2,0.1c0.1,0,0.3,0,0.4-0.1c0.1,0,0.2,0,0.2-0.1
		c0.2-0.1,0.3,0,0.5,0.1c0.1,0,0.1,0.1,0,0.1c-0.1,0.1-0.2,0.2-0.3,0.3c-0.1,0.1-0.1,0.2-0.1,0.3c0,0.1,0,0.1,0,0.1
		c-0.1,0.1-0.1,0.1-0.2,0.2c-0.2,0.1-0.4,0.3-0.6,0.4c-0.2,0.2-0.4,0.4-0.4,0.6c-0.1,0.1-0.2,0.1-0.3,0.1c-0.5,0.1-1,0.4-1.3,0.8
		c-0.2,0.2-0.4,0.4-0.6,0.6c-0.2,0.3-0.6,0.4-0.9,0.3c-0.3-0.1-0.4-0.2-0.4-0.5c0-0.1,0-0.2,0-0.3c0-0.2-0.1-0.2-0.3-0.2
		c0,0-0.1,0-0.1,0c-0.5,0-1,0.1-1.2,0.6c-0.1,0.2-0.3,0.3-0.5,0.4c-0.2,0.1-0.3,0.2-0.4,0.4c-0.2,0.4-0.2,0.6,0.1,0.9
		c0.3,0.3,0.3,0.3,0.2,0.7c-0.1,0.3-0.2,0.6-0.2,0.9c0,0.3,0,0.7,0,1c-0.1,0.4,0.6,1.1,1.1,1.1c0.1,0,0.2-0.1,0.2-0.2
		c0.2-0.4,0.3-0.8,0.4-1.2c0.1-0.2,0.2-0.4,0.4-0.6c0.1-0.1,0.3-0.2,0.4,0c0.5,0.7,1.2,0.9,1.9,1c1.1,0.2,2.3,0.2,3.4,0
		c0.5-0.1,1-0.4,1.4-0.7c0.5-0.3,1-0.7,1.3-1.2c0.1-0.1,0.2-0.2,0.3-0.2c0.1,0,0.2,0.1,0.2,0.1c0.2,0,0.5,0,0.7,0c0,0,0.1,0,0.1,0
		c0.3-0.1,0.7-0.6,0.6-0.9c0,0,0-0.1,0-0.1c-0.1-0.4,0-0.7,0.2-1c0.1-0.1,0.1-0.2,0.2-0.3c0.1-0.1,0.2-0.1,0.3,0
		c0.1,0.3,0.2,0.5,0.3,0.8c0,0.1,0.1,0.2,0.1,0.2c0,0,0.1,0,0.1,0c0,0,0.1-0.1,0.1-0.1c0.3-0.5,0.7-0.9,1.1-1.3
		c0.3-0.4,0.6-0.8,0.8-1.3c0.1-0.2,0.1-0.3,0.1-0.5c0-0.1,0-0.2,0-0.3c0-0.2,0.1-0.3,0.2-0.4c0.1,0,0.1-0.1,0.2-0.1
		c0.3-0.2,0.4-0.5,0.4-0.8c0-0.2-0.1-0.3-0.2-0.3c-0.1,0-0.2-0.1-0.2-0.2c-0.1-0.1-0.2-0.2-0.3-0.1c-0.2,0-0.4,0.1-0.6,0.1
		c-0.1,0-0.1,0-0.2,0.1c-0.1,0.1-0.2,0-0.2-0.2c0-0.3,0.1-0.6,0.3-0.8c0.2-0.3,0.5-0.5,0.9-0.7c0.4-0.2,0.7-0.3,1.1-0.5
		c0.2-0.1,0.3-0.1,0.5,0.1c0.4,0.6,0.7,1.1,0.9,1.8c0,0.1,0.1,0.2,0.1,0.2c0,0.1,0,0.2,0.1,0.2c0.1,0,0.1-0.1,0.2-0.2
		c0.1-0.2,0.3-0.3,0.5-0.3c0.4,0.1,0.8,0.2,1.2,0.4c0.3,0.2,0.6,0.4,0.9,0.5c0.4,0.2,0.7,0.6,1,0.9c0.4,0.4,0.7,0.8,0.9,1.3
		c0.3,0.5,0.5,0.9,0.7,1.4c0.1,0.3,0.3,0.6,0.4,0.9c0.1,0.4,0.3,0.9,0.5,1.3c-0.3,0-0.5,0-0.8,0c-0.1,0-0.2,0-0.3,0c0,0-0.1,0-0.1,0
		c-0.6,0-1.2,0.1-1.7,0.1c-0.3,0-0.5,0-0.8-0.1c-0.2,0-0.4,0-0.6,0c-0.2,0-0.3,0-0.5,0c-0.2,0-0.3,0-0.5,0s-0.3,0-0.5,0
		c-0.1,0-0.1,0-0.2,0c-0.4,0-0.7-0.1-1.1-0.2c-0.1-0.1-0.3,0-0.4,0c-0.3,0.1-0.7,0.1-1,0c-0.1,0-0.2,0-0.2,0c-0.1,0-0.3,0-0.4,0
		c-0.5-0.1-1,0-1.4,0.4c-0.1,0.1-0.2,0.2-0.3,0.3c0,0,0,0.1,0,0.1c0,0,0,0,0.1,0c0.1,0,0.1,0,0.2,0c0,0,0.1,0,0.1,0c0,0,0,0,0,0.1
		c-0.1,0.1-0.2,0.2-0.3,0.2c-0.3,0.3-0.5,0.6-0.8,1c-0.2,0.4-0.4,0.7-0.7,1.1c-0.4,0.5-0.8,0.9-1.5,1.1c-0.4,0.1-0.7,0.3-1.1,0.4
		c-0.4,0.2-0.8,0.4-1.2,0.6c-0.2,0.1-0.4,0.2-0.5,0.3c-0.3,0.2-0.7,0.3-1,0.4c-0.3,0.1-0.7,0.2-1,0.2c-0.1,0-0.2,0-0.3,0
		c-0.3,0-0.6-0.1-0.8-0.1c-0.1,0-0.3-0.1-0.4-0.1c-0.3-0.1-0.5,0-0.8,0.1c-0.6,0.2-1,0.6-1.4,1c-0.1,0.1-0.3,0.3-0.3,0.5
		c0,0,0,0.1,0,0.1c0,0.2-0.1,0.4-0.1,0.6c0,0.1-0.1,0.3-0.2,0.4c-0.1,0.1-0.2,0.3-0.3,0.5c0,0.1-0.1,0.2-0.1,0.3
		c-0.1,0.1-0.1,0.3,0,0.4c0,0.2,0,0.2,0,0.4c0,0.1,0.1,0,0.1,0c0.3,0,0.6,0,0.9,0c0.2,0,0.3,0,0.5,0c0.1,0,0.2,0,0.3,0
		c0.2,0,0.4,0,0.6,0.1c0,0,0.1,0,0.1,0c0.3,0,0.6,0.1,0.8,0.1c0.3,0.1,0.6,0.1,0.9,0.1c0.8,0.2,1.7,0.3,2.5,0.6
		c0.1,0,0.2,0.1,0.2,0.1c0,0,0,0.1,0,0.1c0,0-0.1,0-0.1,0c-0.1,0-0.1,0-0.1,0c-0.6-0.2-1.2-0.3-1.8-0.5C47.7,50,47.4,50,47,49.9
		c-0.4-0.1-0.7-0.1-1.1-0.2c-0.1,0-0.1,0-0.2,0c-0.1,0-0.2,0-0.3,0c-0.1,0-0.2,0-0.2,0c-0.2,0-0.5,0-0.7,0c-0.1,0-0.3,0-0.4,0
		c-0.1,0-0.2,0-0.4,0c-0.1,0-0.2,0.1-0.1,0.2c0.1,0.1,0.1,0.1,0.2,0.2c0.1,0.1,0.1,0.1,0,0.2c-0.1,0.1-0.1,0.2-0.2,0.3
		c0,0.1-0.1,0.1,0,0.2c0.1,0.1,0.1,0.3,0,0.4c-0.2,0.3-0.1,0.7-0.1,1.1c0,0.2,0.1,0.3,0.1,0.5c0.2,0.4,0.3,0.7,0.7,1
		c0.1,0.1,0.2,0.2,0.3,0.3c0.1,0.1,0,0.1,0,0.2c-0.1,0.1-0.3,0.1-0.4,0.1c-0.2,0.1-0.4,0.2-0.6,0.3c0,0,0,0,0,0.1c0,0,0,0,0,0
		c0.1,0.1,0.3,0.1,0.4,0.1c0.2,0.1,0.4,0.3,0.6,0.5c0.2,0.2,0.5,0.4,0.8,0.6c0.3,0.2,0.7,0.4,0.9,0.7c0.2,0.3,0.5,0.5,0.5,0.9
		c0,0.1,0.1,0.3,0,0.4c0,0.1-0.1,0.2-0.2,0.3c0,0.1,0,0.2,0.1,0.2c0.1,0,0.3,0.1,0.4,0.2c0,0,0.1,0,0.1,0c0.1,0,0.1,0.1,0.1,0.2
		c-0.1,0.2-0.2,0.3-0.3,0.4c-0.3,0.2-0.5,0.4-0.8,0.5c-0.5,0.2-1,0.5-1.5,0.7c-0.4,0.2-0.7,0.3-1.1,0.4c-0.2,0-0.5,0-0.7,0
		c-0.3,0-0.7-0.1-1,0c-0.3,0.1-0.5,0.3-0.4,0.6c0,0.1,0,0.1,0,0.2c0,0.1,0,0.2,0.2,0.2c0.1,0,0.2,0,0.3,0.1c0,0,0.1,0,0.1,0.1
		c0,0,0,0.1-0.1,0.1c-0.2,0.1-0.5,0.2-0.8,0.2c-0.4,0-0.7,0-1.1,0c-0.2,0-0.5,0.1-0.7,0.1c0,0,0,0-0.1,0.1c0,0,0,0.1,0.1,0.1
		c0.2,0,0.3,0.1,0.5,0.1c0.2,0,0.4,0,0.6,0c0.1,0,0.2,0,0.2,0c0.1,0,0.2,0,0.3,0.1c0,0,0.1,0,0.1,0.1c0,0.1-0.1,0.1-0.1,0.1
		c-0.2,0.1-0.5,0.2-0.8,0.2c-0.1,0-0.2,0-0.3,0.1c-0.1,0-0.2,0.1-0.1,0.3c0.2,0.3,0.4,0.6,0.6,0.9c0.3,0.4,0.5,0.8,0.7,1.3
		c0.2,0.5,0.4,1.1,0.5,1.7c0,0.2,0.1,0.3,0.1,0.5c0,0.1,0.1,0.1,0,0.2c-0.1,0-0.1-0.1-0.1-0.1c0-0.1-0.1-0.2-0.1-0.3
		c-0.6-1.3-1.3-2.6-1.9-3.9c0-0.1-0.1-0.2-0.1-0.2c0-0.1-0.1-0.1-0.2-0.1c-0.3,0.1-0.7,0.1-1,0.3c0,0,0,0-0.1,0c0,0,0,0.1,0,0.1
		c0.1,0.1,0.2,0.2,0.2,0.3c-0.1,0.1-0.2,0.1-0.3,0.1c-0.1,0.1-0.1,0.1-0.1,0.2c0,0.1,0,0.1,0,0.1c-0.3,0.3-0.5,0.6-0.8,0.8
		c-0.2,0.1-0.3,0.2-0.5,0.2c-0.3,0.1-0.6,0.3-1,0.4c-0.3,0.1-0.7,0.3-1,0.3c-0.5,0.1-1,0-1.5-0.3c-0.3-0.2-0.5-0.5-0.7-0.8
		c-0.2-0.3-0.4-0.6-0.6-1c0-0.1-0.1-0.2-0.2-0.2c-0.1-0.1-0.2-0.2-0.3-0.2c-0.2,0-0.4,0-0.5,0c-0.2,0.1-0.4,0-0.6,0
		c-0.1,0-0.1-0.1-0.1-0.1c0-0.1,0-0.1,0.1-0.1c0.1-0.1,0.2-0.1,0.3-0.2c0.1-0.1,0.1-0.2,0-0.2c-0.1-0.1-0.2-0.1-0.3-0.2
		c-0.4-0.2-0.7-0.4-1.1-0.6c-0.1-0.1-0.2-0.2-0.3-0.3c-0.2-0.3-0.3-0.6-0.5-0.9c-0.1-0.2-0.3-0.5-0.4-0.7c-0.2-0.3-0.4-0.7-0.6-1
		c-0.1-0.2-0.2-0.4-0.3-0.7c-0.1-0.2-0.1-0.3-0.3-0.5c-0.1-0.1-0.1-0.1-0.1-0.2c-0.2-0.3-0.3-0.7-0.6-1c-0.1-0.1-0.1-0.1,0-0.2
		c0,0,0-0.1,0-0.1c0.1,0,0.2,0.1,0.3,0.2c0.4,0.3,0.7,0.7,1.2,0.8c0.2,0.1,0.3,0.3,0.5,0.4c0.4,0.5,0.9,1,1.4,1.3
		c0.4,0.3,0.7,0.7,1.1,1c0.1,0.1,0.2,0.1,0.2,0.2c0.2,0.1,0.4,0.2,0.5,0.4c0,0,0.1,0.1,0.1,0.1c0.5-0.1,0.8,0.2,1.2,0.3
		c0.6,0.1,1.1,0,1.6-0.2c0.6-0.3,1.2,0,1.7,0.2c0.2,0.1,0.2,0.2,0.3,0.4c0.3,0.5,0.6,1.1,0.9,1.6c-0.2-0.6-0.4-1.1-0.7-1.6
		c-0.1-0.3-0.1-0.4,0.2-0.5c1-0.2,2-0.7,3-1c0.4-0.1,0.9-0.3,1.4-0.3c0.2,0,0.4-0.2,0.6-0.2c0.4,0,0.7,0,1-0.3
		c0.1-0.1,0.3-0.1,0.4-0.2c0.4-0.1,0.4-0.3,0.2-0.5c-0.1-0.1-0.1-0.2,0-0.4c0.2-0.2,0.4-0.4,0.5-0.5c0.4-0.4,0.7-0.9,0.5-1.5
		c0-0.1,0-0.2,0-0.3c0.2-0.2,0-0.4-0.2-0.5c-0.5-0.3-1.1-0.3-1.6-0.3c-0.9,0.1-1.7,0.3-2.6,0.6c-0.7,0.2-1.4,0.5-2.1,0.6
		c-0.5,0.1-1,0-1.5-0.2c-0.5-0.2-1-0.4-1.5-0.7c-0.7-0.3-1-0.9-1.3-1.6c-0.1-0.2,0-0.3,0.2-0.4c0.1,0,0.2-0.1,0.1-0.2
		c0-0.1-0.1-0.1-0.2-0.1c-0.3,0-0.4-0.2-0.5-0.5c-0.1-0.3-0.1-0.6,0.1-0.9c0.1-0.1,0-0.2-0.1-0.3c-0.2-0.1-0.2-0.3-0.2-0.5
		c0.1-0.3,0.2-0.3,0.4-0.1c0.1,0.1,0.3,0.1,0.5,0.1c0.1-0.1,0.2-0.2,0-0.2c-0.1,0-0.1-0.1-0.2-0.1c-0.2-0.1-0.3-0.2-0.2-0.4
		c0.1-0.1,0-0.2-0.1-0.3c-0.1-0.1-0.1-0.3,0-0.5c0.1-0.2,0.2-0.1,0.4-0.1c0.2,0.1,0.3,0.1,0.3-0.1c0-0.2,0.2-0.3,0.4-0.2
		c0.2,0.1,0.3,0,0.3-0.2c0-0.3,0-0.7,0-1c0-0.4,0.1-0.7,0.2-1.1c0.2-0.4,0.2-0.7,0.2-1.1c0-0.3-0.1-0.5-0.3-0.6
		c-0.2-0.2-0.5-0.4-0.7-0.6c-0.4-0.3-0.8-0.6-1.3-0.7c-1.1-0.4-2.2-0.8-3.4-0.8c-0.2,0-0.5,0-0.7,0c-0.1,0-0.3,0-0.3-0.1
		c-0.1-0.2-0.3-0.3-0.5-0.4c-0.2-0.1-0.3-0.1-0.5-0.2c-0.1,0-0.2-0.1-0.3-0.1c-0.2-0.1-0.1-0.2-0.1-0.3c0-0.2,0.2-0.3,0.3-0.4
		c-0.3,0-0.4-0.2-0.6-0.3c0-0.2,0.1-0.3,0.3-0.4c0.1-0.1,0.3-0.2,0.4-0.1c0.1,0,0.1,0,0.1-0.1c0.1-0.1,0.1-0.1,0-0.2
		c0,0-0.1-0.1-0.1-0.1c-0.1-0.1-0.2-0.2-0.2-0.4c0-0.1-0.1-0.3-0.1-0.4C27,39.3,27,39.4,27.3,39c0.1-0.1,0.2-0.2,0.2-0.3
		c0.1-0.2,0.2-0.3,0.4-0.4c0.2-0.1,0.4-0.1,0.6-0.2c0.2-0.1,0.4,0,0.5,0.1c0.1,0.2,0.4,0.1,0.5-0.1c0.1-0.1,0.2,0.1,0.3,0.1
		c0.2,0.1,0.4,0.3,0.6,0.3c0.5,0.3,1,0.3,1.5,0.1c0.6-0.3,1.1-0.7,1.5-1.2c0.3-0.3,0.5-0.6,0.8-0.9c-0.2,0.1-0.3,0.2-0.5,0.3
		c-0.1,0.1-0.2,0.1-0.3-0.1c0-0.4,0.3-0.7,0.6-1c0.2-0.3,0.3-0.5,0.4-0.9c0.1-0.3,0-0.4-0.2-0.5c-0.2-0.1-0.4-0.2-0.5-0.4
		c-0.1-0.2-0.2-0.3,0-0.5c0.1-0.1,0.1-0.3-0.1-0.3c-0.1-0.1-0.3-0.2-0.5-0.1C32.8,33,32.3,33,31.9,33c-1.1,0-1.8,0.5-2.3,1.4
		C29.3,35,29,35.6,28.8,36.2z"/>
	<path class="st12" d="M77.4,51.5c0-0.2-0.1-0.4-0.2-0.6c-0.1-0.3-0.2-0.6-0.4-0.9c-0.2-0.5-0.4-0.9-0.5-1.4
		c-0.2-0.6-0.4-1.1-0.6-1.7c-0.2-0.5-0.3-0.9-0.4-1.4c-0.1-0.2-0.1-0.4-0.1-0.6c0-0.1,0-0.2-0.1-0.2c-0.1,0-0.1-0.1-0.1-0.1
		c0-0.2-0.1-0.3-0.1-0.5c0-0.3-0.1-0.6-0.2-0.9c-0.2-0.4-0.3-0.9-0.4-1.4c0-0.3-0.1-0.7-0.2-1c0-0.1,0-0.1,0-0.2c0-0.2,0-0.3,0-0.5
		c0-0.1,0-0.2,0-0.3c0-0.2,0-0.3-0.1-0.5c0,0,0,0,0-0.1c0-0.3,0-0.6-0.1-0.8c0-0.3,0-0.6-0.1-0.9c0-0.3,0-0.6-0.1-0.9
		c0-0.3-0.1-0.5-0.1-0.8c-0.2-0.7-0.3-1.4-0.6-2c-0.2-0.6-0.4-1.1-0.7-1.7c-0.3-0.7-0.6-1.5-0.9-2.2c0-0.1-0.1-0.2-0.1-0.3
		c0-0.1,0-0.2-0.1-0.2c0,0-0.1,0-0.1,0c-0.1,0.1-0.1,0.1-0.1,0.2c-0.1,0.4-0.3,0.7-0.5,1.1c-0.1,0.1-0.1,0.3-0.3,0.2
		c-0.1,0-0.2-0.1-0.3-0.3c-0.1-0.3-0.3-0.6-0.4-0.9c-0.2-0.5-0.3-1-0.4-1.5c-0.1-0.4-0.1-0.4-0.4-0.2c-0.1,0.1-0.2,0.2-0.3,0.3
		c0,0.1-0.1,0.1-0.2,0.1c-0.4,0.3-0.8,0.5-1.2,0.8c-0.4,0.3-0.8,0.7-1,1.1c-0.2,0.2-0.3,0.5-0.4,0.7c-0.1,0.2,0,0.4,0.1,0.5
		c0.2,0.3,0.5,0.5,0.8,0.6c0.1,0,0.1,0,0.2,0c0.1,0,0.2,0,0.2-0.1c0.1,0,0.2,0,0.3,0c0.1,0,0.2,0.1,0.1,0.2
		c-0.1,0.2-0.3,0.3-0.5,0.4c-0.3,0.1-0.5,0.2-0.8,0.2c-0.1,0-0.2,0-0.2,0.1c-0.1,0-0.1,0-0.1-0.1c0,0,0-0.1,0-0.1
		c0-0.1,0-0.1-0.1-0.1c-0.1,0-0.2-0.1-0.4-0.1c-0.1,0-0.2,0-0.3,0c-0.1,0-0.1-0.1-0.1-0.2c0-0.1,0.1-0.1,0.1-0.2
		c0,0,0.1-0.1,0.1-0.1c0,0,0,0,0-0.1c0,0,0,0,0,0c0,0-0.1,0-0.1,0c-0.1,0.1-0.3,0.2-0.4,0.3c-0.1,0.1-0.2,0.3-0.4,0.4
		c-0.1,0.1-0.1,0.1-0.2,0.1c-0.1,0.1-0.2,0-0.2-0.1c0-0.2,0-0.3,0.1-0.5c0-0.1,0.1-0.2,0.1-0.3c0,0,0,0-0.1,0c-0.2,0-0.2,0-0.2-0.2
		c0-0.1,0-0.2-0.1-0.3c-0.2-0.3-0.4-0.7-0.7-0.9c-0.2-0.2-0.4-0.3-0.7-0.2c-0.1,0-0.2,0-0.4,0c-0.1,0-0.2-0.1-0.2-0.2
		c0-0.2,0-0.4,0.2-0.6c0.2-0.2,0.4-0.3,0.6-0.5c0.3-0.3,0.5-0.6,0.7-0.9c0.2-0.3,0.4-0.6,0.5-0.9c0.1-0.2,0.3-0.3,0.5-0.4
		c0.3-0.2,0.6-0.4,0.9-0.6c0.2-0.1,0.3-0.3,0.4-0.5c0,0,0-0.1,0-0.1c0,0-0.1,0-0.1,0c-0.2,0.1-0.4,0.1-0.6,0.1c-0.1,0-0.2,0-0.4,0
		c0-0.1,0.1-0.2,0.2-0.3c0.1-0.1,0.2-0.3,0.3-0.4c0-0.1,0-0.1-0.1-0.2c-0.1,0-0.2,0-0.3,0c-0.2,0.1-0.4,0.1-0.6,0.3
		c-0.1,0.1-0.2,0.1-0.3,0.1c-0.3,0-0.6,0.1-0.8,0.2c-0.3,0.2-0.6,0.3-1,0.5c0,0-0.1,0-0.1,0c0,0,0-0.1,0-0.1c0-0.3,0.2-0.5,0.3-0.8
		c0.1-0.2,0.2-0.3,0.3-0.5c0,0,0-0.1,0.1-0.1c0-0.1,0.1-0.2,0.1-0.2c-0.1-0.1-0.2,0-0.3,0.1c-0.1,0-0.1,0.1-0.2,0.1
		c-0.1,0-0.1,0-0.2,0c0,0-0.1,0-0.1-0.1c0-0.4,0-0.7,0.3-1c0.1-0.1,0.2-0.1,0.2-0.2c0.1-0.2,0.3-0.4,0.5-0.5
		c0.3-0.2,0.6-0.3,0.7-0.6c0.4-0.3,0.7-0.8,1.1-1.1c0.1-0.1,0.3-0.2,0.5-0.3c0.1,0,0.2-0.1,0.3-0.1c0.3-0.2,0.6-0.4,0.9-0.5
		c0.2-0.1,0.5-0.2,0.8-0.3c0.2,0,0.4-0.1,0.5-0.2c0.2-0.1,0.4-0.2,0.5-0.3c0-0.1-0.1-0.1-0.1-0.2c0-0.1,0.1,0,0.2,0
		c0.1,0,0.1,0,0.1-0.1c0,0,0-0.1,0-0.1c-0.1-0.3-0.2-0.5-0.3-0.8c-0.1-0.3-0.2-0.6-0.3-0.9c-0.1-0.2-0.2-0.4-0.4-0.5
		c-0.2-0.1-0.4-0.3-0.5-0.5c0,0-0.1-0.1-0.1-0.1c-0.4-0.4-0.8-0.9-1.2-1.3c-0.2-0.2-0.2-0.2,0-0.5c0.3-0.4,0.8-0.6,1.3-0.8
		c0.4-0.1,0.7-0.2,1.1-0.2c0.5,0,1.1,0.1,1.6,0.3c0.4,0.2,0.7,0.5,1,0.9c0.4,0.7,0.7,1.4,0.9,2.2c0.2,0.5,0.3,1.1,0.4,1.7
		c0.1,0.4,0.1,0.7,0.2,1.1c0,0.4,0.1,0.8,0.2,1.1c0,0,0,0.1,0,0.1c0,0.4,0.1,0.7,0.1,1.1c0,0.1,0,0.2,0,0.4c0,0.1,0,0.2,0,0.2
		c0,0.7,0,1.4,0,2.2c0,0.2,0,0.5-0.1,0.7c-0.1,0.6-0.2,1.2-0.4,1.9c-0.1,0.4-0.2,0.9-0.3,1.3c0,0.2,0,0.3,0,0.5
		c0.2,0.4,0.3,0.8,0.5,1.2c0.2,0.4,0.3,0.8,0.5,1.2c0.3,0.7,0.5,1.3,0.8,2c0.1,0.2,0.2,0.4,0.3,0.6c0.3,0.6,0.5,1.3,0.7,1.9
		c0.1,0.4,0.2,0.9,0.3,1.3c0,0.3,0.1,0.6,0.1,1c0,0.2,0,0.5,0.1,0.7c0.1,0.3,0,0.5,0.1,0.8c0,0.1,0,0.1,0,0.2c0,0.2,0,0.3,0.1,0.5
		c0,0,0,0.1,0,0.1c0,0.6,0.1,1.2,0.2,1.8c0,0.3,0.1,0.5,0.1,0.8c0,0.2,0.1,0.4,0.2,0.7c0.2,0.6,0.4,1.2,0.7,1.8
		c0.2,0.4,0.4,0.8,0.5,1.3c0.1,0.4,0.3,0.9,0.4,1.3c0,0.1,0.1,0.2,0.1,0.4c0.1,0.2,0.1,0.4,0.1,0.6c0.1,0.5,0.1,1,0.3,1.5
		c0.2,0.7,0.4,1.4,0.6,2.2c0.2,0.7,0.5,1.4,0.7,2.1c0.3,0.9,0.6,1.7,0.8,2.6c0.1,0.4,0.2,0.8,0.2,1.2c0,0.2,0.1,0.4,0.1,0.5
		c0,0.2,0.1,0.5,0.1,0.7c0,0.1,0,0.1,0,0.2c0.1,0.3,0,0.5,0.1,0.8c0,0.1,0,0.1,0,0.2c0.1,0.5,0,1,0,1.4c0,0,0,0,0,0c0,0,0,0,0,0
		c0-0.1-0.1-0.2-0.1-0.3c0-0.1,0-0.2-0.1-0.3c-0.1-0.4-0.2-0.8-0.1-1.1c0-0.2,0-0.4,0-0.6c0-0.2,0-0.4-0.1-0.5
		c-0.1-0.2-0.2-0.4-0.4-0.5c-0.2-0.1-0.2-0.2-0.2-0.4c0-0.2,0-0.4,0-0.6c0-0.2,0-0.4,0-0.7c0-0.4,0-0.7-0.2-1
		c-0.1-0.1-0.1-0.3-0.2-0.4c-0.1-0.4-0.2-0.7-0.4-1c0,0-0.1-0.1-0.1-0.2c0-0.2-0.2-0.2-0.2-0.4c0-0.1,0-0.1,0-0.2c0,0,0-0.1,0.1-0.1
		c0-0.3-0.1-0.6-0.2-0.9c-0.2-0.3-0.3-0.5-0.3-0.8c0-0.3-0.1-0.6-0.1-0.9C77.3,51.8,77.3,51.7,77.4,51.5z"/>
	<path class="st12" d="M65.4,15c0,0.1-0.1,0.3-0.2,0.4c0,0.1-0.1,0.1-0.1,0.2c-0.3,0.4-0.6,0.7-0.9,1c-0.1,0.1-0.3,0.3-0.4,0.4
		c-0.1,0.1-0.3,0.2-0.4,0.4c-0.2,0.2-0.4,0.4-0.5,0.6c-0.4,0.6-0.6,1.2-0.7,1.9c-0.1,0.4-0.1,0.7-0.1,1.1c0,0.1,0,0.3,0,0.4
		c0,0.2-0.1,0.4-0.2,0.6c-0.2,0.3-0.3,0.5-0.5,0.8c-0.2,0.5-0.6,1-0.8,1.4c-0.2,0.3-0.3,0.5-0.5,0.8c0,0,0,0.1,0,0.1c0,0,0,0,0.1,0
		c0.2-0.2,0.3-0.4,0.5-0.6c0.1-0.1,0.2-0.3,0.3-0.4c0.1-0.1,0.1-0.1,0.2-0.2c0,0.1,0,0.2-0.1,0.3c-0.3,0.5-0.4,1.1-0.5,1.6
		c0,0.1,0,0.1,0,0.2c0,0.2,0,0.4,0,0.5c0,0.1,0,0.1,0,0.2c0,0.3,0,0.6,0,0.8c0,0.3-0.1,0.6-0.1,1c0,0.1-0.1,0.1-0.1,0.1
		c0,0,0,0-0.1,0c-0.1,0-0.1,0-0.1,0.1c-0.1,0.3-0.2,0.6-0.3,0.9c0,0.1-0.1,0.2-0.1,0.3c-0.1,0-0.1-0.1-0.1-0.1c0,0,0-0.1,0-0.1
		c0-0.1,0-0.1,0-0.1c0-0.1,0-0.1,0-0.2c0-0.2,0-0.5-0.1-0.7c0-0.1,0-0.3,0-0.4c0-0.3,0-0.7,0-1c0,0,0,0,0,0c0,0,0,0-0.1,0
		c0,0.1,0,0.1-0.1,0.2c-0.1,0.1-0.1,0.1-0.2,0c-0.1-0.1-0.2-0.2-0.2-0.3c-0.1,0.1-0.2,0.1-0.2,0.2c0,0-0.1,0-0.1,0c0,0,0,0,0-0.1
		c0-0.2-0.1-0.5-0.1-0.7c0,0,0-0.1-0.1-0.1c-0.1,0-0.1,0-0.1,0c-0.1,0.1-0.1,0.1-0.2,0.2c-0.1,0.2-0.3,0.2-0.5,0.2
		c-0.1,0-0.2,0-0.3-0.2c-0.1-0.4-0.4-0.7-0.7-1.1c-0.1-0.1-0.2-0.2-0.3-0.4c0,0-0.1-0.1,0-0.1c0.2-0.2,0.2-0.5,0.4-0.8
		c0.2-0.3,0.3-0.5,0.6-0.8c0.2-0.2,0.5-0.5,0.7-0.7c0.1-0.1,0-0.1,0-0.1c-0.2-0.1-0.4-0.1-0.6-0.1c-0.2,0-0.4,0-0.6-0.1
		c-0.1,0-0.3,0-0.4,0c-0.2,0-0.5,0-0.7-0.1c-0.1,0-0.1,0-0.2,0c-0.9,0-1.7,0-2.6,0c-0.1,0-0.2,0-0.3,0c-0.1,0-0.2,0-0.3,0
		c-0.8,0-1.7,0-2.5,0c-0.1,0-0.2,0-0.3,0c-0.1,0-0.3,0-0.4,0c-0.2,0-0.3,0-0.5-0.1c0,0-0.1,0,0-0.1c0,0,0-0.1,0.1-0.1
		c0.1,0,0.2,0,0.3,0c0.3,0,0.6-0.1,0.9-0.1c0.2,0,0.4-0.1,0.6-0.1c0.4-0.1,0.7-0.1,1.1-0.2c0.2,0,0.4-0.1,0.6-0.1
		c0.2,0,0.4-0.1,0.7-0.1c0.1,0,0.3,0,0.4-0.1c0.3-0.1,0.6,0,1-0.1c0.1,0,0.1,0,0.2,0c0.2,0,0.4,0,0.6-0.1c0.1,0,0.1,0,0.2,0
		c0.1,0,0.2,0,0.3,0c0.2,0,0.4,0,0.6,0c0.1,0,0.2,0,0.3,0c0.3,0,0.6,0,0.9,0.1c0.2,0.1,0.4,0.1,0.7,0.1c0.3,0,0.7-0.1,1-0.1
		c0.2,0,0.3-0.1,0.5-0.2c0.5-0.4,0.9-0.9,1.3-1.3c0.4-0.4,0.8-0.8,1.2-1.2c0.4-0.4,0.8-0.8,1.2-1.2c0.2-0.2,0.4-0.3,0.6-0.5
		c0.2-0.2,0.3-0.3,0.4-0.5c0.1-0.1,0.2-0.2,0.3-0.3c0.2-0.2,0.3-0.4,0.5-0.6c0.2-0.2,0.4-0.3,0.6-0.5C65.3,15,65.3,15,65.4,15z"/>
	<path class="st12" d="M67.8,70.8c-0.5,0.3-0.9,0.6-1.4,0.9c-0.3,0.2-0.6,0.4-0.9,0.6c-0.1,0-0.1,0.1-0.2,0.1c-0.1,0-0.1,0-0.1-0.1
		c0-0.1,0-0.1,0-0.2c0-0.1,0-0.1,0-0.2c0.1,0,0.1-0.1,0.1-0.2c0.1-0.2,0.2-0.3,0.4-0.5c0.4-0.3,0.7-0.6,0.9-1
		c0.2-0.4,0.5-0.8,0.7-1.2c0.2-0.5,0.4-1,0.6-1.5c0.1-0.3,0.2-0.6,0.3-0.9c0,0,0-0.1,0-0.1c0,0-0.1,0-0.1,0c-0.1,0-0.1,0.1-0.2,0.1
		c-0.4,0.4-1,0.7-1.5,1c-0.1,0-0.2,0.1-0.3,0.1c-0.1,0-0.2,0-0.1-0.1c0.1-0.2,0.1-0.3,0.2-0.5c0,0,0-0.1,0-0.1
		c0.1-0.1,0-0.2-0.1-0.3c-0.1,0-0.2-0.1-0.3-0.1c-0.1,0-0.1-0.1-0.1-0.1c0,0,0,0,0-0.1c0.2-0.3,0.4-0.6,0.5-0.9
		c0.2-0.2,0.4-0.4,0.6-0.5c0.3-0.2,0.6-0.5,0.9-0.7c0.4-0.3,0.9-0.6,1.3-1c0.4-0.3,0.9-0.7,1.3-1c0.5-0.4,0.9-0.8,1.4-1.3
		c0.1-0.1,0.3-0.3,0.4-0.4c0.2-0.2,0.4-0.4,0.6-0.7c0.1-0.2,0.3-0.2,0.5-0.3c0.1,0,0.1,0.1,0.1,0.1c-0.1,0.2-0.3,0.4-0.4,0.6
		c-0.3,0.4-0.7,0.9-1,1.3c-0.2,0.3-0.4,0.6-0.4,1c0,0.1-0.1,0.1,0,0.2c0.1,0.1,0.2,0,0.2,0c0.2-0.1,0.3-0.2,0.5-0.2
		c0.1,0,0.1,0,0.2,0.1c0,0.3,0,0.6-0.1,0.9c-0.2,0.5-0.4,1-0.7,1.4c0,0,0,0-0.1,0.1c0,0,0,0.1,0,0.1c0,0,0.1,0,0.1,0
		c0.1-0.1,0.3,0,0.4-0.1c0,0,0.1,0,0.1,0c0,0,0,0,0,0c0,0,0,0,0,0.1c-0.1,0.1-0.2,0.1-0.2,0.2c-0.2,0.2-0.4,0.4-0.6,0.6
		c-0.5,0.6-0.8,1.2-1.2,1.8c-0.2,0.4-0.5,0.8-0.8,1.2c-0.3,0.4-0.7,0.7-1,1c-0.1,0.1-0.2,0.1-0.3,0.2C68.1,70.5,68,70.6,67.8,70.8z"
		/>
	<path class="st12" d="M52.8,39.6c-0.2,0.2-0.4,0.4-0.6,0.7c-0.1,0.2-0.3,0.3-0.5,0.4c-0.5,0.4-1,0.7-1.5,1c-0.1,0-0.2,0.1-0.3,0.1
		C49,42,48.1,42,47.2,42c-0.6,0-1.2-0.1-1.7-0.3c-0.3-0.1-0.6-0.3-0.9-0.5c-0.1-0.1-0.2-0.3-0.3-0.4c-0.1-0.1-0.1-0.1-0.2,0
		c0,0-0.1,0.1-0.1,0.1c-0.2,0.1-0.2-0.1-0.2-0.2c0-0.3-0.2-0.5-0.5-0.7c-0.1-0.1-0.3-0.2-0.3-0.4C43,39.3,43,39,43.2,39
		c0.6-0.2,0.9-0.6,1.2-1c0.1-0.1,0.2-0.3,0.4-0.2c0.1,0,0.2,0,0.4,0c0.2,0,0.3-0.1,0.4-0.2c0.3-0.4,0.6-0.7,1-1
		c0.3-0.3,0.7-0.4,1.1-0.5c0.1,0,0.2,0,0.3-0.1c0.1,0,0.3,0,0.4,0c0.5,0,0.9,0.1,1.4,0.2c0.7,0.2,1.3,0.5,1.9,0.9
		c0.5,0.3,0.9,0.6,1.4,1c0.3,0.2,0.3,0.4,0.2,0.7c0,0.1-0.1,0.2-0.1,0.3C53,39.3,52.9,39.4,52.8,39.6z"/>
	<path class="st7" d="M35.6,34.2c0-0.2,0.1-0.4,0.1-0.7c0-0.1,0-0.2,0-0.2c0-0.1,0-0.2,0-0.4c0-0.1,0-0.1,0-0.2c0-0.6,0-1.2,0-1.7
		c0-0.2,0-0.5-0.2-0.7c-0.2-0.3-0.4-0.4-0.7-0.3c-0.2,0.1-0.4,0.1-0.6,0.2c-0.3,0.1-0.6,0.2-1,0C33.2,30.1,33,30,32.9,30
		c-0.1,0-0.1-0.1-0.2-0.1c0-0.1,0.1-0.2,0.1-0.2c0.1-0.1,0.1-0.1,0.2-0.2c0.1-0.1,0.2-0.3,0.1-0.4c0-0.2,0-0.3,0.2-0.4
		c0.2-0.1,0.4-0.2,0.6-0.4c0.2-0.2,0.5-0.3,0.7-0.5c0.4-0.4,0.7-0.8,1.1-1.1c0.4-0.4,0.6-0.6,1.1-0.9c0.2-0.1,0.4-0.2,0.6-0.2
		c0.3,0,0.5,0.1,0.6,0.3c0.2,0.3,0.3,0.6,0.4,1c0.1,0.4,0.1,0.7,0.1,1.1c0.1,0.3,0,0.6,0.1,1c0,0.1,0,0.1,0,0.2c0,0.1,0,0.3,0,0.4
		c0,0.2,0,0.4,0,0.5c0,0,0,0-0.1,0c-0.2,0-0.2,0-0.2,0.1c0,0.1,0,0.1,0,0.2c0,0.7-0.3,1.3-0.7,1.8c-0.4,0.5-0.8,0.9-1.3,1.3
		c-0.3,0.3-0.5,0.5-0.7,0.8C35.7,34.1,35.7,34.1,35.6,34.2C35.7,34.2,35.6,34.2,35.6,34.2z"/>
	<path class="st12" d="M34.6,12c0,0.2-0.1,0.5-0.1,0.7c-0.1,0.3-0.1,0.7-0.1,1c0,0.3,0,0.7,0,1.1c0,0,0,0.1,0,0.1c0,0.3,0,0.7,0.1,1
		c0.1,0.5,0.1,0.9,0.2,1.4c0,0.3,0.1,0.7,0.1,1c0,0.2,0.1,0.3,0.1,0.5c0,0.4,0,0.8,0,1.1c-0.1,0.7-0.2,1.4-0.4,2.1
		c-0.2,0.6-0.5,1.2-0.8,1.7c-0.3,0.4-0.5,0.9-0.8,1.3c-0.1,0.2-0.2,0.3-0.3,0.5c-0.1,0.1-0.2,0.2-0.3,0.2c-0.7,0.3-1.4,0.7-2.1,1
		c-1,0.4-1.9,0.9-2.9,1.2c0,0-0.1,0-0.1,0c-0.1,0-0.2,0.1-0.2,0.2c0,0.1,0,0.2-0.1,0.3c-0.1,0-0.1,0.1-0.2,0.1
		c-0.9,0.9-1.7,1.8-2.3,2.9c-0.5,0.9-1,1.9-1.4,2.9c0,0.1-0.1,0.3-0.2,0.4c-0.3,0.6-0.4,1.2-0.5,1.8c-0.1,0.6-0.2,1.2-0.4,1.8
		c-0.1,0.2-0.1,0.4-0.2,0.5c-0.3,0.6-0.6,1.3-0.8,1.9c0,0.1-0.1,0.2-0.2,0.3c0,0,0,0-0.1,0.1l0,0c-0.1-0.1-0.1-0.2,0-0.3
		c0.1-0.3,0.1-0.7,0.2-1c0-0.2,0-0.3,0.1-0.5c0-0.3,0.1-0.5,0.2-0.8c0.1-0.4,0.2-0.7,0.2-1.1c0.1-0.5,0.2-1,0.4-1.5
		c0.2-0.8,0.4-1.7,0.7-2.5c0.1-0.4,0.3-0.8,0.5-1.2c0.4-0.8,0.8-1.6,1.3-2.3c0.3-0.5,0.7-0.9,1.1-1.4c0.2-0.2,0.4-0.4,0.6-0.6
		c0.4-0.4,0.9-0.7,1.5-1c0.4-0.1,0.7-0.2,1.1-0.3c0.4-0.1,0.8-0.1,1.2-0.2c0.1,0,0.2-0.1,0.3-0.1c0.3-0.1,0.6-0.3,0.9-0.4
		c0.3-0.2,0.6-0.3,0.9-0.6c0.3-0.2,0.5-0.4,0.7-0.7c0.2-0.3,0.3-0.5,0.5-0.8c0.1-0.2,0.2-0.4,0.3-0.7c0.1-0.4,0.2-0.8,0.2-1.2
		c0-0.2,0-0.3,0.1-0.5c0.1-0.4,0.1-0.8,0.2-1.2c0.1-0.3,0.1-0.7,0.1-1c0.1-0.3,0-0.5,0.1-0.8c0.1-0.4,0-0.7,0.1-1.1
		c0.1-0.4,0-0.9,0.1-1.3c0-0.3,0-0.6,0.1-0.9c0-0.1,0-0.2,0-0.2c0-0.2,0-0.3,0-0.5c0-0.1,0-0.3,0-0.4c0-0.2,0-0.3,0-0.5
		c0,0,0-0.1,0-0.2c0-0.5,0.1-0.9,0.2-1.3c0-0.1,0.1-0.3,0.2-0.4c0,0,0,0,0.1,0c0,0,0,0,0,0.1C34.7,11.9,34.6,11.9,34.6,12z"/>
	<path class="st12" d="M70.9,34.2c0,0.2,0,0.4-0.1,0.7c-0.1,0.4-0.2,0.8-0.4,1.2c0,0,0,0.1,0,0.1c0,0.1-0.1,0.1,0,0.2
		c0,0.1,0.1,0,0.2,0c0.1,0,0.2,0,0.3-0.1c0.1,0,0.2,0.1,0.2,0.2c0,0.3,0.1,0.6,0.1,0.8c-0.1,0.4-0.1,0.8-0.3,1.2
		C70.6,38.9,70.3,39,70,39c-0.1,0-0.1,0-0.2-0.1c-0.1-0.2-0.1-0.3-0.1-0.5c0-0.1,0-0.2-0.1-0.3c-0.2-0.2-0.5-0.4-0.7-0.6
		c-0.1-0.1-0.2-0.3-0.3-0.4c-0.2-0.2-0.3-0.4-0.4-0.6c-0.2-0.2-0.3-0.5-0.4-0.7c-0.1-0.1-0.1-0.3-0.1-0.5c0,0,0-0.1,0-0.1
		c-0.1-0.2,0-0.4,0.1-0.6c0-0.1,0.1-0.2,0.2-0.2c0.1,0,0.1-0.1,0.2-0.2c0.2-0.2,0.2-0.2,0.1-0.4c0,0-0.1-0.1-0.1-0.1
		c-0.1-0.2-0.1-0.3,0.2-0.3c0.1,0,0.1,0,0.2-0.1c0,0,0,0,0-0.1c-0.1-0.1,0-0.1,0.1-0.1c0.1,0,0.2,0,0.4,0c0.1,0,0.1,0,0.2,0
		c0.3-0.1,0.7-0.1,1-0.3c0.1-0.1,0.2-0.1,0.2-0.2c0.1-0.1,0.1-0.1,0.2-0.2c0.1-0.1,0.2,0,0.2,0.1c0,0.1,0.1,0.3,0,0.5
		c0,0.1,0,0.2-0.1,0.4c0,0.1,0,0.1,0.1,0.1c0.1,0,0.1-0.1,0.2,0c0.1,0.1,0,0.2,0,0.2C70.9,34,70.9,34.1,70.9,34.2z"/>
	<path class="st1" d="M78.3,55.1c0,0.1,0,0.1,0,0.2c-0.1,0-0.1,0.1-0.2,0.2c-0.1,0.2-0.2,0.5-0.3,0.7c-0.1,0.2-0.2,0.4-0.3,0.6
		c-0.1,0.1-0.1,0.2,0,0.4c0,0.1,0.1,0.2,0.1,0.3c0,0,0,0.1,0,0.1c0,0-0.1,0-0.1,0c-0.1-0.1-0.1-0.2-0.2-0.4
		c-0.1-0.1-0.1-0.2-0.2-0.3c-0.1-0.2-0.1-0.5,0.1-0.7c0.1-0.1,0.1-0.2,0.1-0.4c0-0.3,0-0.7,0-1c0-0.1,0-0.1,0-0.2
		c-0.2-0.5-0.2-1-0.1-1.5c0.1-0.6,0-1.1,0.1-1.7c0,0,0,0,0,0c0,0,0,0,0,0c0,0,0.1,0,0.1,0c0,0,0,0.1,0,0.1c0,0,0.1,0.1,0.1,0.1
		c0,0.2,0,0.4,0.1,0.6c0.1,0.3,0.1,0.5,0.1,0.8c0,0.1,0.1,0.3,0.1,0.4c0,0.1,0.1,0.2,0.2,0.2c0.1,0,0.1,0.1,0.1,0.2c0,0,0,0.1,0,0.1
		c0,0.2,0,0.3,0.2,0.4c0,0,0,0,0.1,0.1c-0.1,0.1-0.1,0.1-0.2,0.2c0,0,0,0-0.1,0.1c0,0.1,0,0.1,0,0.2C78.1,54.9,78.2,55,78.3,55.1z"
		/>
	<path class="st1" d="M18.8,51c0.2,0,0.4-0.1,0.5-0.2c0.1-0.1,0.3-0.1,0.4-0.2c0.6-0.3,1.3-0.6,2-1c0.1-0.1,0.2-0.1,0.4-0.1
		c-0.1,0.1-0.1,0.2-0.2,0.2c-0.2,0.1-0.3,0.2-0.5,0.3c-0.5,0.3-1.1,0.6-1.6,0.9c-0.2,0.1-0.4,0.2-0.6,0.3c-0.1,0.1-0.2,0.1-0.3,0.3
		c-0.1,0-0.1,0-0.2,0c-0.2,0.1-0.4,0.2-0.7,0.4c-0.2,0.1-0.5,0.3-0.7,0.4c-0.7,0.4-1.3,0.7-2,1.1c-0.3,0.2-0.5,0.3-0.8,0.4
		c-0.1-0.1,0-0.1,0.1-0.2c0.2-0.1,0.5-0.3,0.7-0.4c0.7-0.4,1.4-0.8,2.1-1.2c0.4-0.3,0.9-0.5,1.3-0.8C18.7,51.1,18.7,51,18.8,51z"/>
	<path class="st0" d="M19.2,45.4c0.2,0.1,0.3,0.1,0.5,0.1c0.2,0,0.4,0.1,0.6,0.1c0.3,0,0.7,0.1,1,0.2c0,0,0.1,0,0.1,0
		c0.1,0,0.1,0,0.2,0.1c0,0-0.1,0-0.1,0c-0.2,0-0.5-0.1-0.7-0.1c-0.2,0-0.5-0.1-0.7-0.1c-0.3,0-0.6-0.1-0.9-0.1
		c-0.1,0-0.3-0.1-0.4-0.1c-0.2,0-0.3-0.1-0.5-0.1c-0.3,0-0.7-0.1-1-0.2c-0.2,0-0.4-0.1-0.6-0.1c-0.4,0-0.8-0.1-1.2-0.2
		c-0.5,0-1-0.1-1.5-0.2c0,0-0.1,0-0.1,0c-0.4,0-0.9-0.1-1.3-0.2c-0.3,0-0.5-0.1-0.8-0.1c0.1-0.2,0.2-0.1,0.3-0.1
		c0.2,0,0.4,0,0.6,0.1c0,0,0.1,0,0.1,0c0.4,0,0.7,0.1,1,0.1c0.1,0,0.1,0,0.2,0c0.3,0,0.6,0.1,1,0.1c0.2,0,0.5,0.1,0.7,0.1
		c0.2,0,0.4,0,0.6,0.1c0.4,0.1,0.8,0.1,1.2,0.2c0.3,0,0.6,0.1,0.9,0.2C18.6,45.4,18.9,45.4,19.2,45.4z"/>
	<path class="st6" d="M69.6,49.4c0.1,0.1,0.1,0.2,0.1,0.3c0,0.3,0,0.6,0,0.9c0,0.2-0.2,0.5-0.4,0.5c0,0-0.1,0-0.2,0
		C69,51,69,50.9,69,50.9c0-0.1,0.1-0.1,0.1-0.2c0.1-0.1,0.2-0.3,0.2-0.5c0-0.2,0.1-0.4,0.1-0.6C69.5,49.6,69.5,49.5,69.6,49.4z"/>
	<path class="st10" d="M19.3,49.3c0.1-0.1,0.3-0.1,0.4-0.2c0.1-0.1,0.3-0.1,0.5-0.2c-0.1,0.1-0.1,0.1-0.4,0.3
		c-0.1,0.1-0.3,0.1-0.4,0.2C19.4,49.3,19.4,49.3,19.3,49.3z"/>
	<path class="st13" d="M12,44.5c-0.1,0-0.2,0-0.3,0.1c-0.1,0-0.3,0-0.4-0.1C11.5,44.5,11.7,44.5,12,44.5C12,44.5,12,44.5,12,44.5z"
		/>
	<path class="st20" d="M14,49.4C14,49.4,14,49.4,14,49.4C14,49.5,14,49.5,14,49.4c-0.1,0.1-0.2,0.1-0.2,0
		C13.9,49.4,13.9,49.4,14,49.4C14,49.4,14,49.4,14,49.4z"/>
	<path class="st10" d="M18.8,49.4c0.1,0,0.1,0,0.2,0C18.8,49.5,18.8,49.5,18.8,49.4z"/>
	<path class="st10" d="M19,49.4c0,0,0.1-0.1,0.1-0.1C19.1,49.4,19,49.4,19,49.4z"/>
	<path class="st10" d="M19.1,49.3c0,0,0.1-0.1,0.1-0.1C19.2,49.3,19.2,49.3,19.1,49.3z"/>
	<path class="st10" d="M19,49.5c0,0-0.1,0.1-0.1,0.1C18.9,49.5,19,49.5,19,49.5z"/>
	<path class="st7" d="M14.4,49.3C14.4,49.3,14.4,49.3,14.4,49.3C14.4,49.3,14.4,49.3,14.4,49.3L14.4,49.3z"/>
	<path class="st1" d="M35.7,34.2C35.7,34.1,35.7,34.1,35.7,34.2C35.7,34.1,35.7,34.1,35.7,34.2z"/>
	<path class="st10" d="M19.4,49.3C19.4,49.4,19.3,49.4,19.4,49.3C19.3,49.4,19.4,49.4,19.4,49.3z"/>
	<path class="st10" d="M19.3,49.4C19.2,49.4,19.2,49.4,19.3,49.4C19.2,49.4,19.2,49.4,19.3,49.4z"/>
	<path class="st10" d="M19.1,49.5C19.1,49.5,19.1,49.5,19.1,49.5C19.1,49.5,19.1,49.5,19.1,49.5z"/>
	<path class="st12" d="M28.4,43.2c0.2,0,0.5,0,0.7,0c0.3,0,0.7,0.1,1,0.1c0.8,0.1,1.6,0.4,2.3,0.6c0.2,0.1,0.5,0.2,0.7,0.3
		c0.5,0.2,0.9,0.4,1.2,0.8c0.1,0.1,0.3,0.3,0.5,0.4c0.3,0.2,0.4,0.4,0.4,0.8c0,0.4-0.1,0.8-0.2,1.1c-0.1,0.3-0.2,0.5-0.2,0.8
		c0,0.4,0,0.8,0,1.2c0,0.1,0,0.1,0,0.2c0,0.2-0.2,0.2-0.3,0.2c-0.1,0-0.1-0.1-0.2-0.1c0,0-0.1,0.1-0.1,0.1c-0.1,0.1-0.1,0.2-0.1,0.3
		c0,0.1,0,0.2-0.1,0.2c-0.1,0-0.2,0-0.2,0c-0.1,0-0.1-0.1-0.2-0.1c0,0-0.1,0-0.1,0c0,0-0.1,0.1-0.1,0.1c-0.1,0.2-0.1,0.2,0.1,0.3
		c0,0,0,0,0,0c0.2,0.2,0.2,0.2,0,0.4c-0.1,0.1-0.1,0.1,0,0.2c0.2,0.1,0.4,0.1,0.5,0.2c0,0,0.1,0,0.1,0.1c0,0,0,0.1,0,0.1
		c-0.2,0.2-0.4,0.2-0.6,0.2c-0.1,0-0.1,0-0.1-0.1c0-0.1-0.1-0.1-0.1-0.2c0,0-0.1,0-0.1,0c0,0.1-0.1,0.2-0.1,0.3c0,0.2,0,0.4,0.2,0.4
		c0,0,0,0,0.1,0c0.1,0.1,0.1,0.1,0,0.2c0,0.1-0.1,0.1-0.2,0.2c-0.1,0.1-0.1,0.2-0.1,0.3c0,0.2,0.1,0.4,0.1,0.6
		c0,0.1,0.1,0.2,0.2,0.2c0.1,0,0.2,0,0.2,0c0.1,0,0.1,0,0.1,0c0.1,0.1,0.2,0.2,0,0.3c-0.1,0-0.1,0.1-0.2,0.1
		c-0.2,0.1-0.2,0.1-0.1,0.3c0,0.1,0.1,0.1,0.1,0.2c0.2,0.3,0.4,0.7,0.7,1c0.2,0.2,0.4,0.3,0.6,0.4c0.4,0.2,0.7,0.3,1.1,0.5
		c0.4,0.2,0.7,0.3,1.1,0.3c0.1,0,0.3,0,0.4,0c0.6-0.1,1.2-0.3,1.8-0.5c0.8-0.3,1.6-0.5,2.5-0.7c0.4-0.1,0.8-0.1,1.3-0.1
		c0.4,0,0.8,0.1,1.1,0.4c0,0,0.1,0.1,0.1,0.1c0.1,0.1,0.1,0.2,0,0.2c0,0-0.1,0.1-0.1,0.1c-0.1,0.1-0.1,0.1,0,0.2
		c0.1,0.4,0,0.8-0.2,1.2c-0.2,0.3-0.4,0.5-0.7,0.7c-0.1,0.1-0.2,0.2-0.2,0.2c-0.1,0.1,0,0.1,0,0.1c0,0,0,0,0.1,0
		c0.2,0.1,0.2,0.3,0.1,0.4c-0.1,0.1-0.2,0.2-0.4,0.2c-0.2,0-0.3,0-0.5,0.2c-0.3,0.2-0.6,0.3-0.9,0.3c0,0-0.1,0-0.1,0
		c-0.6-0.2-1.3-0.2-2-0.2c-0.6,0-1-0.4-1-0.9c0-0.2-0.4-0.4-0.7-0.2c-0.1,0.1-0.2,0.1-0.2,0.2c-0.2,0.3-0.5,0.6-0.7,0.9
		c-0.1,0.2-0.3,0.2-0.4,0.1c-0.3-0.3-0.7-0.3-1.1-0.4c-0.2,0-0.3-0.1-0.4-0.2c-0.4-0.4-1-0.4-1.3,0.2c-0.1,0.1-0.1,0.2-0.2,0.4
		c-0.2,0.4-0.4,0.5-0.7,0.3c-0.2-0.1-0.4-0.1-0.6,0.1c-0.1,0.1-0.4,0.1-0.5,0c-0.4-0.1-0.6,0-0.8,0.3c-0.1,0.1-0.1,0.2-0.3,0.3
		c-0.2-0.2-0.4-0.4-0.6-0.5c-0.1-0.1-0.3-0.2-0.4-0.4c-0.2-0.2-0.4-0.4-0.6-0.5c-0.2-0.1-0.3-0.2-0.4-0.3c-0.2-0.3-0.5-0.5-0.7-0.8
		c-0.1-0.1-0.2-0.2-0.3-0.3c-0.1-0.1-0.2-0.2-0.3-0.2c-0.1,0-0.2-0.1-0.3-0.1c-0.4-0.3-0.7-0.5-1-0.9c0,0,0,0,0-0.1
		c-0.2-0.4-0.2-0.7-0.2-1.1c0-0.3-0.1-0.6-0.2-0.9c0-0.1-0.1-0.2-0.2-0.3c0,0,0,0-0.1-0.1c-0.2-0.4-0.5-0.8-0.8-1.2
		c-0.2-0.3-0.3-0.6-0.4-0.9c0-0.1,0-0.2,0-0.3c0-0.6,0-1.2,0.2-1.8c0.1-0.7,0.3-1.3,0.4-1.9c0.1-0.4,0.2-0.9,0.3-1.3
		c0-0.2,0.1-0.4,0.1-0.6c0-0.2,0.1-0.4,0.2-0.6c0.1-0.2,0.1-0.4,0.2-0.6c0-0.2,0.2-0.4,0.3-0.6c0.3-0.4,0.7-0.7,1.2-0.9
		c0.1,0,0.1,0,0.2-0.1c0.3-0.2,0.6-0.2,0.9-0.3C28.2,43.2,28.3,43.2,28.4,43.2z"/>
	<path class="st9" d="M52.4,71c-0.8,0.4-1.5,0.8-2.2,1.3c-0.3,0.2-0.7,0.5-1,0.8c0,0,0,0,0,0c-0.1,0.2-0.2,0.2-0.4,0.3
		c-0.3,0.1-0.7,0.2-1,0.3c-0.1,0-0.1,0-0.2,0c-0.4,0-0.8,0.1-1.1,0.3c-0.3,0.1-0.6,0.3-1,0.4c-0.1,0-0.3,0.1-0.4,0
		c-0.1,0-0.2,0-0.3,0.1c0,0.1-0.1,0.1-0.2,0.1c-0.1,0-0.2,0-0.3,0c-0.3,0-0.5,0.1-0.8,0.1c-0.1,0-0.2,0.1-0.3,0.1
		C42.9,75,42.9,75,43,75.2c0,0.1,0.1,0.2,0.2,0.3c0,0.1,0.1,0.1,0.1,0.2c0,0.1,0,0.1,0,0.2c-0.1,0.2-0.3,0.3-0.5,0.4
		c-0.3,0.3-0.7,0.5-1,0.8c-0.1,0.1-0.1,0.1-0.1,0.2c0.1,0.3,0.2,0.6,0.2,0.9c0,0.1,0,0.2-0.1,0.2c-0.2,0.1-0.3,0.1-0.5,0.1
		s-0.3,0.1-0.5,0.1c-0.2,0-0.4,0.1-0.6,0.1c-0.1,0-0.1,0-0.2,0c-0.1,0-0.1,0.1-0.1,0.1c0,0.1,0,0.2,0.1,0.3c0,0.2,0,0.3,0,0.5
		c-0.1,0.2-0.2,0.5-0.4,0.7c-0.3,0.3-0.6,0.6-0.8,1c-0.1,0.1-0.1,0.1-0.2,0.1c-0.2-0.1-0.4-0.2-0.7-0.3c-0.1,0.1-0.1,0.2-0.2,0.3
		c-0.1,0.5-0.4,0.9-0.5,1.4c0,0.1-0.1,0.1-0.2,0.1c0,0,0,0,0,0c-0.1,0-0.1-0.1-0.2-0.1c-0.4-0.3-1-0.3-1.3,0.2
		c-0.1,0.2-0.2,0.4-0.4,0.5c0,0,0,0.1,0,0.1c-0.1,0.3-0.2,0.6-0.3,0.9c-0.1,0.1-0.1,0.2-0.2,0.4c-0.2,0.4-0.5,0.8-0.8,1.1
		c-0.1,0.1-0.2,0.2-0.3,0.4c-0.1,0.1-0.2,0-0.2,0c0-0.1,0-0.1,0-0.2c0-0.2,0-0.4,0-0.7c0,0,0-0.1,0-0.1c0,0-0.1-0.1-0.1,0
		c0,0-0.1,0.1-0.1,0.1c-0.5,0.4-1.1,0.7-1.7,0.8c-0.1,0-0.1,0-0.2,0c-0.1-0.1,0-0.2,0-0.2c0.2-0.3,0.4-0.6,0.6-0.9
		c0.2-0.2,0.4-0.4,0.5-0.7c0.1-0.1,0.1-0.2,0-0.2c0,0-0.1-0.1-0.1-0.1c-0.1-0.1,0-0.1,0-0.2c0.1,0,0.1-0.1,0.2-0.1
		c0.5-0.3,0.7-0.8,0.6-1.3c-0.1-0.4-0.2-0.7-0.4-1c0,0,0-0.1-0.1-0.1c-0.1-0.1-0.1-0.1,0-0.2c0,0,0.1-0.1,0.1-0.1
		c0.1-0.1,0.1-0.2,0-0.3c-0.1-0.1-0.2-0.2-0.3-0.3c-0.1-0.1-0.1-0.2-0.1-0.4c0-0.1,0-0.2,0.1-0.3c0-0.1,0-0.2,0-0.3
		c-0.1-0.1-0.1-0.3-0.2-0.4c0-0.1,0-0.1,0.1-0.2c0,0,0.1,0,0.1,0c0-0.1,0-0.1,0-0.2c0,0,0-0.1,0-0.1c0-0.3-0.1-0.6-0.2-0.9
		c0-0.1,0-0.1,0-0.2c0-0.1,0-0.2,0-0.2c0-0.1,0.1-0.1,0.2-0.1c0.1,0,0.1-0.1,0.1-0.1c0-0.1-0.1-0.1-0.1-0.2c0,0,0.1,0,0.1,0
		c0.2,0,0.2,0,0.1-0.2c0-0.1-0.1-0.2-0.2-0.3c-0.1-0.1-0.1-0.2,0.1-0.2c0,0,0.1,0,0.1-0.1c0.3-0.1,0.5,0,0.7,0.1
		c0.1,0.1,0.3,0.2,0.4,0.3c0.7,0.8,1.5,1.4,2.5,1.9c0.1,0,0.2,0.1,0.2,0.2c0.4,0.4,1.2,0.3,1.5-0.2c0.1-0.2,0-0.4,0-0.5
		c0-0.3,0-0.6-0.2-0.8c-0.1-0.1-0.1-0.2-0.1-0.3c0.1-0.4-0.1-0.7-0.5-0.9c-0.4-0.2-0.8-0.6-1.3-0.7c-0.1,0-0.1-0.1-0.1-0.2
		c0-0.1,0.1-0.1,0.2-0.1c0.2,0,0.4-0.1,0.5-0.1c0.1-0.1,0.2-0.1,0-0.2c-0.2-0.2-0.5-0.4-0.7-0.6c-0.1-0.1-0.3-0.1-0.4-0.1
		c-0.3,0.1-0.6,0.1-0.9-0.1c-0.3-0.1-0.5-0.1-0.8-0.2c-1.2-0.4-2.3-1-3.3-1.8c-0.5-0.4-1-0.8-1.4-1.2C28.4,70,28.2,70,28,69.9
		c-0.6-0.3-1.2-0.8-1.5-1.4c-0.1-0.2-0.2-0.3-0.2-0.5c0-0.1,0-0.2,0.1-0.2c0.1-0.1,0.2,0,0.2,0.1c0.8,1.1,2,1.7,3.1,2.2
		c0.2,0.2,0.4,0.3,0.7,0.4c0.4,0.2,0.9,0.3,1.3,0.5c0.8,0.3,1.6,0.5,2.4,0.6c0.4,0.1,0.7,0.2,1.1,0.2c0.2,0,0.5,0.1,0.7,0.1
		c0.4,0.1,0.9,0,1.3,0.1c0.1,0,0.2,0,0.3,0c0.1,0,0.1,0,0.2,0c0.5,0,1-0.1,1.5-0.2c0.4-0.1,0.9-0.2,1.3-0.2c0.4-0.1,0.7-0.1,1.1-0.2
		c0.4-0.1,0.9-0.2,1.3-0.2c0.2,0,0.4-0.1,0.6-0.1c0,0,0,0,0.1,0c0.3,0,0.6-0.1,1-0.1c0.3,0,0.6-0.1,0.8-0.1c0.2,0,0.4,0,0.6-0.1
		c1.2-0.2,2.4-0.5,3.5-0.9c0.6-0.2,1.3-0.5,1.9-0.8c0.6-0.3,1.1-0.5,1.7-0.8c0.6-0.3,1.1-0.6,1.7-0.8c0.3-0.2,0.6-0.4,0.9-0.5
		c0.5-0.3,1-0.6,1.5-1c0.2-0.1,0.4-0.2,0.5-0.2c0.1-0.1,0.2,0,0.2,0.2c-0.1,0.2-0.2,0.5-0.4,0.7c-0.2,0.2-0.4,0.4-0.6,0.6
		C56.9,67,57,67,57,67c0.2,0,0.5,0,0.7,0c0,0,0.1,0,0.1,0c0,0.1,0,0.1-0.1,0.1c0,0-0.1,0.1-0.2,0.1c-0.5,0.3-0.9,0.6-1.4,1
		c-0.5,0.4-1,0.8-1.5,1.2c-0.3,0.3-0.7,0.6-1.1,0.8C53.3,70.6,52.8,70.8,52.4,71z"/>
	<path class="st1" d="M29.7,70c-0.1,0-0.2,0-0.3-0.1c-0.5-0.2-1-0.5-1.4-0.8c-0.4-0.3-0.8-0.6-1.1-0.9c-0.1-0.1-0.2-0.3-0.4-0.5
		c0,0-0.1,0-0.1,0c0,0-0.1,0-0.1,0.1c0,0.1,0,0.1,0,0.2c0.1,0.3,0.2,0.5,0.4,0.7c0.3,0.5,0.8,0.8,1.3,1c0.3,0.1,0.5,0.3,0.7,0.5
		c0.3,0.3,0.6,0.6,0.9,0.8c0.4,0.3,0.9,0.7,1.3,0.9c0.7,0.4,1.4,0.8,2.2,1c0.2,0.1,0.4,0.1,0.5,0.1c0.2,0,0.4,0.1,0.5,0.2
		c0.2,0.1,0.3,0.1,0.5,0c0.1,0,0.1,0,0.2-0.1c0.2-0.1,0.3,0,0.5,0.1c0.1,0.1,0.3,0.3,0.4,0.4c0.1,0.1,0.3,0.2,0.4,0.3
		c0.1,0.1,0.1,0.1,0,0.2c-0.3,0.1-0.5,0.3-0.8,0.2c0,0,0,0-0.1,0c0,0,0,0,0,0.1c0,0,0,0,0,0c0.4,0.1,0.7,0.3,1,0.6
		c0.2,0.1,0.4,0.2,0.6,0.3c0.1,0,0.1,0.1,0.1,0.2c0,0.1,0,0.1,0.1,0.2c0,0,0,0,0.1,0.1c0.2,0.2,0.2,0.2,0.1,0.4
		c-0.1,0.1-0.1,0.1,0,0.2c0.1,0.1,0.2,0.1,0.2,0.2c0,0,0,0,0,0c-0.1,0.2-0.1,0.3,0,0.5c0.1,0.1,0.1,0.2,0,0.2
		c-0.1,0.1-0.1,0.2,0,0.3c0.1,0.1,0.1,0.2-0.1,0.3c-0.1,0-0.2,0.1-0.2,0.2c-0.1,0.1-0.3,0.2-0.4,0.2c-0.3,0-0.5,0-0.8-0.1
		c-0.1,0-0.1,0-0.1-0.1c0-0.1-0.1-0.2-0.2-0.2c-0.5-0.2-0.9-0.5-1.3-0.8c-0.3-0.2-0.5-0.4-0.8-0.6c-0.1-0.1-0.2-0.2-0.3-0.3
		c-0.3-0.4-0.7-0.6-1.1-0.6c0,0,0,0,0-0.1c-0.3-0.4-0.7-0.7-1-1.1c-0.1-0.1-0.2-0.3-0.3-0.4c-0.3-0.3-0.6-0.6-0.9-0.9
		c-0.6-0.4-1.2-0.8-1.8-1.2c-0.1-0.1-0.3-0.1-0.5-0.2c-0.2-0.1-0.4-0.2-0.6-0.2c-0.3-0.1-0.5-0.3-0.7-0.4c-0.1-0.1-0.3-0.2-0.4-0.3
		c-0.2-0.2-0.3-0.4-0.5-0.5c-0.3-0.4-0.6-0.8-0.8-1.3c-0.3-0.6-0.6-1.2-0.9-1.9c-0.1-0.2-0.2-0.4-0.2-0.6c0,0,0-0.1-0.1-0.1
		c-0.2-0.2-0.4-0.6-0.5-0.9c-0.2-0.4-0.3-0.9-0.5-1.3c0-0.1-0.1-0.2,0-0.3c0.1-0.1,0.2-0.2,0.3-0.2c0,0,0.1,0,0.1,0
		c0.1,0.1,0.1,0.1,0.2,0.2c0.1,0.3,0.2,0.5,0.5,0.8c0.1,0,0.1,0.1,0.1,0.2c0,0,0.1,0.1,0.1,0.1c0.3,0.1,0.4,0.3,0.5,0.5
		c0.1,0.1,0.2,0.3,0.3,0.5c0,0,0,0,0.1,0c0,0,0,0,0-0.1c0,0,0,0,0,0c-0.1-0.2-0.1-0.4-0.2-0.6c0-0.1,0-0.1,0-0.1c0,0,0.1,0,0.1,0
		c0.3,0.2,0.7,0.4,1,0.7c0.5,0.4,1.1,0.7,1.5,1.2c0.2,0.1,0.3,0.3,0.5,0.4c0.4,0.3,0.8,0.7,1.1,1.2C29.2,69.2,29.5,69.6,29.7,70z"/>
	<path class="st12" d="M28.8,36.2c0-0.4,0.2-0.8,0.4-1.2c0.1-0.1,0.1-0.2,0.2-0.3c0.1-0.2,0.2-0.4,0.3-0.6c0,0,0-0.1,0-0.1
		c0.3-0.3,0.6-0.7,1-0.9c0,0,0.1,0,0.1,0c0.2-0.2,0.5-0.2,0.7-0.2c0.3,0,0.6,0,0.9,0c0.3,0,0.5,0,0.8-0.1c0,0,0.1,0,0.1,0
		c0.1,0.1,0.3,0.1,0.5,0.1c0.1,0.1,0.2,0.3,0.1,0.4c0,0.1-0.1,0.1-0.1,0.1c-0.1,0-0.1,0.1-0.1,0.2c0.1,0.3,0.4,0.6,0.7,0.6
		c0,0,0.1,0,0.1,0c0.1,0,0.1,0.1,0.1,0.1c0,0.1,0,0.3,0,0.4c-0.1,0.3-0.2,0.5-0.4,0.8c-0.1,0.2-0.3,0.4-0.4,0.5
		c-0.1,0.2-0.2,0.4-0.3,0.6c-0.1,0.4-0.4,0.7-0.7,0.9c-0.5,0.3-0.9,0.6-1.4,0.9c-0.3,0.2-0.7,0.3-1.1,0.2c-0.3-0.1-0.5-0.3-0.8-0.4
		c0,0-0.1,0-0.1-0.1c0-0.1-0.1-0.2-0.1-0.2c-0.3-0.3-0.4-0.7-0.5-1.1C28.8,36.6,28.8,36.4,28.8,36.2z"/>
	<path class="st16" d="M22,41.4c0-0.4,0.1-0.7,0.2-1c0-0.2,0.1-0.5,0.2-0.7c0.1-0.4,0.3-0.8,0.5-1.2c0.2-0.2,0.2-0.5,0.2-0.8
		c0-0.1,0-0.2,0-0.3c0-0.2,0.1-0.4,0.3-0.4c0.1-0.1,0.3-0.1,0.4-0.2c0.3-0.1,0.5-0.3,0.7-0.5c0.2-0.4,0.5-0.7,0.7-1.1
		c0.1-0.1,0.1-0.2,0.2-0.2c0.4-0.6,1.3-0.7,1.8-0.3c0.3,0.2,0.4,0.7,0.3,1c0,0.1-0.1,0.2-0.1,0.2c-0.1,0.1-0.3,0.3-0.4,0.4
		c-0.2,0.1-0.3,0.3-0.5,0.5c-0.1,0.1-0.2,0.3-0.3,0.5c-0.1,0.2-0.1,0.5-0.1,0.7c0,0.1-0.1,0.2-0.1,0.3c-0.3,0.3-0.7,0.6-1.1,0.8
		c-0.2,0.1-0.4,0.2-0.6,0.4c-0.3,0.2-0.5,0.5-0.6,0.9c0,0,0,0,0,0.1c-0.1,0.2-0.1,0.2-0.3,0.2c-0.3,0-0.5,0.2-0.7,0.4
		c-0.1,0.2-0.2,0.3-0.3,0.5c0,0.1,0,0.1-0.1,0.2c0,0-0.1,0-0.1,0c0,0-0.1,0-0.1-0.1C22,41.6,22,41.5,22,41.4z"/>
	<path class="st16" d="M26.8,41.5c0.1,0,0.2,0,0.2,0.1c0.1,0.2,0.3,0.2,0.4,0.2c0.1,0.1,0,0.1-0.1,0.2c-0.1,0.1-0.2,0.3-0.3,0.5
		c0,0.1,0,0.1,0,0.2c-0.1,0.1-0.3,0.2-0.4,0.2c-0.1,0-0.3,0.1-0.4,0.1c-0.3,0.1-0.5,0.2-0.7,0.4c-0.2,0.2-0.4,0.3-0.6,0.5
		c-0.5,0.4-0.8,0.8-1,1.4c-0.2,0.5-0.3,1-0.4,1.5c-0.1,0.4-0.1,0.9-0.2,1.3c0,0.4,0,0.9-0.2,1.3c0,0.2,0,0.3-0.1,0.5
		c0,0.1,0,0.2,0,0.3c0,0,0,0.1,0,0.1c-0.1,0-0.1,0-0.1-0.1c0-0.1-0.1-0.2-0.1-0.3c0-0.1-0.1-0.2-0.3-0.2c-0.2,0-0.2-0.1-0.3-0.3
		c0-0.1,0-0.2-0.1-0.3c-0.1-0.1,0-0.2,0-0.3c0-0.6,0-1.1,0.1-1.6c0.1-0.5,0.2-1,0.2-1.4c0-0.1,0-0.3,0.1-0.4c0-0.1,0.1-0.2,0.1-0.3
		c0.1-0.2,0.3-0.4,0.4-0.6c0.1-0.1,0.2-0.2,0.3-0.1c0,0,0.1,0,0.1,0c0,0,0,0,0-0.1c0,0-0.1-0.1-0.1-0.1c0,0,0-0.1,0-0.1
		c0-0.1,0.1-0.1,0.1-0.2c0.2-0.4,0.4-0.9,0.6-1.3c0.1-0.3,0.3-0.6,0.5-0.9c0-0.1,0.1-0.1,0.1-0.1c0.2-0.2,0.3-0.3,0.4-0.5
		c0-0.1,0.1-0.2,0.2-0.2c0.2-0.1,0.3-0.2,0.5-0.3c0.1-0.1,0.2-0.1,0.2,0.1c0,0.2,0.1,0.4,0.1,0.6c0,0.1,0.1,0.3,0.1,0.4
		C26.5,41.7,26.6,41.7,26.8,41.5C26.7,41.5,26.7,41.5,26.8,41.5z"/>
	<path class="st2" d="M22.1,56.7c0-0.2,0.1-0.4,0.2-0.5c0.2-0.4,0.4-0.8,0.6-1.2c0-0.1,0.1-0.2,0.2-0.3c0.2-0.3,0.3-0.6,0.5-0.9
		c0-0.1,0.1-0.2,0.1-0.2c0,0,0,0,0.1,0c0,0,0,0,0,0.1c0,0,0,0.1,0,0.1c-0.1,0.1-0.1,0.3-0.1,0.4c-0.2,0.6-0.6,1.2-0.9,1.8
		c-0.1,0.2-0.3,0.5-0.4,0.7C22.3,56.6,22.2,56.7,22.1,56.7z"/>
	<path class="st3" d="M25.9,60.7c0-0.1,0-0.3,0.1-0.4c0.1-0.4,0.3-0.7,0.4-1.1c0,0,0,0,0.1,0c0,0,0,0,0,0.1c0,0.1,0,0.2-0.1,0.3
		c-0.1,0.5-0.3,0.9-0.4,1.4c0,0,0,0.1-0.1,0c0,0,0,0,0-0.1C25.9,60.8,25.9,60.7,25.9,60.7z"/>
	<path class="st4" d="M23.2,51.3C23.2,51.4,23.2,51.4,23.2,51.3c-0.3,0.4-0.7,0.8-1,1.1c0,0-0.1,0-0.1,0c0,0,0-0.1,0-0.1
		c0.1-0.1,0.3-0.3,0.4-0.4c0.1-0.1,0.2-0.2,0.3-0.3C23,51.4,23.1,51.4,23.2,51.3z"/>
	<path class="st11" d="M30.6,84.5c0,0.1-0.1,0.3-0.2,0.3c-0.1,0-0.1,0-0.2,0c0.1-0.1,0.2-0.2,0.3-0.3C30.5,84.5,30.5,84.5,30.6,84.5
		C30.6,84.5,30.6,84.5,30.6,84.5z"/>
	<path class="st8" d="M20.6,41.3C20.6,41.3,20.6,41.2,20.6,41.3C20.6,41.2,20.6,41.3,20.6,41.3z"/>
	<path class="st1" d="M30.6,84.5C30.5,84.5,30.5,84.5,30.6,84.5C30.5,84.5,30.5,84.5,30.6,84.5z"/>
	<path class="st9" d="M30.7,60.8c0.1-0.1,0.2-0.2,0.2-0.4c0.1-0.1,0.1-0.2,0.2-0.2c0.1-0.1,0.3-0.2,0.5-0.1c0.2,0.1,0.4,0.1,0.5,0.1
		c0.1,0,0.2,0,0.2-0.1c0.1-0.2,0.2-0.2,0.3-0.1c0.1,0,0.2,0.1,0.3,0.1c0.2,0.1,0.4,0,0.5-0.3c0-0.1,0.1-0.2,0.1-0.3
		c0.1-0.3,0.4-0.5,0.7-0.6c0.2-0.1,0.4,0,0.6,0c0.1,0,0.2,0.1,0.2,0.2c0.1,0.2,0.2,0.2,0.4,0.3c0.3,0,0.5,0.1,0.8,0.1
		c0.1,0,0.2,0.1,0.3,0.2c0,0,0.1,0.1,0.1,0.1c0.1,0,0.2,0,0.3-0.1c0-0.1,0.1-0.1,0.1-0.2c0-0.2,0.1-0.2,0.2-0.3
		c0.1-0.1,0.2-0.3,0.4-0.4c0-0.1,0.1-0.1,0.1-0.2c0.2-0.2,0.4-0.3,0.6-0.2c0.1,0,0.3,0.1,0.4,0.2c0,0,0.1,0.1,0,0.1c0,0,0,0.1,0,0.1
		c-0.1,0.1,0,0.2,0,0.3c0.1,0.1,0.2,0.2,0.3,0.4c0.1,0.2,0.2,0.2,0.4,0.2c0.2,0,0.4,0,0.5,0c0.2,0,0.4,0,0.6,0c0.3,0,0.7,0.1,1,0.2
		c0,0,0,0,0.1,0.1c0,0-0.1,0-0.1,0c-0.1,0.1-0.2,0.2-0.4,0.2c-0.1,0-0.2,0-0.4,0c-0.2,0-0.3,0-0.5,0.1c-0.5,0.2-1,0.3-1.5,0.5
		c-0.6,0.2-1.2,0.4-1.8,0.6c-0.1,0-0.2,0-0.4,0.1c-0.1,0-0.1,0.1-0.1,0.2c0,0.1,0.1,0.1,0.1,0.2c0.2,0.5,0.4,1,0.6,1.5
		c0,0.1,0,0.2,0.1,0.2c-0.1,0-0.2-0.1-0.2-0.1c-0.2-0.3-0.3-0.6-0.5-0.9c-0.2-0.3-0.4-0.6-0.5-0.9c-0.1-0.1-0.2-0.2-0.3-0.2
		c-0.2,0-0.3-0.1-0.5-0.1c-0.2-0.1-0.4-0.1-0.6-0.1c-0.4,0.1-0.8,0.2-1.2,0.4c-0.1,0.1-0.3,0.1-0.4,0c-0.1-0.1-0.3-0.1-0.5-0.1
		c-0.3,0-0.5,0-0.7-0.2c-0.1-0.1-0.2-0.1-0.3,0c-0.1,0.1-0.2,0-0.3-0.1C31.1,61.1,30.9,60.9,30.7,60.8z"/>
	<path class="st9" d="M44.8,37.7c-0.2,0.1-0.3,0.3-0.5,0.5c-0.1,0.1-0.1,0.1-0.1,0.2c-0.1,0.2-0.3,0.3-0.5,0.4
		c-0.1,0-0.2,0.1-0.3,0.1c-0.4,0.1-0.4,0.4-0.2,0.7c0.1,0.1,0.2,0.2,0.3,0.2c0.2,0.2,0.4,0.4,0.4,0.7c0,0.1,0,0.1,0.1,0.1
		c-0.2,0.2-0.3,0.4-0.4,0.6c-0.2,0.4-0.3,0.9-0.5,1.4c0,0.1-0.1,0.1-0.2,0.1c-0.4-0.1-0.7-0.3-1-0.5c-0.2-0.2-0.3-0.4-0.2-0.7
		c0-0.2,0-0.4,0-0.6c0-0.1,0-0.2,0-0.3c0-0.4,0.1-0.8,0.3-1.1c0,0,0-0.1,0.1-0.1c0-0.1,0-0.1,0-0.1c-0.1-0.1-0.1-0.1-0.2-0.2
		c-0.1-0.1-0.2-0.1-0.2-0.2c-0.1-0.2-0.2-0.3-0.1-0.5c0.1-0.2,0.2-0.5,0.5-0.6c0,0,0,0,0,0c0.4-0.2,0.7-0.5,0.9-0.9
		c0-0.1,0.1-0.1,0.2-0.1c0.1,0,0.2,0,0.3,0c0.1,0,0.2,0,0.3,0c0.1,0,0.2,0,0.2,0c0.2,0,0.2,0,0.2,0.2c0,0.1,0.1,0.2,0.1,0.4
		C44.5,37.5,44.6,37.6,44.8,37.7z"/>
	<path class="st7" d="M37.6,43.4c0.3,0,0.7,0,0.9,0.2c0.1,0.1,0.2,0.1,0.2,0.2c0.2,0.2,0.4,0.5,0.5,0.7c0.1,0.2,0.3,0.4,0.5,0.4
		c0,0,0.1,0,0.1,0.1c0.1,0,0.1,0.1,0,0.1c0,0,0,0,0,0.1c-0.1,0.1-0.1,0.3,0,0.4c0,0.2,0.1,0.4,0.1,0.6c0.1,0.2,0,0.4,0,0.6
		c0,0.1-0.1,0.1-0.1,0.1c-0.4-0.3-0.9-0.4-1.3-0.7c-0.2-0.1-0.4-0.3-0.5-0.6c-0.1-0.3-0.3-0.5-0.3-0.8c-0.1-0.4-0.4-0.6-0.7-0.7
		c-0.1,0-0.2,0-0.2,0c-0.2,0.1-0.4,0.1-0.6,0.1c-0.1,0-0.1,0-0.2,0c-0.3-0.2-0.6-0.2-0.9-0.3c-0.1,0-0.2-0.1-0.4-0.1c0,0,0,0,0,0
		c0,0,0,0,0,0c0,0,0.1,0,0.1,0c0.5,0,0.9-0.1,1.4-0.2c0.3-0.1,0.5-0.1,0.8-0.1C37.3,43.5,37.4,43.4,37.6,43.4z"/>
	<path class="st9" d="M30.4,38.6c0.1,0,0.2,0,0.3,0c0.3,0,0.6-0.1,0.8-0.3c0.3-0.2,0.5-0.3,0.8-0.5c0.1-0.1,0.3-0.2,0.4-0.2
		c0.3-0.1,0.6-0.4,0.8-0.7c0-0.1,0.1-0.2,0.1-0.2c0,0.1,0,0.1,0.1,0.1c0.2-0.1,0.3-0.2,0.5-0.3c0.1,0,0.1-0.1,0.2-0.1
		c0,0,0.1,0,0.1,0.1c0,0.1,0,0.1-0.1,0.2c0,0.1-0.1,0.1-0.2,0.2c-0.2,0.2-0.4,0.4-0.6,0.7c-0.3,0.3-0.6,0.7-1,0.9
		c-0.2,0.2-0.5,0.3-0.7,0.4c-0.4,0.2-0.8,0.1-1.2,0C30.5,38.7,30.4,38.7,30.4,38.6z"/>
	<path class="st17" d="M34.6,54.2C34.5,54.2,34.5,54.2,34.6,54.2c-0.2,0-0.3-0.1-0.2-0.3c0.1-0.2,0.3-0.3,0.5-0.4c0,0,0.1,0,0.1,0
		c0.1,0.1,0.2,0.3,0.1,0.5C34.9,54.2,34.8,54.2,34.6,54.2z"/>
	<path class="st22" d="M36.5,52.3c-0.1,0-0.1,0-0.2,0c0,0-0.1,0-0.1-0.1c0,0,0-0.1,0-0.1c0,0,0.1-0.1,0.1-0.1
		c0.2-0.1,0.5-0.2,0.7-0.2c0.1,0,0.1,0,0.1,0.1c0,0,0,0.1,0,0.1c-0.1,0.2-0.3,0.2-0.5,0.3C36.7,52.3,36.6,52.3,36.5,52.3
		C36.5,52.3,36.5,52.3,36.5,52.3z"/>
	<path class="st18" d="M34.5,52.6c0,0.1-0.1,0.3-0.3,0.4c-0.1,0-0.1,0-0.2-0.1c0-0.2-0.1-0.3-0.1-0.5c0,0,0-0.1,0-0.1
		c0.1,0,0.1-0.1,0.2,0c0.1,0.1,0.2,0.1,0.3,0.2C34.5,52.5,34.5,52.5,34.5,52.6z"/>
	<path class="st21" d="M37.2,49.8c0-0.2,0-0.3,0.2-0.3c0.1,0,0.2-0.1,0.3-0.1c0.1,0,0.2,0,0.2,0.1c0,0.1-0.1,0.1-0.1,0.2
		c0,0,0,0,0,0c-0.1,0.1-0.2,0.2-0.4,0.2C37.4,50,37.3,50,37.2,49.8C37.3,49.9,37.3,49.8,37.2,49.8z"/>
	<path class="st19" d="M35.6,52.2c0.1,0,0.1,0,0.2,0c0.1,0,0.2,0.2,0.2,0.3c0,0,0,0,0,0.1c-0.1,0.1-0.3,0.2-0.5,0.1
		c-0.1,0-0.1-0.1-0.2-0.1c0,0-0.1,0-0.1-0.1c0,0,0.1-0.1,0.1-0.2C35.4,52.1,35.5,52.2,35.6,52.2z"/>
	<path class="st25" d="M36.2,54.2c0,0-0.1,0-0.1,0c-0.1,0-0.1,0-0.1-0.1c0,0,0-0.2,0.1-0.2c0.1-0.1,0.3-0.1,0.4-0.1
		c0.1,0,0.1,0.1,0.1,0.1c0,0.1,0,0.1-0.1,0.2C36.3,54.2,36.3,54.2,36.2,54.2z"/>
	<path class="st23" d="M36.2,50c0.1,0,0.3,0.2,0.3,0.3c0,0,0,0.1-0.1,0.1c-0.1,0-0.2,0-0.2-0.1c0-0.1-0.1-0.1-0.1-0.2
		C36.1,50.1,36.1,50,36.2,50z"/>
	<path class="st24" d="M35.3,55.2c-0.1,0-0.2-0.1-0.2-0.1c0-0.1,0-0.2,0.1-0.3c0,0,0.1,0,0.1,0c0,0,0.1,0.1,0.1,0.1
		c0,0.1,0.1,0.1,0,0.2C35.5,55.1,35.4,55.2,35.3,55.2z"/>
	<path class="st5" d="M35.1,50.9c0,0.2-0.1,0.3-0.3,0.2c-0.1,0-0.1-0.1-0.1-0.2c0-0.1,0.1-0.2,0.2-0.2c0,0,0.1,0,0.1,0
		C35.1,50.8,35.1,50.9,35.1,50.9z"/>
	<path class="st8" d="M78.3,55.1c-0.2,0-0.2-0.1-0.3-0.3c0,0,0,0,0,0c0.1,0,0.2,0.1,0.3,0.2C78.4,55,78.3,55.1,78.3,55.1z"/>
	<path class="st8" d="M78.1,54.6C78.1,54.6,78.1,54.5,78.1,54.6C78.1,54.5,78.1,54.6,78.1,54.6z"/>
	<path class="st7" d="M47.6,38.4c-0.3,0.7-0.2,1.4,0.2,2.1c0.1,0.2,0.2,0.3,0.4,0.4c0,0.1-0.1,0.1-0.2,0.1c-0.5,0-1,0.1-1.4-0.1
		c-0.7-0.2-1-0.7-0.8-1.4c0.1-0.4,0.3-0.8,0.6-1.1c0.3-0.3,0.6-0.6,0.9-0.9c0.1-0.1,0.2-0.1,0.3-0.1C47.7,37.8,47.6,38.1,47.6,38.4z
		"/>
	<path class="st1" d="M47.7,37.5c-0.2,0.1-0.4,0.2-0.6,0.4c-0.2,0.2-0.4,0.3-0.5,0.5c-0.3,0.4-0.6,0.7-0.7,1.2c-0.1,0.2,0,0.5,0,0.7
		c0,0.2,0.2,0.4,0.3,0.5c0.3,0.2,0.6,0.2,0.9,0.3c0.3,0,0.6,0,0.9,0c0.1,0,0.1,0,0.2-0.1c0.3,0.1,0.5,0.3,0.8,0.4
		c0.1,0,0.1,0.1,0.2,0.1c0,0,0,0.1,0,0.1c-0.1,0-0.2,0.1-0.3,0.1c-0.4,0-0.7,0.1-1.1,0.1c-0.4,0-0.7-0.1-1.1-0.2
		c-0.7-0.2-1.1-0.7-1.2-1.4c0-0.2,0-0.4,0.1-0.6c0.1-0.5,0.4-0.9,0.7-1.3c0.3-0.3,0.6-0.6,1-0.9c0.3-0.2,0.7-0.3,1.1-0.4
		c0.1,0,0.1,0,0.2,0.1C48.2,37.1,48,37.3,47.7,37.5z"/>
	<path class="st15" d="M47.7,37.5c0.2-0.2,0.4-0.4,0.6-0.5c0.1,0,0.1-0.1,0.2-0.1c0.2,0,0.3-0.1,0.5-0.1c0.1,0,0.2,0,0.4,0
		c0.2,0.1,0.2,0.2,0.1,0.3c0,0.1-0.1,0.1-0.1,0.2c-0.3,0.4-0.7,0.7-1.1,0.9c-0.2,0.1-0.4,0.2-0.6,0.1c-0.1-0.2-0.1-0.4,0-0.6
		C47.6,37.7,47.6,37.6,47.7,37.5z"/>
	<path class="st26" d="M34.2,49.1C34.2,49.2,34.2,49.2,34.2,49.1c-0.1,0.1-0.1,0.2-0.2,0.2c0,0-0.1,0.1-0.1,0c0,0,0-0.1,0-0.1
		c0,0,0-0.1,0.1-0.1c0,0,0.1-0.1,0.1-0.1C34.2,49,34.2,49.1,34.2,49.1z"/>
	<path class="st7" d="M29.4,35.9c0-0.2,0-0.5,0.1-0.7c0.1-0.2,0.2-0.4,0.4-0.6c0.3-0.2,0.5-0.4,0.8-0.5c0.1-0.1,0.3-0.1,0.4-0.2
		c0.1,0,0.1,0,0.2,0c0.2,0,0.3,0.1,0.3,0.2c0,0,0,0,0,0.1c0,0.1,0,0.2,0.2,0.3c0.1,0,0.2,0.1,0.2,0.2c0.1,0.1,0.1,0.2,0,0.3
		c-0.1,0-0.1,0.1-0.2,0.1c-0.1,0-0.2,0-0.3,0c-0.1,0-0.2,0-0.3,0.1c-0.1,0.1-0.2,0.2-0.3,0.3c-0.2,0.1-0.3,0.3-0.3,0.6
		c0,0.3-0.1,0.5-0.1,0.8c0,0.2-0.1,0.3-0.2,0.5c-0.1,0.2-0.3,0.2-0.5,0.1c-0.3-0.3-0.5-0.6-0.5-1C29.4,36.1,29.4,36,29.4,35.9z"/>
	<path class="st14" d="M33.6,34.8c0,0.1-0.1,0.3-0.2,0.4c-0.2,0.2-0.4,0.1-0.6-0.1c-0.1-0.1-0.1-0.3-0.1-0.4c0,0,0-0.1,0.1-0.1
		c0.1-0.2,0.3-0.3,0.5-0.2C33.5,34.3,33.6,34.5,33.6,34.8z"/>
</g>
</svg>
