<?xml version="1.0" encoding="utf-8"?>
<!-- Generator: Adobe Illustrator 16.0.0, SVG Export Plug-In . SVG Version: 6.00 Build 0)  -->
<!DOCTYPE svg PUBLIC "-//W3C//DTD SVG 1.1//EN" "http://www.w3.org/Graphics/SVG/1.1/DTD/svg11.dtd">
<svg version="1.1" id="Layer_1" xmlns="http://www.w3.org/2000/svg" xmlns:xlink="http://www.w3.org/1999/xlink" x="0px" y="0px"
	 width="330.7px" height="127.6px" viewBox="0 0 330.7 127.6" enable-background="new 0 0 330.7 127.6" xml:space="preserve">
<rect x="0" y="0" fill-rule="evenodd" clip-rule="evenodd" fill="#FCFCFD" width="330.7" height="127.6"/>
<g>
	<path fill-rule="evenodd" clip-rule="evenodd" fill="#025CAB" d="M62.7,28c1.2,0.2,2.3,0.4,3.5,0.6c7,1.4,12.9,4.8,17.8,10
		c0.3,0.3,0.6,0.4,1,0.3c2.2-0.6,4.5-0.9,6.9-1c0.6,0,0.7,0.1,0.7,0.7c0,3.3,0,6.5,0,9.8c0,0.5,0.1,0.8,0.6,1.1
		c8.8,6,8.8,18.8,0,24.9c-0.4,0.3-0.6,0.6-0.7,1.1c-1.9,14.7-13.5,26.3-28.1,28.3c-0.7,0.1-1.4,0-2,0.3c-2.1,0-4.1,0-6.2,0
		c-0.1-0.2-0.3-0.2-0.5-0.2c-8-1-14.7-4.3-20.3-10.2c-4.9-5.1-7.8-11.2-8.7-18.2c-0.1-0.5-0.3-0.8-0.7-1.1c-2.6-1.8-4.5-4.2-5.6-7.2
		c-0.4-1.1-0.5-2.2-0.9-3.3c0-1.3,0-2.7,0-4c0.1-0.1,0.1-0.2,0.2-0.4c0.7-4.3,2.9-7.6,6.4-10.1c0.4-0.3,0.5-0.5,0.5-1
		c0-3.3,0-6.5,0-9.8c0-0.6,0.1-0.8,0.8-0.8c2.3,0.2,4.5,0.5,6.8,1c0.5,0.1,0.8,0,1.1-0.3c4.9-5.2,10.8-8.5,17.7-9.9
		c1.2-0.2,2.4-0.3,3.6-0.6C58.4,28,60.6,28,62.7,28z M32.9,59.8c0,3.9,0,7.7,0,11.6c0,2.2,0.3,4.5,0.9,6.6
		c3.6,13.4,16.8,21.7,30.5,19.2c12.5-2.3,21.7-13,21.7-25.4c0-8.6,0-17.2,0-25.8c0-0.7-0.1-0.8-0.8-0.6c-3.6,1.1-7,2.8-9.9,5.2
		c-0.4,0.3-0.7,0.3-1.1,0c-8.9-5.9-20.4-5.9-29.3,0c-0.5,0.3-0.8,0.3-1.3-0.1c-2.9-2.3-6.1-4-9.7-5.1c-0.9-0.3-0.9-0.3-0.9,0.6
		C32.9,50.6,32.9,55.2,32.9,59.8z M41,41.5c0.9,0.5,1.8,0.9,2.6,1.5c0.4,0.3,0.8,0.3,1.2,0.1c3.7-1.8,7.6-2.9,11.8-3.3
		c6.1-0.5,12,0.6,17.5,3.3c0.2,0.1,0.4,0.3,0.8,0.1c1-0.6,1.9-1.1,2.9-1.7C67.9,32,51.4,31.7,41,41.5z"/>
	<path fill-rule="evenodd" clip-rule="evenodd" fill="#838286" d="M315.3,77.9c-0.2,0.4-0.4,0.9-0.6,1.3c-1.1,1.8-3.5,2.6-5.8,1.8
		c-1.9-0.7-3-2.7-2.8-4.9c0.3-2.4,1.7-3.9,3.9-4.2c2.5-0.3,4.2,0.8,5.1,3.1c0,0.1,0.1,0.2,0.2,0.3C315.3,76.1,315.3,77,315.3,77.9z
		 M313.8,76.7c0.1-2.1-1.1-3.4-3-3.5c-1.9,0-3.2,1.2-3.2,3.3c0,2,1.2,3.4,2.9,3.5C312.5,80,313.8,78.8,313.8,76.7z"/>
	<path fill-rule="evenodd" clip-rule="evenodd" fill="#807F83" d="M185,53.3c1.9-1.1,3.9-1.9,6.1-2.2c3-0.4,6-0.4,8.8,0.8
		c2.6,1.1,4.2,3.1,4.3,5.8c0.4,8-2.2,14.8-9.2,19.3c-4.7,3-9.9,3.4-15.2,2.2c-0.7-0.2-0.9,0-1.1,0.6c-0.7,2.7-1.5,5.4-2.3,8.1
		c-0.1,0.5-0.4,0.8-1,0.7c-2.5,0-5.1,0-7.6,0c-0.8,0-0.8-0.2-0.6-0.9c2.4-8.4,4.8-16.8,7.1-25.2c1-3.5,2-7,3-10.5
		c0.2-0.6,0.4-0.8,1-0.8c1.8,0.1,3.7,0.1,5.5,0c0.7,0,1,0.2,1,0.9C184.8,52.6,184.9,52.9,185,53.3z M184.9,73.8c3.3,0,5.4-0.9,7-3.4
		c2.1-3.2,3.1-6.8,3.2-10.6c0-1.8-0.8-2.7-2.7-2.8c-2.5-0.2-4.9,0.4-7.2,1.3c-0.4,0.2-0.6,0.4-0.7,0.8c-1.3,4.5-2.5,9-3.8,13.5
		c-0.2,0.5,0,0.7,0.5,0.8C182.4,73.6,183.7,73.8,184.9,73.8z"/>
	<path fill-rule="evenodd" clip-rule="evenodd" fill="#807F83" d="M157,77.3c-2.3,1.3-4.6,2.1-7.1,2.4c-2.3,0.2-4.6,0.2-6.8-0.6
		c-3-1.1-4.5-3.6-4-6.8c0.9-5.5,4.2-8.9,10.1-10.3c1.9-0.4,3.9-0.7,5.9-0.7c1.3,0,2.5,0,3.8,0c0.6,0,1.5,0.3,1.8-0.2
		c0.5-0.7,0.7-1.7,0.7-2.6c0-0.7-0.4-1-1.1-1.1c-1.9-0.3-3.8-0.2-5.8-0.1c-2.7,0.3-5.5,0.8-8.2,1.4c-0.5,0.1-0.6,0-0.5-0.5
		c0.5-1.7,1-3.5,1.5-5.2c0.1-0.4,0.3-0.6,0.7-0.7c5.4-1.2,10.8-1.9,16.2-1.2c0.6,0.1,1.3,0.2,1.9,0.4c3.5,1.1,5.1,3.7,4.3,7.4
		c-0.8,3.7-2,7.2-3,10.9c-0.8,2.9-1.7,5.8-2.5,8.8c-0.1,0.5-0.4,0.8-1,0.7c-2.1,0-4.2,0-6.4,0c-0.6,0-1-0.1-0.9-0.8
		C157,78.2,157,77.8,157,77.3z M151.3,73.7c2.2-0.1,4.2-0.7,6-1.6c0.3-0.1,0.5-0.4,0.5-0.7c0.4-1.5,0.8-3.1,1.3-4.6
		c0.1-0.4,0.1-0.6-0.4-0.6c-1.6,0.1-3.2,0-4.8,0.2c-3,0.4-4.7,1.6-5.3,4.3c-0.5,2-0.1,2.6,2,2.8C150.9,73.7,151.2,73.7,151.3,73.7z"
		/>
	<path fill-rule="evenodd" clip-rule="evenodd" fill="#807F83" d="M129,79.4c-1.3,0-2.6,0-3.9,0c-0.7,0-0.8-0.2-0.6-0.8
		c1.6-5.5,3.1-10.9,4.6-16.4c0.3-0.9,0.6-1.9,0.8-2.8c0.3-1.2,0-1.6-1.2-1.7c-1.9-0.2-3.7-0.1-5.6,0.4c-1.4,0.3-2.7,0.8-4,1.3
		c-0.5,0.2-0.7,0.4-0.8,0.9c-1.7,6.1-3.5,12.2-5.2,18.3c-0.2,0.6-0.4,0.9-1.1,0.9c-2.5,0-5,0-7.5,0c-0.7,0-0.8-0.2-0.6-0.8
		c2.5-8.8,5-17.7,7.5-26.5c0.1-0.5,0.4-0.6,0.9-0.6c2,0,4,0,5.9,0c0.6,0,0.8,0.1,0.9,0.8c0.2,1.7,0.2,1.7,1.9,1
		c3.5-1.5,7.1-2.4,11-2.3c1.1,0,2.1,0.2,3.1,0.5c3.5,1,5.1,3.4,4.3,7c-0.7,3.2-1.7,6.2-2.6,9.3c-1,3.6-2.1,7.2-3,10.9
		c-0.2,0.6-0.4,0.8-1,0.8C131.6,79.4,130.3,79.4,129,79.4z"/>
	<path fill-rule="evenodd" clip-rule="evenodd" fill="#817F83" d="M277.6,71.8c-0.6,2.2-1.2,4.2-1.8,6.3c-0.1,0.2-0.2,0.3-0.5,0.4
		c-5.5,1.3-11.1,2-16.7,0.7c-4.6-1.1-7-4.4-6.6-9.1c0.3-4.4,1.7-8.5,4.3-12.1c2.9-3.9,6.8-6,11.5-6.8c2.9-0.5,5.8-0.5,8.6,0.3
		c4.6,1.3,6.2,4.7,5.9,9c-0.2,2.4-0.9,4.7-1.6,7c-0.2,0.6-0.5,0.6-1,0.6c-5.8,0-11.6,0-17.4,0c-0.8,0-1.2,0.1-1.3,1
		c-0.3,2.3,0.9,3.9,3.2,4.2c2.3,0.3,4.5,0,6.7-0.3C273.2,72.7,275.3,72.3,277.6,71.8z M268,62.5c1.5,0,3,0,4.4,0
		c0.3,0,0.6,0,0.7-0.4c0.2-1.2,0.5-2.4,0.3-3.7c-0.2-1-0.9-1.6-1.9-1.8c-1.1-0.2-2.3-0.1-3.4,0.1c-2.8,0.7-4.1,2.8-5.1,5.3
		c-0.2,0.5,0.2,0.4,0.5,0.4C265,62.5,266.5,62.5,268,62.5z"/>
	<path fill-rule="evenodd" clip-rule="evenodd" fill="#807F83" d="M212,79.8c-3.2,0.1-6.2-0.5-9.1-1.2c-0.6-0.1-0.7-0.4-0.5-0.9
		c0.5-1.6,1-3.3,1.4-5c0.2-0.6,0.4-0.7,1-0.6c3,0.7,6,1.5,9.2,1.3c0.9-0.1,1.7-0.2,2.5-0.5c0.6-0.2,1.1-0.5,1.4-1
		c1-1.3,0.8-2.3-0.7-2.9c-1.7-0.7-3.5-1.2-5.2-1.8c-1-0.4-2-0.8-2.9-1.5c-2.1-1.6-2.8-3.7-2.2-6.2c1-3.8,3.6-6.1,7.2-7.4
		c3.7-1.4,7.6-1.5,11.5-1.1c1.7,0.2,3.3,0.5,4.9,1c0.5,0.2,0.7,0.3,0.5,0.9c-0.5,1.6-0.9,3.1-1.3,4.7c-0.2,0.6-0.4,0.7-1,0.6
		c-2.8-0.7-5.6-1.2-8.5-1.1c-1.1,0-2.2,0.2-3.2,0.7c-0.5,0.3-0.9,0.6-1.1,1.1c-0.4,0.9-0.2,1.4,0.6,1.8c1.3,0.7,2.7,1,4.1,1.4
		c1.2,0.4,2.5,0.7,3.6,1.4c2.8,1.5,3.8,4,3.1,7c-1.1,4.5-4,7.1-8.4,8.3C216.7,79.6,214.3,79.8,212,79.8z"/>
	<path fill-rule="evenodd" clip-rule="evenodd" fill="#818083" d="M237.2,57.1c-1.4,0-2.8,0-4.1,0c-0.6,0-0.7-0.1-0.5-0.7
		c0.5-1.5,0.9-3,1.3-4.5c0.1-0.5,0.3-0.6,0.8-0.6c1.2,0,2.5,0,3.7,0c0.5,0,0.7-0.1,0.9-0.6c0.5-1.4,1.1-2.8,1.4-4.3
		c0.1-0.5,0.3-0.7,0.8-0.8c2.7-0.5,5.3-1,8-1.5c0.8-0.2,0.5,0.4,0.4,0.7c-0.4,1.8-0.9,3.7-1.4,5.5c-0.1,0.3-0.2,0.6-0.2,0.9
		c2.6,0,5.2,0,7.8,0c-0.4,1.2-1,2.3-1.5,3.3c-0.4,0.8-0.5,2-1.3,2.4c-0.7,0.4-1.7,0.1-2.6,0.1c-1.1,0-2.3,0-3.4,0
		c-0.5,0-0.7,0.1-0.8,0.6c-1.4,4.9-2.7,9.8-4.1,14.6c-0.3,0.9-0.1,1.1,0.9,1.1c2.3,0,4.5-0.5,6.8-0.9c1.1-0.2,1.1-0.2,0.8,0.8
		c-0.5,1.6-0.9,3.2-1.3,4.7c-0.1,0.4-0.2,0.6-0.7,0.7c-3.6,0.8-7.2,1.3-10.9,0.8c-0.8-0.1-1.6-0.3-2.3-0.6c-1.9-0.9-2.9-2.7-2.7-4.8
		c0.2-2.1,1-4.1,1.5-6.1c0.9-3.4,1.9-6.7,2.8-10.1C237.1,57.7,237.1,57.5,237.2,57.1z"/>
	<path fill-rule="evenodd" clip-rule="evenodd" fill="#807F83" d="M285.7,79.3c-1.3,0-2.6,0-3.9,0c-0.7,0-0.8-0.1-0.6-0.8
		c1.5-5.2,2.9-10.3,4.4-15.5c1-3.5,2-7.1,3-10.6c0.2-0.8,0.5-1.1,1.4-1.1c1.8,0.1,3.6,0.1,5.4,0c0.7,0,1,0.1,0.9,0.9
		c0,0.3-0.1,0.7,0.2,0.9c0.3,0.2,0.5-0.2,0.8-0.4c3.1-2,6.5-2.2,10-1.4c0.4,0.1,0.4,0.2,0.3,0.6c-0.6,2.1-1.2,4.3-1.8,6.4
		c-0.1,0.5-0.4,0.5-0.8,0.4c-1.4-0.3-2.9-0.5-4.3-0.5c-1.4,0-2.6,0.3-3.9,0.8c-0.6,0.2-0.9,0.6-1,1.2c-1.7,6.1-3.4,12.1-5.1,18.2
		c-0.2,0.8-0.5,1.1-1.4,1.1C288.1,79.2,286.9,79.3,285.7,79.3z"/>
	<path fill-rule="evenodd" clip-rule="evenodd" fill="#FAFAFA" d="M313.8,76.7c-0.1,2.1-1.3,3.3-3.3,3.2c-1.8,0-3-1.5-2.9-3.5
		c0-2,1.3-3.3,3.2-3.3C312.7,73.3,313.9,74.7,313.8,76.7z M310.5,77.2c0.4,0.3,0.5,0.8,0.5,1.2c0.1,0.9,0.8,0.7,1.3,0.6
		c0.6-0.1,0-0.6,0-0.9c0-0.3-0.1-0.6-0.3-0.8c-0.3-0.3-0.2-0.5,0.1-0.8c0.7-0.8,0.3-2-0.7-2.3c-0.6-0.2-1.3-0.1-1.9-0.1
		c-0.4,0-0.4,0.3-0.4,0.6c0,1.2,0,2.3,0,3.5c0,0.5,0.1,0.8,0.7,0.8c0.7,0,0.6-0.4,0.6-0.8C310.4,77.9,310.3,77.5,310.5,77.2z"/>
	<path fill-rule="evenodd" clip-rule="evenodd" fill="#7CC144" d="M65.1,79.8c-1.1,0-2.2,0-3.3,0c-0.5,0-0.6-0.2-0.5-0.6
		c0.5-1.8,1-3.5,2-5.1c1.3-2.1,3.3-2.9,5.7-3c3.3-0.2,6.5-0.3,9.8-0.3c0.7,0,0.8,0.2,0.7,0.8c-0.5,4.8-3.6,7.8-8.4,8c-2,0.1-4,0-6,0
		C65.1,79.7,65.1,79.7,65.1,79.8z"/>
	<path fill-rule="evenodd" clip-rule="evenodd" fill="#7CC144" d="M53.7,79.8c-2.4-0.1-4.7,0-7.1-0.4c-4.4-0.6-7.1-3.7-7.3-8.1
		c0-0.4,0.1-0.6,0.5-0.5c3.9,0.1,7.8,0,11.6,0.5c1.6,0.2,2.8,1,3.7,2.3c1.3,1.7,1.9,3.7,2.4,5.8c0.1,0.5-0.1,0.5-0.4,0.4
		C56,79.8,54.8,79.8,53.7,79.8z"/>
	<path fill-rule="evenodd" clip-rule="evenodd" fill="#055EAB" d="M59.6,94.4c-2.7,0-5.1-0.6-7.4-1.8c-0.5-0.2-0.7-0.5-0.4-1
		c0.2-0.3,0.3-0.7,0.5-1c0.4-0.8,1-1.1,2-0.8c3.4,0.9,6.8,0.9,10.3,0c1.3-0.3,1.6-0.2,2.3,1c0.7,1.2,0.6,1.4-0.6,1.9
		C64.1,93.9,61.8,94.4,59.6,94.4z"/>
	<path fill-rule="evenodd" clip-rule="evenodd" fill="#035DAB" d="M51.4,83.3c5.4,0,10.7,0,16.2,0c-1,1.1-2.1,1.9-3.3,2.6
		c-1.3,0.9-2.8,1.6-4.3,2.1c-0.3,0.1-0.6,0.2-1,0.1c-2.8-1-5.3-2.5-7.5-4.6C51.5,83.5,51.4,83.4,51.4,83.3z"/>
	<path fill-rule="evenodd" clip-rule="evenodd" fill="#838286" d="M310.5,77.2c-0.2,0.4-0.1,0.7-0.1,1c0,0.4,0.1,0.8-0.6,0.8
		c-0.6,0-0.7-0.2-0.7-0.8c0-1.2,0-2.3,0-3.5c0-0.3,0-0.6,0.4-0.6c0.6,0,1.3-0.1,1.9,0.1c1.1,0.3,1.5,1.4,0.7,2.3
		c-0.3,0.3-0.3,0.5-0.1,0.8c0.2,0.2,0.3,0.5,0.3,0.8c0,0.3,0.6,0.7,0,0.9c-0.4,0.1-1.2,0.4-1.3-0.6C311,77.9,311,77.5,310.5,77.2z
		 M310.4,75.7c0.1,0.2-0.2,0.6,0.3,0.6c0.4,0,0.5-0.3,0.5-0.6c0-0.3-0.2-0.5-0.5-0.5C310.3,75.1,310.5,75.4,310.4,75.7z"/>
	<path fill-rule="evenodd" clip-rule="evenodd" fill="#FAFAFA" d="M310.4,75.7c0.1-0.2-0.1-0.6,0.3-0.6c0.3,0,0.5,0.2,0.5,0.5
		c0,0.4-0.2,0.6-0.5,0.6C310.2,76.2,310.5,75.9,310.4,75.7z"/>
</g>
</svg>
