<?xml version="1.0" encoding="utf-8"?>
<!-- Generator: Adobe Illustrator 16.0.0, SVG Export Plug-In . SVG Version: 6.00 Build 0)  -->
<!DOCTYPE svg PUBLIC "-//W3C//DTD SVG 1.1//EN" "http://www.w3.org/Graphics/SVG/1.1/DTD/svg11.dtd">
<svg version="1.1" id="Layer_1" xmlns="http://www.w3.org/2000/svg" xmlns:xlink="http://www.w3.org/1999/xlink" x="0px" y="0px"
	 width="200px" height="200px" viewBox="0 0 200 200" style="enable-background:new 0 0 200 200;" xml:space="preserve">
<style type="text/css">
<![CDATA[
	.st0{fill-rule:evenodd;clip-rule:evenodd;fill:#076BB3;}
	.st1{fill-rule:evenodd;clip-rule:evenodd;fill:#0776C1;}
	.st2{fill-rule:evenodd;clip-rule:evenodd;fill:#0777C1;}
	.st3{fill-rule:evenodd;clip-rule:evenodd;fill:#3BA1EA;}
	.st4{fill-rule:evenodd;clip-rule:evenodd;fill:#0969B1;}
	.st5{fill-rule:evenodd;clip-rule:evenodd;fill:#3D5877;}
	.st6{fill-rule:evenodd;clip-rule:evenodd;fill:#3DA5EF;}
	.st7{fill-rule:evenodd;clip-rule:evenodd;fill:#0B67AF;}
	.st8{fill-rule:evenodd;clip-rule:evenodd;fill:#0D66AD;}
	.st9{fill-rule:evenodd;clip-rule:evenodd;fill:#0D7CC7;}
	.st10{fill-rule:evenodd;clip-rule:evenodd;fill:#0E64AB;}
	.st11{fill-rule:evenodd;clip-rule:evenodd;fill:#405873;}
	.st12{fill-rule:evenodd;clip-rule:evenodd;fill:#414042;}
	.st13{fill-rule:evenodd;clip-rule:evenodd;fill:#425E7D;}
	.st14{fill-rule:evenodd;clip-rule:evenodd;fill:#445C78;}
	.st15{fill-rule:evenodd;clip-rule:evenodd;fill:#445F7F;}
	.st16{fill-rule:evenodd;clip-rule:evenodd;fill:#445F80;}
	.st17{fill-rule:evenodd;clip-rule:evenodd;fill:#454A75;}
	.st18{fill-rule:evenodd;clip-rule:evenodd;fill:#456284;}
	.st19{fill-rule:evenodd;clip-rule:evenodd;fill:#466284;}
	.st20{fill-rule:evenodd;clip-rule:evenodd;fill:#466486;}
	.st21{fill-rule:evenodd;clip-rule:evenodd;fill:#484948;}
	.st22{fill-rule:evenodd;clip-rule:evenodd;fill:#486588;}
	.st23{fill-rule:evenodd;clip-rule:evenodd;fill:#48989B;}
	.st24{fill-rule:evenodd;clip-rule:evenodd;fill:#1063AA;}
	.st25{fill-rule:evenodd;clip-rule:evenodd;fill:#AE4CBF;}
	.st26{fill-rule:evenodd;clip-rule:evenodd;fill:#1162A9;}
	.st27{fill-rule:evenodd;clip-rule:evenodd;fill:#AF4CBF;}
	.st28{fill-rule:evenodd;clip-rule:evenodd;fill:#AF4CC0;}
	.st29{fill-rule:evenodd;clip-rule:evenodd;fill:#1280CA;}
	.st30{fill-rule:evenodd;clip-rule:evenodd;fill:#1360A6;}
	.st31{fill-rule:evenodd;clip-rule:evenodd;fill:#1361A7;}
	.st32{fill-rule:evenodd;clip-rule:evenodd;fill:#1370B5;}
	.st33{fill-rule:evenodd;clip-rule:evenodd;fill:#1371B5;}
	.st34{fill-rule:evenodd;clip-rule:evenodd;fill:#E3B371;}
	.st35{fill-rule:evenodd;clip-rule:evenodd;fill:#E3B372;}
	.st36{fill-rule:evenodd;clip-rule:evenodd;fill:#1583CD;}
	.st37{fill-rule:evenodd;clip-rule:evenodd;fill:#165EA3;}
	.st38{fill-rule:evenodd;clip-rule:evenodd;fill:#4A698D;}
	.st39{fill-rule:evenodd;clip-rule:evenodd;fill:#16A0FE;}
	.st40{fill-rule:evenodd;clip-rule:evenodd;fill:#4A9DA0;}
	.st41{fill-rule:evenodd;clip-rule:evenodd;fill:#4B698E;}
	.st42{fill-rule:evenodd;clip-rule:evenodd;fill:#4C6888;}
	.st43{fill-rule:evenodd;clip-rule:evenodd;fill:#4C6B8F;}
	.st44{fill-rule:evenodd;clip-rule:evenodd;fill:#195CA0;}
	.st45{fill-rule:evenodd;clip-rule:evenodd;fill:#4D647F;}
	.st46{fill-rule:evenodd;clip-rule:evenodd;fill:#4D6C91;}
	.st47{fill-rule:evenodd;clip-rule:evenodd;fill:#4E647E;}
	.st48{fill-rule:evenodd;clip-rule:evenodd;fill:#4E6C92;}
	.st49{fill-rule:evenodd;clip-rule:evenodd;fill:#4E6D93;}
	.st50{fill-rule:evenodd;clip-rule:evenodd;fill:#4F6E94;}
	.st51{fill-rule:evenodd;clip-rule:evenodd;fill:#4F6F94;}
	.st52{fill-rule:evenodd;clip-rule:evenodd;fill:#4F6F95;}
	.st53{fill-rule:evenodd;clip-rule:evenodd;fill:#B04DC1;}
	.st54{fill-rule:evenodd;clip-rule:evenodd;fill:#821CA7;}
	.st55{fill-rule:evenodd;clip-rule:evenodd;fill:#B2B2B2;}
	.st56{fill-rule:evenodd;clip-rule:evenodd;fill:#1D88D2;}
	.st57{fill-rule:evenodd;clip-rule:evenodd;fill:#8991B1;}
	.st58{fill-rule:evenodd;clip-rule:evenodd;fill:#1E88D2;}
	.st59{fill-rule:evenodd;clip-rule:evenodd;fill:#506F96;}
	.st60{fill-rule:evenodd;clip-rule:evenodd;fill:#507097;}
	.st61{fill-rule:evenodd;clip-rule:evenodd;fill:#517198;}
	.st62{fill-rule:evenodd;clip-rule:evenodd;fill:#52729A;}
	.st63{fill-rule:evenodd;clip-rule:evenodd;fill:#52739A;}
	.st64{fill-rule:evenodd;clip-rule:evenodd;fill:#53749C;}
	.st65{fill-rule:evenodd;clip-rule:evenodd;fill:#54759D;}
	.st66{fill-rule:evenodd;clip-rule:evenodd;fill:#55769E;}
	.st67{fill-rule:evenodd;clip-rule:evenodd;fill:#55779E;}
	.st68{fill-rule:evenodd;clip-rule:evenodd;fill:#578FCB;}
	.st69{fill-rule:evenodd;clip-rule:evenodd;fill:#BA945F;}
	.st70{fill-rule:evenodd;clip-rule:evenodd;fill:#594A42;}
	.st71{fill-rule:evenodd;clip-rule:evenodd;fill:#BCBEC0;}
	.st72{fill-rule:evenodd;clip-rule:evenodd;}
	.st73{fill:#FFA400;}
	.st74{fill-rule:evenodd;clip-rule:evenodd;fill:#F1F1F1;}
	.st75{fill-rule:evenodd;clip-rule:evenodd;fill:#F3F3F3;}
	.st76{fill-rule:evenodd;clip-rule:evenodd;fill:#292A29;}
	.st77{fill-rule:evenodd;clip-rule:evenodd;fill:#295789;}
	.st78{fill-rule:evenodd;clip-rule:evenodd;fill:#F7F7F7;}
	.st79{fill-rule:evenodd;clip-rule:evenodd;fill:#297EE1;}
	.st80{fill-rule:evenodd;clip-rule:evenodd;fill:#98BCE4;}
	.st81{fill:#003A70;}
	.st82{fill-rule:evenodd;clip-rule:evenodd;fill:#FDFCFC;}
	.st83{fill-rule:evenodd;clip-rule:evenodd;fill:#FDFDFD;}
	.st84{fill-rule:evenodd;clip-rule:evenodd;fill:#FDFEFE;}
	.st85{fill-rule:evenodd;clip-rule:evenodd;fill:#FE7100;}
	.st86{fill-rule:evenodd;clip-rule:evenodd;fill:#FEFEFE;}
	.st87{fill-rule:evenodd;clip-rule:evenodd;fill:#62688E;}
	.st88{fill-rule:evenodd;clip-rule:evenodd;fill:#63D2D6;}
	.st89{fill-rule:evenodd;clip-rule:evenodd;fill:#9C1CB1;}
	.st90{fill-rule:evenodd;clip-rule:evenodd;fill:#9F7757;}
	.st91{fill-rule:evenodd;clip-rule:evenodd;fill:#333333;}
	.st92{fill-rule:evenodd;clip-rule:evenodd;fill:#344D6A;}
	.st93{fill-rule:evenodd;clip-rule:evenodd;fill:#00458D;}
	.st94{fill-rule:evenodd;clip-rule:evenodd;fill:#005196;}
	.st95{fill-rule:evenodd;clip-rule:evenodd;fill:#0171BC;}
	.st96{fill-rule:evenodd;clip-rule:evenodd;fill:#025B92;}
	.st97{fill-rule:evenodd;clip-rule:evenodd;fill:#025D94;}
	.st98{fill-rule:evenodd;clip-rule:evenodd;fill:#0270BB;}
	.st99{fill-rule:evenodd;clip-rule:evenodd;fill:#036EB8;}
	.st100{fill-rule:evenodd;clip-rule:evenodd;fill:#055890;}
	.st101{fill-rule:evenodd;clip-rule:evenodd;fill:#056CB5;}
]]>
</style>
<path class="st54" d="M104.7,159.6c-4,1.6-7.9,0.8-11.6-0.9c-15.2-6.7-30.4-13.4-45.5-20.2c-5.2-2.3-7.7-6.7-7.8-12.3
	c-0.1-17.7,0-35.5,0-53.2c0-2.1,0.3-4.1,1.6-5.9c2.3-2.8,5-2.7,8.1-1.2c14.6,6.6,29.3,13.2,44,19.7c4.6,2,6.5,6,8.7,9.9
	c0.7,10.9,0.2,21.9,0.3,32.8c0.1,5.3,0.1,10.5,0,15.8C102.3,149.4,102.6,154.6,104.7,159.6z"/>
<path class="st89" d="M104.7,159.6c-4.1-0.6-4.3-3.7-4.3-6.9c0-16.8,0-33.6,0-50.5c0-2.3,0-4.7-0.7-7c1-5.5,4.7-8.3,9.5-10.5
	c14.1-6.4,28.3-12.5,42.3-18.9c3.1-1.4,5.7-1.4,8,1.3c1.5,2,1.6,4.3,1.6,6.7c0,17.2,0,34.3,0,51.5c0,6.5-2.8,11-8.9,13.6
	c-14.6,6.4-29,12.9-43.6,19.4C107.4,158.9,106,159.2,104.7,159.6z"/>
<path class="st53" d="M159.5,67.1c-2.5-1-4.8-0.3-7.2,0.7c-14.6,6.6-29.1,13.2-43.9,19.6c-4,1.7-5.6,5.5-8.8,7.9
	c-1.1-3.7-3.6-6.1-7-7.6c-14.9-6.6-29.7-13.3-44.6-20c-2.2-1-4.5-1.4-6.8-0.6c1-3,3.1-4.8,5.9-6c15.5-6.9,31-13.9,46.6-20.8
	c4.6-2,9.2-1.8,13.7,0.2c15.3,6.8,30.6,13.6,45.8,20.4C156.1,62.1,158.5,63.9,159.5,67.1z"/>
<path class="st25" d="M13.8,83.1c0-1.9-0.1-3.9,0-5.8c0.2-2.1,1.6-3.3,3.6-3.3c1.8,0,3.4,1.2,3.5,3c0.2,4.3,0.2,8.5,0,12.8
	c-0.1,1.8-1.6,2.9-3.5,2.9c-2-0.1-3.4-1.3-3.5-3.4C13.7,87.3,13.8,85.2,13.8,83.1z"/>
<path class="st25" d="M186.9,100.9c0,1.9,0.1,3.9,0,5.8c-0.1,2.1-1.3,3.4-3.3,3.6c-2.1,0.2-3.6-1.1-3.8-3c-0.3-4.1-0.3-8.3,0-12.4
	c0.1-2,1.6-3.3,3.7-3.1c2,0.1,3.3,1.3,3.4,3.4C187,97,186.9,98.9,186.9,100.9z"/>
<path class="st27" d="M187,72.3c0,1.8,0,3.6,0,5.4c-0.1,2.3-1.2,3.7-3.5,3.7c-2.4,0.1-3.6-1.4-3.7-3.6c-0.1-3.8-0.2-7.7,0.1-11.6
	c0.1-2.1,1.6-3.6,3.9-3.3c2.1,0.2,3.2,1.5,3.3,3.6C187,68.5,186.9,70.4,187,72.3z"/>
<path class="st27" d="M96.4,186.1c-4-0.5-8.1-2.1-12-4.3c-1.6-0.9-2-2.7-1.2-4.4c0.8-1.7,2.4-2.6,4.1-1.9c3.7,1.4,7.4,2.9,11.3,3.9
	c1.8,0.4,2.6,2.1,2.1,4C100.3,185.2,98.9,186.2,96.4,186.1z"/>
<path class="st27" d="M166.9,159.3c-2.1-0.3-3.4-1-3.9-2.6c-0.5-1.6-0.1-3.2,1.4-4c3.6-2,7.3-3.8,11.1-5.5c1.5-0.7,3-0.2,4,1.2
	c1,1.4,1.2,3,0,4.2C176,156.3,171,157.4,166.9,159.3z"/>
<path class="st25" d="M186.9,129.8c0,1.9,0.1,3.9,0,5.8c-0.1,1.9-1.3,3-3.2,3.2c-2.1,0.2-3.7-0.9-3.9-2.9c-0.3-4.2-0.2-8.5,0-12.8
	c0.1-1.7,1.6-2.9,3.5-2.8c2.1,0.1,3.4,1.3,3.5,3.3C187.1,125.7,186.9,127.8,186.9,129.8z"/>
<path class="st25" d="M13.8,112.1c0-1.9-0.1-3.9,0-5.8c0.1-2,1.2-3.3,3.3-3.5c2.1-0.2,3.6,1,3.8,3c0.3,4.1,0.2,8.2,0,12.4
	c-0.1,2-1.5,3.2-3.7,3.1c-2.1-0.1-3.3-1.4-3.4-3.4C13.7,115.9,13.8,114,13.8,112.1z"/>
<path class="st28" d="M98.6,13c2.6-0.2,4.5,0.7,4.8,3.4c0.2,2.5-1.6,3.8-3.9,3.9c-3.1,0.2-5.9,1.1-8.7,2.3c-2.2,0.9-4.2,0.6-5.2-1.7
	c-0.9-2.3,0.2-3.9,2.4-5C91.3,14.2,94.9,13.2,98.6,13z"/>
<path class="st28" d="M117.7,18c3.2,1.5,7.1,3.2,10.9,5.1c1.6,0.8,2.1,2.5,1.4,4.3c-0.8,1.9-2.5,2.8-4.4,2
	c-3.8-1.5-7.6-3.2-11.3-5.1c-1.7-0.8-2-2.6-1.4-4.3C113.6,18.2,115.1,17.7,117.7,18z"/>
<path class="st25" d="M13.8,60.1c0.4-3.9,1.6-7.6,4-10.7c1.4-1.8,3.2-2.9,5.4-1.4c2.1,1.5,2,3.5,0.7,5.4c-1.5,2.2-2.5,4.6-2.7,7.3
	c-0.1,2.5-1.3,4.4-4.1,4.2C14.3,64.7,13.6,62.6,13.8,60.1z"/>
<path class="st27" d="M17.5,131.3c2.2,0.4,3.6,1.7,3.6,3.9c0,3.2,0.6,6.3,2.1,9.1c1,1.9,0.4,3.6-1.4,4.6c-1.9,1.2-3.8,0.6-5-1.3
	c-2.5-4-3.4-8.4-3-13.1C14.1,132.6,15.5,131.6,17.5,131.3z"/>
<path class="st28" d="M37.2,46.4c-2.4,0-3.7-0.7-4.2-2.3c-0.5-1.6-0.3-3.3,1.2-4c3.9-1.9,8-3.7,12.1-5.3c1.5-0.6,3,0.4,3.7,1.9
	c0.8,1.5,0.6,3.2-0.8,4.1C45.3,43.3,40.9,44.8,37.2,46.4z"/>
<path class="st27" d="M69.3,175.3c-3.3-1.5-7.5-3.3-11.4-5.5c-1.4-0.7-1.7-2.5-0.9-4.1c0.8-1.8,2.4-2.6,4.1-2
	c4,1.5,7.9,3.3,11.7,5.2c1.6,0.8,2.1,2.5,1.3,4.3C73.3,174.9,72,175.5,69.3,175.3z"/>
<path class="st28" d="M114.4,182.7c-2-0.2-3.2-0.9-3.8-2.3c-0.6-1.6-0.4-3.3,1-4.1c4-2.2,8-4.3,12.4-5.4c1.4-0.4,2.8,0.3,3.5,1.7
	c0.7,1.3,0.8,3-0.3,3.9C123.3,179.5,118.5,180.9,114.4,182.7z"/>
<path class="st28" d="M143.9,29.6c3.2,1.5,7.3,3.2,11.2,5.2c1.7,0.9,1.8,2.7,1.1,4.4c-0.7,1.6-2.2,2.5-3.7,1.9
	c-4.1-1.6-8.1-3.4-12.1-5.3c-1.4-0.7-1.9-2.3-1.3-4C139.8,30.1,141.1,29.3,143.9,29.6z"/>
<path class="st28" d="M43.1,163.7c-3.3-1.5-7.4-3.3-11.4-5.4c-1.6-0.9-1.7-2.8-0.8-4.4c0.9-1.6,2.5-2.3,4.3-1.6
	c3.7,1.5,7.3,3.1,10.9,4.9c1.7,0.8,2.3,2.4,1.8,4.2C47.3,163.1,45.9,163.8,43.1,163.7z"/>
<path class="st28" d="M154.3,162.8c-0.2,1.5-1,2.6-2.6,3.3c-3.3,1.4-6.6,2.9-9.8,4.4c-2.1,0.9-3.9,0.4-4.9-1.6
	c-1-2.1-0.3-3.9,1.7-4.9c3.5-1.7,7-3.3,10.6-4.6C152,158.4,154.4,160.2,154.3,162.8z"/>
<path class="st28" d="M169.7,41.3c4,1.6,8.5,3.1,11.6,6.9c1.3,1.6,1.3,3.3-0.2,4.9c-1.3,1.4-3.3,1.5-4.5,0.4c-2.7-2.5-6-3.8-9.2-5.3
	c-1.9-0.9-2.5-2.5-1.9-4.5C166,41.8,167.4,41,169.7,41.3z"/>
<path class="st28" d="M76.6,26.3c0,1.7-0.7,2.9-2.3,3.6c-3.3,1.5-6.5,3-9.8,4.4c-2.1,0.9-4.2,0.7-5.2-1.8c-1.1-2.4,0.3-4,2.4-4.9
	c3.1-1.5,6.2-2.9,9.4-4.2C74,22.2,76.5,23.6,76.6,26.3z"/>
</svg>
