<?xml version="1.0" encoding="utf-8"?>
<!-- Generator: Adobe Illustrator 16.0.0, SVG Export Plug-In . SVG Version: 6.00 Build 0)  -->
<!DOCTYPE svg PUBLIC "-//W3C//DTD SVG 1.1//EN" "http://www.w3.org/Graphics/SVG/1.1/DTD/svg11.dtd">
<svg version="1.1" id="Layer_1" xmlns="http://www.w3.org/2000/svg" xmlns:xlink="http://www.w3.org/1999/xlink" x="0px" y="0px"
	 width="200px" height="200px" viewBox="0 0 200 200" style="enable-background:new 0 0 200 200;" xml:space="preserve">
<style type="text/css">
<![CDATA[
	.st0{fill-rule:evenodd;clip-rule:evenodd;fill:#076BB3;}
	.st1{fill-rule:evenodd;clip-rule:evenodd;fill:#0776C1;}
	.st2{fill-rule:evenodd;clip-rule:evenodd;fill:#0777C1;}
	.st3{fill-rule:evenodd;clip-rule:evenodd;fill:#3BA1EA;}
	.st4{fill-rule:evenodd;clip-rule:evenodd;fill:#0969B1;}
	.st5{fill-rule:evenodd;clip-rule:evenodd;fill:#3D5877;}
	.st6{fill-rule:evenodd;clip-rule:evenodd;fill:#3DA5EF;}
	.st7{fill-rule:evenodd;clip-rule:evenodd;fill:#0B67AF;}
	.st8{fill-rule:evenodd;clip-rule:evenodd;fill:#0D66AD;}
	.st9{fill-rule:evenodd;clip-rule:evenodd;fill:#0D7CC7;}
	.st10{fill-rule:evenodd;clip-rule:evenodd;fill:#0E64AB;}
	.st11{fill-rule:evenodd;clip-rule:evenodd;fill:#405873;}
	.st12{fill-rule:evenodd;clip-rule:evenodd;fill:#414042;}
	.st13{fill-rule:evenodd;clip-rule:evenodd;fill:#425E7D;}
	.st14{fill-rule:evenodd;clip-rule:evenodd;fill:#445C78;}
	.st15{fill-rule:evenodd;clip-rule:evenodd;fill:#445F7F;}
	.st16{fill-rule:evenodd;clip-rule:evenodd;fill:#445F80;}
	.st17{fill-rule:evenodd;clip-rule:evenodd;fill:#454A75;}
	.st18{fill-rule:evenodd;clip-rule:evenodd;fill:#456284;}
	.st19{fill-rule:evenodd;clip-rule:evenodd;fill:#466284;}
	.st20{fill-rule:evenodd;clip-rule:evenodd;fill:#466486;}
	.st21{fill-rule:evenodd;clip-rule:evenodd;fill:#484948;}
	.st22{fill-rule:evenodd;clip-rule:evenodd;fill:#486588;}
	.st23{fill-rule:evenodd;clip-rule:evenodd;fill:#48989B;}
	.st24{fill-rule:evenodd;clip-rule:evenodd;fill:#1063AA;}
	.st25{fill-rule:evenodd;clip-rule:evenodd;fill:#AE4CBF;}
	.st26{fill-rule:evenodd;clip-rule:evenodd;fill:#1162A9;}
	.st27{fill-rule:evenodd;clip-rule:evenodd;fill:#AF4CBF;}
	.st28{fill-rule:evenodd;clip-rule:evenodd;fill:#AF4CC0;}
	.st29{fill-rule:evenodd;clip-rule:evenodd;fill:#1280CA;}
	.st30{fill-rule:evenodd;clip-rule:evenodd;fill:#1360A6;}
	.st31{fill-rule:evenodd;clip-rule:evenodd;fill:#1361A7;}
	.st32{fill-rule:evenodd;clip-rule:evenodd;fill:#1370B5;}
	.st33{fill-rule:evenodd;clip-rule:evenodd;fill:#1371B5;}
	.st34{fill-rule:evenodd;clip-rule:evenodd;fill:#E3B371;}
	.st35{fill-rule:evenodd;clip-rule:evenodd;fill:#E3B372;}
	.st36{fill-rule:evenodd;clip-rule:evenodd;fill:#1583CD;}
	.st37{fill-rule:evenodd;clip-rule:evenodd;fill:#165EA3;}
	.st38{fill-rule:evenodd;clip-rule:evenodd;fill:#4A698D;}
	.st39{fill-rule:evenodd;clip-rule:evenodd;fill:#16A0FE;}
	.st40{fill-rule:evenodd;clip-rule:evenodd;fill:#4A9DA0;}
	.st41{fill-rule:evenodd;clip-rule:evenodd;fill:#4B698E;}
	.st42{fill-rule:evenodd;clip-rule:evenodd;fill:#4C6888;}
	.st43{fill-rule:evenodd;clip-rule:evenodd;fill:#4C6B8F;}
	.st44{fill-rule:evenodd;clip-rule:evenodd;fill:#195CA0;}
	.st45{fill-rule:evenodd;clip-rule:evenodd;fill:#4D647F;}
	.st46{fill-rule:evenodd;clip-rule:evenodd;fill:#4D6C91;}
	.st47{fill-rule:evenodd;clip-rule:evenodd;fill:#4E647E;}
	.st48{fill-rule:evenodd;clip-rule:evenodd;fill:#4E6C92;}
	.st49{fill-rule:evenodd;clip-rule:evenodd;fill:#4E6D93;}
	.st50{fill-rule:evenodd;clip-rule:evenodd;fill:#4F6E94;}
	.st51{fill-rule:evenodd;clip-rule:evenodd;fill:#4F6F94;}
	.st52{fill-rule:evenodd;clip-rule:evenodd;fill:#4F6F95;}
	.st53{fill-rule:evenodd;clip-rule:evenodd;fill:#B04DC1;}
	.st54{fill-rule:evenodd;clip-rule:evenodd;fill:#821CA7;}
	.st55{fill-rule:evenodd;clip-rule:evenodd;fill:#B2B2B2;}
	.st56{fill-rule:evenodd;clip-rule:evenodd;fill:#1D88D2;}
	.st57{fill-rule:evenodd;clip-rule:evenodd;fill:#8991B1;}
	.st58{fill-rule:evenodd;clip-rule:evenodd;fill:#1E88D2;}
	.st59{fill-rule:evenodd;clip-rule:evenodd;fill:#506F96;}
	.st60{fill-rule:evenodd;clip-rule:evenodd;fill:#507097;}
	.st61{fill-rule:evenodd;clip-rule:evenodd;fill:#517198;}
	.st62{fill-rule:evenodd;clip-rule:evenodd;fill:#52729A;}
	.st63{fill-rule:evenodd;clip-rule:evenodd;fill:#52739A;}
	.st64{fill-rule:evenodd;clip-rule:evenodd;fill:#53749C;}
	.st65{fill-rule:evenodd;clip-rule:evenodd;fill:#54759D;}
	.st66{fill-rule:evenodd;clip-rule:evenodd;fill:#55769E;}
	.st67{fill-rule:evenodd;clip-rule:evenodd;fill:#55779E;}
	.st68{fill-rule:evenodd;clip-rule:evenodd;fill:#578FCB;}
	.st69{fill-rule:evenodd;clip-rule:evenodd;fill:#BA945F;}
	.st70{fill-rule:evenodd;clip-rule:evenodd;fill:#594A42;}
	.st71{fill-rule:evenodd;clip-rule:evenodd;fill:#BCBEC0;}
	.st72{fill-rule:evenodd;clip-rule:evenodd;}
	.st73{fill:#FFA400;}
	.st74{fill-rule:evenodd;clip-rule:evenodd;fill:#F1F1F1;}
	.st75{fill-rule:evenodd;clip-rule:evenodd;fill:#F3F3F3;}
	.st76{fill-rule:evenodd;clip-rule:evenodd;fill:#292A29;}
	.st77{fill-rule:evenodd;clip-rule:evenodd;fill:#295789;}
	.st78{fill-rule:evenodd;clip-rule:evenodd;fill:#F7F7F7;}
	.st79{fill-rule:evenodd;clip-rule:evenodd;fill:#297EE1;}
	.st80{fill-rule:evenodd;clip-rule:evenodd;fill:#98BCE4;}
	.st81{fill:#003A70;}
	.st82{fill-rule:evenodd;clip-rule:evenodd;fill:#FDFCFC;}
	.st83{fill-rule:evenodd;clip-rule:evenodd;fill:#FDFDFD;}
	.st84{fill-rule:evenodd;clip-rule:evenodd;fill:#FDFEFE;}
	.st85{fill-rule:evenodd;clip-rule:evenodd;fill:#FE7100;}
	.st86{fill-rule:evenodd;clip-rule:evenodd;fill:#FEFEFE;}
	.st87{fill-rule:evenodd;clip-rule:evenodd;fill:#62688E;}
	.st88{fill-rule:evenodd;clip-rule:evenodd;fill:#63D2D6;}
	.st89{fill-rule:evenodd;clip-rule:evenodd;fill:#9C1CB1;}
	.st90{fill-rule:evenodd;clip-rule:evenodd;fill:#9F7757;}
	.st91{fill-rule:evenodd;clip-rule:evenodd;fill:#333333;}
	.st92{fill-rule:evenodd;clip-rule:evenodd;fill:#344D6A;}
	.st93{fill-rule:evenodd;clip-rule:evenodd;fill:#00458D;}
	.st94{fill-rule:evenodd;clip-rule:evenodd;fill:#005196;}
	.st95{fill-rule:evenodd;clip-rule:evenodd;fill:#0171BC;}
	.st96{fill-rule:evenodd;clip-rule:evenodd;fill:#025B92;}
	.st97{fill-rule:evenodd;clip-rule:evenodd;fill:#025D94;}
	.st98{fill-rule:evenodd;clip-rule:evenodd;fill:#0270BB;}
	.st99{fill-rule:evenodd;clip-rule:evenodd;fill:#036EB8;}
	.st100{fill-rule:evenodd;clip-rule:evenodd;fill:#055890;}
	.st101{fill-rule:evenodd;clip-rule:evenodd;fill:#056CB5;}
]]>
</style>
<path class="st68" d="M18.3,78.5c0.4-0.8,1.3-1,2-1.4C54.5,57.3,88.7,37.5,123,17.8c6.7-3.8,13.7-6.9,21.5-8.1
	c6.9-1,13.2,0.4,19.4,3.4c5.1,2.4,9.9,5.4,14.8,8.1c1,0.5,0.9,1.3,0.9,2.2c0,7.6,0,15.2,0,22.8c0,30.8,0,61.6,0,92.4
	c0,2,0.2,4-0.3,6c-0.9-0.8-0.6-1.8-0.6-2.8c0-9.4,0-18.7,0-28.1c0-29.2,0-58.5,0-87.7c0-3.3,0-3.3-2.8-1.7
	C157,35.2,138.1,46.1,119.2,57C105.8,64.7,92.4,72.5,79,80.2c-3,1.7-3.3,1.6-0.1,3.4C85.4,87.4,92,91.2,98.6,95
	c0.6,0.4,1.3,0.6,2,0.9c6.3,3.9,12.9,7.5,19.3,11.2c1,0.6,2,1.1,2.8,1.9c0.6,0.7,0.6,1.6,0.6,2.4c0,8.3,0,16.6,0,24.9
	c0,2.5-0.6,2.8-2.7,1.6c-18.7-10.8-37.5-21.6-56.2-32.5C49.5,97,34.7,88.5,20,80C19.3,79.6,18.6,79.3,18.3,78.5z"/>
<path class="st77" d="M100.7,96.3c-0.9,0.4-1.5-0.2-2.2-0.6c-7.4-4.2-14.7-8.5-22-12.8c-0.4-0.3-0.8-0.6-1.4-1c4.1-2.4,8.1-4.7,12-7
	c19.2-11.1,38.3-22.2,57.5-33.2c11-6.4,22.1-12.7,33.1-19.1c1.1-0.7,1.7-0.6,1.5,0.9c0,0.4,0,0.8,0,1.2c0,38.1,0,76.1,0,114.2
	c0,1.9,0,3.8,0.1,5.7c-0.1,6.3-0.9,12.6-2.8,18.7c-2,6.4-5.8,11.6-11.2,15.6c-5.5,4.1-11.5,7.4-17.4,10.7c-0.9-1.1-0.6-2.4-0.6-3.6
	c0-32,0-64.1,0-96.1c0-5.8,0-11.6,0-17.5c0-2.1-0.1-2.1-1.9-1.1c-7.4,4.2-14.8,8.6-22.3,12.8c-6.8,3.7-13.4,7.7-20.1,11.5
	C102.2,96,101.6,96.7,100.7,96.3z"/>
<path class="st80" d="M122.2,84c8.4-4.9,16.8-9.8,25.5-14.9c0,1.1,0,1.8,0,2.6c0,38.4,0,76.8,0,115.1c0,0.9,0,1.8,0.1,2.7
	c-7-4-14-8-21.1-12.1c-14.1-8.1-28.2-16.2-42.2-24.4c-15.1-8.8-30.4-17.1-45.2-26.4c-6.2-3.9-11.8-8.4-15.8-14.7
	c-3.1-4.8-4.5-10.1-4.9-15.7c-0.5-5.9-0.3-11.9-0.3-17.8c10.3,5.9,20.6,11.8,30.9,17.8c10.7,6.2,21.4,12.3,32.1,18.5
	c10.3,6,20.7,12,31,17.9c3.4,1.9,6.8,3.9,10.4,5.9c0-2.8,0-5.2,0-7.6c0-6.5,0-13.1,0-19.6c0-0.8,0.1-1.6-0.4-2.3
	c-0.2-0.9-0.2-1.8-0.2-2.7c0-6.6,0-13.2,0-19.7C122,85.8,122,84.9,122.2,84z"/>
</svg>
