<?xml version="1.0" encoding="utf-8"?>
<!-- Generator: Adobe Illustrator 16.0.0, SVG Export Plug-In . SVG Version: 6.00 Build 0)  -->
<!DOCTYPE svg PUBLIC "-//W3C//DTD SVG 1.1//EN" "http://www.w3.org/Graphics/SVG/1.1/DTD/svg11.dtd">
<svg version="1.1" id="Layer_1" xmlns="http://www.w3.org/2000/svg" xmlns:xlink="http://www.w3.org/1999/xlink" x="0px" y="0px"
	 width="1920px" height="1024px" viewBox="0 0 1920 1024" style="enable-background:new 0 0 1920 1024;" xml:space="preserve">
<style type="text/css">
<![CDATA[
	.st0{fill:#F6921A;}
	.st1{fill:#FFFFFF;}
]]>
</style>
<polygon class="st1" points="1100.2,414.2 1011.8,364.2 947.1,363.4 886.5,416.6 866.8,550.9 866,605.8 899.6,640.2 971.6,650.9 
	1079.7,629.6 "/>
<g>
	<path id="XMLID_8_" class="st0" d="M1004.8,457c-8.7-3.9-18-5.8-27.2-8c-1.6-0.4-2,0-2.3,1.5c-3,12.3-6.1,24.6-9.2,36.8
		c-0.4,1.6-1.5,3.7-0.9,4.9c0.7,1.4,3.1,1.2,4.8,1.6c9,2.4,18,4.5,27.3,4.6c3.6,0.1,7.1-0.4,10.6-1.3c15.4-3.8,18.3-22.5,9.8-31.3
		C1013.9,462,1009.6,459.2,1004.8,457z"/>
	<path id="XMLID_9_" class="st0" d="M999.7,527.4c-12.3-6.6-25.9-9.3-39.2-12.5c-1.1-0.3-1.4,0.2-1.6,1.2
		c-3.8,15.2-7.6,30.3-11.4,45.5c-0.2,1-0.1,1.5,1,1.8c12.7,3.2,25.4,6.7,38.9,6.9c4.8,0,9.8-0.5,14.6-2.1c13.7-4.7,18.1-22,8.3-32.7
		C1007.2,532.1,1003.7,529.5,999.7,527.4z"/>
</g>
<path class="st0" d="M979,311c-109.9,0-199,89.1-199,199c0,109.9,89.1,199,199,199s199-89.1,199-199C1178,400.1,1088.9,311,979,311z
	 M1065.7,490.1c-3.8,12.2-11.7,20.1-24.1,23.6c-0.6,0.2-1.1,0.4-2,0.7c3.3,1.9,6.1,3.6,8.8,5.6c11,8.3,16.2,19.2,14.6,33.1
	c-1.1,10.2-4.4,19.8-10.2,28.4c-7.1,10.6-17.2,16.2-29.6,18.2c-12.6,2-25,0.6-37.4-1.5c-3.7-0.6-3.7-0.7-4.7,3
	c-2.6,10.3-5.2,20.5-7.7,30.8c-0.4,1.7-1,1.9-2.5,1.5c-6-1.6-12.1-3.1-18.1-4.5c-1.4-0.3-1.8-0.8-1.4-2.4c2.7-10.6,5.3-21.3,8-31.9
	c0.5-1.8,0.2-2.4-1.7-2.8c-4.3-1-8.6-2.1-12.9-3.4c-2-0.6-2.6-0.2-3.1,1.8c-2.5,10.6-5.3,21.1-7.8,31.7c-0.4,1.8-1.1,2-2.7,1.6
	c-6-1.6-12.1-3.1-18.1-4.5c-1.4-0.3-1.7-0.8-1.3-2.2c2.8-10.8,5.4-21.7,8.2-32.5c0.5-1.8,0.2-2.4-1.6-2.9
	c-13.1-3.2-26.1-6.6-39.2-9.8c-2.9-0.7-2.9-0.7-1.7-3.6c3-6.9,6-13.7,8.9-20.6c0.6-1.4,1.2-1.7,2.6-1.3c4.5,1.2,9,2.3,13.6,3.4
	c5.9,1.4,9.6-0.9,11.1-6.8c7.9-31.8,15.8-63.5,23.7-95.3c1.6-6.4-1.2-11.7-7.4-14c-5.2-1.9-10.7-3-16.1-4.2
	c-1.9-0.4-2.1-1.1-1.7-2.8c1.7-6.3,3.2-12.6,4.7-19c0.4-1.7,1-2.2,2.8-1.7c13.2,3.4,26.4,6.6,39.6,9.9c1.8,0.5,2.6,0.4,3.1-1.8
	c2.5-10.5,5.2-21,7.7-31.5c0.5-1.9,1.1-2.3,3-1.7c5.9,1.6,11.8,3.1,17.7,4.4c1.6,0.4,1.9,0.9,1.5,2.5c-2.7,10.4-5.2,20.8-7.9,31.2
	c-0.5,1.8,0,2.4,1.7,2.8c4.4,0.9,8.8,2,13.2,3.1c1.7,0.4,2.4,0.1,2.8-1.7c2.5-10.3,5.1-20.5,7.6-30.8c0.4-1.8,1.1-2.1,2.8-1.7
	c5.9,1.6,11.9,3,17.9,4.5c1.5,0.4,1.8,0.9,1.5,2.4c-2.7,10.7-5.3,21.4-8.1,32.1c-0.4,1.6-0.1,2.3,1.5,2.9
	c9.3,3.3,18.4,7.2,26.3,13.2C1066.8,457.1,1071.4,472,1065.7,490.1z"/>
</svg>
