<?xml version="1.0" encoding="utf-8"?>
<!-- Generator: Adobe Illustrator 16.0.0, SVG Export Plug-In . SVG Version: 6.00 Build 0)  -->
<!DOCTYPE svg PUBLIC "-//W3C//DTD SVG 1.1//EN" "http://www.w3.org/Graphics/SVG/1.1/DTD/svg11.dtd">
<svg version="1.1" id="Layer_1" xmlns="http://www.w3.org/2000/svg" xmlns:xlink="http://www.w3.org/1999/xlink" x="0px" y="0px"
	 width="100px" height="100px" viewBox="0 0 100 100" style="enable-background:new 0 0 100 100;" xml:space="preserve">
<style type="text/css">
<![CDATA[
	.st0{fill-rule:evenodd;clip-rule:evenodd;fill:#D7C07D;}
	.st1{fill-rule:evenodd;clip-rule:evenodd;fill:#D8C07E;}
	.st2{fill-rule:evenodd;clip-rule:evenodd;fill:#D8C07F;}
	.st3{fill-rule:evenodd;clip-rule:evenodd;fill:#D9C17F;}
	.st4{fill-rule:evenodd;clip-rule:evenodd;fill:#D9C180;}
	.st5{fill-rule:evenodd;clip-rule:evenodd;fill:#A18A47;}
	.st6{fill-rule:evenodd;clip-rule:evenodd;fill:#DFCA8D;}
	.st7{fill-rule:evenodd;clip-rule:evenodd;fill:#E1CC8F;}
	.st8{fill-rule:evenodd;clip-rule:evenodd;fill:#B99E47;}
	.st9{fill-rule:evenodd;clip-rule:evenodd;fill:#BA9F47;}
	.st10{fill-rule:evenodd;clip-rule:evenodd;fill:#C0A34E;}
	.st11{fill-rule:evenodd;clip-rule:evenodd;fill:#C1A450;}
	.st12{fill-rule:evenodd;clip-rule:evenodd;fill:#998440;}
	.st13{fill-rule:evenodd;clip-rule:evenodd;fill:#C8B46A;}
	.st14{fill-rule:evenodd;clip-rule:evenodd;fill:#FDFDFC;}
	.st15{fill-rule:evenodd;clip-rule:evenodd;fill:#FEFEFE;}
	.st16{fill-rule:evenodd;clip-rule:evenodd;fill:#FFFFFE;}
	.st17{fill-rule:evenodd;clip-rule:evenodd;fill:#FFFFFF;}
	.st18{fill-rule:evenodd;clip-rule:evenodd;fill:#9A8541;}
	.st19{fill-rule:evenodd;clip-rule:evenodd;fill:#9B8541;}
	.st20{fill-rule:evenodd;clip-rule:evenodd;fill:#9B8642;}
	.st21{fill-rule:evenodd;clip-rule:evenodd;fill:#CAB66D;}
	.st22{fill-rule:evenodd;clip-rule:evenodd;fill:#9C8642;}
	.st23{fill-rule:evenodd;clip-rule:evenodd;fill:#698EBD;}
	.st24{fill-rule:evenodd;clip-rule:evenodd;fill:#9D8642;}
	.st25{fill-rule:evenodd;clip-rule:evenodd;fill:#9D8744;}
	.st26{fill-rule:evenodd;clip-rule:evenodd;fill:#9E8844;}
	.st27{fill-rule:evenodd;clip-rule:evenodd;fill:#9F8945;}
	.st28{fill-rule:evenodd;clip-rule:evenodd;fill:#CFBA77;}
]]>
</style>
<g>
	<path class="st12" d="M355.6,49.7c0.3-24.9,20.6-45.2,45.8-45.1c25.2,0.1,45.7,20.6,45.5,46c-0.1,25-20.6,45.6-46.1,45.4
		C375.7,95.7,355.3,75,355.6,49.7z"/>
	<path class="st8" d="M369.9,80.1c-0.3-0.3-0.6-0.6-0.9-0.9c0,0-0.1-0.1-0.1-0.1c-0.2-0.2-0.4-0.5-0.6-0.8c-0.1-0.2-0.3-0.4-0.5-0.5
		c-0.2-0.3-0.4-0.5-0.7-0.8c-0.2-0.3-0.5-0.6-0.7-1c-0.2-0.3-0.4-0.6-0.6-0.9c-0.2-0.3-0.4-0.6-0.7-0.9c-0.4-0.6-0.8-1.3-1.2-1.9
		c-0.3-0.5-0.5-0.9-0.8-1.4c0-0.1-0.1-0.1-0.1-0.2c-0.3-0.6-0.6-1.2-0.9-1.7c-0.2-0.5-0.4-0.9-0.6-1.4c-0.2-0.5-0.4-1-0.6-1.4
		c-0.3-0.8-0.6-1.6-0.9-2.4c-0.4-1.2-0.7-2.5-1.1-3.8c-0.2-0.6-0.3-1.2-0.4-1.9c-0.1-0.4-0.1-0.8-0.2-1.2c0-0.1,0-0.2-0.1-0.3
		c-0.1-0.4-0.1-0.8-0.2-1.2c0,0,0-0.1,0-0.2c0-0.3,0-0.6-0.1-1c0-0.1,0-0.1,0-0.2c0-0.2,0-0.4-0.1-0.6c0-0.2,0-0.3,0-0.5
		c0-0.1,0-0.2,0-0.4c0-0.1,0-0.2,0-0.2c0-0.3,0-0.5,0-0.8c0-0.2,0-0.4-0.1-0.6c0-0.1,0-0.1,0-0.2c0-0.3,0-0.6,0-0.9
		c0-0.1,0-0.2,0-0.3c0-0.1,0-0.2,0-0.3c0-0.3,0-0.7,0-1c0-0.2,0-0.4,0-0.5c0-0.1,0-0.3,0-0.4c0-0.2,0-0.4,0-0.5c0,0,0-0.1,0-0.2
		c0-0.3,0-0.6,0.1-1c0-0.1,0-0.1,0-0.2c0-0.5,0.1-1,0.2-1.5c0-0.2,0-0.4,0.1-0.6c0.1-0.4,0.1-0.9,0.2-1.3c0.1-0.5,0.2-0.9,0.3-1.4
		c0.1-0.4,0.2-0.8,0.3-1.2c0.1-0.6,0.3-1.1,0.4-1.7c0.2-0.8,0.5-1.6,0.8-2.3c0.3-0.7,0.6-1.5,0.8-2.2c0.1-0.2,0.2-0.4,0.3-0.7
		c0.1-0.3,0.3-0.6,0.4-0.9c0.1-0.3,0.3-0.6,0.5-1c0.3-0.5,0.6-1.1,0.8-1.6c0.2-0.4,0.4-0.7,0.6-1.1c0.4-0.6,0.7-1.2,1.1-1.8
		c0.3-0.5,0.7-1.1,1.1-1.6c0.3-0.4,0.6-0.8,0.9-1.2c0.3-0.4,0.6-0.7,0.9-1.1c0.1-0.2,0.3-0.3,0.4-0.5c0.2-0.2,0.4-0.4,0.6-0.6
		c0.3-0.3,0.6-0.6,0.9-1c0.5-0.6,1.2-1.2,1.7-1.8c0.4-0.2,0.6-0.6,1-0.8c0.2-0.2,0.5-0.4,0.7-0.6c0.2-0.1,0.3-0.3,0.5-0.4
		c0.4-0.3,0.7-0.6,1.1-0.9c0.3-0.2,0.6-0.5,0.9-0.7c0.2-0.1,0.4-0.3,0.6-0.4c0.6-0.4,1.1-0.8,1.7-1.1c0.6-0.4,1.3-0.8,1.9-1.2
		c0.5-0.3,1-0.5,1.5-0.8c0.2-0.1,0.4-0.2,0.6-0.3c0.5-0.3,1.1-0.5,1.6-0.8c0.8-0.4,1.7-0.7,2.5-1c0.6-0.2,1.3-0.4,1.9-0.7
		c0.9-0.3,1.7-0.6,2.6-0.8c0.4-0.1,0.7-0.2,1.1-0.3c0.6-0.1,1.3-0.3,1.9-0.4c0.4-0.1,0.8-0.1,1.2-0.2c0.3-0.1,0.7-0.1,1-0.2
		c0,0,0.1,0,0.1,0c0.4,0,0.7-0.1,1.1-0.1c0.3,0,0.6-0.1,0.9-0.1c0.2,0,0.3,0,0.5,0c0.1,0,0.1,0,0.2,0c0.1,0,0.2,0,0.4,0
		c0.1,0,0.2,0,0.3,0c0.4,0,0.7,0,1.1,0c0.2,0,0.4,0,0.6,0c0.3,0,0.7-0.1,1.1,0c0,0,0.1,0,0.1,0c0.2-0.1,0.5,0,0.7,0
		c0.2,0,0.5,0,0.7,0c0.3,0,0.6,0,1,0.1c0.3,0.1,0.6,0,1,0.1c0.1,0,0.1,0,0.2,0c0.1,0,0.2,0,0.3,0c0,0,0.1,0,0.2,0
		c0.3,0,0.6,0.1,1,0.1c0.2,0,0.4,0.1,0.6,0.1c0.5,0,0.9,0.1,1.3,0.2c0.5,0.1,0.9,0.2,1.4,0.3c0.6,0.1,1.2,0.3,1.8,0.4
		c0.7,0.2,1.3,0.4,2,0.6c1,0.3,2,0.7,3,1c0.3,0.1,0.6,0.2,0.9,0.4c0.4,0.1,0.7,0.3,1.1,0.4c0.8,0.4,1.6,0.8,2.4,1.2
		c0.4,0.2,0.8,0.5,1.2,0.7c0.3,0.2,0.7,0.4,1,0.6c0.2,0.1,0.4,0.2,0.6,0.3c0.3,0.2,0.7,0.4,1,0.7c0.9,0.6,1.7,1.2,2.5,1.8
		c0.3,0.2,0.5,0.4,0.8,0.7c0.2,0.1,0.3,0.3,0.5,0.4c0.2,0.1,0.3,0.3,0.5,0.4c0.4,0.4,0.8,0.7,1.2,1.1c0.2,0.2,0.5,0.4,0.7,0.6
		c0.2,0.2,0.5,0.4,0.7,0.7c0.1,0.1,0.2,0.2,0.3,0.3c0.2,0.2,0.4,0.4,0.5,0.5c0.3,0.3,0.5,0.6,0.8,0.9c0.2,0.2,0.4,0.4,0.6,0.6
		s0.4,0.4,0.5,0.6c0.2,0.2,0.4,0.5,0.6,0.7c0.2,0.2,0.4,0.4,0.5,0.7c0.2,0.3,0.5,0.6,0.7,1c0.3,0.5,0.6,0.9,0.9,1.4
		c0.4,0.7,0.8,1.4,1.2,2c0.4,0.6,0.7,1.2,1,1.9c0.3,0.6,0.6,1.1,0.8,1.7c0.2,0.4,0.4,0.8,0.5,1.3c0.2,0.4,0.3,0.8,0.5,1.2
		c0.3,0.6,0.5,1.2,0.7,1.9c0.1,0.4,0.3,0.8,0.4,1.2c0.3,0.9,0.5,1.7,0.7,2.6c0.1,0.4,0.2,0.8,0.3,1.2c0.1,0.5,0.2,1,0.3,1.6
		c0,0.3,0.1,0.7,0.2,1c0,0.2,0.1,0.5,0.1,0.7c0,0.2,0,0.3,0.1,0.5c0,0.1,0,0.2,0,0.3c0,0.2,0,0.3,0,0.5c0,0.1,0,0.2,0,0.2
		c0,0.1,0,0.2,0,0.3c0,0,0,0.1,0,0.1c0,0.6,0.1,1.1,0.1,1.7c0,0.1,0,0.3,0,0.4c0,0.1,0,0.2,0,0.2c0,0.7,0,1.5,0,2.2
		c0,0.1,0,0.1,0,0.2c-0.1,0.3,0,0.5-0.1,0.8c0,0.2,0,0.4-0.1,0.7c0,0.1,0,0.2,0,0.3c0,0.2,0,0.4-0.1,0.6c0,0,0,0.1,0,0.1
		c0,0.4,0,0.7-0.1,1c0,0,0,0.1,0,0.1c0,0.5-0.1,1-0.2,1.4c-0.1,0.3-0.1,0.7-0.1,1c-0.1,0.4-0.1,0.7-0.2,1.1c-0.2,1-0.5,2-0.7,3.1
		c-0.1,0.2-0.1,0.4-0.2,0.6c-0.3,0.9-0.5,1.7-0.9,2.6c-0.2,0.7-0.5,1.3-0.8,1.9c-0.3,0.6-0.6,1.3-0.8,1.9c-0.2,0.4-0.4,0.8-0.6,1.2
		c-0.2,0.4-0.4,0.7-0.6,1.1c-0.2,0.3-0.3,0.6-0.4,0.8c-0.2,0.4-0.4,0.7-0.6,1.1c-0.2,0.4-0.5,0.8-0.7,1.2c-0.4,0.6-0.9,1.3-1.4,1.9
		c-0.2,0.3-0.4,0.5-0.6,0.8c-0.2,0.3-0.4,0.5-0.6,0.8c-0.3,0.3-0.6,0.7-0.8,1c0,0,0,0,0,0c-0.3,0.3-0.6,0.6-0.9,0.9
		c-0.6,0.7-1.3,1.4-2,2c-0.4,0.4-0.8,0.8-1.2,1.1c-0.3,0.3-0.7,0.5-1,0.8c-0.1,0.1-0.2,0.1-0.2,0.2c-0.4,0.3-0.9,0.7-1.3,1.1
		c-0.2,0.2-0.5,0.4-0.8,0.6c-0.5,0.4-1.1,0.8-1.6,1.1c-0.6,0.4-1.2,0.8-1.8,1.1c-0.1,0.1-0.2,0.1-0.4,0.1c0,0-0.1,0-0.1,0
		c-1-0.7-1.9-0.4-2.9,0.1c-0.2,0.1-0.4,0.3-0.7,0.4c-0.1,0-0.3-0.1-0.3-0.2c0-0.1,0.1-0.2,0.2-0.3c0.4-0.2,0.7-0.6,1.1-0.8
		c0.1-0.1,0.1-0.1,0.1-0.2c-0.1-0.1,0-0.2,0.1-0.3c0.3-0.1,0.4-0.4,0.5-0.6c0.2-0.4,0.5-0.7,0.9-1c0.3-0.2,0.5-0.4,0.8-0.5
		c0.1-0.1,0.2-0.1,0.2-0.2c-0.1-0.3,0.1-0.3,0.3-0.3c0.5-0.1,1-0.4,1.2-0.9c0-0.1,0.1-0.2,0.1-0.3c0.2-0.3,0.5-0.5,0.5-0.9
		c0-0.2,0.2-0.3,0.4-0.4c0.5-0.2,0.8-0.5,1.1-0.9c0.3-0.4,0.5-0.8,0.9-1c0,0,0.1-0.1,0.1-0.1c0.2-0.5,0.6-0.9,1-1.3
		c0.3-0.4,0.5-0.8,0.7-1.3c0.1-0.3,0.1-0.6,0.1-1c0,0,0,0,0-0.1c-0.3-0.3-0.1-0.6,0-0.9c0.1-0.4,0.1-0.8,0.1-1.2
		c0-0.6,0.2-1.1,0.3-1.6c0.1-0.2,0.1-0.5-0.1-0.7c-0.1-0.2-0.1-0.3,0-0.5c0.6-0.6,0.4-1.4,0.3-2.1c-0.1-0.6-0.6-1-1.2-1
		c-0.9,0-1.7,0.2-2.3,0.9c-0.6,0.7-1.4,1.1-2.3,1.2c-0.2,0-0.3,0.1-0.5,0c-0.1-0.1-0.2,0-0.3,0c-0.7,0.1-1.3,0.4-1.9,0.8
		c-0.6,0.4-1.2,0.8-1.8,1.1c-0.1,0.1-0.2,0.2-0.3,0c-0.1-0.1,0-0.2,0.1-0.3c0.1-0.2,0.3-0.4,0.3-0.6c0.1-0.1,0.2-0.2,0.3-0.3
		c1-0.8,1.8-1.7,2.4-2.8c0.3-0.6,0.7-1.2,1.1-1.7c0.2-0.3,0.5-0.5,0.7-0.7c-0.2,0-0.4,0.1-0.5-0.1c-0.1-0.2,0.1-0.3,0.2-0.5
		c0.3-0.5,0.6-1,0.6-1.7c0-0.4,0-0.4-0.4-0.3c0,0-0.1,0-0.1,0c-0.1,0.1-0.3,0.2-0.4,0c-0.1-0.1,0-0.3,0-0.4c0.2-0.5,0.5-1,0.8-1.4
		c0.3-0.4,0.6-0.8,0.9-1.3c-0.2,0-0.4,0.1-0.5,0.2c-1,1.2-2.2,2.3-3.4,3.2c-0.8,0.6-1.5,1.2-2.3,1.7c-0.6,0.4-0.9,0.9-1.2,1.5
		c-0.1,0.1,0,0.2,0.1,0.3c0.4,0.2,0.4,0.2,0.2,0.6c0,0,0,0,0,0.1c0,0.1-0.2,0.2,0,0.3c0.1,0.1,0.2,0,0.3-0.1
		c0.4-0.3,0.8-0.5,1.2-0.8c0.1,0,0.1-0.1,0.2-0.1c0.1-0.1,0.2-0.1,0.3-0.1c0.1,0.1,0,0.2,0,0.3c-0.4,1.1-0.9,2.3-1.5,3.3
		c-0.3,0.5-0.6,0.9-1,1.2c-0.2,0.2-0.3,0.5-0.5,0.6c-0.5,0.1-1,0.4-1.6,0.6c-0.3,0.1-0.6,0.2-0.9,0.3c-0.1,0-0.2,0.1-0.3,0
		c-0.1-0.1,0-0.2,0-0.3c0.2-0.4,0.4-0.7,0.7-1c0.2-0.3,0.5-0.5,0.7-0.8c0.3-0.3,0.6-0.7,0.8-1.1c0.2-0.3,0.2-0.7,0.1-1.1
		c0-0.2-0.1-0.3-0.4-0.3c-0.3,0-0.6,0.1-0.9,0.3c-0.1,0-0.2,0.1-0.3,0.1c-0.1-0.1-0.1-0.2-0.1-0.3c0-0.4,0.1-0.7,0.2-1
		c0.1-0.3,0.2-0.5,0.3-0.8c0.1-0.2,0-0.3-0.2-0.3c0,0-0.1,0-0.1,0c-0.1,0-0.3,0.1-0.4,0c-0.1-0.2,0-0.3,0.1-0.4
		c0.5-0.7,1.1-1.4,1.8-1.9c-0.4,0.1-0.9,0.3-1.3,0.5c-0.6,0.3-1.2,0.5-1.8,0.8c-0.1,0-0.1,0.1-0.2,0.1c-0.1,0-0.2,0.1-0.2,0
		c-0.1-0.1,0-0.2,0-0.3c0.1-0.1,0.1-0.2,0.2-0.3c1.2-1.8,2.3-3.7,3.4-5.5c0.6-1,0.9-2.1,1.4-3.1c0.2-0.5,0.5-0.9,0.7-1.4
		c0.5-1.1,1-2.3,1.3-3.5c0.1-0.2,0.1-0.4,0.2-0.5c0.5-0.7,0.4-1.5,0.4-2.2c0.1-0.5,0-1,0-1.5c0,0.1,0,0.2,0,0.3c0,0.1,0,0.2-0.2,0.2
		c-0.1,0-0.1-0.1-0.2-0.2c-0.1-0.2-0.2-0.5-0.2-0.7c-0.3-1.2-0.5-2.4-0.6-3.7c0-0.4,0-0.8-0.1-1.2c0-0.6-0.4-1.1-0.7-1.5
		c-0.1-0.2-0.3-0.4-0.5-0.6c-0.4-0.8-0.6-1.7-1-2.5c-0.7-1.7-1.8-3.1-3.4-3.9c-0.3-0.2-0.6-0.3-1-0.4c-0.3-0.1-0.5,0-0.6,0.3
		c-0.2,0.3-0.3,0.3-0.4,0c-0.3-0.6-0.6-1.3-1-1.9c-0.2-0.3-0.2-0.3-0.6-0.2c-0.5,0.3-1,0.4-1.5,0.8c-0.3,0.2-0.5,0.6-0.6,0.9
		c-0.1,0.2,0,0.3,0.2,0.2c0.1,0,0.2-0.1,0.3-0.1c0.4-0.1,0.9,0.1,1.1,0.4c0.2,0.2,0.1,0.7-0.2,0.9c-0.4,0.3-0.5,0.7-0.6,1.2
		c0,0.5-0.4,0.8-0.7,1.2c-0.4,0.5-0.9,1.1-1.3,1.6c-0.2,0.3-0.4,0.3-0.6-0.1c-0.1-0.2-0.2-0.4-0.2-0.6c-0.1-0.2-0.1-0.2-0.2,0
		c-0.2,0.3-0.4,0.6-0.3,1c0.1,0.7-0.3,1.2-1.1,1.2c-0.2,0-0.5,0.1-0.7-0.1c0-0.2,0.1-0.4,0.2-0.5c0.3-0.5,0.2-0.7-0.2-1.1
		c-0.9-0.7-1.9-1.3-3-1.7c-0.5-0.2-1-0.3-1.6-0.3c-0.1,0-0.2,0-0.3-0.1c-0.1-0.3,0.1-0.4,0.3-0.6c0.2-0.2,0.4-0.3,0.7-0.5
		c0.1-0.1,0.2-0.2,0.3-0.4c0-0.2,0.1-0.3,0.3-0.4c0,0,0.1-0.1,0.1-0.2c0-0.1-0.1-0.1-0.2-0.1c-0.1,0-0.3,0-0.4,0.1
		c-0.2,0.1-0.3,0.1-0.5,0.1c-0.1,0-0.2,0-0.2-0.1c0-0.1,0-0.2,0.1-0.2c0.1-0.1,0.2-0.2,0.2-0.3c0-0.1,0.1-0.2,0.2-0.3
		c0.2-0.1,0.4-0.2,0.5-0.3c0.2-0.1,0.4-0.3,0.5-0.6c0-0.2,0.2-0.3,0.3-0.4c0.2-0.1,0.4-0.1,0.6-0.2c0.2,0,0.4,0,0.5,0.2
		c0.1,0.1,0.1,0.2,0.3,0.1c0.4-0.3,0.7-0.6,1-1.1c0.1-0.2,0.1-0.3-0.1-0.4c-0.6-0.5-1.1-1.1-1.7-1.6c-0.2-0.1-0.3-0.2-0.5-0.3
		c-0.2-0.1-0.5-0.1-0.6-0.3c0-0.1-0.2-0.1-0.3-0.1c-0.6,0-1.1,0-1.7,0.1c-0.3,0-0.5,0-0.7-0.2c-0.1-0.1-0.2-0.1-0.4,0
		c-0.1,0.1-0.2,0.2-0.3,0.3c-0.3,0.4-0.5,0.8-0.9,1c-0.1,0-0.1,0.2-0.2,0.3c-0.1,0.4-0.3,0.7-0.6,1c-0.3,0.3-0.5,0.7-0.7,1.1
		c-0.1,0.3-0.2,0.6-0.4,0.9c0,0-0.1,0.1-0.1,0.1c0.1,0.4-0.2,0.6-0.3,0.8c-0.3,0.7-0.8,1.1-1.5,1.5c-0.8,0.4-1.3,1-1.9,1.6
		c-0.2,0.3-0.5,0.6-0.7,0.9c-0.1,0.1-0.2,0.2-0.3,0.2c-0.1,0.1-0.2,0-0.2-0.1c0-0.1,0-0.1,0-0.2c0.3-0.6,0.3-1.3,0.3-1.9
		c0-0.3,0.1-0.7,0.2-1c0-0.1,0.1-0.2,0.1-0.3c0-0.1,0-0.2-0.1-0.3c-0.1-0.1-0.2,0.1-0.3,0.1c-0.2,0.2-0.4,0.4-0.7,0.5
		c-0.2,0.1-0.4,0.2-0.7,0.2c-0.3-0.1-0.6,0.1-0.9,0.4c-0.4,0.5-0.8,0.9-1.2,1.3c0,0-0.1,0.1-0.1,0.1c-0.1,0.1-0.2,0.2-0.4,0.1
		c-0.1-0.1,0-0.2,0-0.4c0.1-0.4,0.2-0.7,0.4-1c0.2-0.3,0.3-0.7,0.5-1.1c0,0,0,0,0.1-0.1c0,0,0.1-0.1,0.1-0.1
		c0.5-0.7,1.1-1.2,1.7-1.8c0.6-0.6,1-1.3,1-2.2c0-0.2,0.1-0.4,0.3-0.3c0.4,0.2,0.7,0.6,0.9,1.1c0.1-0.9,0.5-1.7,0.8-2.4
		c0.2-0.5,0.4-1,0.6-1.5c0.3-1,0.3-2.1,0-3.1c-0.2-0.7-0.7-1.2-1.5-1.3c-0.5-0.1-0.9-0.1-1.4,0c-0.8,0.1-1.4,0.6-2,1.1
		c-0.8,0.6-1.5,1.3-2.3,1.9c-0.3,0.2-0.6,0.4-1,0.6c-0.1,0.1-0.2,0.1-0.3,0c-0.1-0.1,0-0.2,0.1-0.3c0.5-0.4,0.8-0.9,1.1-1.5
		c0.1-0.1,0.1-0.2,0.2-0.3c1-1.2,1.5-2.7,1.9-4.2c0.4-1.5,0.6-2.9,0.5-4.4c0-0.5-0.1-0.9-0.4-1.3c-0.4-0.7-0.9-1.3-1.4-1.9
		c-0.1,0-0.1,0.1-0.1,0.2c-0.2,0.6-0.2,1.3-0.3,1.9c-0.1,1.4-0.1,2.7-0.2,4.1c-0.1,1.2-0.3,2.4-0.5,3.6c-0.1,0.3-0.1,0.7-0.2,1
		c-0.4,1.6-1.3,2.7-2.9,3.4c-0.6,0.3-1.2,0.5-1.9,0.5c-1.4,0.2-2.4,0.8-3.3,1.9c-1.2,1.4-2.1,2.9-2.8,4.6c-0.5,1.4-0.9,2.9-1.2,4.4
		c-0.2,1-0.5,2.1-0.6,3.1c0,0.2-0.1,0.3,0,0.5c0,0.3-0.1,0.5-0.3,0.7c-0.5,1-0.8,2-1,3.1c0,0.1,0,0.3-0.1,0.4
		c-0.5,0.1-1-0.1-1.5-0.2c-1.4-0.2-2.7-0.4-4.1-0.5c-0.5-0.1-1-0.1-1.5-0.2c-0.2-0.1-0.5,0-0.7-0.1c0,0,0,0,0,0c0.1,0,0.2,0,0.4,0
		c1,0.1,2,0.2,3,0.4c1.4,0.2,2.7,0.4,4.1,0.6c0.1,0,0.2,0,0.3,0.1c0.1,0.1,0,0.2,0,0.3c-0.1,0.6-0.2,1.3-0.3,1.9
		c0,0.2-0.1,0.3-0.3,0.3c-1.4,0.3-2.8,0.8-4.1,1.2c0,0,0,0-0.1,0c0,0,0,0,0,0c0,0,0.1,0,0.1,0c1.3-0.4,2.6-0.8,3.8-1.1
		c0.4-0.1,0.4,0,0.5,0.3c0,0.3,0,0.5,0,0.8c0,0,0,0.1,0.1,0.1c0,0,0,0,0.1,0c0,0,0.1,0,0.1,0c0,0,0,0,0.1,0c0,0,0.1,0,0.1-0.1
		c0,0,0,0,0.1,0c0.1,0,0.1,0,0.1,0.1c0,0,0,0,0,0.1c0,0-0.1,0-0.1,0.1c0,0,0,0-0.1,0c0,0-0.1,0-0.1,0c0,0,0,0-0.1,0c0,0-0.1,0-0.1,0
		c0,0,0,0-0.1,0c0,0-0.1,0.1-0.1,0.1c-0.1,0.3-0.1,0.6-0.1,0.9c0,0.1,0.1,0.2,0,0.4c0,0.1-0.1,0.2-0.2,0.3c-1.4,0.8-2.7,1.6-3.6,2.1
		c0.7-0.4,1.8-1,2.9-1.6c0.2-0.1,0.4-0.2,0.6-0.3c0.1-0.1,0.2-0.1,0.3,0c0.1,0.4,0.1,0.8,0.1,1.1c0.2,2.9,0.9,5.7,2.2,8.4
		c0.2,0.4,0.4,0.8,0.6,1.2c0.1,0.3,0.2,0.5,0.2,0.8c-0.1,1.1-0.2,2.2-0.6,3.2c-0.1,0.3-0.3,0.6-0.5,0.8c-0.4,0.6-0.4,0.5,0,1
		c0.3,0.4,0.5,0.8,0.4,1.3c0,0.3-0.1,0.6-0.3,0.9c-0.2,0.3-0.3,0.7-0.5,1.1c-0.2,0.5-0.2,1-0.1,1.5c0.1,0.5,0.1,0.9,0,1.4
		c-0.1,0.6-0.3,1.2-0.3,1.8c0,0.6-0.3,1.1-0.5,1.6c-0.3,0.8-0.7,1.5-1,2.3C370.1,80,370,80.1,369.9,80.1z"/>
	<path class="st7" d="M370.3,51c0-0.3-0.1-0.6-0.1-0.9c0-0.1,0-0.1,0-0.2c0-0.2,0.1-0.3,0.2-0.3c0,0,0.1,0,0.1-0.1c0,0,0,0,0.1,0
		c0,0,0,0,0.1-0.1c0,0,0,0,0.1,0c0,0,0,0,0.1-0.1c0,0,0,0,0.1,0c0,0,0,0,0.1-0.1c0,0,0,0,0.1,0c0.2-0.2,0.5-0.3,0.7-0.4
		c-0.3,0.1-0.5,0.3-0.9,0.3c0,0,0,0-0.1,0c0,0-0.1,0-0.1,0.1h0c0,0-0.1,0-0.1,0.1c0,0,0,0-0.1,0c-0.1,0-0.1,0-0.2,0
		c0-0.3,0-0.6,0-0.9c0-0.1,0-0.1,0-0.2c0-0.1-0.1-0.1-0.1-0.1c-0.1,0-0.1,0-0.2,0c-0.7,0.2-1.5,0.4-2.2,0.6
		c-0.5,0.2-1.1,0.3-1.6,0.5c-0.1,0-0.1,0-0.2,0l0,0c0.1-0.1,0.2-0.1,0.2-0.1c0.9-0.3,1.9-0.6,2.8-0.8c0.4-0.1,0.8-0.2,1.1-0.3
		c0.1,0,0.2-0.1,0.2-0.2c0-0.3,0.1-0.6,0.1-0.9c0.1-0.3,0.1-0.7,0.1-1c0-0.1,0-0.2,0.1-0.3c0.2-0.1,0.5,0,0.7,0
		c0.6,0.1,1.2,0.1,1.6,0.2c-0.5-0.1-1.2-0.2-1.9-0.3c-0.1,0-0.2-0.1-0.3-0.2c0-0.2,0-0.4,0.1-0.6c0.2-0.6,0.3-1.1,0.5-1.7
		c0.1-0.4,0.3-0.7,0.4-1c0.1-0.3,0.2-0.5,0.3-0.8c0,0,0,0,0,0c0,0,0-0.1,0-0.1c0.3-0.8,0.6-1.6,1-2.4c0.3-0.5,0.4-1.1,0.5-1.7
		c0.2-1.4,0.7-2.6,1.3-3.9c0.5-1.1,1.1-2.2,1.9-3.2c0.4-0.5,0.8-0.9,1.2-1.3c0.1-0.1,0.2-0.2,0.3-0.2c0.3,0.1,0.4,0.2,0.1,0.5
		c-0.8,0.9-1,2-1,3.1c0,0.2,0.1,0.4,0.1,0.6c0,0.2,0.1,0.2,0.2,0.2c0.2-0.1,0.4-0.1,0.6,0c0.1,0.1,0.2,0,0.3,0
		c0.1,0,0.1-0.1,0.2-0.1c0.1-0.1,0.2-0.2,0.4-0.1c0.2,0.1,0.1,0.3,0.1,0.4c0,0.4,0,0.8,0.1,1.2c0.1,0.4,0.2,0.7,0.3,1
		c0.1,0.2,0.2,0.5,0.4,0.6c0.1,0.1,0.1,0.2,0.2,0.3c0.1,0.6,0.2,1.2,0.6,1.7c0,0,0,0.1,0,0.1c-0.1,0.3-0.3,0.3-0.5,0.2
		c-0.2-0.1-0.3-0.2-0.5-0.1c-0.3,0.1-0.7,0.2-0.9,0.5c0,0,0,0,0,0.1c-0.2,0.3-0.6,0.5-0.4,1c0.1,0.3,0.1,0.7,0.4,1
		c0.2,0.2,0.1,0.3-0.2,0.4c-0.3,0.1-0.5,0.2-0.7,0.5c-0.2,0.3-0.4,0.2-0.5-0.1c-0.1-0.2-0.1-0.5-0.2-0.7c0-0.2-0.1-0.3-0.3-0.1
		c-0.2,0.2-0.4,0.4-0.6,0.6c-0.7,0.8-1,1.7-1.4,2.6c-0.1,0.2,0,0.4-0.1,0.6c0,0.2-0.3,0.2-0.5,0.3c-0.2,0.4-0.4,0.8-0.5,1.2
		c-0.1,0.7-0.2,1.3-0.3,2c-0.1,0.5-0.1,1,0.1,1.5c0,0.1,0,0.2,0.1,0.2c0.3,0,0.4,0.3,0.5,0.6c0-0.1,0-0.2,0-0.2
		c0.2-1.3,0.2-2.6,0.5-3.9c0.2-0.6,0.3-1.3,0.8-1.8c0.6-0.6,1.2-1.3,2.1-1.5c0.2,0,0.3-0.2,0.5-0.2c0.4,0,0.7,0.2,1.1,0.4
		c0.1,0.1,0.2,0.1,0.2,0.3c-0.1,0.1-0.3,0.1-0.4,0.1c-0.8,0.2-1.4,0.4-2,1c-0.2,0.2-0.3,0.5-0.5,0.8c-0.3,0.8-0.3,1.7-0.5,2.6
		c-0.1,0.5-0.3,1.1-0.4,1.6c-0.2,0.8-0.3,1.5-0.3,2.3c0,0.5,0.1,0.9,0.4,1.4c0.3,0.4,0.6,0.8,0.8,1.3c0.2,0.4,0.4,0.8,0.4,1.3
		c0,0.4,0.1,0.8,0.2,1.2c0,0.2,0,0.3,0.1,0.5c0.3,0.6,0.8,1.2,1,1.9c0.2,0.6,0.6,1,0.9,1.5c0.2,0.4,0.5,0.8,0.7,1.2
		c0.1,0.2,0.2,0.4,0.4,0.5c0.4,0.2,0.8,0.5,1.2,0.7c0.3,0.2,0.3,0.3,0,0.5c-0.1,0.1-0.2,0.1-0.1,0.2c0,0.1,0.1,0.1,0.2,0.1
		c0.2,0,0.4,0,0.6-0.1c0.5,0,0.7,0.1,0.9,0.5c0.2,0.4,0.5,0.8,0.7,1.2c0.6,0.8,1.3,1,2.2,0.7c0.7-0.2,1.4-0.5,2-0.8
		c0.3-0.2,0.6-0.5,0.8-0.7c0.1-0.1,0.1-0.1,0.1-0.2c0-0.2,0.1-0.3,0.2-0.3c0.1,0,0.2-0.1,0.1-0.2c-0.1-0.2,0-0.3,0.1-0.4
		c0.3-0.1,0.5-0.2,0.8-0.2c0.2,0,0.4,0.1,0.5,0.3c0.2,0.4,0.4,0.8,0.6,1.2c0.5,1,1,1.9,1.4,2.9c-0.2-1-0.5-1.9-1-2.8
		c-0.2-0.4-0.5-0.8-0.8-1.2c-0.2-0.3-0.2-0.5,0.2-0.6c0.3-0.1,0.6-0.1,0.9-0.3c-0.4-0.1-0.6-0.1-0.9-0.1c-0.2,0-0.3,0-0.5,0
		c-0.1,0-0.3,0-0.3-0.2c0-0.2,0.1-0.2,0.3-0.2c0.2-0.1,0.4-0.1,0.6-0.1c0.3,0,0.6,0,0.9,0c0.3,0,0.5-0.1,0.7-0.2
		c0-0.1,0-0.1-0.1-0.1c-0.2-0.1-0.4-0.1-0.4-0.4c0-0.3,0.1-0.5,0.4-0.7c0.3-0.2,0.7-0.2,1-0.1c0.6,0.1,1.2,0,1.7-0.3
		c0.8-0.4,1.5-0.7,2.2-1.2c0.1,0,0.1-0.1,0.2-0.1c0.4-0.3,0.4-0.4-0.1-0.6c-0.2-0.1-0.3-0.2-0.2-0.4c0.2-0.3,0.1-0.7-0.1-1
		c-0.3-0.4-0.6-0.7-1.1-1c-0.4-0.2-0.7-0.5-1-0.8c-0.2-0.2-0.5-0.4-0.8-0.5c-0.1,0-0.2-0.1-0.2-0.1c0-0.1,0.1-0.2,0.2-0.2
		c0.2-0.1,0.4-0.2,0.6-0.3c0.3-0.1,0.3-0.2,0.1-0.4c-0.3-0.2-0.5-0.5-0.6-0.9c-0.3-0.6-0.3-1.2-0.1-1.8c0-0.1,0.1-0.2,0-0.3
		c-0.1-0.2,0-0.4,0.1-0.6c0.1-0.1,0.1-0.2,0-0.3c-0.1-0.1-0.2-0.2-0.1-0.3c0.1-0.1,0.2-0.2,0.3-0.1c0.5,0.1,1,0,1.5,0.1
		c1.4,0.1,2.7,0.4,4,0.7c0.2,0.1,0.5,0.2,0.7,0.2c-0.1-0.1-0.3-0.1-0.5-0.2c-1.5-0.4-3-0.7-4.6-0.8c-0.5,0-0.9,0-1.4,0
		c-0.2,0-0.3,0-0.3-0.3c0-0.6,0.1-1.1,0.5-1.5c0.1-0.1,0.1-0.3,0.1-0.5c0-0.7,0.5-1.1,1-1.5c0.2-0.2,0.4-0.3,0.6-0.4
		c0.4-0.2,0.9-0.3,1.4-0.1c0.9,0.3,1.7,0.3,2.6-0.1c0.5-0.2,0.9-0.4,1.4-0.6c0.6-0.3,1.2-0.6,1.8-0.8c1-0.3,1.6-0.9,2.2-1.7
		c0.4-0.6,0.7-1.2,1.2-1.6c0.1,0,0.1-0.1,0-0.2c-0.1-0.1-0.1-0.2,0-0.3c0.5-0.5,1.1-0.7,1.8-0.6c0.4,0.1,0.8,0.1,1.2,0.1
		c0.5,0,0.9,0,1.4,0.1c0.3,0.1,0.6,0.1,1,0.1c1.1,0,2.2,0.2,3.2,0.1c0.7,0,1.3-0.1,2-0.1c0.1,0,0.3,0,0.4,0.1
		c0.2,0.4,0.5,0.7,0.7,1.1c0.1,0.2,0.2,0.4,0.3,0.6c0.1,0.3,0.2,0.5,0.2,0.8c0,0.3,0,0.5,0.1,0.8c0,0,0,0.1,0,0.2
		c0,0.4,0.1,0.8,0.1,1.2c0.1,0.5,0.2,1,0.3,1.6c0.1,0.4,0.2,0.7,0.3,1.1c0.1,0.2,0.1,0.4,0.2,0.6c0,0,0,0,0,0c0,0,0.1,0,0.1,0
		c0-0.2,0.1-0.4,0.2-0.5c0.1,0,0,0.1,0,0.1c0,0.6,0,1.1,0,1.7c0,0.3,0,0.6-0.1,0.8c0,0.1,0,0.2,0,0.3c0,0.1,0,0.2,0,0.4
		c0,0,0,0.1,0,0.1c-0.3,0.3-0.4,0.8-0.5,1.2c-0.2,0.6-0.4,1.1-0.6,1.7c-0.1,0.2-0.1,0.4-0.3,0.6c-0.1,0.1-0.1,0.2-0.2,0.4
		c-0.2,0.6-0.5,1.1-0.7,1.6c-0.1,0.3-0.3,0.5-0.3,0.8c0,0.1-0.1,0.2-0.2,0.4c-0.1,0.2-0.2,0.5-0.3,0.7c-0.1,0.4-0.3,0.8-0.5,1.2
		c-0.1,0.1-0.1,0.2-0.2,0.3c-0.2,0.2-0.2,0.4-0.4,0.5c-0.3,0.5-0.5,0.9-0.8,1.4c-0.3,0.5-0.6,0.9-0.8,1.4c-0.4,0.6-0.8,1.2-1.2,1.9
		c-0.2,0.3-0.4,0.6-0.6,1c0,0.1-0.1,0.1-0.1,0.2c0,0,0,0.1,0,0.1c0,0,0.1,0,0.1-0.1c0.2-0.1,0.4-0.2,0.6-0.3c0.8-0.4,1.5-0.7,2.3-1
		c0.1-0.1,0.3-0.1,0.4-0.1c0,0,0,0,0.1,0c0,0,0,0.1,0,0.1c-0.4,0.3-0.7,0.6-1,0.9c-0.4,0.4-0.7,0.8-1,1.2c0,0-0.1,0.1-0.1,0.1
		c0,0,0,0.1,0.1,0.1c0.1,0,0.2-0.1,0.4-0.1c0.1,0,0.2,0,0.3,0c0.1,0,0.1,0.1,0.1,0.1c0,0.1,0,0.1-0.1,0.2c-0.2,0.4-0.3,0.9-0.4,1.4
		c0,0.1-0.1,0.3-0.1,0.5c0,0.1,0,0.2,0,0.2c0,0,0.1,0,0.1,0c0.3-0.2,0.6-0.3,0.9-0.4c0.1,0,0.2,0,0.4-0.1c0.1,0,0.1,0,0.2,0.1
		c0,0.1,0,0.1,0.1,0.2c0,0.3,0.1,0.6,0,0.8c-0.2,0.6-0.5,1.2-1,1.6c-0.7,0.5-1.3,0.9-2,1.4c-0.6,0.4-1.3,0.4-1.9,0.1
		c-0.3-0.1-0.5-0.3-0.8-0.5c-0.5-0.4-1.1-0.4-1.6-0.1c-0.2,0.1-0.3,0.2-0.5,0.3c-0.3,0.2-0.5,0.1-0.5-0.3c0-0.3-0.1-0.5-0.2-0.8
		c-0.1-0.4-0.3-0.5-0.7-0.4c-0.7,0.2-1.4,0.4-2.1,0.6c-0.3,0.1-0.6,0.2-0.9,0.2c-0.2,0-0.4,0-0.3-0.3c0-0.1,0.1-0.1,0.2-0.1
		c1.2-0.6,2.1-1.5,3.2-2.3c0.6-0.5,1.2-1,1.9-1.4c-0.2,0-0.4,0-0.5,0c-0.1,0-0.2,0-0.3-0.1c0-0.1,0.1-0.2,0.1-0.2
		c0.3-0.2,0.5-0.5,0.7-0.8c0-0.1,0.1-0.2,0.1-0.3c-0.1-0.1-0.2,0-0.3,0.1c-0.5,0.2-0.9,0.5-1.3,0.8c-1.2,0.8-2.4,1.3-3.7,1.9
		c-1.2,0.6-2.4,1.1-3.7,1.5c-1.4,0.5-2.9,0.7-4.3,0.8c-1.3,0.1-2.5,0.4-3.7,0.6c-1.3,0.2-2.6,0.5-3.9,0.5c-0.9,0-1.8-0.2-2.7-0.4
		c-1.4-0.3-2.7-0.7-4-1.2c-0.2-0.1-0.3-0.1-0.4-0.3c-0.3-0.4-0.5-0.9-0.7-1.3c-0.3-0.5-0.7-0.9-1.1-1.2c-0.8-0.7-1.7-1.3-2.6-1.9
		c-0.1-0.1-0.3-0.2-0.5-0.3c0,0.2,0.1,0.4,0.1,0.6c0,0.1,0,0.1-0.1,0.2c-0.1,0-0.1,0-0.2-0.1c-0.1-0.1-0.1-0.1-0.1-0.2
		c-0.2-0.3-0.4-0.5-0.6-0.7c-0.3-0.2-0.6-0.5-0.7-0.9c0-0.1-0.1-0.2-0.1-0.2c0-0.1-0.1-0.1-0.2-0.1c-0.1,0-0.2,0.1-0.2,0.2
		c0,0.1,0,0.1,0,0.2c0.2,0.6,0.4,1.3,0.7,1.8c0.3,0.5,0.5,1,0.7,1.5c0.5,1.1,1,2.1,1.8,3c0.4,0.5,0.9,0.8,1.5,1
		c1.4,0.5,2.7,1.4,3.6,2.6c0.3,0.4,0.7,0.7,1,1.1c0.1,0.1,0.2,0.2,0.2,0.3c-0.1,0.1-0.2,0.2-0.1,0.4c0.1,0.1,0.1,0.3,0,0.4
		c-0.2,0.3-0.4,0.6-0.2,1c0.1,0.2,0.1,0.5,0.2,0.8c0,0.1,0,0.1,0,0.2c-0.3,0.2-0.1,0.3-0.1,0.5c0.1,0.2,0.1,0.4,0,0.6
		c-0.1,0.3,0,0.5,0.2,0.6c0.2,0.2,0.3,0.4,0.1,0.6c-0.1,0.1,0,0.2,0.1,0.3c0.2,0.3,0.3,0.6,0.4,0.9c0.2,0.7-0.1,1.3-0.8,1.6
		c-0.5,0.1-0.9,0.4-1.3,0.7c0,0,0,0-0.1,0c0,0-0.1,0-0.1,0.1c-0.1,0.1-0.2,0.2-0.2,0.3c-0.1,0.1-0.2,0.2-0.3,0.3
		c-0.1,0.1-0.2,0.2-0.4,0c-0.1-0.1-0.2-0.1-0.3,0.1c-0.1,0.1-0.2,0.3-0.2,0.4c-0.1,0.1-0.1,0.3-0.2,0.4c-0.2,0.3-0.4,0.5-0.3,0.9
		c0,0.1-0.1,0.3-0.2,0.3c-0.2,0.1-0.4,0.2-0.7,0.2c-0.6-0.3-1.1-0.7-1.7-1c-0.7-0.5-1.5-1-2.2-1.5c-0.4-0.3-0.9-0.7-1.3-1
		c-0.3-0.2-0.6-0.5-0.9-0.7c-0.2-0.2-0.4-0.3-0.6-0.5c-0.6-0.5-1.2-1.1-1.8-1.7c-0.2-0.2-0.5-0.5-0.7-0.7c0,0-0.1-0.1-0.1-0.1
		c0.1-0.2,0.2-0.5,0.2-0.7c0.3-0.8,0.6-1.5,1-2.3c0.1-0.2,0.2-0.4,0.2-0.5c0.1-0.3,0.2-0.5,0.2-0.8c0-0.3,0.1-0.5,0.1-0.7
		c0.1-0.5,0.2-0.9,0.3-1.4c0-0.2,0-0.5,0-0.7c-0.1-0.4-0.1-0.7-0.1-1.1c0-0.3,0.1-0.6,0.2-0.9c0.1-0.3,0.2-0.5,0.3-0.8
		c0.1-0.1,0.1-0.3,0.2-0.5c0.2-0.5,0.1-0.9-0.1-1.4c-0.1-0.2-0.2-0.3-0.4-0.5c-0.1-0.1-0.1-0.2-0.2-0.2c-0.1-0.1,0-0.1,0-0.2
		c0.1-0.1,0.2-0.3,0.3-0.4c0.4-0.6,0.7-1.2,0.8-1.9c0.1-0.5,0.2-1,0.2-1.5c0-0.2,0.1-0.5,0.1-0.7c0-0.2-0.1-0.4-0.2-0.6
		c-0.3-0.6-0.6-1.2-0.9-1.8c-0.3-0.7-0.6-1.4-0.8-2.1c-0.2-0.7-0.5-1.4-0.6-2.2c-0.1-0.5-0.2-0.9-0.3-1.4c0-0.2-0.1-0.5-0.1-0.7
		c0-0.1,0-0.3-0.1-0.4c0-0.2-0.1-0.5-0.1-0.7c0,0,0-0.1,0-0.1c0-0.5-0.1-1-0.1-1.5c0-0.2,0.2-0.3,0.3-0.4c0.9-0.5,1.8-1,2.8-1.5
		c-0.5,0.3-1.1,0.6-1.7,0.9c-0.4,0.2-0.7,0.4-1.1,0.6C370.5,51,370.4,51.1,370.3,51z"/>
	<path class="st1" d="M382.1,84.5c0.1-0.1,0.2-0.2,0.3-0.3c0.3-0.1,0.5-0.3,0.8-0.4c0.1-0.1,0.2-0.1,0.3-0.1c0.3,0.5,0.3,0.5-0.1,1
		c-0.2,0.3-0.5,0.6-0.7,0.9c-0.1,0.1-0.2,0.2-0.1,0.3c0.1,0.1,0.2,0,0.3,0c0.5-0.1,0.9-0.4,1.3-0.6c0.1-0.1,0.2-0.2,0.3-0.1
		c0.1,0.1,0.1,0.2,0.1,0.4c0,0.1,0,0.2,0,0.4c0,0.1,0,0.2,0.1,0.2c0.1,0,0.1-0.1,0.2-0.1c0.6-0.7,1.1-1.5,1.3-2.4
		c0.1-0.5,0.5-0.9,0.9-1.1c0.3-0.2,0.7-0.1,1,0.1c0.3,0.2,0.3,0.2,0.5-0.1c0.2-0.3,0.3-0.7,0.4-1c0.1-0.4,0.2-0.4,0.5-0.2
		c0.1,0,0.2,0.1,0.3,0.1c0.1,0.1,0.2,0,0.3-0.1c0.3-0.4,0.6-0.7,0.8-1c0.2-0.3,0.4-0.7,0.3-1.1c-0.1-0.3,0-0.4,0.3-0.4
		c0.5,0,1-0.2,1.4-0.3c0.2,0,0.2-0.1,0.2-0.3c-0.1-0.2-0.1-0.4-0.2-0.7c-0.1-0.2,0-0.3,0.2-0.5c0.4-0.3,0.8-0.6,1.2-0.9
		c0.3-0.2,0.3-0.3,0.1-0.5c-0.2-0.4-0.2-0.5,0.3-0.7c0.2-0.1,0.5-0.2,0.7-0.2c0.3,0,0.6,0,0.8-0.2c0,0,0.1,0,0.1,0
		c0.5,0,1-0.3,1.5-0.4c0.3-0.1,0.7-0.2,1.1-0.3c0.5-0.1,1-0.3,1.4-0.4c0.1,0,0.1-0.1,0.2-0.1c0.9-0.9,1.9-1.5,3-2
		c0.1,0,0.2-0.1,0.3,0c0,0.2,0.1,0.3,0.3,0.2c0.3-0.1,0.6-0.1,0.9-0.2c0.7-0.2,1.4-0.5,2.1-0.6c0.1,0,0.2,0,0.3,0
		c0.2,0,0.4,0.1,0.5,0.3c0,0.1,0.1,0.2,0.1,0.3c0.1,0.3,0.1,0.5,0.1,0.8c0,0,0,0.1,0,0.1c0.1,0.1,0.1,0.2,0.2,0.1
		c0.2-0.1,0.4-0.2,0.6-0.3c0.2-0.1,0.3-0.1,0.5-0.2c0.3-0.1,0.7-0.1,1,0.1c0.3,0.1,0.5,0.3,0.7,0.4c0.2,0.1,0.4,0.2,0.6,0.3
		c0.4,0.2,0.8,0.2,1.2,0.1c0.3-0.1,0.6-0.3,0.9-0.5c0.4-0.3,0.9-0.6,1.3-0.9c0.1-0.1,0.2-0.1,0.4-0.2c-0.1,0.1-0.1,0.2-0.2,0.3
		c-0.1,0.1-0.2,0.2-0.3,0.3c-0.3,0.3-0.5,0.6-0.8,0.9c-0.1,0.1-0.1,0.3-0.2,0.4c0,0,0,0.1,0.1,0.1c0,0,0.1,0,0.1,0
		c0.5-0.2,1-0.4,1.5-0.6c0.3-0.1,0.6-0.2,0.9-0.3c0.1,0,0.1,0,0.1,0c0.1,0.1,0,0.2,0.1,0.3c0.1,0,0.2-0.1,0.3-0.1
		c0.6-0.4,1.2-0.8,1.9-1.3c0.1-0.1,0.2-0.2,0.4-0.1c0,0,0.1,0.1,0,0.1c-0.1,0.2-0.2,0.3-0.3,0.5c0,0.1-0.1,0.1-0.1,0.2
		c0,0,0,0.1,0,0.1c0,0,0,0,0.1,0c0.3-0.1,0.6-0.3,0.9-0.5c0.5-0.3,1-0.7,1.6-1c0.5-0.3,1-0.4,1.5-0.5c0.1,0,0.1,0,0.2,0
		c0.1,0,0.2,0,0.2,0.1c0,0,0.1,0.1,0.1,0.1c0.4-0.1,0.8-0.1,1.2-0.3c0.2-0.1,0.3-0.2,0.5-0.2c0.2-0.1,0.3-0.2,0.4-0.3
		c0.2-0.2,0.3-0.3,0.5-0.5c0.3-0.4,0.7-0.6,1.2-0.7c0.4-0.1,0.7-0.2,1.1-0.2c0.6,0,1.1,0.3,1.3,0.9c0,0.1,0.1,0.3,0.1,0.5
		c0,0.3,0,0.6,0,0.9c0,0.1,0,0.2,0,0.3c0,0.1-0.1,0.3-0.2,0.4c-0.1,0.1-0.1,0.1-0.2,0.2c-0.1,0.2-0.1,0.2,0,0.4c0,0,0.1,0.1,0.1,0.1
		c0.1,0.1,0.1,0.2,0.1,0.3c-0.1,0.3-0.1,0.5-0.2,0.8c-0.1,0.3-0.1,0.6-0.1,0.9c0,0.1,0,0.1,0,0.2c0,0.1,0,0.2,0,0.4
		c0,0.4-0.1,0.7-0.2,1.1c0,0,0,0.1,0,0.1c0,0.1,0,0.1,0.1,0.2c0.1,0.1,0.2,0.2,0.2,0.3c0,0.2,0,0.5,0,0.7c0,0.2-0.1,0.4-0.2,0.6
		c-0.2,0.4-0.4,0.8-0.7,1.1c-0.2,0.2-0.4,0.5-0.6,0.7c-0.1,0.2-0.2,0.3-0.3,0.5c0,0.1,0,0.1-0.1,0.1c-0.1,0-0.1,0-0.1,0.1
		c-0.1,0.1-0.2,0.2-0.3,0.3c-0.2,0.2-0.3,0.5-0.5,0.7c-0.3,0.4-0.6,0.7-1.1,0.9c-0.2,0.1-0.4,0.3-0.4,0.5c0,0.2-0.1,0.2-0.2,0.3
		c-0.2,0.1-0.3,0.3-0.4,0.5c0,0,0,0-0.1,0.1c-0.1-0.1-0.3,0-0.4,0c-0.3,0.1-0.7,0.2-1,0.3c-0.1,0-0.2,0.1-0.3,0
		c-0.1-0.1,0-0.2,0.1-0.3c0.9-0.7,1.2-1.7,1.6-2.6c0.3-0.7,0.6-1.4,0.9-2.1c0.2-0.4,0.4-0.8,0.7-1.2c0.1-0.2,0.1-0.3-0.1-0.4
		c0,0-0.1,0-0.1-0.1c-0.5-0.4-0.6-0.4-0.2-0.9c0.1-0.2,0.2-0.4,0.3-0.5c0.1-0.2,0.1-0.3-0.1-0.4c-0.4-0.1-0.4-0.4-0.4-0.7
		c0-0.2,0-0.5,0-0.7c0-0.2-0.1-0.3-0.3-0.2c-0.5,0.2-1,0-1.5-0.1c-0.7-0.2-1.4-0.2-2.1,0.2c-0.6,0.3-1.2,0.7-1.7,1.1
		c-0.4,0.3-0.8,0.6-1.2,0.8c-0.1,0.1-0.3,0.1-0.4-0.1c-0.1-0.1-0.2-0.1-0.2,0c-0.7,0.6-1.3,1.2-1.7,2c0,0,0,0.1,0,0.1
		c0,0.4-0.3,0.6-0.6,0.8c-1,0.6-2,1.4-2.9,2.2c-0.3,0.3-0.6,0.6-1,0.9c-0.2,0.1-0.4,0.2-0.6,0.1c-0.5-0.2-1-0.3-1.6,0
		c-0.4,0.2-0.8,0.5-1.1,0.9c-0.5,0.5-1.1,0.8-1.9,0.5c-0.1,0-0.2,0-0.3,0.1c-0.4,0.3-0.8,0.6-1.2,1c-0.1,0.1-0.2,0.2-0.4,0.2
		c-1.2-0.1-2.3,0.3-3.3,1c-0.8,0.6-1.4,1.3-1.9,2.1c-0.1,0.2-0.2,0.3-0.4,0.4c-0.9,0.2-1.5,0.8-2.1,1.5c-0.2,0.2-0.4,0.5-0.6,0.7
		c-0.2,0.2-0.3,0.2-0.5-0.1c-0.1-0.1-0.1-0.2-0.1-0.3c-0.1-0.2-0.2-0.2-0.4-0.1c-0.4,0.3-0.8,0.6-1.2,0.9c-0.3,0.2-0.6,0.4-0.9,0.6
		c-0.7,0.3-1.3,0.3-1.5-0.6c-0.1-0.2-0.2-0.3-0.4-0.2c-0.3,0.1-0.7,0.1-1,0.4c-0.2,0.2-0.4,0.4-0.1,0.7c0.1,0.2,0,0.3-0.2,0.3
		c-0.6,0.4-1.3,0.6-2.1,0.5c0,0-0.1,0-0.1,0c-0.7-0.2-1.5-0.5-2.2-0.7c-0.6-0.3-1.3-0.5-1.9-0.8c-0.3-0.1-0.6-0.2-0.9-0.4
		c-0.7-0.4-1.4-0.7-2.1-1.1c-0.5-0.3-1.1-0.6-1.6-0.9c0,0,0,0-0.1-0.1c0,0,0.1-0.1,0.1-0.1c0.1-0.1,0.2-0.1,0.3-0.1
		c0.3,0,0.3-0.1,0.4-0.4c0,0,0,0,0,0c0-0.3,0-0.5,0.2-0.7c0.1-0.1,0.2-0.3,0.3-0.5c0.1-0.1,0.1-0.3,0.2-0.4c0-0.1,0.1-0.2,0.2-0.2
		c0.2-0.1,0.2-0.1,0.3,0c0,0,0,0,0,0.1c0,0.1,0.1,0.1,0.2,0c0.1-0.1,0.3-0.3,0.4-0.4C381.9,84.8,382,84.6,382.1,84.5z"/>
	<path class="st7" d="M387.9,91.5c0-0.1,0.1-0.1,0.2-0.1c0.3,0,0.6,0,0.8-0.1c0.3-0.1,0.5-0.1,0.8-0.3c0.1-0.1,0.3-0.1,0.4-0.2
		c0.1-0.1,0.1-0.1,0-0.2c-0.2-0.2-0.2-0.2,0-0.5c0.2-0.2,0.4-0.4,0.6-0.6c0.1,0,0.1,0,0.2,0c0.1,0,0.2,0,0.2,0
		c0.1-0.1,0.3-0.1,0.4-0.1c0.1,0,0.2,0,0.3,0.1c0,0.1,0.1,0.3,0.1,0.4c0.1,0.2,0.2,0.3,0.3,0.4c0.2,0.1,0.4,0.1,0.6,0.1
		c0.2,0,0.3-0.1,0.5-0.2c0.3-0.2,0.6-0.4,0.9-0.6c0.2-0.2,0.4-0.4,0.7-0.5c0.1-0.1,0.3-0.2,0.4-0.3c0.1,0,0.2-0.1,0.3-0.2
		c0.1,0,0.2,0,0.2,0.1c0.1,0.2,0.2,0.4,0.3,0.6c0,0.1,0.1,0.1,0.2,0c0.1-0.1,0.2-0.2,0.3-0.3c0.1-0.1,0.2-0.2,0.3-0.3
		c0.3-0.4,0.6-0.7,1-1c0.3-0.3,0.6-0.5,1.1-0.6c0.1,0,0.2,0,0.2-0.1c0.1,0,0.2-0.1,0.3-0.2c0.2-0.4,0.5-0.8,0.8-1.1
		c0.2-0.2,0.4-0.4,0.6-0.6c0.2-0.2,0.4-0.3,0.6-0.5c0.6-0.4,1.1-0.7,1.8-0.9c0.4-0.1,0.9-0.2,1.3-0.2c0,0,0.1,0,0.1,0
		c0.2,0.1,0.4,0,0.5-0.2c0.1-0.2,0.3-0.3,0.4-0.4c0.3-0.2,0.6-0.4,0.8-0.7c0.1-0.1,0.1-0.1,0.2,0c0,0,0.1,0,0.1,0
		c0.3,0.1,0.5,0.1,0.8,0.1c0.1,0,0.1,0,0.2-0.1c0.3-0.1,0.5-0.3,0.7-0.5c0.3-0.3,0.7-0.6,1.1-0.9c0.4-0.2,0.7-0.3,1.2-0.2
		c0.3,0.1,0.5,0.1,0.7,0.2c0.1,0,0.2,0,0.3,0c0.2-0.2,0.5-0.4,0.7-0.6c0.3-0.2,0.5-0.5,0.8-0.7c0,0,0.1-0.1,0.2-0.1
		c0.2-0.1,0.3-0.2,0.5-0.4c0.2-0.2,0.5-0.4,0.7-0.6c0.2-0.2,0.5-0.3,0.7-0.5c0.3-0.2,0.5-0.3,0.8-0.5c0.1-0.1,0.2-0.1,0.2-0.2
		c0-0.2,0.1-0.4,0.2-0.6c0.2-0.3,0.3-0.5,0.5-0.8c0.1-0.1,0.1-0.1,0.2-0.2c0.3-0.3,0.5-0.5,0.8-0.8c0.1-0.1,0.2-0.2,0.3-0.2
		c0.1,0,0.1,0,0.1,0.1s0,0.2,0.1,0.2c0.1,0,0.2,0,0.2-0.1c0.4-0.2,0.8-0.5,1.2-0.8c0.6-0.4,1.1-0.8,1.7-1.1c0.2-0.1,0.5-0.2,0.8-0.3
		c0.1,0,0.1,0,0.2,0c0.2,0,0.3,0,0.5,0c0.3,0,0.6,0.1,0.9,0.2c0.1,0,0.2,0.1,0.3,0.1c0.2,0.1,0.3,0.1,0.5,0c0.2-0.1,0.4-0.1,0.5-0.1
		c0.2,0,0.2,0,0.2,0.2c0,0.3,0,0.7,0,1c0,0.3,0,0.3,0.3,0.4c0.1,0,0.2,0.1,0.2,0.1c0.1,0.1,0.2,0.1,0.1,0.3c0,0.1-0.1,0.1-0.1,0.2
		c-0.1,0.3-0.3,0.5-0.5,0.7c-0.1,0.1-0.1,0.2,0,0.3c0.2,0.2,0.4,0.3,0.6,0.4c0.1,0,0.1,0.1,0.1,0.2c0,0,0,0.1-0.1,0.1
		c-0.3,0.4-0.5,0.8-0.7,1.2c-0.1,0.3-0.3,0.6-0.4,0.9c-0.1,0.3-0.2,0.5-0.3,0.8c-0.2,0.5-0.4,1-0.6,1.5c-0.2,0.4-0.3,0.7-0.6,1
		c-0.2,0.2-0.3,0.4-0.5,0.5c-0.1,0.1-0.2,0.2-0.3,0.3c0,0,0,0.1,0,0.1c0,0,0.1,0,0.1,0c0.1,0,0.2,0,0.2-0.1c0.3-0.1,0.7-0.2,1-0.3
		c0.1,0,0.1,0,0.2,0c0.1,0,0.1,0,0.2,0.1c-0.1,0.4-0.3,0.6-0.6,0.8c-0.3,0.1-0.5,0.2-0.8,0.3c0,0.1,0.1,0.1,0.1,0.1c0,0,0,0.1,0,0.1
		c-0.1,0.1-0.2,0.2-0.3,0.3c-0.4,0.2-0.8,0.5-1.1,0.8c-0.2,0.2-0.3,0.4-0.5,0.6c0,0.1-0.1,0.1-0.1,0.2c-0.1,0.2-0.2,0.4-0.5,0.5
		c-0.2,0.1-0.2,0.1,0,0.2c0,0,0,0,0.1,0.1c0,0.1,0,0.1,0,0.1c-0.1,0-0.2,0.1-0.3,0.1c-0.2,0.1-0.4,0.2-0.5,0.4
		c-0.2,0.2-0.4,0.3-0.6,0.4c0,0-0.1,0.1,0,0.1c0.1,0.1,0.1,0.1,0.2,0.2c-0.1,0.3-0.6,0.7-0.9,0.6c-0.2,0-0.4,0.1-0.5,0.3
		c-0.2,0.3-0.4,0.3-0.7,0.4c-0.6,0.2-1.2,0.3-1.7,0.5c-0.4,0.2-0.7,0.4-1,0.5c-0.1,0-0.2,0.1-0.3,0.1c-0.1,0-0.3,0.1-0.4,0
		c-0.1-0.1,0-0.2,0-0.4c0-0.2,0.2-0.4,0-0.5c-0.1-0.1-0.3,0-0.5,0.1c-0.7,0.3-1.5,0.4-2.2,0.6c-1.2,0.2-2.2,0.7-3,1.6
		c-0.3,0.4-0.8,0.7-1.4,0.7c-0.2,0-0.5,0-0.7,0.1c-0.3,0-0.6,0.3-0.9,0.3c-0.3,0-0.6-0.1-0.9,0c-0.5,0.1-0.9,0.3-1.4,0.4
		c-0.4,0.1-0.8,0.1-1-0.3c-0.1-0.1-0.2-0.1-0.3-0.1c-0.4,0-0.8,0.1-1.1,0.3c-0.2,0.1-0.5,0.2-0.7,0.1c-0.1-0.1-0.3-0.1-0.4-0.1
		c-0.7-0.1-1.4-0.2-2.1-0.5c-0.7-0.2-1.4-0.2-2.1,0.1c-0.2,0.1-0.4,0.1-0.5,0.1c-0.2,0-0.4,0-0.6-0.1c-1.5-0.3-2.9-0.6-4.4-1
		c-0.3-0.1-0.7-0.2-1-0.3C388.1,91.5,388,91.5,387.9,91.5z"/>
	<path class="st1" d="M394.1,93c0.2,0,0.3,0,0.5-0.1c0.5-0.3,1.1-0.3,1.6-0.3c0.3,0,0.5,0.1,0.8,0.2c0.2,0.1,0.4,0.1,0.7,0.2
		c0.3,0.1,0.5,0.1,0.8,0.1c0.4,0,0.7,0.1,1.1,0.2c0.1,0,0.1,0,0.2,0c0.1,0,0.2-0.1,0.3-0.2c0.4-0.2,0.8-0.3,1.2-0.3
		c0.2,0,0.3,0.1,0.4,0.2c0.1,0.2,0.2,0.3,0.5,0.3c0.3,0,0.7-0.1,1-0.2c0.3-0.1,0.6-0.2,0.9-0.3c0.3-0.1,0.6-0.1,0.9,0
		c0.1,0,0.1,0,0.2,0c0.2-0.1,0.3-0.2,0.5-0.2c0.3,0,0.6-0.1,0.9-0.1c0.5,0,1-0.2,1.3-0.6c0.1-0.2,0.3-0.3,0.4-0.4
		c0.5-0.6,1.2-1,2-1.1c0.5-0.1,1-0.2,1.5-0.3c0.4-0.1,0.8-0.2,1.2-0.4c0.2-0.1,0.4-0.1,0.6-0.2c0.1,0,0.2,0.1,0.2,0.2
		c0,0,0,0.1,0,0.1c0,0.2-0.1,0.3-0.1,0.5c0,0.2,0,0.2,0.2,0.2c0.1,0,0.1,0,0.2,0c0.3-0.1,0.5-0.2,0.8-0.4c0.2-0.1,0.3-0.2,0.5-0.3
		c0.5-0.2,1-0.4,1.4-0.5c0.2,0,0.4-0.1,0.6-0.2c0.2-0.1,0.3-0.2,0.4-0.4c0,0,0-0.1,0-0.1c0.1-0.2,0.1-0.2,0.4-0.2
		c0.2,0,0.3,0,0.4-0.1c0.2-0.2,0.4-0.3,0.6-0.5c0.2,0,0.3-0.1,0.4-0.2c0.3-0.2,0.6-0.4,1-0.5c0.3-0.1,0.6-0.2,1-0.2
		c0.3,0,0.6,0,0.9,0.1c0.2,0.1,0.4,0.2,0.6,0.4c-0.1,0.1-0.1,0.2-0.2,0.2c-0.8,0.4-1.5,0.9-2.3,1.2c-0.8,0.4-1.5,0.7-2.3,1
		c-1.3,0.5-2.5,1-3.8,1.4c-0.9,0.3-1.8,0.5-2.7,0.7c-0.5,0.1-1.1,0.2-1.6,0.3c-0.3,0.1-0.7,0.1-1,0.2c-0.3,0.1-0.7,0.1-1,0.2
		c-0.2,0-0.5,0.1-0.7,0.1c-0.2,0-0.5,0.1-0.7,0.1c-0.3,0-0.6,0.1-0.9,0.1c0,0,0,0-0.1,0c-0.4,0-0.7,0-1.1,0.1c-0.5,0.1-1,0-1.6,0.1
		c-0.8,0.1-1.7,0.1-2.5,0c-0.6,0-1.1-0.1-1.7-0.1c-0.3-0.1-0.7,0-1-0.1c-0.3-0.1-0.6,0-0.8-0.1c-0.3-0.1-0.6,0-0.9-0.1
		c-0.2,0-0.4,0-0.6-0.1c-0.2,0-0.4-0.1-0.7-0.1c-0.1,0-0.2,0-0.2,0C394.2,93,394.2,93,394.1,93z"/>
	<path class="st1" d="M380.3,36.2C380.3,36.2,380.3,36.2,380.3,36.2c-0.1-0.2-0.1-0.2-0.2-0.3c-0.1,0-0.1-0.1-0.2-0.2
		c-0.3-0.3-0.4-0.7-0.5-1.1c-0.1-0.5-0.2-1.1-0.2-1.7c0-0.1,0.1-0.3-0.1-0.3c-0.1,0-0.2,0.1-0.3,0.2c-0.1,0.1-0.2,0.1-0.3,0.2
		c-0.1,0.1-0.2,0.1-0.3,0c-0.1-0.1-0.2-0.1-0.4-0.1c-0.1,0-0.2,0.1-0.2,0.1c-0.1,0-0.2,0-0.2-0.1c0-0.3-0.1-0.7-0.1-1
		c0-0.2,0-0.4,0-0.6c0-0.2,0-0.4,0.1-0.5c0-0.3,0.1-0.6,0.2-0.8c0.2-0.4,0.4-0.8,0.7-1.2c0,0,0,0,0,0c0.1-0.2,0.1-0.2-0.1-0.3
		c0,0,0,0-0.1,0c0-0.4,0.1-0.6,0.5-0.7c1-0.3,2-0.8,3-1.2c0.6-0.3,1.1-0.5,1.7-0.8c0.2-0.1,0.3-0.2,0.4-0.3c0.6-1.1,1.4-2.1,1.8-3.3
		c0.4-1.2,0.6-2.4,0.5-3.7c-0.1-1.2-0.3-2.4-0.4-3.5c-0.1-0.9,0-1.8,0.1-2.6c0-0.1,0-0.3,0.2-0.3c0.1,0,0.2,0.1,0.2,0.1
		c0.3,0.4,0.6,0.8,0.9,1.2c0.2,0.3,0.4,0.6,0.5,1c0.1,0.3,0.2,0.7,0.2,1.1c0,0.3,0,0.7,0,1c0,0.2,0,0.4-0.1,0.6c0,0,0,0,0,0.1
		c0,0.6-0.1,1.1-0.3,1.6c-0.2,0.9-0.5,1.9-0.8,2.8c-0.1,0.2-0.2,0.5-0.2,0.7c-0.1,0.2-0.2,0.4-0.3,0.6c-0.4,0.6-0.8,1.3-1.2,1.9
		c-0.2,0.3-0.4,0.6-0.7,0.9c-0.1,0.1-0.2,0.2-0.3,0.2c-0.1,0-0.1,0.1-0.1,0.2c0,0.1,0.1,0.1,0.2,0c0.4-0.2,0.7-0.4,1-0.6
		c0.4-0.3,0.8-0.6,1.2-0.9c0.2-0.2,0.5-0.4,0.7-0.6c0.5-0.4,1-0.8,1.5-1.2c0.2-0.2,0.5-0.2,0.8-0.3c0.4-0.1,0.8-0.1,1.3-0.1
		c0.5,0,0.9,0.2,1.3,0.5c0.1,0.1,0.1,0.1,0.2,0.2c0.2,0.3,0.4,0.7,0.4,1c0.1,0.6,0.2,1.2,0.1,1.7c0,0.3-0.1,0.7-0.2,1
		c-0.1,0.5-0.4,1-0.6,1.5c-0.2,0.5-0.4,1-0.6,1.5c-0.1,0.3-0.1,0.6-0.2,1c0,0,0,0.1,0,0.1c0,0,0,0.1-0.1,0.1s-0.1,0-0.1,0
		c0,0,0-0.1,0-0.1c-0.1-0.4-0.3-0.7-0.7-0.9c-0.1,0-0.1-0.1-0.2-0.2c-0.1-0.2-0.1-0.5-0.1-0.8c-0.1-0.7-0.1-1.4-0.2-2
		c-0.1-0.4-0.1-0.8-0.3-1.1c-0.2-0.3-0.4-0.4-0.8-0.3c-0.6,0.2-1,0.6-1.4,1c-0.5,0.6-1,1.2-1.6,1.6c-0.2,0.1-0.3,0.2-0.5,0.3
		c-0.3,0.1-0.5,0.3-0.5,0.7c0,0.2-0.2,0.4-0.3,0.5c-0.1,0.1-0.1,0.2,0.1,0.3c0.4,0.2,0.8,0.3,1.2,0.1c0.2-0.1,0.4-0.1,0.6-0.2
		c0.4-0.1,0.8,0,0.9,0.4c0.1,0.1,0.1,0.3,0.1,0.5c0.1,1.1,0.1,2.1-0.1,3.2c0,0.1-0.1,0.2-0.1,0.3c-0.1,0.5-0.3,1-0.6,1.4
		c-0.1,0.2-0.2,0.4-0.2,0.6c0,0.1-0.1,0.2-0.1,0.3c0,0.1,0,0.1,0,0.2c0.1,0,0.3-0.1,0.4-0.2c0.4-0.4,0.7-0.7,1.1-1.1
		c0,0,0.1-0.1,0.1-0.1c0.1-0.2,0.3-0.3,0.6-0.4c0.2-0.1,0.4-0.1,0.5,0c0.1,0,0.1,0,0.2,0c0.2-0.1,0.4-0.2,0.6-0.4
		c0.2-0.2,0.4-0.3,0.6-0.5c0,0,0.1-0.1,0.1-0.1c0,0,0.1,0,0.1,0c0.1,0.2,0.1,0.3,0.1,0.5c-0.1,0.3-0.2,0.6-0.2,0.9
		c0,0.1,0,0.1,0,0.2c0,0.3,0,0.6-0.1,0.9c0,0.4-0.1,0.8-0.3,1.2c0,0.1,0,0.1-0.1,0.2c0,0,0,0.1,0,0.1c0,0,0.1,0,0.1,0
		c0.2-0.2,0.4-0.4,0.6-0.7c0.2-0.2,0.4-0.5,0.6-0.7c0.1-0.1,0.3-0.2,0.3-0.4c0,0,0.1-0.1,0.1-0.1c0.4-0.3,0.8-0.6,1.2-0.9
		c0.3-0.1,0.6-0.3,0.8-0.5c0.1-0.1,0.2-0.2,0.3-0.3c0.3-0.4,0.5-0.8,0.8-1.2c0,0,0-0.1,0-0.1c-0.1,0-0.1-0.1-0.1-0.1
		c0,0,0-0.1,0-0.1c0.2-0.3,0.3-0.7,0.5-1c0.1-0.3,0.2-0.5,0.4-0.8c0.1-0.1,0.1-0.2,0.2-0.2c0.2-0.2,0.3-0.4,0.5-0.5
		c0.1-0.1,0.2-0.3,0.2-0.5c0-0.1,0-0.1,0.1-0.2c0-0.1,0.1-0.2,0.2-0.2c0.2-0.1,0.4-0.2,0.5-0.4c0.1-0.2,0.3-0.4,0.4-0.6
		c0.1-0.2,0.3-0.3,0.5-0.3c0.1,0,0.1,0,0.2,0c0.1,0.1,0.1,0.1,0.2,0.2c0.1,0.1,0.2,0.1,0.3,0.1c0.2,0,0.5,0,0.7,0c0,0,0.1,0,0.2,0
		c0.5,0,0.9,0,1.4,0c0.1,0,0.1,0,0.1,0.1c0,0.1,0,0.1,0.1,0.1c0.1,0,0.3,0.1,0.4,0.1c0.2,0,0.4,0.1,0.6,0.3c0.1,0.1,0.3,0.2,0.4,0.3
		c0.2,0.2,0.4,0.4,0.6,0.6c0.1,0.1,0.3,0.3,0.4,0.4c0.1,0.1,0.2,0.2,0.4,0.3c0.1,0,0.1,0.1,0.1,0.2c-0.1,0.2-0.2,0.4-0.3,0.6
		c-0.3,0.3-0.6,0.6-0.9,0.9c0,0-0.1,0-0.1,0c0-0.1,0-0.1-0.1-0.2c-0.1-0.2-0.2-0.2-0.4-0.2c-0.2,0-0.4,0.1-0.6,0.2
		c-0.2,0.1-0.3,0.2-0.3,0.4c0,0.2-0.2,0.4-0.4,0.5c-0.2,0.1-0.5,0.2-0.7,0.4c-0.1,0-0.1,0.1-0.1,0.2c0,0,0,0.1,0,0.1
		c0,0.1,0,0.2-0.1,0.2c-0.1,0-0.2,0.1-0.2,0.2c0,0.1,0.1,0.1,0.2,0.1c0.1,0,0.3,0,0.4-0.1c0.1,0,0.2,0,0.2-0.1
		c0.2-0.1,0.3,0,0.5,0.1c0.1,0,0.1,0.1,0,0.1c-0.1,0.1-0.2,0.2-0.3,0.3c-0.1,0.1-0.1,0.2-0.1,0.3c0,0.1,0,0.1,0,0.1
		c-0.1,0.1-0.1,0.1-0.2,0.2c-0.2,0.1-0.4,0.3-0.6,0.4c-0.2,0.2-0.4,0.4-0.4,0.6c-0.1,0.1-0.2,0.1-0.3,0.1c-0.5,0.1-1,0.4-1.3,0.8
		c-0.2,0.2-0.4,0.4-0.6,0.6c-0.2,0.3-0.6,0.4-0.9,0.3c-0.3-0.1-0.4-0.2-0.4-0.5c0-0.1,0-0.2,0-0.3c0-0.2-0.1-0.2-0.3-0.2
		c0,0-0.1,0-0.1,0c-0.5,0-1,0.1-1.2,0.6c-0.1,0.2-0.3,0.3-0.5,0.4c-0.2,0.1-0.3,0.2-0.4,0.4c-0.2,0.4-0.2,0.6,0.1,0.9
		c0.3,0.3,0.3,0.3,0.2,0.7c-0.1,0.3-0.2,0.6-0.2,0.9c0,0.3,0,0.7,0,1c-0.1,0.4,0.6,1.1,1.1,1.1c0.1,0,0.2-0.1,0.2-0.2
		c0.2-0.4,0.3-0.8,0.4-1.2c0.1-0.2,0.2-0.4,0.4-0.6c0.1-0.1,0.3-0.2,0.4,0c0.5,0.7,1.2,0.9,1.9,1c1.1,0.2,2.3,0.2,3.4,0
		c0.5-0.1,1-0.4,1.4-0.7c0.5-0.3,1-0.7,1.3-1.2c0.1-0.1,0.2-0.2,0.3-0.2c0.1,0,0.2,0.1,0.2,0.1c0.2,0,0.5,0,0.7,0c0,0,0.1,0,0.1,0
		c0.3-0.1,0.7-0.6,0.6-0.9c0,0,0-0.1,0-0.1c-0.1-0.4,0-0.7,0.2-1c0.1-0.1,0.1-0.2,0.2-0.3c0.1-0.1,0.2-0.1,0.3,0
		c0.1,0.3,0.2,0.5,0.3,0.8c0,0.1,0.1,0.2,0.1,0.2c0,0,0.1,0,0.1,0c0,0,0.1-0.1,0.1-0.1c0.3-0.5,0.7-0.9,1.1-1.3
		c0.3-0.4,0.6-0.8,0.8-1.3c0.1-0.2,0.1-0.3,0.1-0.5c0-0.1,0-0.2,0-0.3c0-0.2,0.1-0.3,0.2-0.4c0.1,0,0.1-0.1,0.2-0.1
		c0.3-0.2,0.4-0.5,0.4-0.8c0-0.2-0.1-0.3-0.2-0.3c-0.1,0-0.2-0.1-0.2-0.2c-0.1-0.1-0.2-0.2-0.3-0.1c-0.2,0-0.4,0.1-0.6,0.1
		c-0.1,0-0.1,0-0.2,0.1c-0.1,0.1-0.2,0-0.2-0.2c0-0.3,0.1-0.6,0.3-0.8c0.2-0.3,0.5-0.5,0.9-0.7c0.4-0.2,0.7-0.3,1.1-0.5
		c0.2-0.1,0.3-0.1,0.5,0.1c0.4,0.6,0.7,1.1,0.9,1.8c0,0.1,0.1,0.2,0.1,0.2c0,0.1,0,0.2,0.1,0.2c0.1,0,0.1-0.1,0.2-0.2
		c0.1-0.2,0.3-0.3,0.5-0.3c0.4,0.1,0.8,0.2,1.2,0.4c0.3,0.2,0.6,0.4,0.9,0.5c0.4,0.2,0.7,0.6,1,0.9c0.4,0.4,0.7,0.8,0.9,1.3
		c0.3,0.5,0.5,0.9,0.7,1.4c0.1,0.3,0.3,0.6,0.4,0.9c0.1,0.4,0.3,0.9,0.5,1.3c-0.3,0-0.5,0-0.8,0c-0.1,0-0.2,0-0.3,0c0,0-0.1,0-0.1,0
		c-0.6,0-1.2,0.1-1.7,0.1c-0.3,0-0.5,0-0.8-0.1c-0.2,0-0.4,0-0.6,0c-0.2,0-0.3,0-0.5,0c-0.2,0-0.3,0-0.5,0s-0.3,0-0.5,0
		c-0.1,0-0.1,0-0.2,0c-0.4,0-0.7-0.1-1.1-0.2c-0.1-0.1-0.3,0-0.4,0c-0.3,0.1-0.7,0.1-1,0c-0.1,0-0.2,0-0.2,0c-0.1,0-0.3,0-0.4,0
		c-0.5-0.1-1,0-1.4,0.4c-0.1,0.1-0.2,0.2-0.3,0.3c0,0,0,0.1,0,0.1c0,0,0,0,0.1,0c0.1,0,0.1,0,0.2,0c0,0,0.1,0,0.1,0c0,0,0,0,0,0.1
		c-0.1,0.1-0.2,0.2-0.3,0.2c-0.3,0.3-0.5,0.6-0.8,1c-0.2,0.4-0.4,0.7-0.7,1.1c-0.4,0.5-0.8,0.9-1.5,1.1c-0.4,0.1-0.7,0.3-1.1,0.4
		c-0.4,0.2-0.8,0.4-1.2,0.6c-0.2,0.1-0.4,0.2-0.5,0.3c-0.3,0.2-0.7,0.3-1,0.4c-0.3,0.1-0.7,0.2-1,0.2c-0.1,0-0.2,0-0.3,0
		c-0.3,0-0.6-0.1-0.8-0.1c-0.1,0-0.3-0.1-0.4-0.1c-0.3-0.1-0.5,0-0.8,0.1c-0.6,0.2-1,0.6-1.4,1c-0.1,0.1-0.3,0.3-0.3,0.5
		c0,0,0,0.1,0,0.1c0,0.2-0.1,0.4-0.1,0.6c0,0.1-0.1,0.3-0.2,0.4c-0.1,0.1-0.2,0.3-0.3,0.5c0,0.1-0.1,0.2-0.1,0.3
		c-0.1,0.1-0.1,0.3,0,0.4c0,0.2,0,0.2,0,0.4c0,0.1,0.1,0,0.1,0c0.3,0,0.6,0,0.9,0c0.2,0,0.3,0,0.5,0c0.1,0,0.2,0,0.3,0
		c0.2,0,0.4,0,0.6,0.1c0,0,0.1,0,0.1,0c0.3,0,0.6,0.1,0.8,0.1c0.3,0.1,0.6,0.1,0.9,0.1c0.8,0.2,1.7,0.3,2.5,0.6
		c0.1,0,0.2,0.1,0.2,0.1c0,0,0,0.1,0,0.1c0,0-0.1,0-0.1,0c-0.1,0-0.1,0-0.1,0c-0.6-0.2-1.2-0.3-1.8-0.5c-0.4-0.1-0.7-0.1-1.1-0.2
		c-0.4-0.1-0.7-0.1-1.1-0.2c-0.1,0-0.1,0-0.2,0c-0.1,0-0.2,0-0.3,0c-0.1,0-0.2,0-0.2,0c-0.2,0-0.5,0-0.7,0c-0.1,0-0.3,0-0.4,0
		c-0.1,0-0.2,0-0.4,0c-0.1,0-0.2,0.1-0.1,0.2c0.1,0.1,0.1,0.1,0.2,0.2c0.1,0.1,0.1,0.1,0,0.2c-0.1,0.1-0.1,0.2-0.2,0.3
		c0,0.1-0.1,0.1,0,0.2c0.1,0.1,0.1,0.3,0,0.4c-0.2,0.3-0.1,0.7-0.1,1.1c0,0.2,0.1,0.3,0.1,0.5c0.2,0.4,0.3,0.7,0.7,1
		c0.1,0.1,0.2,0.2,0.3,0.3c0.1,0.1,0,0.1,0,0.2c-0.1,0.1-0.3,0.1-0.4,0.1c-0.2,0.1-0.4,0.2-0.6,0.3c0,0,0,0,0,0.1c0,0,0,0,0,0
		c0.1,0.1,0.3,0.1,0.4,0.1c0.2,0.1,0.4,0.3,0.6,0.5c0.2,0.2,0.5,0.4,0.8,0.6c0.3,0.2,0.7,0.4,0.9,0.7c0.2,0.3,0.5,0.5,0.5,0.9
		c0,0.1,0.1,0.3,0,0.4c0,0.1-0.1,0.2-0.2,0.3c0,0.1,0,0.2,0.1,0.2c0.1,0,0.3,0.1,0.4,0.2c0,0,0.1,0,0.1,0c0.1,0,0.1,0.1,0.1,0.2
		c-0.1,0.2-0.2,0.3-0.3,0.4c-0.3,0.2-0.5,0.4-0.8,0.5c-0.5,0.2-1,0.5-1.5,0.7c-0.4,0.2-0.7,0.3-1.1,0.4c-0.2,0-0.5,0-0.7,0
		c-0.3,0-0.7-0.1-1,0c-0.3,0.1-0.5,0.3-0.4,0.6c0,0.1,0,0.1,0,0.2c0,0.1,0,0.2,0.2,0.2c0.1,0,0.2,0,0.3,0.1c0,0,0.1,0,0.1,0.1
		c0,0,0,0.1-0.1,0.1c-0.2,0.1-0.5,0.2-0.8,0.2c-0.4,0-0.7,0-1.1,0c-0.2,0-0.5,0.1-0.7,0.1c0,0,0,0-0.1,0.1c0,0,0,0.1,0.1,0.1
		c0.2,0,0.3,0.1,0.5,0.1c0.2,0,0.4,0,0.6,0c0.1,0,0.2,0,0.2,0c0.1,0,0.2,0,0.3,0.1c0,0,0.1,0,0.1,0.1c0,0.1-0.1,0.1-0.1,0.1
		c-0.2,0.1-0.5,0.2-0.8,0.2c-0.1,0-0.2,0-0.3,0.1c-0.1,0-0.2,0.1-0.1,0.3c0.2,0.3,0.4,0.6,0.6,0.9c0.3,0.4,0.5,0.8,0.7,1.3
		c0.2,0.5,0.4,1.1,0.5,1.7c0,0.2,0.1,0.3,0.1,0.5c0,0.1,0.1,0.1,0,0.2c-0.1,0-0.1-0.1-0.1-0.1c0-0.1-0.1-0.2-0.1-0.3
		c-0.6-1.3-1.3-2.6-1.9-3.9c0-0.1-0.1-0.2-0.1-0.2c0-0.1-0.1-0.1-0.2-0.1c-0.3,0.1-0.7,0.1-1,0.3c0,0,0,0-0.1,0c0,0,0,0.1,0,0.1
		c0.1,0.1,0.2,0.2,0.2,0.3c-0.1,0.1-0.2,0.1-0.3,0.1c-0.1,0.1-0.1,0.1-0.1,0.2c0,0.1,0,0.1,0,0.1c-0.3,0.3-0.5,0.6-0.8,0.8
		c-0.2,0.1-0.3,0.2-0.5,0.2c-0.3,0.1-0.6,0.3-1,0.4c-0.3,0.1-0.7,0.3-1,0.3c-0.5,0.1-1,0-1.5-0.3c-0.3-0.2-0.5-0.5-0.7-0.8
		c-0.2-0.3-0.4-0.6-0.6-1c0-0.1-0.1-0.2-0.2-0.2c-0.1-0.1-0.2-0.2-0.3-0.2c-0.2,0-0.4,0-0.5,0c-0.2,0.1-0.4,0-0.6,0
		c-0.1,0-0.1-0.1-0.1-0.1c0-0.1,0-0.1,0.1-0.1c0.1-0.1,0.2-0.1,0.3-0.2c0.1-0.1,0.1-0.2,0-0.2c-0.1-0.1-0.2-0.1-0.3-0.2
		c-0.4-0.2-0.7-0.4-1.1-0.6c-0.1-0.1-0.2-0.2-0.3-0.3c-0.2-0.3-0.3-0.6-0.5-0.9c-0.1-0.2-0.3-0.5-0.4-0.7c-0.2-0.3-0.4-0.7-0.6-1
		c-0.1-0.2-0.2-0.4-0.3-0.7c-0.1-0.2-0.1-0.3-0.3-0.5c-0.1-0.1-0.1-0.1-0.1-0.2c-0.2-0.3-0.3-0.7-0.6-1c-0.1-0.1-0.1-0.1,0-0.2
		c0,0,0-0.1,0-0.1c0.1,0,0.2,0.1,0.3,0.2c0.4,0.3,0.7,0.7,1.2,0.8c0.2,0.1,0.3,0.3,0.5,0.4c0.4,0.5,0.9,1,1.4,1.3
		c0.4,0.3,0.7,0.7,1.1,1c0.1,0.1,0.2,0.1,0.2,0.2c0.2,0.1,0.4,0.2,0.5,0.4c0,0,0.1,0.1,0.1,0.1c0.5-0.1,0.8,0.2,1.2,0.3
		c0.6,0.1,1.1,0,1.6-0.2c0.6-0.3,1.2,0,1.7,0.2c0.2,0.1,0.2,0.2,0.3,0.4c0.3,0.5,0.6,1.1,0.9,1.6c-0.2-0.6-0.4-1.1-0.7-1.6
		c-0.1-0.3-0.1-0.4,0.2-0.5c1-0.2,2-0.7,3-1c0.4-0.1,0.9-0.3,1.4-0.3c0.2,0,0.4-0.2,0.6-0.2c0.4,0,0.7,0,1-0.3
		c0.1-0.1,0.3-0.1,0.4-0.2c0.4-0.1,0.4-0.3,0.2-0.5c-0.1-0.1-0.1-0.2,0-0.4c0.2-0.2,0.4-0.4,0.5-0.5c0.4-0.4,0.7-0.9,0.5-1.5
		c0-0.1,0-0.2,0-0.3c0.2-0.2,0-0.4-0.2-0.5c-0.5-0.3-1.1-0.3-1.6-0.3c-0.9,0.1-1.7,0.3-2.6,0.6c-0.7,0.2-1.4,0.5-2.1,0.6
		c-0.5,0.1-1,0-1.5-0.2c-0.5-0.2-1-0.4-1.5-0.7c-0.7-0.3-1-0.9-1.3-1.6c-0.1-0.2,0-0.3,0.2-0.4c0.1,0,0.2-0.1,0.1-0.2
		c0-0.1-0.1-0.1-0.2-0.1c-0.3,0-0.4-0.2-0.5-0.5c-0.1-0.3-0.1-0.6,0.1-0.9c0.1-0.1,0-0.2-0.1-0.3c-0.2-0.1-0.2-0.3-0.2-0.5
		c0.1-0.3,0.2-0.3,0.4-0.1c0.1,0.1,0.3,0.1,0.5,0.1c0.1-0.1,0.2-0.2,0-0.2c-0.1,0-0.1-0.1-0.2-0.1c-0.2-0.1-0.3-0.2-0.2-0.4
		c0.1-0.1,0-0.2-0.1-0.3c-0.1-0.1-0.1-0.3,0-0.5c0.1-0.2,0.2-0.1,0.4-0.1c0.2,0.1,0.3,0.1,0.3-0.1c0-0.2,0.2-0.3,0.4-0.2
		c0.2,0.1,0.3,0,0.3-0.2c0-0.3,0-0.7,0-1c0-0.4,0.1-0.7,0.2-1.1c0.2-0.4,0.2-0.7,0.2-1.1c0-0.3-0.1-0.5-0.3-0.6
		c-0.2-0.2-0.5-0.4-0.7-0.6c-0.4-0.3-0.8-0.6-1.3-0.7c-1.1-0.4-2.2-0.8-3.4-0.8c-0.2,0-0.5,0-0.7,0c-0.1,0-0.3,0-0.3-0.1
		c-0.1-0.2-0.3-0.3-0.5-0.4c-0.2-0.1-0.3-0.1-0.5-0.2c-0.1,0-0.2-0.1-0.3-0.1c-0.2-0.1-0.1-0.2-0.1-0.3c0-0.2,0.2-0.3,0.3-0.4
		c-0.3,0-0.4-0.2-0.6-0.3c0-0.2,0.1-0.3,0.3-0.4c0.1-0.1,0.3-0.2,0.4-0.1c0.1,0,0.1,0,0.1-0.1c0.1-0.1,0.1-0.1,0-0.2
		c0,0-0.1-0.1-0.1-0.1c-0.1-0.1-0.2-0.2-0.2-0.4c0-0.1-0.1-0.3-0.1-0.4c-0.2-0.5-0.1-0.5,0.1-0.9c0.1-0.1,0.2-0.2,0.2-0.3
		c0.1-0.2,0.2-0.3,0.4-0.4c0.2-0.1,0.4-0.1,0.6-0.2c0.2-0.1,0.4,0,0.5,0.1c0.1,0.2,0.4,0.1,0.5-0.1c0.1-0.1,0.2,0.1,0.3,0.1
		c0.2,0.1,0.4,0.3,0.6,0.3c0.5,0.3,1,0.3,1.5,0.1c0.6-0.3,1.1-0.7,1.5-1.2c0.3-0.3,0.5-0.6,0.8-0.9c-0.2,0.1-0.3,0.2-0.5,0.3
		c-0.1,0.1-0.2,0.1-0.3-0.1c0-0.4,0.3-0.7,0.6-1c0.2-0.3,0.3-0.5,0.4-0.9c0.1-0.3,0-0.4-0.2-0.5c-0.2-0.1-0.4-0.2-0.5-0.4
		c-0.1-0.2-0.2-0.3,0-0.5c0.1-0.1,0.1-0.3-0.1-0.3c-0.1-0.1-0.3-0.2-0.5-0.1c-0.4,0.2-0.9,0.1-1.4,0.1c-1.1,0-1.8,0.5-2.3,1.4
		C380.8,35,380.5,35.6,380.3,36.2z"/>
	<path class="st12" d="M428.9,51.5c0-0.2-0.1-0.4-0.2-0.6c-0.1-0.3-0.2-0.6-0.4-0.9c-0.2-0.5-0.4-0.9-0.5-1.4
		c-0.2-0.6-0.4-1.1-0.6-1.7c-0.2-0.5-0.3-0.9-0.4-1.4c-0.1-0.2-0.1-0.4-0.1-0.6c0-0.1,0-0.2-0.1-0.2c-0.1,0-0.1-0.1-0.1-0.1
		c0-0.2-0.1-0.3-0.1-0.5c0-0.3-0.1-0.6-0.2-0.9c-0.2-0.4-0.3-0.9-0.4-1.4c0-0.3-0.1-0.7-0.2-1c0-0.1,0-0.1,0-0.2c0-0.2,0-0.3,0-0.5
		c0-0.1,0-0.2,0-0.3c0-0.2,0-0.3-0.1-0.5c0,0,0,0,0-0.1c0-0.3,0-0.6-0.1-0.8c0-0.3,0-0.6-0.1-0.9c0-0.3,0-0.6-0.1-0.9
		c0-0.3-0.1-0.5-0.1-0.8c-0.2-0.7-0.3-1.4-0.6-2c-0.2-0.6-0.4-1.1-0.7-1.7c-0.3-0.7-0.6-1.5-0.9-2.2c0-0.1-0.1-0.2-0.1-0.3
		c0-0.1,0-0.2-0.1-0.2c0,0-0.1,0-0.1,0c-0.1,0.1-0.1,0.1-0.1,0.2c-0.1,0.4-0.3,0.7-0.5,1.1c-0.1,0.1-0.1,0.3-0.3,0.2
		c-0.1,0-0.2-0.1-0.3-0.3c-0.1-0.3-0.3-0.6-0.4-0.9c-0.2-0.5-0.3-1-0.4-1.5c-0.1-0.4-0.1-0.4-0.4-0.2c-0.1,0.1-0.2,0.2-0.3,0.3
		c0,0.1-0.1,0.1-0.2,0.1c-0.4,0.3-0.8,0.5-1.2,0.8c-0.4,0.3-0.8,0.7-1,1.1c-0.2,0.2-0.3,0.5-0.4,0.7c-0.1,0.2,0,0.4,0.1,0.5
		c0.2,0.3,0.5,0.5,0.8,0.6c0.1,0,0.1,0,0.2,0c0.1,0,0.2,0,0.2-0.1c0.1,0,0.2,0,0.3,0c0.1,0,0.2,0.1,0.1,0.2
		c-0.1,0.2-0.3,0.3-0.5,0.4c-0.3,0.1-0.5,0.2-0.8,0.2c-0.1,0-0.2,0-0.2,0.1c-0.1,0-0.1,0-0.1-0.1c0,0,0-0.1,0-0.1
		c0-0.1,0-0.1-0.1-0.1c-0.1,0-0.2-0.1-0.4-0.1c-0.1,0-0.2,0-0.3,0c-0.1,0-0.1-0.1-0.1-0.2c0-0.1,0.1-0.1,0.1-0.2
		c0,0,0.1-0.1,0.1-0.1c0,0,0,0,0-0.1c0,0,0,0,0,0c0,0-0.1,0-0.1,0c-0.1,0.1-0.3,0.2-0.4,0.3c-0.1,0.1-0.2,0.3-0.4,0.4
		c-0.1,0.1-0.1,0.1-0.2,0.1c-0.1,0.1-0.2,0-0.2-0.1c0-0.2,0-0.3,0.1-0.5c0-0.1,0.1-0.2,0.1-0.3c0,0,0,0-0.1,0c-0.2,0-0.2,0-0.2-0.2
		c0-0.1,0-0.2-0.1-0.3c-0.2-0.3-0.4-0.7-0.7-0.9c-0.2-0.2-0.4-0.3-0.7-0.2c-0.1,0-0.2,0-0.4,0c-0.1,0-0.2-0.1-0.2-0.2
		c0-0.2,0-0.4,0.2-0.6c0.2-0.2,0.4-0.3,0.6-0.5c0.3-0.3,0.5-0.6,0.7-0.9c0.2-0.3,0.4-0.6,0.5-0.9c0.1-0.2,0.3-0.3,0.5-0.4
		c0.3-0.2,0.6-0.4,0.9-0.6c0.2-0.1,0.3-0.3,0.4-0.5c0,0,0-0.1,0-0.1c0,0-0.1,0-0.1,0c-0.2,0.1-0.4,0.1-0.6,0.1c-0.1,0-0.2,0-0.4,0
		c0-0.1,0.1-0.2,0.2-0.3c0.1-0.1,0.2-0.3,0.3-0.4c0-0.1,0-0.1-0.1-0.2c-0.1,0-0.2,0-0.3,0c-0.2,0.1-0.4,0.1-0.6,0.3
		c-0.1,0.1-0.2,0.1-0.3,0.1c-0.3,0-0.6,0.1-0.8,0.2c-0.3,0.2-0.6,0.3-1,0.5c0,0-0.1,0-0.1,0c0,0,0-0.1,0-0.1c0-0.3,0.2-0.5,0.3-0.8
		c0.1-0.2,0.2-0.3,0.3-0.5c0,0,0-0.1,0.1-0.1c0-0.1,0.1-0.2,0.1-0.2c-0.1-0.1-0.2,0-0.3,0.1c-0.1,0-0.1,0.1-0.2,0.1
		c-0.1,0-0.1,0-0.2,0c0,0-0.1,0-0.1-0.1c0-0.4,0-0.7,0.3-1c0.1-0.1,0.2-0.1,0.2-0.2c0.1-0.2,0.3-0.4,0.5-0.5
		c0.3-0.2,0.6-0.3,0.7-0.6c0.4-0.3,0.7-0.8,1.1-1.1c0.1-0.1,0.3-0.2,0.5-0.3c0.1,0,0.2-0.1,0.3-0.1c0.3-0.2,0.6-0.4,0.9-0.5
		c0.2-0.1,0.5-0.2,0.8-0.3c0.2,0,0.4-0.1,0.5-0.2c0.2-0.1,0.4-0.2,0.5-0.3c0-0.1-0.1-0.1-0.1-0.2c0-0.1,0.1,0,0.2,0
		c0.1,0,0.1,0,0.1-0.1c0,0,0-0.1,0-0.1c-0.1-0.3-0.2-0.5-0.3-0.8c-0.1-0.3-0.2-0.6-0.3-0.9c-0.1-0.2-0.2-0.4-0.4-0.5
		c-0.2-0.1-0.4-0.3-0.5-0.5c0,0-0.1-0.1-0.1-0.1c-0.4-0.4-0.8-0.9-1.2-1.3c-0.2-0.2-0.2-0.2,0-0.5c0.3-0.4,0.8-0.6,1.3-0.8
		c0.4-0.1,0.7-0.2,1.1-0.2c0.5,0,1.1,0.1,1.6,0.3c0.4,0.2,0.7,0.5,1,0.9c0.4,0.7,0.7,1.4,0.9,2.2c0.2,0.5,0.3,1.1,0.4,1.7
		c0.1,0.4,0.1,0.7,0.2,1.1c0,0.4,0.1,0.8,0.2,1.1c0,0,0,0.1,0,0.1c0,0.4,0.1,0.7,0.1,1.1c0,0.1,0,0.2,0,0.4c0,0.1,0,0.2,0,0.2
		c0,0.7,0,1.4,0,2.2c0,0.2,0,0.5-0.1,0.7c-0.1,0.6-0.2,1.2-0.4,1.9c-0.1,0.4-0.2,0.9-0.3,1.3c0,0.2,0,0.3,0,0.5
		c0.2,0.4,0.3,0.8,0.5,1.2c0.2,0.4,0.3,0.8,0.5,1.2c0.3,0.7,0.5,1.3,0.8,2c0.1,0.2,0.2,0.4,0.3,0.6c0.3,0.6,0.5,1.3,0.7,1.9
		c0.1,0.4,0.2,0.9,0.3,1.3c0,0.3,0.1,0.6,0.1,1c0,0.2,0,0.5,0.1,0.7c0.1,0.3,0,0.5,0.1,0.8c0,0.1,0,0.1,0,0.2c0,0.2,0,0.3,0.1,0.5
		c0,0,0,0.1,0,0.1c0,0.6,0.1,1.2,0.2,1.8c0,0.3,0.1,0.5,0.1,0.8c0,0.2,0.1,0.4,0.2,0.7c0.2,0.6,0.4,1.2,0.7,1.8
		c0.2,0.4,0.4,0.8,0.5,1.3c0.1,0.4,0.3,0.9,0.4,1.3c0,0.1,0.1,0.2,0.1,0.4c0.1,0.2,0.1,0.4,0.1,0.6c0.1,0.5,0.1,1,0.3,1.5
		c0.2,0.7,0.4,1.4,0.6,2.2c0.2,0.7,0.5,1.4,0.7,2.1c0.3,0.9,0.6,1.7,0.8,2.6c0.1,0.4,0.2,0.8,0.2,1.2c0,0.2,0.1,0.4,0.1,0.5
		c0,0.2,0.1,0.5,0.1,0.7c0,0.1,0,0.1,0,0.2c0.1,0.3,0,0.5,0.1,0.8c0,0.1,0,0.1,0,0.2c0.1,0.5,0,1,0,1.4c0,0,0,0,0,0c0,0,0,0,0,0
		c0-0.1-0.1-0.2-0.1-0.3c0-0.1,0-0.2-0.1-0.3c-0.1-0.4-0.2-0.8-0.1-1.1c0-0.2,0-0.4,0-0.6c0-0.2,0-0.4-0.1-0.5
		c-0.1-0.2-0.2-0.4-0.4-0.5c-0.2-0.1-0.2-0.2-0.2-0.4c0-0.2,0-0.4,0-0.6c0-0.2,0-0.4,0-0.7c0-0.4,0-0.7-0.2-1
		c-0.1-0.1-0.1-0.3-0.2-0.4c-0.1-0.4-0.2-0.7-0.4-1c0,0-0.1-0.1-0.1-0.2c0-0.2-0.2-0.2-0.2-0.4c0-0.1,0-0.1,0-0.2c0,0,0-0.1,0.1-0.1
		c0-0.3-0.1-0.6-0.2-0.9c-0.2-0.3-0.3-0.5-0.3-0.8c0-0.3-0.1-0.6-0.1-0.9C428.8,51.8,428.8,51.7,428.9,51.5z"/>
	<path class="st12" d="M416.9,15c0,0.1-0.1,0.3-0.2,0.4c0,0.1-0.1,0.1-0.1,0.2c-0.3,0.4-0.6,0.7-0.9,1c-0.1,0.1-0.3,0.3-0.4,0.4
		c-0.1,0.1-0.3,0.2-0.4,0.4c-0.2,0.2-0.4,0.4-0.5,0.6c-0.4,0.6-0.6,1.2-0.7,1.9c-0.1,0.4-0.1,0.7-0.1,1.1c0,0.1,0,0.3,0,0.4
		c0,0.2-0.1,0.4-0.2,0.6c-0.2,0.3-0.3,0.5-0.5,0.8c-0.2,0.5-0.6,1-0.8,1.4c-0.2,0.3-0.3,0.5-0.5,0.8c0,0,0,0.1,0,0.1c0,0,0,0,0.1,0
		c0.2-0.2,0.3-0.4,0.5-0.6c0.1-0.1,0.2-0.3,0.3-0.4c0.1-0.1,0.1-0.1,0.2-0.2c0,0.1,0,0.2-0.1,0.3c-0.3,0.5-0.4,1.1-0.5,1.6
		c0,0.1,0,0.1,0,0.2c0,0.2,0,0.4,0,0.5c0,0.1,0,0.1,0,0.2c0,0.3,0,0.6,0,0.8c0,0.3-0.1,0.6-0.1,1c0,0.1-0.1,0.1-0.1,0.1
		c0,0,0,0-0.1,0c-0.1,0-0.1,0-0.1,0.1c-0.1,0.3-0.2,0.6-0.3,0.9c0,0.1-0.1,0.2-0.1,0.3c-0.1,0-0.1-0.1-0.1-0.1c0,0,0-0.1,0-0.1
		c0-0.1,0-0.1,0-0.1c0-0.1,0-0.1,0-0.2c0-0.2,0-0.5-0.1-0.7c0-0.1,0-0.3,0-0.4c0-0.3,0-0.7,0-1c0,0,0,0,0,0c0,0,0,0-0.1,0
		c0,0.1,0,0.1-0.1,0.2c-0.1,0.1-0.1,0.1-0.2,0c-0.1-0.1-0.2-0.2-0.2-0.3c-0.1,0.1-0.2,0.1-0.2,0.2c0,0-0.1,0-0.1,0c0,0,0,0,0-0.1
		c0-0.2-0.1-0.5-0.1-0.7c0,0,0-0.1-0.1-0.1c-0.1,0-0.1,0-0.1,0c-0.1,0.1-0.1,0.1-0.2,0.2c-0.1,0.2-0.3,0.2-0.5,0.2
		c-0.1,0-0.2,0-0.3-0.2c-0.1-0.4-0.4-0.7-0.7-1.1c-0.1-0.1-0.2-0.2-0.3-0.4c0,0-0.1-0.1,0-0.1c0.2-0.2,0.2-0.5,0.4-0.8
		c0.2-0.3,0.3-0.5,0.6-0.8c0.2-0.2,0.5-0.5,0.7-0.7c0.1-0.1,0-0.1,0-0.1c-0.2-0.1-0.4-0.1-0.6-0.1c-0.2,0-0.4,0-0.6-0.1
		c-0.1,0-0.3,0-0.4,0c-0.2,0-0.5,0-0.7-0.1c-0.1,0-0.1,0-0.2,0c-0.9,0-1.7,0-2.6,0c-0.1,0-0.2,0-0.3,0c-0.1,0-0.2,0-0.3,0
		c-0.8,0-1.7,0-2.5,0c-0.1,0-0.2,0-0.3,0c-0.1,0-0.3,0-0.4,0c-0.2,0-0.3,0-0.5-0.1c0,0-0.1,0,0-0.1c0,0,0-0.1,0.1-0.1
		c0.1,0,0.2,0,0.3,0c0.3,0,0.6-0.1,0.9-0.1c0.2,0,0.4-0.1,0.6-0.1c0.4-0.1,0.7-0.1,1.1-0.2c0.2,0,0.4-0.1,0.6-0.1
		c0.2,0,0.4-0.1,0.7-0.1c0.1,0,0.3,0,0.4-0.1c0.3-0.1,0.6,0,1-0.1c0.1,0,0.1,0,0.2,0c0.2,0,0.4,0,0.6-0.1c0.1,0,0.1,0,0.2,0
		c0.1,0,0.2,0,0.3,0c0.2,0,0.4,0,0.6,0c0.1,0,0.2,0,0.3,0c0.3,0,0.6,0,0.9,0.1c0.2,0.1,0.4,0.1,0.7,0.1c0.3,0,0.7-0.1,1-0.1
		c0.2,0,0.3-0.1,0.5-0.2c0.5-0.4,0.9-0.9,1.3-1.3c0.4-0.4,0.8-0.8,1.2-1.2c0.4-0.4,0.8-0.8,1.2-1.2c0.2-0.2,0.4-0.3,0.6-0.5
		c0.2-0.2,0.3-0.3,0.4-0.5c0.1-0.1,0.2-0.2,0.3-0.3c0.2-0.2,0.3-0.4,0.5-0.6c0.2-0.2,0.4-0.3,0.6-0.5C416.8,15,416.8,15,416.9,15z"
		/>
	<path class="st12" d="M419.3,70.8c-0.5,0.3-0.9,0.6-1.4,0.9c-0.3,0.2-0.6,0.4-0.9,0.6c-0.1,0-0.1,0.1-0.2,0.1c-0.1,0-0.1,0-0.1-0.1
		c0-0.1,0-0.1,0-0.2c0-0.1,0-0.1,0-0.2c0.1,0,0.1-0.1,0.1-0.2c0.1-0.2,0.2-0.3,0.4-0.5c0.4-0.3,0.7-0.6,0.9-1
		c0.2-0.4,0.5-0.8,0.7-1.2c0.2-0.5,0.4-1,0.6-1.5c0.1-0.3,0.2-0.6,0.3-0.9c0,0,0-0.1,0-0.1c0,0-0.1,0-0.1,0c-0.1,0-0.1,0.1-0.2,0.1
		c-0.4,0.4-1,0.7-1.5,1c-0.1,0-0.2,0.1-0.3,0.1c-0.1,0-0.2,0-0.1-0.1c0.1-0.2,0.1-0.3,0.2-0.5c0,0,0-0.1,0-0.1
		c0.1-0.1,0-0.2-0.1-0.3c-0.1,0-0.2-0.1-0.3-0.1c-0.1,0-0.1-0.1-0.1-0.1c0,0,0,0,0-0.1c0.2-0.3,0.4-0.6,0.5-0.9
		c0.2-0.2,0.4-0.4,0.6-0.5c0.3-0.2,0.6-0.5,0.9-0.7c0.4-0.3,0.9-0.6,1.3-1c0.4-0.3,0.9-0.7,1.3-1c0.5-0.4,0.9-0.8,1.4-1.3
		c0.1-0.1,0.3-0.3,0.4-0.4c0.2-0.2,0.4-0.4,0.6-0.7c0.1-0.2,0.3-0.2,0.5-0.3c0.1,0,0.1,0.1,0.1,0.1c-0.1,0.2-0.3,0.4-0.4,0.6
		c-0.3,0.4-0.7,0.9-1,1.3c-0.2,0.3-0.4,0.6-0.4,1c0,0.1-0.1,0.1,0,0.2c0.1,0.1,0.2,0,0.2,0c0.2-0.1,0.3-0.2,0.5-0.2
		c0.1,0,0.1,0,0.2,0.1c0,0.3,0,0.6-0.1,0.9c-0.2,0.5-0.4,1-0.7,1.4c0,0,0,0-0.1,0.1c0,0,0,0.1,0,0.1c0,0,0.1,0,0.1,0
		c0.1-0.1,0.3,0,0.4-0.1c0,0,0.1,0,0.1,0c0,0,0,0,0,0c0,0,0,0,0,0.1c-0.1,0.1-0.2,0.1-0.2,0.2c-0.2,0.2-0.4,0.4-0.6,0.6
		c-0.5,0.6-0.8,1.2-1.2,1.8c-0.2,0.4-0.5,0.8-0.8,1.2c-0.3,0.4-0.7,0.7-1,1c-0.1,0.1-0.2,0.1-0.3,0.2
		C419.6,70.5,419.5,70.6,419.3,70.8z"/>
	<path class="st12" d="M404.3,39.6c-0.2,0.2-0.4,0.4-0.6,0.7c-0.1,0.2-0.3,0.3-0.5,0.4c-0.5,0.4-1,0.7-1.5,1c-0.1,0-0.2,0.1-0.3,0.1
		c-0.9,0.2-1.8,0.2-2.7,0.2c-0.6,0-1.2-0.1-1.7-0.3c-0.3-0.1-0.6-0.3-0.9-0.5c-0.1-0.1-0.2-0.3-0.3-0.4c-0.1-0.1-0.1-0.1-0.2,0
		c0,0-0.1,0.1-0.1,0.1c-0.2,0.1-0.2-0.1-0.2-0.2c0-0.3-0.2-0.5-0.5-0.7c-0.1-0.1-0.3-0.2-0.3-0.4c-0.1-0.2,0-0.5,0.2-0.5
		c0.6-0.2,0.9-0.6,1.2-1c0.1-0.1,0.2-0.3,0.4-0.2c0.1,0,0.2,0,0.4,0c0.2,0,0.3-0.1,0.4-0.2c0.3-0.4,0.6-0.7,1-1
		c0.3-0.3,0.7-0.4,1.1-0.5c0.1,0,0.2,0,0.3-0.1c0.1,0,0.3,0,0.4,0c0.5,0,0.9,0.1,1.4,0.2c0.7,0.2,1.3,0.5,1.9,0.9
		c0.5,0.3,0.9,0.6,1.4,1c0.3,0.2,0.3,0.4,0.2,0.7c0,0.1-0.1,0.2-0.1,0.3C404.5,39.3,404.4,39.4,404.3,39.6z"/>
	<path class="st7" d="M387.1,34.2c0-0.2,0.1-0.4,0.1-0.7c0-0.1,0-0.2,0-0.2c0-0.1,0-0.2,0-0.4c0-0.1,0-0.1,0-0.2c0-0.6,0-1.2,0-1.7
		c0-0.2,0-0.5-0.2-0.7c-0.2-0.3-0.4-0.4-0.7-0.3c-0.2,0.1-0.4,0.1-0.6,0.2c-0.3,0.1-0.6,0.2-1,0c-0.1-0.1-0.2-0.1-0.4-0.2
		c-0.1,0-0.1-0.1-0.2-0.1c0-0.1,0.1-0.2,0.1-0.2c0.1-0.1,0.1-0.1,0.2-0.2c0.1-0.1,0.2-0.3,0.1-0.4c0-0.2,0-0.3,0.2-0.4
		c0.2-0.1,0.4-0.2,0.6-0.4c0.2-0.2,0.5-0.3,0.7-0.5c0.4-0.4,0.7-0.8,1.1-1.1c0.4-0.4,0.6-0.6,1.1-0.9c0.2-0.1,0.4-0.2,0.6-0.2
		c0.3,0,0.5,0.1,0.6,0.3c0.2,0.3,0.3,0.6,0.4,1c0.1,0.4,0.1,0.7,0.1,1.1c0.1,0.3,0,0.6,0.1,1c0,0.1,0,0.1,0,0.2c0,0.1,0,0.3,0,0.4
		c0,0.2,0,0.4,0,0.5c0,0,0,0-0.1,0c-0.2,0-0.2,0-0.2,0.1c0,0.1,0,0.1,0,0.2c0,0.7-0.3,1.3-0.7,1.8c-0.4,0.5-0.8,0.9-1.3,1.3
		c-0.3,0.3-0.5,0.5-0.7,0.8C387.2,34.1,387.2,34.1,387.1,34.2C387.2,34.2,387.1,34.2,387.1,34.2z"/>
	<path class="st12" d="M386.1,12c0,0.2-0.1,0.5-0.1,0.7c-0.1,0.3-0.1,0.7-0.1,1c0,0.3,0,0.7,0,1.1c0,0,0,0.1,0,0.1
		c0,0.3,0,0.7,0.1,1c0.1,0.5,0.1,0.9,0.2,1.4c0,0.3,0.1,0.7,0.1,1c0,0.2,0.1,0.3,0.1,0.5c0,0.4,0,0.8,0,1.1
		c-0.1,0.7-0.2,1.4-0.4,2.1c-0.2,0.6-0.5,1.2-0.8,1.7c-0.3,0.4-0.5,0.9-0.8,1.3c-0.1,0.2-0.2,0.3-0.3,0.5c-0.1,0.1-0.2,0.2-0.3,0.2
		c-0.7,0.3-1.4,0.7-2.1,1c-1,0.4-1.9,0.9-2.9,1.2c0,0-0.1,0-0.1,0c-0.1,0-0.2,0.1-0.2,0.2c0,0.1,0,0.2-0.1,0.3
		c-0.1,0-0.1,0.1-0.2,0.1c-0.9,0.9-1.7,1.8-2.3,2.9c-0.5,0.9-1,1.9-1.4,2.9c0,0.1-0.1,0.3-0.2,0.4c-0.3,0.6-0.4,1.2-0.5,1.8
		c-0.1,0.6-0.2,1.2-0.4,1.8c-0.1,0.2-0.1,0.4-0.2,0.5c-0.3,0.6-0.6,1.3-0.8,1.9c0,0.1-0.1,0.2-0.2,0.3c0,0,0,0-0.1,0.1l0,0
		c-0.1-0.1-0.1-0.2,0-0.3c0.1-0.3,0.1-0.7,0.2-1c0-0.2,0-0.3,0.1-0.5c0-0.3,0.1-0.5,0.2-0.8c0.1-0.4,0.2-0.7,0.2-1.1
		c0.1-0.5,0.2-1,0.4-1.5c0.2-0.8,0.4-1.7,0.7-2.5c0.1-0.4,0.3-0.8,0.5-1.2c0.4-0.8,0.8-1.6,1.3-2.3c0.3-0.5,0.7-0.9,1.1-1.4
		c0.2-0.2,0.4-0.4,0.6-0.6c0.4-0.4,0.9-0.7,1.5-1c0.4-0.1,0.7-0.2,1.1-0.3c0.4-0.1,0.8-0.1,1.2-0.2c0.1,0,0.2-0.1,0.3-0.1
		c0.3-0.1,0.6-0.3,0.9-0.4c0.3-0.2,0.6-0.3,0.9-0.6c0.3-0.2,0.5-0.4,0.7-0.7c0.2-0.3,0.3-0.5,0.5-0.8c0.1-0.2,0.2-0.4,0.3-0.7
		c0.1-0.4,0.2-0.8,0.2-1.2c0-0.2,0-0.3,0.1-0.5c0.1-0.4,0.1-0.8,0.2-1.2c0.1-0.3,0.1-0.7,0.1-1c0.1-0.3,0-0.5,0.1-0.8
		c0.1-0.4,0-0.7,0.1-1.1c0.1-0.4,0-0.9,0.1-1.3c0-0.3,0-0.6,0.1-0.9c0-0.1,0-0.2,0-0.2c0-0.2,0-0.3,0-0.5c0-0.1,0-0.3,0-0.4
		c0-0.2,0-0.3,0-0.5c0,0,0-0.1,0-0.2c0-0.5,0.1-0.9,0.2-1.3c0-0.1,0.1-0.3,0.2-0.4c0,0,0,0,0.1,0c0,0,0,0,0,0.1
		C386.2,11.9,386.1,11.9,386.1,12z"/>
	<path class="st12" d="M422.4,34.2c0,0.2,0,0.4-0.1,0.7c-0.1,0.4-0.2,0.8-0.4,1.2c0,0,0,0.1,0,0.1c0,0.1-0.1,0.1,0,0.2
		c0,0.1,0.1,0,0.2,0c0.1,0,0.2,0,0.3-0.1c0.1,0,0.2,0.1,0.2,0.2c0,0.3,0.1,0.6,0.1,0.8c-0.1,0.4-0.1,0.8-0.3,1.2
		c-0.2,0.3-0.5,0.5-0.8,0.5c-0.1,0-0.1,0-0.2-0.1c-0.1-0.2-0.1-0.3-0.1-0.5c0-0.1,0-0.2-0.1-0.3c-0.2-0.2-0.5-0.4-0.7-0.6
		c-0.1-0.1-0.2-0.3-0.3-0.4c-0.2-0.2-0.3-0.4-0.4-0.6c-0.2-0.2-0.3-0.5-0.4-0.7c-0.1-0.1-0.1-0.3-0.1-0.5c0,0,0-0.1,0-0.1
		c-0.1-0.2,0-0.4,0.1-0.6c0-0.1,0.1-0.2,0.2-0.2c0.1,0,0.1-0.1,0.2-0.2c0.2-0.2,0.2-0.2,0.1-0.4c0,0-0.1-0.1-0.1-0.1
		c-0.1-0.2-0.1-0.3,0.2-0.3c0.1,0,0.1,0,0.2-0.1c0,0,0,0,0-0.1c-0.1-0.1,0-0.1,0.1-0.1c0.1,0,0.2,0,0.4,0c0.1,0,0.1,0,0.2,0
		c0.3-0.1,0.7-0.1,1-0.3c0.1-0.1,0.2-0.1,0.2-0.2c0.1-0.1,0.1-0.1,0.2-0.2c0.1-0.1,0.2,0,0.2,0.1c0,0.1,0.1,0.3,0,0.5
		c0,0.1,0,0.2-0.1,0.4c0,0.1,0,0.1,0.1,0.1c0.1,0,0.1-0.1,0.2,0c0.1,0.1,0,0.2,0,0.2C422.4,34,422.4,34.1,422.4,34.2z"/>
	<path class="st1" d="M429.8,55.1c0,0.1,0,0.1,0,0.2c-0.1,0-0.1,0.1-0.2,0.2c-0.1,0.2-0.2,0.5-0.3,0.7c-0.1,0.2-0.2,0.4-0.3,0.6
		c-0.1,0.1-0.1,0.2,0,0.4c0,0.1,0.1,0.2,0.1,0.3c0,0,0,0.1,0,0.1c0,0-0.1,0-0.1,0c-0.1-0.1-0.1-0.2-0.2-0.4
		c-0.1-0.1-0.1-0.2-0.2-0.3c-0.1-0.2-0.1-0.5,0.1-0.7c0.1-0.1,0.1-0.2,0.1-0.4c0-0.3,0-0.7,0-1c0-0.1,0-0.1,0-0.2
		c-0.2-0.5-0.2-1-0.1-1.5c0.1-0.6,0-1.1,0.1-1.7c0,0,0,0,0,0c0,0,0,0,0,0c0,0,0.1,0,0.1,0c0,0,0,0.1,0,0.1c0,0,0.1,0.1,0.1,0.1
		c0,0.2,0,0.4,0.1,0.6c0.1,0.3,0.1,0.5,0.1,0.8c0,0.1,0.1,0.3,0.1,0.4c0,0.1,0.1,0.2,0.2,0.2c0.1,0,0.1,0.1,0.1,0.2c0,0,0,0.1,0,0.1
		c0,0.2,0,0.3,0.2,0.4c0,0,0,0,0.1,0.1c-0.1,0.1-0.1,0.1-0.2,0.2c0,0,0,0-0.1,0.1c0,0.1,0,0.1,0,0.2C429.6,54.9,429.7,55,429.8,55.1
		z"/>
	<path class="st1" d="M370.3,51c0.2,0,0.4-0.1,0.5-0.2c0.1-0.1,0.3-0.1,0.4-0.2c0.6-0.3,1.3-0.6,2-1c0.1-0.1,0.2-0.1,0.4-0.1
		c-0.1,0.1-0.1,0.2-0.2,0.2c-0.2,0.1-0.3,0.2-0.5,0.3c-0.5,0.3-1.1,0.6-1.6,0.9c-0.2,0.1-0.4,0.2-0.6,0.3c-0.1,0.1-0.2,0.1-0.3,0.3
		c-0.1,0-0.1,0-0.2,0c-0.2,0.1-0.4,0.2-0.7,0.4c-0.2,0.1-0.5,0.3-0.7,0.4c-0.7,0.4-1.3,0.7-2,1.1c-0.3,0.2-0.5,0.3-0.8,0.4
		c-0.1-0.1,0-0.1,0.1-0.2c0.2-0.1,0.5-0.3,0.7-0.4c0.7-0.4,1.4-0.8,2.1-1.2c0.4-0.3,0.9-0.5,1.3-0.8C370.2,51.1,370.2,51,370.3,51z"
		/>
	<path class="st0" d="M370.7,45.4c0.2,0.1,0.3,0.1,0.5,0.1c0.2,0,0.4,0.1,0.6,0.1c0.3,0,0.7,0.1,1,0.2c0,0,0.1,0,0.1,0
		c0.1,0,0.1,0,0.2,0.1c0,0-0.1,0-0.1,0c-0.2,0-0.5-0.1-0.7-0.1c-0.2,0-0.5-0.1-0.7-0.1c-0.3,0-0.6-0.1-0.9-0.1
		c-0.1,0-0.3-0.1-0.4-0.1c-0.2,0-0.3-0.1-0.5-0.1c-0.3,0-0.7-0.1-1-0.2c-0.2,0-0.4-0.1-0.6-0.1c-0.4,0-0.8-0.1-1.2-0.2
		c-0.5,0-1-0.1-1.5-0.2c0,0-0.1,0-0.1,0c-0.4,0-0.9-0.1-1.3-0.2c-0.3,0-0.5-0.1-0.8-0.1c0.1-0.2,0.2-0.1,0.3-0.1
		c0.2,0,0.4,0,0.6,0.1c0,0,0.1,0,0.1,0c0.4,0,0.7,0.1,1,0.1c0.1,0,0.1,0,0.2,0c0.3,0,0.6,0.1,1,0.1c0.2,0,0.5,0.1,0.7,0.1
		c0.2,0,0.4,0,0.6,0.1c0.4,0.1,0.8,0.1,1.2,0.2c0.3,0,0.6,0.1,0.9,0.2C370.1,45.4,370.4,45.4,370.7,45.4z"/>
	<path class="st6" d="M421.1,49.4c0.1,0.1,0.1,0.2,0.1,0.3c0,0.3,0,0.6,0,0.9c0,0.2-0.2,0.5-0.4,0.5c0,0-0.1,0-0.2,0
		c-0.1,0-0.1-0.1-0.1-0.1c0-0.1,0.1-0.1,0.1-0.2c0.1-0.1,0.2-0.3,0.2-0.5c0-0.2,0.1-0.4,0.1-0.6C421,49.6,421,49.5,421.1,49.4z"/>
	<path class="st10" d="M370.8,49.3c0.1-0.1,0.3-0.1,0.4-0.2c0.1-0.1,0.3-0.1,0.5-0.2c-0.1,0.1-0.1,0.1-0.4,0.3
		c-0.1,0.1-0.3,0.1-0.4,0.2C370.9,49.3,370.9,49.3,370.8,49.3z"/>
	<path class="st13" d="M363.5,44.5c-0.1,0-0.2,0-0.3,0.1c-0.1,0-0.3,0-0.4-0.1C363,44.5,363.2,44.5,363.5,44.5
		C363.5,44.5,363.5,44.5,363.5,44.5z"/>
	<path class="st21" d="M365.5,49.4C365.5,49.4,365.5,49.4,365.5,49.4C365.5,49.5,365.5,49.5,365.5,49.4c-0.1,0.1-0.2,0.1-0.2,0
		C365.4,49.4,365.4,49.4,365.5,49.4C365.5,49.4,365.5,49.4,365.5,49.4z"/>
	<path class="st10" d="M370.3,49.4c0.1,0,0.1,0,0.2,0C370.3,49.5,370.3,49.5,370.3,49.4z"/>
	<path class="st10" d="M370.5,49.4c0,0,0.1-0.1,0.1-0.1C370.6,49.4,370.5,49.4,370.5,49.4z"/>
	<path class="st10" d="M370.6,49.3c0,0,0.1-0.1,0.1-0.1C370.7,49.3,370.7,49.3,370.6,49.3z"/>
	<path class="st10" d="M370.5,49.5c0,0-0.1,0.1-0.1,0.1C370.4,49.5,370.5,49.5,370.5,49.5z"/>
	<path class="st7" d="M365.9,49.3C365.9,49.3,365.9,49.3,365.9,49.3C365.9,49.3,365.9,49.3,365.9,49.3L365.9,49.3z"/>
	<path class="st1" d="M387.2,34.2C387.2,34.1,387.2,34.1,387.2,34.2C387.2,34.1,387.2,34.1,387.2,34.2z"/>
	<path class="st10" d="M370.9,49.3C370.9,49.4,370.8,49.4,370.9,49.3C370.8,49.4,370.9,49.4,370.9,49.3z"/>
	<path class="st10" d="M370.8,49.4C370.7,49.4,370.7,49.4,370.8,49.4C370.7,49.4,370.7,49.4,370.8,49.4z"/>
	<path class="st10" d="M370.6,49.5C370.6,49.5,370.6,49.5,370.6,49.5C370.6,49.5,370.6,49.5,370.6,49.5z"/>
	<path class="st12" d="M379.9,43.2c0.2,0,0.5,0,0.7,0c0.3,0,0.7,0.1,1,0.1c0.8,0.1,1.6,0.4,2.3,0.6c0.2,0.1,0.5,0.2,0.7,0.3
		c0.5,0.2,0.9,0.4,1.2,0.8c0.1,0.1,0.3,0.3,0.5,0.4c0.3,0.2,0.4,0.4,0.4,0.8c0,0.4-0.1,0.8-0.2,1.1c-0.1,0.3-0.2,0.5-0.2,0.8
		c0,0.4,0,0.8,0,1.2c0,0.1,0,0.1,0,0.2c0,0.2-0.2,0.2-0.3,0.2c-0.1,0-0.1-0.1-0.2-0.1c0,0-0.1,0.1-0.1,0.1c-0.1,0.1-0.1,0.2-0.1,0.3
		c0,0.1,0,0.2-0.1,0.2c-0.1,0-0.2,0-0.2,0c-0.1,0-0.1-0.1-0.2-0.1c0,0-0.1,0-0.1,0c0,0-0.1,0.1-0.1,0.1c-0.1,0.2-0.1,0.2,0.1,0.3
		c0,0,0,0,0,0c0.2,0.2,0.2,0.2,0,0.4c-0.1,0.1-0.1,0.1,0,0.2c0.2,0.1,0.4,0.1,0.5,0.2c0,0,0.1,0,0.1,0.1c0,0,0,0.1,0,0.1
		c-0.2,0.2-0.4,0.2-0.6,0.2c-0.1,0-0.1,0-0.1-0.1c0-0.1-0.1-0.1-0.1-0.2c0,0-0.1,0-0.1,0c0,0.1-0.1,0.2-0.1,0.3c0,0.2,0,0.4,0.2,0.4
		c0,0,0,0,0.1,0c0.1,0.1,0.1,0.1,0,0.2c0,0.1-0.1,0.1-0.2,0.2c-0.1,0.1-0.1,0.2-0.1,0.3c0,0.2,0.1,0.4,0.1,0.6
		c0,0.1,0.1,0.2,0.2,0.2c0.1,0,0.2,0,0.2,0c0.1,0,0.1,0,0.1,0c0.1,0.1,0.2,0.2,0,0.3c-0.1,0-0.1,0.1-0.2,0.1
		c-0.2,0.1-0.2,0.1-0.1,0.3c0,0.1,0.1,0.1,0.1,0.2c0.2,0.3,0.4,0.7,0.7,1c0.2,0.2,0.4,0.3,0.6,0.4c0.4,0.2,0.7,0.3,1.1,0.5
		c0.4,0.2,0.7,0.3,1.1,0.3c0.1,0,0.3,0,0.4,0c0.6-0.1,1.2-0.3,1.8-0.5c0.8-0.3,1.6-0.5,2.5-0.7c0.4-0.1,0.8-0.1,1.3-0.1
		c0.4,0,0.8,0.1,1.1,0.4c0,0,0.1,0.1,0.1,0.1c0.1,0.1,0.1,0.2,0,0.2c0,0-0.1,0.1-0.1,0.1c-0.1,0.1-0.1,0.1,0,0.2
		c0.1,0.4,0,0.8-0.2,1.2c-0.2,0.3-0.4,0.5-0.7,0.7c-0.1,0.1-0.2,0.2-0.2,0.2c-0.1,0.1,0,0.1,0,0.1c0,0,0,0,0.1,0
		c0.2,0.1,0.2,0.3,0.1,0.4c-0.1,0.1-0.2,0.2-0.4,0.2c-0.2,0-0.3,0-0.5,0.2c-0.3,0.2-0.6,0.3-0.9,0.3c0,0-0.1,0-0.1,0
		c-0.6-0.2-1.3-0.2-2-0.2c-0.6,0-1-0.4-1-0.9c0-0.2-0.4-0.4-0.7-0.2c-0.1,0.1-0.2,0.1-0.2,0.2c-0.2,0.3-0.5,0.6-0.7,0.9
		c-0.1,0.2-0.3,0.2-0.4,0.1c-0.3-0.3-0.7-0.3-1.1-0.4c-0.2,0-0.3-0.1-0.4-0.2c-0.4-0.4-1-0.4-1.3,0.2c-0.1,0.1-0.1,0.2-0.2,0.4
		c-0.2,0.4-0.4,0.5-0.7,0.3c-0.2-0.1-0.4-0.1-0.6,0.1c-0.1,0.1-0.4,0.1-0.5,0c-0.4-0.1-0.6,0-0.8,0.3c-0.1,0.1-0.1,0.2-0.3,0.3
		c-0.2-0.2-0.4-0.4-0.6-0.5c-0.1-0.1-0.3-0.2-0.4-0.4c-0.2-0.2-0.4-0.4-0.6-0.5c-0.2-0.1-0.3-0.2-0.4-0.3c-0.2-0.3-0.5-0.5-0.7-0.8
		c-0.1-0.1-0.2-0.2-0.3-0.3c-0.1-0.1-0.2-0.2-0.3-0.2c-0.1,0-0.2-0.1-0.3-0.1c-0.4-0.3-0.7-0.5-1-0.9c0,0,0,0,0-0.1
		c-0.2-0.4-0.2-0.7-0.2-1.1c0-0.3-0.1-0.6-0.2-0.9c0-0.1-0.1-0.2-0.2-0.3c0,0,0,0-0.1-0.1c-0.2-0.4-0.5-0.8-0.8-1.2
		c-0.2-0.3-0.3-0.6-0.4-0.9c0-0.1,0-0.2,0-0.3c0-0.6,0-1.2,0.2-1.8c0.1-0.7,0.3-1.3,0.4-1.9c0.1-0.4,0.2-0.9,0.3-1.3
		c0-0.2,0.1-0.4,0.1-0.6c0-0.2,0.1-0.4,0.2-0.6c0.1-0.2,0.1-0.4,0.2-0.6c0-0.2,0.2-0.4,0.3-0.6c0.3-0.4,0.7-0.7,1.2-0.9
		c0.1,0,0.1,0,0.2-0.1c0.3-0.2,0.6-0.2,0.9-0.3C379.7,43.2,379.8,43.2,379.9,43.2z"/>
	<path class="st9" d="M403.9,71c-0.8,0.4-1.5,0.8-2.2,1.3c-0.3,0.2-0.7,0.5-1,0.8c0,0,0,0,0,0c-0.1,0.2-0.2,0.2-0.4,0.3
		c-0.3,0.1-0.7,0.2-1,0.3c-0.1,0-0.1,0-0.2,0c-0.4,0-0.8,0.1-1.1,0.3c-0.3,0.1-0.6,0.3-1,0.4c-0.1,0-0.3,0.1-0.4,0
		c-0.1,0-0.2,0-0.3,0.1c0,0.1-0.1,0.1-0.2,0.1c-0.1,0-0.2,0-0.3,0c-0.3,0-0.5,0.1-0.8,0.1c-0.1,0-0.2,0.1-0.3,0.1
		c-0.2,0.1-0.2,0.1-0.1,0.3c0,0.1,0.1,0.2,0.2,0.3c0,0.1,0.1,0.1,0.1,0.2c0,0.1,0,0.1,0,0.2c-0.1,0.2-0.3,0.3-0.5,0.4
		c-0.3,0.3-0.7,0.5-1,0.8c-0.1,0.1-0.1,0.1-0.1,0.2c0.1,0.3,0.2,0.6,0.2,0.9c0,0.1,0,0.2-0.1,0.2c-0.2,0.1-0.3,0.1-0.5,0.1
		s-0.3,0.1-0.5,0.1c-0.2,0-0.4,0.1-0.6,0.1c-0.1,0-0.1,0-0.2,0c-0.1,0-0.1,0.1-0.1,0.1c0,0.1,0,0.2,0.1,0.3c0,0.2,0,0.3,0,0.5
		c-0.1,0.2-0.2,0.5-0.4,0.7c-0.3,0.3-0.6,0.6-0.8,1c-0.1,0.1-0.1,0.1-0.2,0.1c-0.2-0.1-0.4-0.2-0.7-0.3c-0.1,0.1-0.1,0.2-0.2,0.3
		c-0.1,0.5-0.4,0.9-0.5,1.4c0,0.1-0.1,0.1-0.2,0.1c0,0,0,0,0,0c-0.1,0-0.1-0.1-0.2-0.1c-0.4-0.3-1-0.3-1.3,0.2
		c-0.1,0.2-0.2,0.4-0.4,0.5c0,0,0,0.1,0,0.1c-0.1,0.3-0.2,0.6-0.3,0.9c-0.1,0.1-0.1,0.2-0.2,0.4c-0.2,0.4-0.5,0.8-0.8,1.1
		c-0.1,0.1-0.2,0.2-0.3,0.4c-0.1,0.1-0.2,0-0.2,0c0-0.1,0-0.1,0-0.2c0-0.2,0-0.4,0-0.7c0,0,0-0.1,0-0.1c0,0-0.1-0.1-0.1,0
		c0,0-0.1,0.1-0.1,0.1c-0.5,0.4-1.1,0.7-1.7,0.8c-0.1,0-0.1,0-0.2,0c-0.1-0.1,0-0.2,0-0.2c0.2-0.3,0.4-0.6,0.6-0.9
		c0.2-0.2,0.4-0.4,0.5-0.7c0.1-0.1,0.1-0.2,0-0.2c0,0-0.1-0.1-0.1-0.1c-0.1-0.1,0-0.1,0-0.2c0.1,0,0.1-0.1,0.2-0.1
		c0.5-0.3,0.7-0.8,0.6-1.3c-0.1-0.4-0.2-0.7-0.4-1c0,0,0-0.1-0.1-0.1c-0.1-0.1-0.1-0.1,0-0.2c0,0,0.1-0.1,0.1-0.1
		c0.1-0.1,0.1-0.2,0-0.3c-0.1-0.1-0.2-0.2-0.3-0.3c-0.1-0.1-0.1-0.2-0.1-0.4c0-0.1,0-0.2,0.1-0.3c0-0.1,0-0.2,0-0.3
		c-0.1-0.1-0.1-0.3-0.2-0.4c0-0.1,0-0.1,0.1-0.2c0,0,0.1,0,0.1,0c0-0.1,0-0.1,0-0.2c0,0,0-0.1,0-0.1c0-0.3-0.1-0.6-0.2-0.9
		c0-0.1,0-0.1,0-0.2c0-0.1,0-0.2,0-0.2c0-0.1,0.1-0.1,0.2-0.1c0.1,0,0.1-0.1,0.1-0.1c0-0.1-0.1-0.1-0.1-0.2c0,0,0.1,0,0.1,0
		c0.2,0,0.2,0,0.1-0.2c0-0.1-0.1-0.2-0.2-0.3c-0.1-0.1-0.1-0.2,0.1-0.2c0,0,0.1,0,0.1-0.1c0.3-0.1,0.5,0,0.7,0.1
		c0.1,0.1,0.3,0.2,0.4,0.3c0.7,0.8,1.5,1.4,2.5,1.9c0.1,0,0.2,0.1,0.2,0.2c0.4,0.4,1.2,0.3,1.5-0.2c0.1-0.2,0-0.4,0-0.5
		c0-0.3,0-0.6-0.2-0.8c-0.1-0.1-0.1-0.2-0.1-0.3c0.1-0.4-0.1-0.7-0.5-0.9c-0.4-0.2-0.8-0.6-1.3-0.7c-0.1,0-0.1-0.1-0.1-0.2
		c0-0.1,0.1-0.1,0.2-0.1c0.2,0,0.4-0.1,0.5-0.1c0.1-0.1,0.2-0.1,0-0.2c-0.2-0.2-0.5-0.4-0.7-0.6c-0.1-0.1-0.3-0.1-0.4-0.1
		c-0.3,0.1-0.6,0.1-0.9-0.1c-0.3-0.1-0.5-0.1-0.8-0.2c-1.2-0.4-2.3-1-3.3-1.8c-0.5-0.4-1-0.8-1.4-1.2c-0.1-0.1-0.3-0.2-0.5-0.3
		c-0.6-0.3-1.2-0.8-1.5-1.4c-0.1-0.2-0.2-0.3-0.2-0.5c0-0.1,0-0.2,0.1-0.2c0.1-0.1,0.2,0,0.2,0.1c0.8,1.1,2,1.7,3.1,2.2
		c0.2,0.2,0.4,0.3,0.7,0.4c0.4,0.2,0.9,0.3,1.3,0.5c0.8,0.3,1.6,0.5,2.4,0.6c0.4,0.1,0.7,0.2,1.1,0.2c0.2,0,0.5,0.1,0.7,0.1
		c0.4,0.1,0.9,0,1.3,0.1c0.1,0,0.2,0,0.3,0c0.1,0,0.1,0,0.2,0c0.5,0,1-0.1,1.5-0.2c0.4-0.1,0.9-0.2,1.3-0.2c0.4-0.1,0.7-0.1,1.1-0.2
		c0.4-0.1,0.9-0.2,1.3-0.2c0.2,0,0.4-0.1,0.6-0.1c0,0,0,0,0.1,0c0.3,0,0.6-0.1,1-0.1c0.3,0,0.6-0.1,0.8-0.1c0.2,0,0.4,0,0.6-0.1
		c1.2-0.2,2.4-0.5,3.5-0.9c0.6-0.2,1.3-0.5,1.9-0.8c0.6-0.3,1.1-0.5,1.7-0.8c0.6-0.3,1.1-0.6,1.7-0.8c0.3-0.2,0.6-0.4,0.9-0.5
		c0.5-0.3,1-0.6,1.5-1c0.2-0.1,0.4-0.2,0.5-0.2c0.1-0.1,0.2,0,0.2,0.2c-0.1,0.2-0.2,0.5-0.4,0.7c-0.2,0.2-0.4,0.4-0.6,0.6
		c0,0.1,0.1,0.1,0.1,0.1c0.2,0,0.5,0,0.7,0c0,0,0.1,0,0.1,0c0,0.1,0,0.1-0.1,0.1c0,0-0.1,0.1-0.2,0.1c-0.5,0.3-0.9,0.6-1.4,1
		c-0.5,0.4-1,0.8-1.5,1.2c-0.3,0.3-0.7,0.6-1.1,0.8C404.8,70.6,404.3,70.8,403.9,71z"/>
	<path class="st1" d="M381.2,70c-0.1,0-0.2,0-0.3-0.1c-0.5-0.2-1-0.5-1.4-0.8c-0.4-0.3-0.8-0.6-1.1-0.9c-0.1-0.1-0.2-0.3-0.4-0.5
		c0,0-0.1,0-0.1,0c0,0-0.1,0-0.1,0.1c0,0.1,0,0.1,0,0.2c0.1,0.3,0.2,0.5,0.4,0.7c0.3,0.5,0.8,0.8,1.3,1c0.3,0.1,0.5,0.3,0.7,0.5
		c0.3,0.3,0.6,0.6,0.9,0.8c0.4,0.3,0.9,0.7,1.3,0.9c0.7,0.4,1.4,0.8,2.2,1c0.2,0.1,0.4,0.1,0.5,0.1c0.2,0,0.4,0.1,0.5,0.2
		c0.2,0.1,0.3,0.1,0.5,0c0.1,0,0.1,0,0.2-0.1c0.2-0.1,0.3,0,0.5,0.1c0.1,0.1,0.3,0.3,0.4,0.4c0.1,0.1,0.3,0.2,0.4,0.3
		c0.1,0.1,0.1,0.1,0,0.2c-0.3,0.1-0.5,0.3-0.8,0.2c0,0,0,0-0.1,0c0,0,0,0,0,0.1c0,0,0,0,0,0c0.4,0.1,0.7,0.3,1,0.6
		c0.2,0.1,0.4,0.2,0.6,0.3c0.1,0,0.1,0.1,0.1,0.2c0,0.1,0,0.1,0.1,0.2c0,0,0,0,0.1,0.1c0.2,0.2,0.2,0.2,0.1,0.4
		c-0.1,0.1-0.1,0.1,0,0.2c0.1,0.1,0.2,0.1,0.2,0.2c0,0,0,0,0,0c-0.1,0.2-0.1,0.3,0,0.5c0.1,0.1,0.1,0.2,0,0.2
		c-0.1,0.1-0.1,0.2,0,0.3c0.1,0.1,0.1,0.2-0.1,0.3c-0.1,0-0.2,0.1-0.2,0.2c-0.1,0.1-0.3,0.2-0.4,0.2c-0.3,0-0.5,0-0.8-0.1
		c-0.1,0-0.1,0-0.1-0.1c0-0.1-0.1-0.2-0.2-0.2c-0.5-0.2-0.9-0.5-1.3-0.8c-0.3-0.2-0.5-0.4-0.8-0.6c-0.1-0.1-0.2-0.2-0.3-0.3
		c-0.3-0.4-0.7-0.6-1.1-0.6c0,0,0,0,0-0.1c-0.3-0.4-0.7-0.7-1-1.1c-0.1-0.1-0.2-0.3-0.3-0.4c-0.3-0.3-0.6-0.6-0.9-0.9
		c-0.6-0.4-1.2-0.8-1.8-1.2c-0.1-0.1-0.3-0.1-0.5-0.2c-0.2-0.1-0.4-0.2-0.6-0.2c-0.3-0.1-0.5-0.3-0.7-0.4c-0.1-0.1-0.3-0.2-0.4-0.3
		c-0.2-0.2-0.3-0.4-0.5-0.5c-0.3-0.4-0.6-0.8-0.8-1.3c-0.3-0.6-0.6-1.2-0.9-1.9c-0.1-0.2-0.2-0.4-0.2-0.6c0,0,0-0.1-0.1-0.1
		c-0.2-0.2-0.4-0.6-0.5-0.9c-0.2-0.4-0.3-0.9-0.5-1.3c0-0.1-0.1-0.2,0-0.3c0.1-0.1,0.2-0.2,0.3-0.2c0,0,0.1,0,0.1,0
		c0.1,0.1,0.1,0.1,0.2,0.2c0.1,0.3,0.2,0.5,0.5,0.8c0.1,0,0.1,0.1,0.1,0.2c0,0,0.1,0.1,0.1,0.1c0.3,0.1,0.4,0.3,0.5,0.5
		c0.1,0.1,0.2,0.3,0.3,0.5c0,0,0,0,0.1,0c0,0,0,0,0-0.1c0,0,0,0,0,0c-0.1-0.2-0.1-0.4-0.2-0.6c0-0.1,0-0.1,0-0.1c0,0,0.1,0,0.1,0
		c0.3,0.2,0.7,0.4,1,0.7c0.5,0.4,1.1,0.7,1.5,1.2c0.2,0.1,0.3,0.3,0.5,0.4c0.4,0.3,0.8,0.7,1.1,1.2C380.7,69.2,381,69.6,381.2,70z"
		/>
	<path class="st12" d="M380.3,36.2c0-0.4,0.2-0.8,0.4-1.2c0.1-0.1,0.1-0.2,0.2-0.3c0.1-0.2,0.2-0.4,0.3-0.6c0,0,0-0.1,0-0.1
		c0.3-0.3,0.6-0.7,1-0.9c0,0,0.1,0,0.1,0c0.2-0.2,0.5-0.2,0.7-0.2c0.3,0,0.6,0,0.9,0c0.3,0,0.5,0,0.8-0.1c0,0,0.1,0,0.1,0
		c0.1,0.1,0.3,0.1,0.5,0.1c0.1,0.1,0.2,0.3,0.1,0.4c0,0.1-0.1,0.1-0.1,0.1c-0.1,0-0.1,0.1-0.1,0.2c0.1,0.3,0.4,0.6,0.7,0.6
		c0,0,0.1,0,0.1,0c0.1,0,0.1,0.1,0.1,0.1c0,0.1,0,0.3,0,0.4c-0.1,0.3-0.2,0.5-0.4,0.8c-0.1,0.2-0.3,0.4-0.4,0.5
		c-0.1,0.2-0.2,0.4-0.3,0.6c-0.1,0.4-0.4,0.7-0.7,0.9c-0.5,0.3-0.9,0.6-1.4,0.9c-0.3,0.2-0.7,0.3-1.1,0.2c-0.3-0.1-0.5-0.3-0.8-0.4
		c0,0-0.1,0-0.1-0.1c0-0.1-0.1-0.2-0.1-0.2c-0.3-0.3-0.4-0.7-0.5-1.1C380.3,36.6,380.3,36.4,380.3,36.2z"/>
	<path class="st17" d="M373.5,41.4c0-0.4,0.1-0.7,0.2-1c0-0.2,0.1-0.5,0.2-0.7c0.1-0.4,0.3-0.8,0.5-1.2c0.2-0.2,0.2-0.5,0.2-0.8
		c0-0.1,0-0.2,0-0.3c0-0.2,0.1-0.4,0.3-0.4c0.1-0.1,0.3-0.1,0.4-0.2c0.3-0.1,0.5-0.3,0.7-0.5c0.2-0.4,0.5-0.7,0.7-1.1
		c0.1-0.1,0.1-0.2,0.2-0.2c0.4-0.6,1.3-0.7,1.8-0.3c0.3,0.2,0.4,0.7,0.3,1c0,0.1-0.1,0.2-0.1,0.2c-0.1,0.1-0.3,0.3-0.4,0.4
		c-0.2,0.1-0.3,0.3-0.5,0.5c-0.1,0.1-0.2,0.3-0.3,0.5c-0.1,0.2-0.1,0.5-0.1,0.7c0,0.1-0.1,0.2-0.1,0.3c-0.3,0.3-0.7,0.6-1.1,0.8
		c-0.2,0.1-0.4,0.2-0.6,0.4c-0.3,0.2-0.5,0.5-0.6,0.9c0,0,0,0,0,0.1c-0.1,0.2-0.1,0.2-0.3,0.2c-0.3,0-0.5,0.2-0.7,0.4
		c-0.1,0.2-0.2,0.3-0.3,0.5c0,0.1,0,0.1-0.1,0.2c0,0-0.1,0-0.1,0c0,0-0.1,0-0.1-0.1C373.5,41.6,373.5,41.5,373.5,41.4z"/>
	<path class="st17" d="M378.3,41.5c0.1,0,0.2,0,0.2,0.1c0.1,0.2,0.3,0.2,0.4,0.2c0.1,0.1,0,0.1-0.1,0.2c-0.1,0.1-0.2,0.3-0.3,0.5
		c0,0.1,0,0.1,0,0.2c-0.1,0.1-0.3,0.2-0.4,0.2c-0.1,0-0.3,0.1-0.4,0.1c-0.3,0.1-0.5,0.2-0.7,0.4c-0.2,0.2-0.4,0.3-0.6,0.5
		c-0.5,0.4-0.8,0.8-1,1.4c-0.2,0.5-0.3,1-0.4,1.5c-0.1,0.4-0.1,0.9-0.2,1.3c0,0.4,0,0.9-0.2,1.3c0,0.2,0,0.3-0.1,0.5
		c0,0.1,0,0.2,0,0.3c0,0,0,0.1,0,0.1c-0.1,0-0.1,0-0.1-0.1c0-0.1-0.1-0.2-0.1-0.3c0-0.1-0.1-0.2-0.3-0.2c-0.2,0-0.2-0.1-0.3-0.3
		c0-0.1,0-0.2-0.1-0.3c-0.1-0.1,0-0.2,0-0.3c0-0.6,0-1.1,0.1-1.6c0.1-0.5,0.2-1,0.2-1.4c0-0.1,0-0.3,0.1-0.4c0-0.1,0.1-0.2,0.1-0.3
		c0.1-0.2,0.3-0.4,0.4-0.6c0.1-0.1,0.2-0.2,0.3-0.1c0,0,0.1,0,0.1,0c0,0,0,0,0-0.1c0,0-0.1-0.1-0.1-0.1c0,0,0-0.1,0-0.1
		c0-0.1,0.1-0.1,0.1-0.2c0.2-0.4,0.4-0.9,0.6-1.3c0.1-0.3,0.3-0.6,0.5-0.9c0-0.1,0.1-0.1,0.1-0.1c0.2-0.2,0.3-0.3,0.4-0.5
		c0-0.1,0.1-0.2,0.2-0.2c0.2-0.1,0.3-0.2,0.5-0.3c0.1-0.1,0.2-0.1,0.2,0.1c0,0.2,0.1,0.4,0.1,0.6c0,0.1,0.1,0.3,0.1,0.4
		C378,41.7,378.1,41.7,378.3,41.5C378.2,41.5,378.2,41.5,378.3,41.5z"/>
	<path class="st2" d="M373.6,56.7c0-0.2,0.1-0.4,0.2-0.5c0.2-0.4,0.4-0.8,0.6-1.2c0-0.1,0.1-0.2,0.2-0.3c0.2-0.3,0.3-0.6,0.5-0.9
		c0-0.1,0.1-0.2,0.1-0.2c0,0,0,0,0.1,0c0,0,0,0,0,0.1c0,0,0,0.1,0,0.1c-0.1,0.1-0.1,0.3-0.1,0.4c-0.2,0.6-0.6,1.2-0.9,1.8
		c-0.1,0.2-0.3,0.5-0.4,0.7C373.8,56.6,373.7,56.7,373.6,56.7z"/>
	<path class="st3" d="M377.4,60.7c0-0.1,0-0.3,0.1-0.4c0.1-0.4,0.3-0.7,0.4-1.1c0,0,0,0,0.1,0c0,0,0,0,0,0.1c0,0.1,0,0.2-0.1,0.3
		c-0.1,0.5-0.3,0.9-0.4,1.4c0,0,0,0.1-0.1,0c0,0,0,0,0-0.1C377.4,60.8,377.4,60.7,377.4,60.7z"/>
	<path class="st4" d="M374.7,51.3C374.7,51.4,374.7,51.4,374.7,51.3c-0.3,0.4-0.7,0.8-1,1.1c0,0-0.1,0-0.1,0c0,0,0-0.1,0-0.1
		c0.1-0.1,0.3-0.3,0.4-0.4c0.1-0.1,0.2-0.2,0.3-0.3C374.5,51.4,374.6,51.4,374.7,51.3z"/>
	<path class="st11" d="M382.1,84.5c0,0.1-0.1,0.3-0.2,0.3c-0.1,0-0.1,0-0.2,0c0.1-0.1,0.2-0.2,0.3-0.3C382,84.5,382,84.5,382.1,84.5
		C382.1,84.5,382.1,84.5,382.1,84.5z"/>
	<path class="st8" d="M372.1,41.3C372.1,41.3,372.1,41.2,372.1,41.3C372.1,41.2,372.1,41.3,372.1,41.3z"/>
	<path class="st1" d="M382.1,84.5C382,84.5,382,84.5,382.1,84.5C382,84.5,382,84.5,382.1,84.5z"/>
	<path class="st9" d="M382.2,60.8c0.1-0.1,0.2-0.2,0.2-0.4c0.1-0.1,0.1-0.2,0.2-0.2c0.1-0.1,0.3-0.2,0.5-0.1
		c0.2,0.1,0.4,0.1,0.5,0.1c0.1,0,0.2,0,0.2-0.1c0.1-0.2,0.2-0.2,0.3-0.1c0.1,0,0.2,0.1,0.3,0.1c0.2,0.1,0.4,0,0.5-0.3
		c0-0.1,0.1-0.2,0.1-0.3c0.1-0.3,0.4-0.5,0.7-0.6c0.2-0.1,0.4,0,0.6,0c0.1,0,0.2,0.1,0.2,0.2c0.1,0.2,0.2,0.2,0.4,0.3
		c0.3,0,0.5,0.1,0.8,0.1c0.1,0,0.2,0.1,0.3,0.2c0,0,0.1,0.1,0.1,0.1c0.1,0,0.2,0,0.3-0.1c0-0.1,0.1-0.1,0.1-0.2
		c0-0.2,0.1-0.2,0.2-0.3c0.1-0.1,0.2-0.3,0.4-0.4c0-0.1,0.1-0.1,0.1-0.2c0.2-0.2,0.4-0.3,0.6-0.2c0.1,0,0.3,0.1,0.4,0.2
		c0,0,0.1,0.1,0,0.1c0,0,0,0.1,0,0.1c-0.1,0.1,0,0.2,0,0.3c0.1,0.1,0.2,0.2,0.3,0.4c0.1,0.2,0.2,0.2,0.4,0.2c0.2,0,0.4,0,0.5,0
		c0.2,0,0.4,0,0.6,0c0.3,0,0.7,0.1,1,0.2c0,0,0,0,0.1,0.1c0,0-0.1,0-0.1,0c-0.1,0.1-0.2,0.2-0.4,0.2c-0.1,0-0.2,0-0.4,0
		c-0.2,0-0.3,0-0.5,0.1c-0.5,0.2-1,0.3-1.5,0.5c-0.6,0.2-1.2,0.4-1.8,0.6c-0.1,0-0.2,0-0.4,0.1c-0.1,0-0.1,0.1-0.1,0.2
		c0,0.1,0.1,0.1,0.1,0.2c0.2,0.5,0.4,1,0.6,1.5c0,0.1,0,0.2,0.1,0.2c-0.1,0-0.2-0.1-0.2-0.1c-0.2-0.3-0.3-0.6-0.5-0.9
		c-0.2-0.3-0.4-0.6-0.5-0.9c-0.1-0.1-0.2-0.2-0.3-0.2c-0.2,0-0.3-0.1-0.5-0.1c-0.2-0.1-0.4-0.1-0.6-0.1c-0.4,0.1-0.8,0.2-1.2,0.4
		c-0.1,0.1-0.3,0.1-0.4,0c-0.1-0.1-0.3-0.1-0.5-0.1c-0.3,0-0.5,0-0.7-0.2c-0.1-0.1-0.2-0.1-0.3,0c-0.1,0.1-0.2,0-0.3-0.1
		C382.6,61.1,382.4,60.9,382.2,60.8z"/>
	<path class="st9" d="M396.3,37.7c-0.2,0.1-0.3,0.3-0.5,0.5c-0.1,0.1-0.1,0.1-0.1,0.2c-0.1,0.2-0.3,0.3-0.5,0.4
		c-0.1,0-0.2,0.1-0.3,0.1c-0.4,0.1-0.4,0.4-0.2,0.7c0.1,0.1,0.2,0.2,0.3,0.2c0.2,0.2,0.4,0.4,0.4,0.7c0,0.1,0,0.1,0.1,0.1
		c-0.2,0.2-0.3,0.4-0.4,0.6c-0.2,0.4-0.3,0.9-0.5,1.4c0,0.1-0.1,0.1-0.2,0.1c-0.4-0.1-0.7-0.3-1-0.5c-0.2-0.2-0.3-0.4-0.2-0.7
		c0-0.2,0-0.4,0-0.6c0-0.1,0-0.2,0-0.3c0-0.4,0.1-0.8,0.3-1.1c0,0,0-0.1,0.1-0.1c0-0.1,0-0.1,0-0.1c-0.1-0.1-0.1-0.1-0.2-0.2
		c-0.1-0.1-0.2-0.1-0.2-0.2c-0.1-0.2-0.2-0.3-0.1-0.5c0.1-0.2,0.2-0.5,0.5-0.6c0,0,0,0,0,0c0.4-0.2,0.7-0.5,0.9-0.9
		c0-0.1,0.1-0.1,0.2-0.1c0.1,0,0.2,0,0.3,0c0.1,0,0.2,0,0.3,0c0.1,0,0.2,0,0.2,0c0.2,0,0.2,0,0.2,0.2c0,0.1,0.1,0.2,0.1,0.4
		C396,37.5,396.1,37.6,396.3,37.7z"/>
	<path class="st7" d="M389.1,43.4c0.3,0,0.7,0,0.9,0.2c0.1,0.1,0.2,0.1,0.2,0.2c0.2,0.2,0.4,0.5,0.5,0.7c0.1,0.2,0.3,0.4,0.5,0.4
		c0,0,0.1,0,0.1,0.1c0.1,0,0.1,0.1,0,0.1c0,0,0,0,0,0.1c-0.1,0.1-0.1,0.3,0,0.4c0,0.2,0.1,0.4,0.1,0.6c0.1,0.2,0,0.4,0,0.6
		c0,0.1-0.1,0.1-0.1,0.1c-0.4-0.3-0.9-0.4-1.3-0.7c-0.2-0.1-0.4-0.3-0.5-0.6c-0.1-0.3-0.3-0.5-0.3-0.8c-0.1-0.4-0.4-0.6-0.7-0.7
		c-0.1,0-0.2,0-0.2,0c-0.2,0.1-0.4,0.1-0.6,0.1c-0.1,0-0.1,0-0.2,0c-0.3-0.2-0.6-0.2-0.9-0.3c-0.1,0-0.2-0.1-0.4-0.1c0,0,0,0,0,0
		c0,0,0,0,0,0c0,0,0.1,0,0.1,0c0.5,0,0.9-0.1,1.4-0.2c0.3-0.1,0.5-0.1,0.8-0.1C388.8,43.5,388.9,43.4,389.1,43.4z"/>
	<path class="st9" d="M381.9,38.6c0.1,0,0.2,0,0.3,0c0.3,0,0.6-0.1,0.8-0.3c0.3-0.2,0.5-0.3,0.8-0.5c0.1-0.1,0.3-0.2,0.4-0.2
		c0.3-0.1,0.6-0.4,0.8-0.7c0-0.1,0.1-0.2,0.1-0.2c0,0.1,0,0.1,0.1,0.1c0.2-0.1,0.3-0.2,0.5-0.3c0.1,0,0.1-0.1,0.2-0.1
		c0,0,0.1,0,0.1,0.1c0,0.1,0,0.1-0.1,0.2c0,0.1-0.1,0.1-0.2,0.2c-0.2,0.2-0.4,0.4-0.6,0.7c-0.3,0.3-0.6,0.7-1,0.9
		c-0.2,0.2-0.5,0.3-0.7,0.4c-0.4,0.2-0.8,0.1-1.2,0C382,38.7,381.9,38.7,381.9,38.6z"/>
	<path class="st18" d="M386.1,54.2C386.1,54.2,386,54.2,386.1,54.2c-0.2,0-0.3-0.1-0.2-0.3c0.1-0.2,0.3-0.3,0.5-0.4c0,0,0.1,0,0.1,0
		c0.1,0.1,0.2,0.3,0.1,0.5C386.4,54.2,386.3,54.2,386.1,54.2z"/>
	<path class="st24" d="M388,52.3c-0.1,0-0.1,0-0.2,0c0,0-0.1,0-0.1-0.1c0,0,0-0.1,0-0.1c0,0,0.1-0.1,0.1-0.1
		c0.2-0.1,0.5-0.2,0.7-0.2c0.1,0,0.1,0,0.1,0.1c0,0,0,0.1,0,0.1c-0.1,0.2-0.3,0.2-0.5,0.3C388.2,52.3,388.1,52.3,388,52.3
		C388,52.3,388,52.3,388,52.3z"/>
	<path class="st19" d="M386,52.6c0,0.1-0.1,0.3-0.3,0.4c-0.1,0-0.1,0-0.2-0.1c0-0.2-0.1-0.3-0.1-0.5c0,0,0-0.1,0-0.1
		c0.1,0,0.1-0.1,0.2,0c0.1,0.1,0.2,0.1,0.3,0.2C386,52.5,386,52.5,386,52.6z"/>
	<path class="st22" d="M388.8,49.8c0-0.2,0-0.3,0.2-0.3c0.1,0,0.2-0.1,0.3-0.1c0.1,0,0.2,0,0.2,0.1c0,0.1-0.1,0.1-0.1,0.2
		c0,0,0,0,0,0c-0.1,0.1-0.2,0.2-0.4,0.2C388.9,50,388.8,50,388.8,49.8C388.8,49.9,388.8,49.8,388.8,49.8z"/>
	<path class="st20" d="M387.1,52.2c0.1,0,0.1,0,0.2,0c0.1,0,0.2,0.2,0.2,0.3c0,0,0,0,0,0.1c-0.1,0.1-0.3,0.2-0.5,0.1
		c-0.1,0-0.1-0.1-0.2-0.1c0,0-0.1,0-0.1-0.1c0,0,0.1-0.1,0.1-0.2C386.9,52.1,387,52.2,387.1,52.2z"/>
	<path class="st27" d="M387.7,54.2c0,0-0.1,0-0.1,0c-0.1,0-0.1,0-0.1-0.1c0,0,0-0.2,0.1-0.2c0.1-0.1,0.3-0.1,0.4-0.1
		c0.1,0,0.1,0.1,0.1,0.1c0,0.1,0,0.1-0.1,0.2C387.8,54.2,387.8,54.2,387.7,54.2z"/>
	<path class="st25" d="M387.7,50c0.1,0,0.3,0.2,0.3,0.3c0,0,0,0.1-0.1,0.1c-0.1,0-0.2,0-0.2-0.1c0-0.1-0.1-0.1-0.1-0.2
		C387.6,50.1,387.6,50,387.7,50z"/>
	<path class="st26" d="M386.8,55.2c-0.1,0-0.2-0.1-0.2-0.1c0-0.1,0-0.2,0.1-0.3c0,0,0.1,0,0.1,0c0,0,0.1,0.1,0.1,0.1
		c0,0.1,0.1,0.1,0,0.2C387,55.1,386.9,55.2,386.8,55.2z"/>
	<path class="st5" d="M386.6,50.9c0,0.2-0.1,0.3-0.3,0.2c-0.1,0-0.1-0.1-0.1-0.2c0-0.1,0.1-0.2,0.2-0.2c0,0,0.1,0,0.1,0
		C386.6,50.8,386.6,50.9,386.6,50.9z"/>
	<path class="st8" d="M429.8,55.1c-0.2,0-0.2-0.1-0.3-0.3c0,0,0,0,0,0c0.1,0,0.2,0.1,0.3,0.2C429.9,55,429.8,55.1,429.8,55.1z"/>
	<path class="st8" d="M429.6,54.6C429.6,54.6,429.6,54.5,429.6,54.6C429.6,54.5,429.6,54.6,429.6,54.6z"/>
	<path class="st7" d="M399.1,38.4c-0.3,0.7-0.2,1.4,0.2,2.1c0.1,0.2,0.2,0.3,0.4,0.4c0,0.1-0.1,0.1-0.2,0.1c-0.5,0-1,0.1-1.4-0.1
		c-0.7-0.2-1-0.7-0.8-1.4c0.1-0.4,0.3-0.8,0.6-1.1c0.3-0.3,0.6-0.6,0.9-0.9c0.1-0.1,0.2-0.1,0.3-0.1
		C399.2,37.8,399.1,38.1,399.1,38.4z"/>
	<path class="st1" d="M399.2,37.5c-0.2,0.1-0.4,0.2-0.6,0.4c-0.2,0.2-0.4,0.3-0.5,0.5c-0.3,0.4-0.6,0.7-0.7,1.2
		c-0.1,0.2,0,0.5,0,0.7c0,0.2,0.2,0.4,0.3,0.5c0.3,0.2,0.6,0.2,0.9,0.3c0.3,0,0.6,0,0.9,0c0.1,0,0.1,0,0.2-0.1
		c0.3,0.1,0.5,0.3,0.8,0.4c0.1,0,0.1,0.1,0.2,0.1c0,0,0,0.1,0,0.1c-0.1,0-0.2,0.1-0.3,0.1c-0.4,0-0.7,0.1-1.1,0.1
		c-0.4,0-0.7-0.1-1.1-0.2c-0.7-0.2-1.1-0.7-1.2-1.4c0-0.2,0-0.4,0.1-0.6c0.1-0.5,0.4-0.9,0.7-1.3c0.3-0.3,0.6-0.6,1-0.9
		c0.3-0.2,0.7-0.3,1.1-0.4c0.1,0,0.1,0,0.2,0.1C399.8,37.1,399.5,37.3,399.2,37.5z"/>
	<path class="st16" d="M399.2,37.5c0.2-0.2,0.4-0.4,0.6-0.5c0.1,0,0.1-0.1,0.2-0.1c0.2,0,0.3-0.1,0.5-0.1c0.1,0,0.2,0,0.4,0
		c0.2,0.1,0.2,0.2,0.1,0.3c0,0.1-0.1,0.1-0.1,0.2c-0.3,0.4-0.7,0.7-1.1,0.9c-0.2,0.1-0.4,0.2-0.6,0.1c-0.1-0.2-0.1-0.4,0-0.6
		C399.1,37.7,399.1,37.6,399.2,37.5z"/>
	<path class="st28" d="M385.7,49.1C385.7,49.2,385.7,49.2,385.7,49.1c-0.1,0.1-0.1,0.2-0.2,0.2c0,0-0.1,0.1-0.1,0c0,0,0-0.1,0-0.1
		c0,0,0-0.1,0.1-0.1c0,0,0.1-0.1,0.1-0.1C385.7,49,385.7,49.1,385.7,49.1z"/>
	<path class="st7" d="M380.9,35.9c0-0.2,0-0.5,0.1-0.7c0.1-0.2,0.2-0.4,0.4-0.6c0.3-0.2,0.5-0.4,0.8-0.5c0.1-0.1,0.3-0.1,0.4-0.2
		c0.1,0,0.1,0,0.2,0c0.2,0,0.3,0.1,0.3,0.2c0,0,0,0,0,0.1c0,0.1,0,0.2,0.2,0.3c0.1,0,0.2,0.1,0.2,0.2c0.1,0.1,0.1,0.2,0,0.3
		c-0.1,0-0.1,0.1-0.2,0.1c-0.1,0-0.2,0-0.3,0c-0.1,0-0.2,0-0.3,0.1c-0.1,0.1-0.2,0.2-0.3,0.3c-0.2,0.1-0.3,0.3-0.3,0.6
		c0,0.3-0.1,0.5-0.1,0.8c0,0.2-0.1,0.3-0.2,0.5c-0.1,0.2-0.3,0.2-0.5,0.1c-0.3-0.3-0.5-0.6-0.5-1C380.9,36.1,380.9,36,380.9,35.9z"
		/>
	<path class="st14" d="M385.1,34.8c0,0.1-0.1,0.3-0.2,0.4c-0.2,0.2-0.4,0.1-0.6-0.1c-0.1-0.1-0.1-0.3-0.1-0.4c0,0,0-0.1,0.1-0.1
		c0.1-0.2,0.3-0.3,0.5-0.2C385,34.3,385.1,34.5,385.1,34.8z"/>
</g>
<image style="overflow:visible;" width="300" height="300" xlink:href="devcoin.png"  transform="matrix(0.301 0 0 0.301 469.9492 5.5718)">
</image>
<image style="overflow:visible;" width="2640" height="2040" xlink:href="HRDtrjd.png"  transform="matrix(4.980439e-02 0 0 4.980439e-02 559.8486 0.5713)">
</image>
<circle class="st23" cx="49.8" cy="50.3" r="46.2"/>
<path class="st15" d="M77.3,28.1c-0.6,0-1.2-0.1-1.8-0.2c-0.8-0.1-1.7-0.2-2.5-0.1c-2.7,0.4-5,2.4-5.8,5.1
	c-1.7,6.3-3.5,12.5-5.2,18.8c-0.2,0.7-0.4,1.4-0.6,2.2c-0.1-0.1-0.2-0.2-0.2-0.3c-2.7-4-5.4-7.9-8.1-11.9
	c-3.8-5.6-7.5-11.1-11.3-16.7c-0.1-0.2-0.2-0.3-0.5-0.3c-0.7-0.1-1.4-0.1-2.1-0.2c-0.8-0.1-1.5-0.2-2.3-0.1c-2.3,0.4-4,1.5-5.2,3.5
	c-0.5,0.9-0.7,1.9-1,2.9c-3,10.8-6,21.5-8.9,32.3c-0.7,2.4-1.3,4.8-2,7.2c-0.1,0.3,0,0.3,0.2,0.3c0.5,0,1.1,0.1,1.6,0.1
	c1.1,0.1,2.1,0.3,3.2,0c2.6-0.6,4.5-2.2,5.3-4.8c1.7-5.8,3.2-11.6,4.8-17.3c0.4-1.3,0.7-2.7,1.1-4.1c0.1,0.1,0.2,0.2,0.2,0.3
	c1.6,2.3,3.2,4.6,4.7,7c4.9,7.2,9.8,14.5,14.7,21.7c0.1,0.1,0.1,0.2,0.3,0.2c1.2,0.1,2.3,0.3,3.5,0.3c3,0.1,6-2.1,6.8-5
	c3.1-11.1,6.2-22.3,9.2-33.4c0.7-2.4,1.3-4.9,2-7.3C77.6,28.2,77.6,28.1,77.3,28.1z M59.3,61.4c-0.5,1.6-0.9,3.3-1.4,4.9
	c0,0.1,0,0.2-0.1,0.3c-0.1,0-0.2-0.2-0.2-0.2c-6.5-9.5-12.9-19.1-19.4-28.6c-0.1-0.2-0.2-0.3-0.1-0.6c0.5-1.7,0.9-3.3,1.4-5
	c0-0.1,0.1-0.2,0.1-0.3c0.1,0.1,0.2,0.2,0.2,0.3c6.5,9.5,12.9,19,19.4,28.5C59.3,61,59.4,61.2,59.3,61.4z"/>
</svg>
