<?xml version="1.0" encoding="utf-8"?>
<!-- Generator: Adobe Illustrator 16.0.0, SVG Export Plug-In . SVG Version: 6.00 Build 0)  -->
<!DOCTYPE svg PUBLIC "-//W3C//DTD SVG 1.1//EN" "http://www.w3.org/Graphics/SVG/1.1/DTD/svg11.dtd">
<svg version="1.1" id="Layer_1" xmlns="http://www.w3.org/2000/svg" xmlns:xlink="http://www.w3.org/1999/xlink" x="0px" y="0px"
	 width="200px" height="200px" viewBox="0 0 200 200" style="enable-background:new 0 0 200 200;" xml:space="preserve">
<style type="text/css">
<![CDATA[
	.st0{fill-rule:evenodd;clip-rule:evenodd;fill:#076BB3;}
	.st1{fill-rule:evenodd;clip-rule:evenodd;fill:#0776C1;}
	.st2{fill-rule:evenodd;clip-rule:evenodd;fill:#0777C1;}
	.st3{fill-rule:evenodd;clip-rule:evenodd;fill:#3BA1EA;}
	.st4{fill-rule:evenodd;clip-rule:evenodd;fill:#0969B1;}
	.st5{fill-rule:evenodd;clip-rule:evenodd;fill:#3D5877;}
	.st6{fill-rule:evenodd;clip-rule:evenodd;fill:#3DA5EF;}
	.st7{fill-rule:evenodd;clip-rule:evenodd;fill:#0B67AF;}
	.st8{fill-rule:evenodd;clip-rule:evenodd;fill:#0D66AD;}
	.st9{fill-rule:evenodd;clip-rule:evenodd;fill:#0D7CC7;}
	.st10{fill-rule:evenodd;clip-rule:evenodd;fill:#0E64AB;}
	.st11{fill-rule:evenodd;clip-rule:evenodd;fill:#405873;}
	.st12{fill-rule:evenodd;clip-rule:evenodd;fill:#414042;}
	.st13{fill-rule:evenodd;clip-rule:evenodd;fill:#425E7D;}
	.st14{fill-rule:evenodd;clip-rule:evenodd;fill:#445C78;}
	.st15{fill-rule:evenodd;clip-rule:evenodd;fill:#445F7F;}
	.st16{fill-rule:evenodd;clip-rule:evenodd;fill:#445F80;}
	.st17{fill-rule:evenodd;clip-rule:evenodd;fill:#454A75;}
	.st18{fill-rule:evenodd;clip-rule:evenodd;fill:#456284;}
	.st19{fill-rule:evenodd;clip-rule:evenodd;fill:#466284;}
	.st20{fill-rule:evenodd;clip-rule:evenodd;fill:#466486;}
	.st21{fill-rule:evenodd;clip-rule:evenodd;fill:#484948;}
	.st22{fill-rule:evenodd;clip-rule:evenodd;fill:#486588;}
	.st23{fill-rule:evenodd;clip-rule:evenodd;fill:#48989B;}
	.st24{fill-rule:evenodd;clip-rule:evenodd;fill:#1063AA;}
	.st25{fill-rule:evenodd;clip-rule:evenodd;fill:#AE4CBF;}
	.st26{fill-rule:evenodd;clip-rule:evenodd;fill:#1162A9;}
	.st27{fill-rule:evenodd;clip-rule:evenodd;fill:#AF4CBF;}
	.st28{fill-rule:evenodd;clip-rule:evenodd;fill:#AF4CC0;}
	.st29{fill-rule:evenodd;clip-rule:evenodd;fill:#1280CA;}
	.st30{fill-rule:evenodd;clip-rule:evenodd;fill:#1360A6;}
	.st31{fill-rule:evenodd;clip-rule:evenodd;fill:#1361A7;}
	.st32{fill-rule:evenodd;clip-rule:evenodd;fill:#1370B5;}
	.st33{fill-rule:evenodd;clip-rule:evenodd;fill:#1371B5;}
	.st34{fill-rule:evenodd;clip-rule:evenodd;fill:#E3B371;}
	.st35{fill-rule:evenodd;clip-rule:evenodd;fill:#E3B372;}
	.st36{fill-rule:evenodd;clip-rule:evenodd;fill:#1583CD;}
	.st37{fill-rule:evenodd;clip-rule:evenodd;fill:#165EA3;}
	.st38{fill-rule:evenodd;clip-rule:evenodd;fill:#4A698D;}
	.st39{fill-rule:evenodd;clip-rule:evenodd;fill:#16A0FE;}
	.st40{fill-rule:evenodd;clip-rule:evenodd;fill:#4A9DA0;}
	.st41{fill-rule:evenodd;clip-rule:evenodd;fill:#4B698E;}
	.st42{fill-rule:evenodd;clip-rule:evenodd;fill:#4C6888;}
	.st43{fill-rule:evenodd;clip-rule:evenodd;fill:#4C6B8F;}
	.st44{fill-rule:evenodd;clip-rule:evenodd;fill:#195CA0;}
	.st45{fill-rule:evenodd;clip-rule:evenodd;fill:#4D647F;}
	.st46{fill-rule:evenodd;clip-rule:evenodd;fill:#4D6C91;}
	.st47{fill-rule:evenodd;clip-rule:evenodd;fill:#4E647E;}
	.st48{fill-rule:evenodd;clip-rule:evenodd;fill:#4E6C92;}
	.st49{fill-rule:evenodd;clip-rule:evenodd;fill:#4E6D93;}
	.st50{fill-rule:evenodd;clip-rule:evenodd;fill:#4F6E94;}
	.st51{fill-rule:evenodd;clip-rule:evenodd;fill:#4F6F94;}
	.st52{fill-rule:evenodd;clip-rule:evenodd;fill:#4F6F95;}
	.st53{fill-rule:evenodd;clip-rule:evenodd;fill:#B04DC1;}
	.st54{fill-rule:evenodd;clip-rule:evenodd;fill:#821CA7;}
	.st55{fill-rule:evenodd;clip-rule:evenodd;fill:#B2B2B2;}
	.st56{fill-rule:evenodd;clip-rule:evenodd;fill:#1D88D2;}
	.st57{fill-rule:evenodd;clip-rule:evenodd;fill:#8991B1;}
	.st58{fill-rule:evenodd;clip-rule:evenodd;fill:#1E88D2;}
	.st59{fill-rule:evenodd;clip-rule:evenodd;fill:#506F96;}
	.st60{fill-rule:evenodd;clip-rule:evenodd;fill:#507097;}
	.st61{fill-rule:evenodd;clip-rule:evenodd;fill:#517198;}
	.st62{fill-rule:evenodd;clip-rule:evenodd;fill:#52729A;}
	.st63{fill-rule:evenodd;clip-rule:evenodd;fill:#52739A;}
	.st64{fill-rule:evenodd;clip-rule:evenodd;fill:#53749C;}
	.st65{fill-rule:evenodd;clip-rule:evenodd;fill:#54759D;}
	.st66{fill-rule:evenodd;clip-rule:evenodd;fill:#55769E;}
	.st67{fill-rule:evenodd;clip-rule:evenodd;fill:#55779E;}
	.st68{fill-rule:evenodd;clip-rule:evenodd;fill:#578FCB;}
	.st69{fill-rule:evenodd;clip-rule:evenodd;fill:#BA945F;}
	.st70{fill-rule:evenodd;clip-rule:evenodd;fill:#594A42;}
	.st71{fill-rule:evenodd;clip-rule:evenodd;fill:#BCBEC0;}
	.st72{fill-rule:evenodd;clip-rule:evenodd;}
	.st73{fill:#FFA400;}
	.st74{fill-rule:evenodd;clip-rule:evenodd;fill:#F1F1F1;}
	.st75{fill-rule:evenodd;clip-rule:evenodd;fill:#F3F3F3;}
	.st76{fill-rule:evenodd;clip-rule:evenodd;fill:#292A29;}
	.st77{fill-rule:evenodd;clip-rule:evenodd;fill:#295789;}
	.st78{fill-rule:evenodd;clip-rule:evenodd;fill:#F7F7F7;}
	.st79{fill-rule:evenodd;clip-rule:evenodd;fill:#297EE1;}
	.st80{fill-rule:evenodd;clip-rule:evenodd;fill:#98BCE4;}
	.st81{fill:#003A70;}
	.st82{fill-rule:evenodd;clip-rule:evenodd;fill:#FDFCFC;}
	.st83{fill-rule:evenodd;clip-rule:evenodd;fill:#FDFDFD;}
	.st84{fill-rule:evenodd;clip-rule:evenodd;fill:#FDFEFE;}
	.st85{fill-rule:evenodd;clip-rule:evenodd;fill:#FE7100;}
	.st86{fill-rule:evenodd;clip-rule:evenodd;fill:#FEFEFE;}
	.st87{fill-rule:evenodd;clip-rule:evenodd;fill:#62688E;}
	.st88{fill-rule:evenodd;clip-rule:evenodd;fill:#63D2D6;}
	.st89{fill-rule:evenodd;clip-rule:evenodd;fill:#9C1CB1;}
	.st90{fill-rule:evenodd;clip-rule:evenodd;fill:#9F7757;}
	.st91{fill-rule:evenodd;clip-rule:evenodd;fill:#333333;}
	.st92{fill-rule:evenodd;clip-rule:evenodd;fill:#344D6A;}
	.st93{fill-rule:evenodd;clip-rule:evenodd;fill:#00458D;}
	.st94{fill-rule:evenodd;clip-rule:evenodd;fill:#005196;}
	.st95{fill-rule:evenodd;clip-rule:evenodd;fill:#0171BC;}
	.st96{fill-rule:evenodd;clip-rule:evenodd;fill:#025B92;}
	.st97{fill-rule:evenodd;clip-rule:evenodd;fill:#025D94;}
	.st98{fill-rule:evenodd;clip-rule:evenodd;fill:#0270BB;}
	.st99{fill-rule:evenodd;clip-rule:evenodd;fill:#036EB8;}
	.st100{fill-rule:evenodd;clip-rule:evenodd;fill:#055890;}
	.st101{fill-rule:evenodd;clip-rule:evenodd;fill:#056CB5;}
]]>
</style>
<path class="st67" d="M63.3,166.3l-0.3,0l-0.3,0c-3.1-4.2-6-8.5-9.4-12.6c-1-1.3-1.6-2.9-2.9-4c-1.3-2.1-2.9-4.1-4.5-6
	c-1.8-3.8-5.2-6.6-6.8-10.5c-1-1.7-1.4-3.5-1.3-5.6c0.3-7.2-0.6-14.3,0.5-21.5c1.9-0.6,3.2,0.6,4.6,1.4c2.4,1.4,4.8,2.7,7.3,3.9
	c2.8,2,6.1,3.3,9,5.1c4.6,2.3,9.1,4.9,13.6,7.4c4.1,2.6,4.5,3.8,3,8c-4,11.1-8.1,22.2-11.9,33.3C63.8,165.8,63.5,166,63.3,166.3z"/>
<path class="st65" d="M155.6,8.5c1.4-0.6,2.8-1.3,4.3-1.9c1.2-0.5,1.8,0,1.8,1.3c0.2,0.3,0.2,0.6,0.2,0.9c-0.2,0.6-0.4,1.2-0.6,1.8
	c-0.4,1.4-0.5,2.9-1,4.3c-0.1,0.5-0.4,1-0.6,1.4c-5.8,5.4-10.7,11.6-16,17.5c-1.6,1.8-2.9,3.9-5.4,4.7c-3.3-0.3-5-3.2-7.5-4.8
	c-0.8-0.5-1.4-1.9-2.7-0.8c-3.2,4.6-5.3,10.1-8.7,14.4c-6.9,8.5-7.2,18.3-6.6,28.4c-0.1,1.3,0.1,2.8-1.3,3.6
	c-1.7-0.8-1.3-2.5-1.3-3.8c-0.1-3.6,0-7.3-0.1-11.5c-5.2,8.4-9.6,16.5-14.4,24.5c-1.1,1.9-2,3.9-3.5,5.5c-3.7,0.4-5.9-1.9-8-4.4
	c-0.4-1.7,0.5-3.1,1.3-4.5c7.1-12.5,14.4-24.9,21.6-37.4c0.7-1.3,1.6-2.5,3-3.1c0.9-0.4,1.4-0.1,1.4,0.9c0,3.5,0,7.1,0,10.6
	c-0.2-8.6,0.2-17.3,0-25.9c0-1.5-0.1-2.9,0.5-4.3c1.6-2.1,4.1-2,6.3-2.6c5.4-1.4,11.1-2,16.3-4.2c5.7-2,10.7-5.6,16.2-8.1
	C152.3,10.1,154.3,10,155.6,8.5z"/>
<path class="st64" d="M63.3,166.3c-0.1-1.7,0.3-3.3,1-5c3.7-10.1,7.1-20.2,11-30.2c1.5-3.8-0.8-5-3.1-6.6c-3.9-5-8.5-9.4-13.2-13.5
	c-4.4-3.9-8.4-8-12.5-12.2c1.1-1.6,2.7-2.7,4.3-3.7c1.5-0.5,2.2,0.6,3.1,1.4c11.4,10.9,22.8,21.7,33.7,33c1.2,1.3,3.2,2.5,2,4.9
	c-2.2,0.4-3.2,1.7-4,3.7c-4.1,11-7.8,22-11.9,33c-0.6,1.6-1,3.3-2.7,4.2c-0.5,0.1-1,0.2-1.4-0.2c-2.2-2.6-4.7-5-6.2-8.2
	C63.3,166.8,63.3,166.5,63.3,166.3z"/>
<path class="st66" d="M89.7,134.1c-0.4-0.8-0.7-1.7-1.2-2.2c-8.5-8.4-16.6-17.2-25.6-25.2c-4.2-3.7-8.2-7.7-12.2-11.6
	c2.7-3,5.8-5.4,9-7.9c1.2,0.6,2,1.8,2.9,2.7c9.7,10.1,20.4,19.1,30,29.2c0.8,0.9,1.9,1.5,2.9,2.3c3.5,5.9,5.9,12.3,7.2,19.1
	c-0.3,0.8-0.9,1.2-1.7,1.2c-2.8-1.6-5.6-3.4-8.4-4.9C91.2,136.1,90,135.6,89.7,134.1z"/>
<path class="st49" d="M62.5,76.1c-0.9-0.6-1.1-1.4-0.8-2.5c1.5-4.6,2.9-9.3,4.4-13.9c2.6-6.5,7.9-10.7,12.8-15.2
	c1.4-0.9,2.4-2.2,3.7-3.3c0.8-0.7,1.6-1.9,3-1c0.7,1.3,0,2.3-0.6,3.4C79.4,54,73.3,64,67.5,74.2c-0.8,1.3-1.3,3-3.3,3.1
	C63.4,77.3,63,76.7,62.5,76.1z"/>
<path class="st5" d="M135.2,19.6c-4.5,2.9-10,2.7-14.9,4.3c-2.5,0.8-5.2,1.1-7.8,1.6c-0.6,0.5-1.3,0.8-2.2,0.8
	c-1.8,0-3.4-0.6-5.2-0.7c-2.2-0.4-4.4-1-6.6-1.7c-1.9-0.6-4-0.8-6-1.4C90.8,22,88.8,22,87.2,21c-1.9-1.2-4.7-1.2-5.3-4.1
	c0.2-1.4,1.1-1.5,2.3-1.2c5.8,2.6,11.7,4.3,18.2,3.9c5.6-0.4,11.2-0.2,16.9,0c4.8,0.2,9.4-0.4,13.8-2.3
	C134.1,17.7,135.4,17.9,135.2,19.6z"/>
<path class="st62" d="M94.8,121.6c-1.2,0-1.9-0.9-2.7-1.6c-10.1-9.9-20.2-19.7-30.3-29.6c-0.9-0.9-2.2-1.6-2.2-3.2
	c0.8-1,1.7-1.9,2.9-2.4c8.3,8.2,16.5,16.5,24.7,24.7c1.8,1.8,3.7,3.5,5.9,4.8C94.3,116.6,96.2,118.7,94.8,121.6z"/>
<path class="st16" d="M84.1,15.8c-1,0.1-1.7,0.4-1.8,1.6c-0.3,0.2-0.6,0.3-0.9,0.3c-1.9-0.6-3.6-1.7-5.5-2.5
	c-1.3-0.6-2.7-1.2-3.6,0.3c-2.6,4.3-6.6,7.9-5.7,13.6c-0.2,0.7-0.5,1.3-1.2,1.6c-1.9-8-3-16.1-4.5-24.9C69,9.3,76.8,12.1,84.1,15.8z
	"/>
<path class="st59" d="M92.6,114.3c-1.3,0.1-2.3-0.5-3.2-1.4c-8.5-8.6-17.1-17.1-25.6-25.6c-0.7-0.7-1.3-1.5-1.3-2.5
	c0.5-0.9,1.3-1.6,2.3-2c6.3,5.2,12,11.1,17.7,16.9c2.5,2.5,5.2,4.8,7.8,7.1C91.4,109.1,93.2,111.3,92.6,114.3z"/>
<path class="st60" d="M46.4,98.8c1.1,0,1.8,0.7,2.5,1.4c7,6.8,14,13.6,21.1,20.3c1.1,1.1,2.4,2.1,2.2,4c-4.4-2.4-8.8-4.9-13.2-7.3
	c-4.1-4-8.2-8-12.2-12.1c-1.2-1.2-2.5-2.4-2.7-4.2C44.8,100.2,45.6,99.5,46.4,98.8z"/>
<path class="st48" d="M89.7,106.9c-5.6-3.5-9.5-8.7-14.2-13.1c-2.9-2.6-5.4-5.6-8.6-7.9c-1-0.7-2.2-1.6-2.2-3.2
	c0.2-0.3,0.4-0.6,0.6-0.9c0.5-0.4,1-1.1,1.8-0.8c2,0.6,3.2,2.2,4.6,3.5c5.1,4.8,9.5,10.4,15.4,14.4
	C88.4,101.4,90.6,103.7,89.7,106.9z"/>
<path class="st15" d="M65.4,30.7c0.1-0.6,0.2-1.3,0.8-1.6c0.8,0.6,1.1,1.5,1.4,2.4c0.7,2.1,0.9,4.3,1.5,6.4c0.8,3.1,1.3,6.2,2,9.3
	c2.1,0.4,2.8-1.6,4.2-2.4c1.2-0.7,2.2-2,3.8-1.4c0.7,0.5,0.9,1.1,0.3,1.8c-4.6,4.6-10.3,8.1-12.3,14.9c-0.5,1.6-0.8,0.1-1-0.4
	c3.7-8.4,1.3-16.7-0.2-25C65.6,33.4,65.5,32.1,65.4,30.7z"/>
<path class="st48" d="M44,100.9c4.4,4.5,8.9,9,13.2,13.5c0.7,0.7,2.4,1,1.7,2.7c-3-1.6-6.4-2.6-8.8-5.1c-2.9-2.9-6-5.7-8.8-8.8
	C41.9,102.2,42.9,101.6,44,100.9z"/>
<path class="st13" d="M135.2,19.6c-0.7-0.7-1.5-1.5-2.2-2.2c5.5-2.6,11.2-4.6,16.9-6.6c0.8-0.5,1.5-0.6,1.5,0.7
	c-4.2,2.2-8.3,4.4-12.5,6.6C137.7,18.7,136.6,19.5,135.2,19.6z"/>
<path class="st41" d="M41.3,103.3c3.8,2.1,6.8,5,8.8,8.8c-4.3-1.1-7.7-4.3-11.8-5.9C38.9,104.8,40.1,104,41.3,103.3z"/>
<path class="st42" d="M151.3,11.5c-0.3-0.6-0.9-0.7-1.5-0.7c1.8-1.1,3.7-1.8,5.7-2.3C155.1,10.7,152.6,10.3,151.3,11.5z"/>
<path class="st67" d="M111,79c1.2-1,0.6-2.4,0.7-3.7c6.4-11.7,13.2-23,19.8-34.6c0.7-1.2,1.3-2.7,2.7-3.3c2.3-0.3,3.5,1.6,4.9,2.8
	c2.5,2.7,5.8,4.7,8.2,7.5c1.7,2.1,4.1,3.5,6.1,5.4c2,2.8,2.5,6.2,3.9,9.2c0.5,1.5,1,2.9,1.5,4.4c0.5,1.6,1,3.2,1.9,4.7
	c0.6,0.9,0.9,1.9,0.8,3.1c-0.1,0.4-0.2,0.7-0.3,1c-4.5,4.6-10.6,6.9-15.7,10.5c-2,1.4-4.1,2.6-6.2,3.9c-6.6,3.2-11.9,8-16.7,13.4
	c-0.8,0.9-1.4,2.1-2.8,2.2c-2.4-3.4-5.5-6.2-8.5-9.3c-2.9,3.1-6.1,5.7-8.4,9.2c-2.5-0.9-3.9-3-5-5.3c0.6-3.8,3.3-6.7,5-10
	c1.4-2.9,3.3-5.6,5-8.5C108.6,80.6,109.4,79.3,111,79z"/>
<path class="st63" d="M105.1,24.7c1.7,0.3,3.4,0.5,5.1,0.8c1.3,1.3,1.1,3.1,1.2,4.8c0.2,4.8,0.9,9.6-0.5,14.3
	c-3.7,2.5-5,6.8-7.1,10.4c-5.9,10-11.7,20-17.4,30c-0.8,1.4-1.2,2.9-1.8,4.4c-0.3,0.2-0.6,0.3-1,0.3c-3.8-1.9-7.7-3.7-10.6-6.9
	c-0.5-2.3,0.8-4,1.8-5.8c10-17.1,19.8-34.2,29.6-51.3C104.6,25.2,104.9,25,105.1,24.7z"/>
<path class="st18" d="M83.8,89.3c0.2,0,0.5,0,0.7,0c2.3,1.7,4.4,3.7,7.3,4.4c3.3,1.1,4.8,4,6.6,6.6c1.4,1.7,2.9,3.4,4.3,5.2
	c4.1,2.4,7.4,5.5,9.4,9.9c-0.2,8.4,0,16.8-0.1,25.2c0,1.5,0.1,2.9-0.4,4.3c-0.2,0.5-0.6,1.3-1.2,1.1c-3.3-0.9-6.7-1.6-8.5-5
	c-1.6-6.7-4.2-13.1-7.2-19.4c0.1-2.7-1.7-4.8-2.2-7.3c-1-2.4-1.9-4.9-2.9-7.3c-1-2.7-2-5.4-2.9-8.1c-2.6-2.1-3.1-5.3-4-8.3
	C82.5,89.9,82.7,89.1,83.8,89.3z"/>
<path class="st65" d="M134.5,37.9c-5.9,10-11.7,20.1-17.6,30.1c-1.5,2.6-2.4,5.6-5.1,7.4c0-6.1-0.1-12.2,0.6-18.3
	c0.3-2.7,2.7-3.6,3.7-5.6c3.7-6.9,7.8-13.5,11.8-20.2C130.7,32.9,133.5,34.5,134.5,37.9z"/>
<path class="st65" d="M98.5,100.3c-2.6-1.8-4.4-4.4-6.6-6.6c2.1-5.6,5.8-10.3,8.6-15.6c2.7-5,5.6-9.9,8.5-14.8
	c0.3-0.6,0.8-1.1,1.2-1.7c0.3,0.1,0.6,0.3,0.8,0.4c0,5.7,0,11.3,0,17C106.3,85.8,102.1,92.9,98.5,100.3z"/>
<path class="st63" d="M138.1,37.9c6.2-5.4,11-12.2,16.6-18.1c1.4-1.5,2.7-3.1,4.6-3.9c1.1,2.1,0,4.2-0.3,6.2c-0.7,3.2-1,6.4-2.5,9.4
	c-4.1,2.4-6.2,6.7-9.7,9.7c-0.9,0.8-1.4,2-2.7,2.3c-2.2,0-3.5-1.5-4.8-2.9C138.7,39.8,137.6,39.2,138.1,37.9z"/>
<path class="st43" d="M111,44.5c0.1-6.4,0.1-12.7-0.7-19.1c0.7,0,1.5,0,2.2,0c0.5,11.2-1.3,22.3-1.5,33.5
	C111,54.2,111,49.4,111,44.5z"/>
<path class="st51" d="M138.1,37.9c0.5,0.7,1,1.5,1.5,2.2c-0.1,0.4-0.3,0.7-0.7,0.7c-1.7-0.7-2.3-2.9-4.4-2.9
	c-1.9-2.5-4.1-4.7-6.6-6.6c1.6-1.5,2,0.4,2.8,1C133.1,34.2,135.3,36.5,138.1,37.9z"/>
<path class="st61" d="M72.8,178.2c-1.2-0.6-1.9-1.6-2.3-2.9c3.5-6.1,5-12.9,7.5-19.4c2.5-6.5,4.9-13,7.1-19.6
	c0.9-2.6,2.2-3.3,4.6-2.3c2.9,1.7,5.8,3.4,8.7,5.1c1,0.6,2.3,0.9,2.4,2.4c0.4,1.5-0.6,2.5-1.4,3.6c-7.8,10.5-15.9,20.6-23.7,31.1
	C74.9,177.2,74.4,178.4,72.8,178.2z"/>
<path class="st60" d="M105.1,24.7c-1.2,5.3-4.7,9.5-7.3,14.1c-7.3,13-15,25.8-22.4,38.8c-0.9,1.5-2,3.1-1.8,5.1
	c-2.6,0.3-4.2-1.4-5.9-3c-1.2-1-2.3-2-3.5-2.9c3.4-2.1,4.3-6,6.2-9.2c5.1-8.3,9.8-16.9,14.6-25.4c0.3-0.6,0.3-1.4,0.4-2.1
	c-0.2-2.4,1.8-3.1,3.1-4.3c2.3-1.5,3.8-3.8,6-5.3c1-1,3-1.3,1.7-3.8c-0.6-1,0.1-3.3,2.4-3.5C100.7,23.7,102.9,24.2,105.1,24.7z"/>
<path class="st22" d="M88.9,36.5c-1.5,0.9-2.7,2.2-3.7,3.7c-2,1.7-3.9,3.4-5.9,5.1c0-0.6-0.1-1.1-0.7-1.5c0-3.2,3.5-3.4,4.7-5.6
	c1.4-1.3,2.7-2.8,4.8-2.9C88.8,35.5,89.2,35.8,88.9,36.5z"/>
<path class="st46" d="M83.8,38.7c-1,2.4-4,2.8-5.1,5.1c-2.7,0.9-4.4,3.1-6.5,4.7c-0.7,0.5-1.3,1.4-1.5-0.3c-0.9-1.7,0.1-3.1,0.8-4.4
	c4-6.9,7.8-14,12-20.8c0.9-1.4,1.5-3.6,4-2.7c1.7,0.5,3.4,1,5.1,1.5c1,1.3,0,2.3-0.6,3.3C89.5,29.7,87,34.4,83.8,38.7z"/>
<path class="st38" d="M87.5,20.3c-3.4,1-3.9,4.4-5.5,6.9c-3.9,6.2-7.4,12.6-11,18.9c-0.3,0.6-0.3,1.4-0.4,2.1
	c-1.3-3.3-1.8-6.8-2.2-10.3c-0.3-1.3,0.4-2.4,1.1-3.4c3-4.9,5.8-9.9,8.7-14.9c0.7-1.2,1.3-3.2,3.5-2.3c0.2,0,0.5,0,0.7,0
	C83.7,19,86,19,87.5,20.3z"/>
<path class="st50" d="M83.8,38.7c1.8-5.4,5.5-9.9,8-14.9c0.3-0.6,0.6-1.3,0.8-1.9c2,0.4,4.1,0.4,5.9,1.5c-0.5,0.7-1,1.3-1.4,2
	c-1.3,2.1-0.2,2.4,2.1,1.7c-1.6,1.9-2.8,3.3-4.4,4.3c-2.9,0.4-3.9,3.6-6.6,4.4C86.8,36.7,85.3,37.7,83.8,38.7z"/>
<path class="st22" d="M81.6,17.4c-3.7,1.9-4.2,6-6.3,9c-2.5,3.7-4.6,7.7-6.9,11.5c-0.9-2.1-1.5-4.3-1.5-6.6
	c-0.2-0.2-0.4-0.4-0.3-0.6c2.6-5.8,5.2-11.6,9.8-16.3C78.2,15.5,80.2,15.9,81.6,17.4z"/>
<path class="st19" d="M76.5,14.4c-3.2,5.6-6.4,11.3-9.5,16.9c-0.9-0.5-0.7-1.4-0.7-2.2c-1.1-2.5-0.8-4.8,0.9-7.1
	c1.4-1.9,2.7-4,3.7-6.1C72.2,13.1,74,12.6,76.5,14.4z"/>
<path class="st41" d="M67.6,79.7c2.4,0.2,3.8,2.2,5.9,3c3.4,2.2,6.9,4.4,10.3,6.6c-0.5,3.6,2.2,6.3,2.9,9.5c-2-0.2-3.3-1.4-4.6-2.7
	c-5.1-5-10.2-10-15.3-15.1C67.1,80.6,67.3,80.2,67.6,79.7z"/>
<path class="st92" d="M116.8,149.4c-0.2,0.1-0.5,0.1-0.7,0.2c-1.3-1.8-3.6-2.3-5.1-3.8c0-9.1,0-18.2,0-27.3c0-1.5-0.1-2.9,0.7-4.2
	c1.4-4.1,4.5-6.7,8.1-8.8c5.4-6.5,11.2-12.7,19.1-16.2c0.8,1,0.5,2,0.1,3.1c-6.6,17-12.6,34.3-19.2,51.3
	C119.1,145.7,118.7,147.9,116.8,149.4z"/>
<path class="st84" d="M119.8,105.4c-2.7,2.9-5.4,5.9-8.1,8.8c-3.6-2.3-5.7-6.1-8.9-8.8c1.3-4.4,5.4-6.6,8.1-10
	c0.1-0.2,0.8-0.2,0.9,0C114.4,98.8,118.6,101,119.8,105.4z"/>
<path class="st11" d="M155.7,54.9c0.1,2.5,1.7,4.6,1.6,7.2c0.3,0.8-0.1,0.9-0.8,0.8c-1.2-3.2-2.5-6.3-3.7-9.5
	c-0.7-1.2-1.7-2.2-1.5-3.7c0.2-2.3,1.2-4.5,1.3-6.9c1.1-3.8,1-8,3.2-11.4c1.1-3.1,1.9-6.2,2.2-9.5c0.6,0.3,0.7,0.9,0.7,1.5
	c1.6,2.7-0.1,5.2-0.4,7.8c-0.9,7.2-2.7,14.3-2.9,21.7C155.3,53.4,155.2,54.2,155.7,54.9z"/>
<path class="st38" d="M138.9,40.9c0.2-0.2,0.5-0.5,0.7-0.7c1.5,1,2.9,2,4.4,2.9c1.8,0.7,3.6,1.4,4.1,3.6c0,0.8-0.4,1.3-1.2,1.6
	C144.3,45.7,141.1,43.8,138.9,40.9z"/>
<path class="st20" d="M146.9,48.2c0.2-0.5,0.5-1,0.7-1.5c0.3-0.2,0.5-0.3,0.9-0.2c1.5,0.7,2.7,1.7,3.5,3.2c0.2,1.2,0.5,2.5,0.7,3.7
	C150.6,51.9,148.3,50.6,146.9,48.2z"/>
<path class="st14" d="M156.5,62.9c0.3-0.3,0.5-0.5,0.8-0.8c1.1,1.3,1.3,2.8,1.5,4.4c0.3,0.8-0.1,1-0.8,0.9
	C157.5,65.8,157,64.3,156.5,62.9z"/>
<path class="st47" d="M158,67.3c0.3-0.3,0.5-0.6,0.8-0.9c1,1.6,1.5,3.4,1.4,5.3C158.7,70.6,158.8,68.7,158,67.3z"/>
<path class="st52" d="M148.4,46.7c-0.2,0-0.5,0-0.7,0c-0.6-1.8-2.9-2-3.7-3.7c2.5-2.8,5.1-5.7,7.6-8.5c1.2-1.3,2.1-3,4.1-3.2
	c-0.2,4-1.7,7.8-2.2,11.7C151.9,44.5,151.6,47.6,148.4,46.7z"/>
<path class="st46" d="M88.2,35.7c2-1.8,3.4-4.5,6.6-4.4c-2,1.7-3.9,3.4-5.9,5.1C88.7,36.2,88.5,36,88.2,35.7z"/>
<path class="st38" d="M148.4,46.7c2.4-0.2,2.7-3.4,5.1-3.7c-0.5,2.2-1,4.4-1.5,6.6C150.9,48.7,149.2,48.2,148.4,46.7z"/>
<path class="st45" d="M123.4,178"/>
<path class="st75" d="M123.8,177.5"/>
<polyline class="st84" points="119.4,149.1 102,140.2 72.3,178.1 101.8,191.6 123.1,180.6 131.2,155.6 "/>
</svg>
