<?xml version="1.0" encoding="utf-8"?>
<!-- Generator: Adobe Illustrator 16.0.0, SVG Export Plug-In . SVG Version: 6.00 Build 0)  -->
<!DOCTYPE svg PUBLIC "-//W3C//DTD SVG 1.1//EN" "http://www.w3.org/Graphics/SVG/1.1/DTD/svg11.dtd">
<svg version="1.1" id="Layer_1" xmlns="http://www.w3.org/2000/svg" xmlns:xlink="http://www.w3.org/1999/xlink" x="0px" y="0px"
	 width="300px" height="300px" viewBox="0 0 300 300" style="enable-background:new 0 0 300 300;" xml:space="preserve">
<style type="text/css">
<![CDATA[
	.st0{fill-rule:evenodd;clip-rule:evenodd;fill:#FFFFFF;}
]]>
</style>
<path class="st0" d="M262.4,211.5c-2.2,5.3-4.1,10.4-6.3,15.4c-6.9,15.3-16.4,29-27.4,41.5c-14,16-29,19.7-48.4,11.1
	c-18.4-8.1-36-8-54.4,0c-19.7,8.6-32.5,5.8-47-10.3C48.7,235.7,32.6,196.6,34.1,151c1.1-33,21-60.8,50-70.3
	c13.5-4.4,26.8-4.3,40.1,0.7c4.5,1.7,9.1,3.2,13.5,5.1c8.1,3.5,15.9,3.1,24.2,0c9.1-3.5,18.4-7.4,28-8.8
	c25.5-3.5,47.3,3.9,63.8,24.5c0.4,0.5,0.6,1.1,0.9,1.7C210.5,132.1,216.8,191.3,262.4,211.5z"/>
<path class="st0" d="M203.6,11.3c3.7,32.6-26.6,66.2-55.7,62.3C141.1,47.7,175.2,9.4,203.6,11.3z"/>
</svg>
