<?xml version="1.0" encoding="utf-8"?>
<!-- Generator: Adobe Illustrator 16.0.0, SVG Export Plug-In . SVG Version: 6.00 Build 0)  -->
<!DOCTYPE svg PUBLIC "-//W3C//DTD SVG 1.1//EN" "http://www.w3.org/Graphics/SVG/1.1/DTD/svg11.dtd">
<svg version="1.1" id="Layer_1" xmlns="http://www.w3.org/2000/svg" xmlns:xlink="http://www.w3.org/1999/xlink" x="0px" y="0px"
	 width="391.4px" height="137px" viewBox="0 0 391.4 137" enable-background="new 0 0 391.4 137" xml:space="preserve">
<rect y="-1" fill-rule="evenodd" clip-rule="evenodd" fill="#FFFFFF" width="391" height="138"/>
<path fill="#FFFFFF" d="M58.1,27.8v67.4h33.7V44.7h16.9v50.6h16.9V27.8h16.9v84.3h33.7V44.7H193v33.7h-16.9v16.9h33.7V27.8h16.9
	v67.4h33.7V44.7h16.9v50.6h16.9V44.7H311v50.6h16.9V27.8"/>
<g>
	<path fill-rule="evenodd" clip-rule="evenodd" fill="#100E0F" d="M217.5,47.1c0,3.9-3.1,7.1-7,7.2c-3.9,0-7.1-3.2-7.1-7.1
		c0-3.9,3.1-7.1,7-7.1C214.4,40,217.5,43.1,217.5,47.1z"/>
	<g>
		<path fill-rule="evenodd" clip-rule="evenodd" fill="#212020" d="M64.8,75.6c-8.1-0.9-15.9-2.7-22.4-8c-2.1-1.7-3.8-3.8-5.2-6.2
			c-0.3-0.5-0.5-0.7-1.1-0.7c-9.5,0.4-19,1.5-28.3,3.8c-0.7,0.2-1.4,0.4-2,0.5c-0.2,0-0.6,0.4-0.7-0.1c-0.1-0.4,0.3-0.4,0.6-0.5
			c2.1-0.5,4.3-1.1,6.4-1.5c7.7-1.6,15.5-2.5,23.4-2.8c1.1,0,0.9,0,0.7-1c-0.4-1.4-1.2-1.7-2.5-1.7c-9.3-0.2-18.5,0.3-27.7,2
			c-0.1,0-0.1,0-0.2,0c-0.3-0.1-0.8,0.4-0.9-0.1c-0.1-0.4,0.5-0.4,0.8-0.4c9.2-1.7,18.5-2.2,27.8-2c0.3,0,0.6,0,0.9,0
			c0.9,0.1,0.9-0.2,0.7-0.9c-1.9-6.9-2.6-13.9-1-20.9c0.9-4,2.9-7.5,5.6-10.5c0.4-0.4,0.5-0.8,0.3-1.3C38,17.5,38.6,12,40.7,6.5
			c0.2-0.6,0.7-0.6,1.2-0.6c2.7-0.1,5.2,0.7,7.6,1.6c3.3,1.3,6.4,3.1,9.3,5.1c0.5,0.3,0.9,0.4,1.4,0.2c10.2-2.6,20.4-2.7,30.7-0.4
			c0.6,0.1,1,0.1,1.5-0.3c3.8-2.5,7.8-4.7,12.2-5.8c1.3-0.3,2.7-0.5,4.1-0.5c0.7,0,1.1,0.2,1.3,0.9c1.8,5,2.4,10.1,1,15.4
			c-0.1,0.4-0.1,0.7,0.3,1c5.2,5.5,7.6,12,7.5,19.5c-0.1,4.8-0.3,9.5-1.5,14.2c0.3,0.2,0.6,0.1,0.9,0.1c7.3-0.3,14.5,0,21.7,0.8
			c2.5,0.3,5.1,0.7,7.6,1.2c0.3,0.1,1,0,0.9,0.4c-0.1,0.6-0.7,0.2-1,0.1c-8.6-1.6-17.2-2.1-25.9-2c-1.3,0-2.6,0.1-3.8,0.1
			c-0.6,0-0.8,0.2-0.9,0.7c-0.6,1.9-0.6,1.9,1.4,2c9.9,0.4,19.6,1.6,29.2,4.2c0.2,0,0.3,0,0.5,0.1c0.2,0.1,0.4,0.1,0.3,0.4
			c-0.1,0.4-0.3,0.2-0.5,0.2c-1.9-0.5-3.8-1-5.8-1.4c-7.5-1.6-15-2.5-22.6-2.9c-1.1-0.1-2.2-0.4-3.1-0.1c-0.9,0.4-1.1,1.7-1.6,2.6
			c-2.9,4.7-7.2,7.5-12.2,9.4c-4.5,1.6-9.1,2.5-13.8,2.9C80.5,75.9,72.7,75.9,64.8,75.6z M108.2,51.2c0.1-0.4-0.1-0.7-0.1-1
			c-1.1-6.2-7.1-11.4-13.3-11.7c-4.3-0.2-8.6,0.2-12.8,0.4c-4.6,0.3-9.2,0.2-13.8-0.1c-3.8-0.3-7.6-0.6-11.5-0.1
			c-6.2,0.6-11.9,6.3-12.5,12.5c-0.1,1.7-0.1,3.4,0.1,5.2c0.7,5.1,3,9.1,7.4,11.8c3.6,2.2,7.6,3.2,11.8,3.7
			c6.6,0.9,13.2,0.8,19.8,0.6c4.3-0.1,8.6-0.4,12.8-1.6c5.7-1.6,9.7-5,11.3-10.9C108.2,57.2,108.5,54.2,108.2,51.2z"/>
		<path fill-rule="evenodd" clip-rule="evenodd" fill="#0F0D0E" d="M198.1,78.5c0,4.6,0,9.3,0,13.9c0,1-0.4,1.6-1.2,2
			c-4.2,2.3-8.7,3.5-13.4,3.9c-5.1,0.4-10.2,0-15.1-1.7c-7.3-2.5-11.7-7.8-13.9-15.1c-1.7-5.7-2-11.5-1.6-17.4
			c0.2-4.6,0.9-9.1,2.6-13.4c3.2-8.4,9.3-13.2,18.2-14.4c6.3-0.8,12.6-0.5,18.8,1.3c0.9,0.3,1.7,0.6,2.6,1.1
			c0.5,0.3,0.7,0.6,0.6,1.2c-0.7,3-1.4,6-2.1,8.9c-0.2,0.7-0.6,0.9-1.4,0.7c-4-1.4-8.2-1.7-12.4-1.6c-1.9,0.1-3.8,0.4-5.5,1.1
			c-4.1,1.6-6.3,4.8-7.4,8.9c-1.3,4.6-1.3,9.2-0.9,13.9c0.3,2.7,0.8,5.4,2,7.8c2,4.2,5.4,6.3,9.9,6.5c2.3,0.1,4.5,0,6.8-0.4
			c0.5-0.1,0.7-0.3,0.7-0.8c0-3.5,0-7,0-10.5c0-0.6-0.2-0.7-0.7-0.7c-2.1,0-4.3,0-6.4,0c-1.1,0-1.3-0.2-1.3-1.3c0-2.9,0-5.8,0-8.7
			c0-1.1,0.2-1.3,1.3-1.3c6.1,0,12.3,0,18.4,0c1.2,0,1.4,0.3,1.4,1.5C198.1,69,198.1,73.7,198.1,78.5z"/>
		<path fill-rule="evenodd" clip-rule="evenodd" fill="#0F0D0E" d="M254.6,67.7c0-9.3,0-18.6,0-27.8c0-1.5,0.1-1.6,1.6-1.6
			c3.2,0,6.4,0,9.6,0c1.4,0,1.5,0.1,1.5,1.5c0,6.5,0,13,0,19.5c0,0.9,0.2,1,1.1,1c5,0,9.9,0,14.9,0c0.8,0,1.1-0.2,1.1-1.1
			c0-6.5,0-12.9,0-19.4c0-1.4,0.1-1.5,1.5-1.5c3.2,0,6.5,0,9.7,0c1.3,0,1.5,0.2,1.5,1.5c0,18.6,0,37.2,0,55.9c0,1.4-0.2,1.6-1.6,1.6
			c-3.1,0-6.3,0-9.4,0c-1.6,0-1.7-0.1-1.7-1.7c0-7.6,0-15.1,0.1-22.7c0-0.9-0.2-1.1-1.1-1c-5,0-10,0-15.1,0c-0.8,0-0.9,0.2-0.9,1
			c0,7.6,0,15.2,0,22.8c0,1.4-0.2,1.6-1.5,1.6c-3.2,0-6.4,0-9.6,0c-1.4,0-1.6-0.2-1.6-1.6C254.6,86.3,254.6,77,254.6,67.7z"/>
		<path fill-rule="evenodd" clip-rule="evenodd" fill="#100E0F" d="M354.6,94.2c-0.1,0.8-0.2,1.4-0.3,2.1c-0.1,0.7-0.5,1-1.2,1
			c-2.4,0-4.7,0-7.1,0c-0.8,0-1.1-0.4-1.1-1.1c0-0.2,0-0.4,0-0.7c0-18.5,0-36.9,0-55.4c0-1.7,0.1-1.8,1.8-1.8c3.2,0,6.3,0,9.5,0
			c1.3,0,1.5,0.2,1.5,1.5c0,5.9,0,11.7,0,17.6c0,0.3,0,0.7,0,1.1c2.2-1.2,4.4-2,6.8-2.4c2.9-0.5,5.7-0.5,8.5,0.4
			c5,1.5,7.6,5.1,9,9.8c1.2,4.3,1.3,8.7,1.1,13.1c-0.1,2.7-0.4,5.5-1.2,8.1c-2,7.4-6.3,10.7-14,10.8
			C363.1,98.4,358.6,97.2,354.6,94.2z M357.4,77.1c0,2.8,0,5.6,0,8.3c0,0.5,0.1,0.9,0.7,1.1c2.3,1.1,4.6,1.6,7.1,1.4
			c2.8-0.2,4.1-1.3,4.8-4c0.7-2.6,0.7-5.2,0.7-7.8c0-2.2-0.2-4.3-1-6.4c-0.8-2-2.3-3.2-4.5-3.4c-2.6-0.3-5,0.4-7.3,1.6
			c-0.5,0.2-0.4,0.6-0.4,1C357.4,71.6,357.4,74.3,357.4,77.1z"/>
		<path fill-rule="evenodd" clip-rule="evenodd" fill="#212020" d="M93.5,84.2c0.3,1.3,0.3,2.7,0.3,4c0,4.1,0,8.2,0,12.2
			c0,0.3,0,0.7,0.1,1c0,1.3-0.1,2.6,0,3.9c0.3,2.5,1.5,4.5,3.9,5.6c1.4,0.6,1.6,1.5,0.7,2.5c-0.1,0-0.2,0.1-0.2,0.1l0,0
			c-2.3,0.2-4.5-0.1-6.7-0.9c-3-1.3-4.5-3.6-4.6-6.9c0-1.7,0-3.4,0-5.1c0-3.2,0.1-6.5,0-9.7c0-1.5-0.3-3-1.1-4.4
			c-0.2-0.4-0.4-0.9-1-1c0,0.3,0,0.5,0,0.7c0,4.7,0,9.5,0,14.2c0,3.5-0.1,7.1,0,10.6c0.1,2,0.6,3.9,2.6,5c0.7,1.4,0.5,1.9-0.8,2.6
			c-0.3,0-0.6,0.1-0.9,0.1c-2.1-0.3-4-1.1-5.7-2.4c-1.9-1.7-2.7-3.9-2.6-6.4c0.1-3.3,0-6.6,0-9.9c0-2.6,0-5.2,0-7.9c0-2.5,0-5,0-7.6
			c0-0.6-0.2-1.1-1-1.1c-0.8,0-0.8,0.5-0.8,1.1c0,5.1,0,10.3,0,15.4c0,3.2-0.1,6.4,0,9.7c0.1,2.6-0.7,4.8-2.6,6.6
			c-1.7,1.3-3.6,2.1-5.7,2.4c-0.4,0-0.8,0-1.2,0c-1.1-0.8-1.2-1.2-0.5-2.6c1.7-0.9,2.6-2.3,2.6-4.2c0-3.8,0-7.6,0-11.4
			c0-5,0-10.1,0-15.2c-0.6,0.3-0.9,0.7-1.1,1.2c-0.4,0.9-0.7,1.8-0.8,2.7c-0.4,3.8-0.1,7.7-0.2,11.5c0,1.4-0.1,2.7,0,4.1
			c0.1,3.6-1.2,6.3-4.6,7.8c-2.2,0.8-4.4,1.1-6.7,1c-0.5-0.2-1-0.4-1-1c0-0.6,0.4-1.1,0.9-1.4c0.4-0.2,0.8-0.3,1.1-0.5
			c1.9-0.9,3.1-2.4,3.4-4.5c0.2-1.5,0.1-3,0-4.5c0.1-3.3,0.1-6.7,0-10c0.1-0.2,0.2-0.5,0.2-0.7c0-2.4,0-4.8,0.2-7.1
			c0.6-2,1.3-3.9,2.6-5.6c2.7-0.9,5.5-1.2,8.3-1.3c4.5-0.1,9-0.4,13.5,0.3c3.9,0.6,6.9,2.4,8.7,6.1C92.9,83.7,93,84.1,93.5,84.2z"/>
		<path fill-rule="evenodd" clip-rule="evenodd" fill="#0E0C0D" d="M330.2,94.5c-2.4,1.5-4.9,2.5-7.6,3.2c-3.8,1-7.6,0.9-11.4,0
			c-5-1.2-8-4.6-8.6-9.8c-0.2-1.3-0.2-2.7-0.2-4c0-8.4,0-16.9,0-25.3c0-1.4,0.1-1.6,1.5-1.6c3.2,0,6.5,0,9.7,0
			c1.4,0,1.5,0.1,1.5,1.5c0,7.8,0,15.6,0,23.4c0,1,0.1,2,0.3,3c0.4,1.7,1.5,2.6,3.1,2.8c2.7,0.4,5.2-0.2,7.7-1.5
			c0.6-0.3,0.5-0.7,0.5-1.2c0-8.8,0-17.5,0-26.3c0-1.7,0.1-1.8,1.8-1.8c3.1,0,6.3,0,9.4,0c1.3,0,1.4,0.2,1.4,1.4
			c0,12.5,0,24.9,0,37.4c0,1.2-0.2,1.4-1.4,1.4c-2,0-4,0-6,0c-0.9,0-1.3-0.4-1.4-1.2C330.4,95.6,330.3,95.1,330.2,94.5z"/>
		<path fill-rule="evenodd" clip-rule="evenodd" fill="#0F0D0E" d="M227.6,78c0-3.5-0.1-6.4,0-9.3c0-1-0.3-1.2-1.2-1.2
			c-1.4,0.1-2.8,0-4.1,0c-1,0-1.3-0.3-1.3-1.3c0-2.1,0-4.2,0-6.2c0-0.8,0.3-1.2,1.1-1.4c1.6-0.4,3.2-0.8,4.8-1.2
			c0.5-0.1,0.7-0.3,0.7-0.9c0-3.3,0-6.7,0-10c0-0.9,0.3-1.1,1.1-1.1c3.4,0,6.8,0,10.3,0c0.9,0,1.2,0.3,1.2,1.2c0,3.1,0,6.3,0,9.4
			c0,0.7,0.2,0.9,0.9,0.9c2.3,0,4.5,0,6.8,0c1.1,0,1.4,0.3,1.4,1.3c0,2.7,0,5.3,0,8c0,1.1-0.2,1.3-1.4,1.3c-2.3,0-4.6,0-6.9,0
			c-0.6,0-0.8,0.1-0.8,0.8c0,5.1,0,10.1,0,15.2c0,2.6,1.4,4,3.9,4.3c1.3,0.1,2.6,0,3.9-0.1c1-0.1,1.4,0.2,1.4,1.2c0,2.4,0,4.7,0,7.1
			c0,0.6-0.2,1-0.8,1.2c-4.3,1.2-8.7,1.4-13,0.1c-4.6-1.4-6.9-4.8-7.6-9.4C227.4,84.5,227.7,80.9,227.6,78z"/>
		<path fill-rule="evenodd" clip-rule="evenodd" fill="#0E0C0D" d="M217,77c0,6.1,0,12.2,0,18.3c0,1.7-0.2,1.9-1.9,1.9
			c-2.9,0-5.9,0-8.8,0c-1.6,0-1.9-0.4-1.9-1.9c0-12.3,0-24.6,0-36.8c0-1.2,0.3-1.5,1.5-1.5c3.3,0,6.5,0,9.8,0c1.2,0,1.4,0.2,1.4,1.4
			C217,64.6,217,70.8,217,77z"/>
		<path fill-rule="evenodd" clip-rule="evenodd" fill="#9CD9EF" d="M98.5,113.4c0.9-0.9,0.7-1.8-0.7-2.5c-2.4-1.1-3.6-3-3.9-5.6
			c-0.1-1.3,0-2.6,0-3.9c6.1,1,12,2.4,17.5,5.4c1.8,1,3.5,2.1,4.7,3.7c2.1,2.9,1.9,5.6-0.5,8.2c-1.9,2-4.2,3.2-6.6,4.3
			c-4.8,2.1-9.8,3.3-15,4.1c0-2.4-0.1-4.8,0-7.2c0.1-2.6,1.3-4.7,3.8-5.9c0.3-0.1,0.6-0.2,0.6-0.6l0,0
			C98.3,113.5,98.4,113.5,98.5,113.4z"/>
		<path fill-rule="evenodd" clip-rule="evenodd" fill="#9CD9EF" d="M59.3,101.7c0.1,1.5,0.1,3,0,4.5c-0.2,2.1-1.5,3.6-3.4,4.5
			c-0.4,0.2-0.8,0.3-1.1,0.5c-0.5,0.3-0.9,0.7-0.9,1.4c0,0.6,0.5,0.8,1,1c0.2,0.3,0.5,0.4,0.8,0.6c2.3,1.3,3.5,3.2,3.6,5.8
			c0,2.3,0,4.6,0,7c-6.4-1.1-12.6-2.7-18.1-6.3c-1.2-0.8-2.3-1.7-3.1-2.9c-1.8-2.6-1.6-5.3,0.6-7.7c2-2.2,4.6-3.6,7.3-4.7
			C50.2,103.6,54.7,102.5,59.3,101.7z"/>
		<path fill-rule="evenodd" clip-rule="evenodd" fill="#232222" d="M58.9,91.7c-7.7,1.8-15.3,0.4-19.7-7.5c-0.6-1-1.1-2-1.7-3
			c-1.3-2.2-3-3.8-5.3-4.9c-0.8-0.4-1.6-0.8-2.2-1.5c-0.7-0.8-0.5-1.4,0.4-1.8c1.5-0.6,3.1-0.4,4.6,0.1c2.8,0.9,5,2.8,6.6,5.3
			c0.6,0.9,1.1,1.8,1.8,2.7c3.5,4.2,8.3,5.4,14,3.5c0.6-0.2,1.3-0.5,1.9-0.7c-0.1,0.4-0.1,0.8-0.2,1.2c-0.7-0.2-1.3,0-1.3,0.7
			c0,0.7,0.6,0.8,1.2,0.7C58.9,88.4,58.9,90,58.9,91.7z M46,84.7c-0.4,0-0.8,0.2-0.8,0.6c0.1,0.7,0.6,1.1,1.3,1.1
			c0.5,0,0.9-0.2,0.8-0.7C47.2,85.1,46.7,84.8,46,84.7z M43.6,83.8c0.2,0,0.5-0.3,0.5-0.7c0-0.6-0.7-1.3-1.3-1.3
			c-0.4,0-0.6,0.3-0.7,0.7C42.1,83.1,42.8,83.8,43.6,83.8z M50.3,87.7c0.6,0,1.1-0.2,1-0.8c-0.1-0.7-0.7-0.9-1.3-0.9
			c-0.5,0-1,0.1-0.9,0.7C49.2,87.5,49.8,87.6,50.3,87.7z M54.6,87.7c0.6,0,1.2-0.1,1.2-0.7c0-0.7-0.6-0.9-1.1-0.9
			c-0.5,0-1.1,0.1-1.1,0.8C53.5,87.6,54.1,87.7,54.6,87.7z M39.6,79.4c0.1,0.6,0.4,1.2,1.1,1.2c0.4,0,0.6-0.3,0.6-0.7
			c0-0.6-0.7-1.3-1.2-1.3C39.7,78.7,39.7,79,39.6,79.4z M38.4,77.6c0.4,0,0.6-0.2,0.5-0.6c-0.1-0.6-0.5-0.9-1.1-0.9
			c-0.4,0-0.6,0.2-0.5,0.6C37.4,77.2,37.8,77.5,38.4,77.6z M35.6,74.4c-0.3,0-0.6,0.1-0.6,0.4c0,0.5,0.4,0.7,0.9,0.7
			c0.3,0,0.6-0.1,0.6-0.4C36.4,74.6,36,74.4,35.6,74.4z"/>
		<path fill-rule="evenodd" clip-rule="evenodd" fill="#7CB9E5" d="M98.2,113.5c0,0.4-0.3,0.5-0.6,0.6c-2.4,1.2-3.6,3.2-3.8,5.9
			c-0.1,2.4,0,4.8,0,7.2c-2.3,0.4-4.6,0.8-6.9,0.8c0-2.8,0-5.5,0-8.3c0-0.4,0.1-0.8-0.3-1.1c1.3-0.7,1.5-1.2,0.8-2.6
			c0.8-0.8,1.5-1.7,2.5-2.4c0.5-0.4,1.3-0.4,1.6-1.1C93.7,113.4,95.9,113.8,98.2,113.5z"/>
		<path fill-rule="evenodd" clip-rule="evenodd" fill="#7CB9E5" d="M59.3,127c0-2.3,0-4.6,0-7c0-2.6-1.3-4.6-3.6-5.8
			c-0.3-0.2-0.7-0.2-0.8-0.6c2.3,0.1,4.6-0.1,6.7-1c1.5,1,3.1,1.9,4.1,3.5c-0.7,1.4-0.6,1.9,0.5,2.6c0,3.1,0,6.1,0,9.2
			C63.9,127.8,61.6,127.5,59.3,127z"/>
		<path fill-rule="evenodd" clip-rule="evenodd" fill="#9BD3E7" d="M77.5,100.1c0,3.3,0.1,6.6,0,9.9c-0.1,2.6,0.7,4.7,2.6,6.4
			c0,0.3-0.2,0.5-0.3,0.7c-0.7,0.9-1.1,1.9-1.4,3c-0.9,2.8-0.5,5.6-0.5,8.5c-0.7,0-1.4,0-2.1,0c-0.2-1.5-0.2-2.9-0.2-4.4
			c0.1-2.8-0.6-5.4-2.3-7.7c1.9-1.8,2.6-4,2.6-6.6c-0.1-3.2,0-6.4,0-9.7C76.3,100.1,76.9,100.1,77.5,100.1z"/>
		<path fill-rule="evenodd" clip-rule="evenodd" fill="#7CB9E5" d="M77.7,128.5c0.1-2.8-0.3-5.7,0.5-8.5c0.3-1.1,0.7-2.1,1.4-3
			c0.2-0.2,0.3-0.4,0.3-0.7c1.7,1.2,3.6,2.1,5.7,2.4c-0.3,0.9-0.6,1.8-0.8,2.7c-0.4,2.2-0.2,4.4-0.2,6.7
			C82.5,128.5,80.1,128.6,77.7,128.5z"/>
		<path fill-rule="evenodd" clip-rule="evenodd" fill="#7CB9E5" d="M73.1,116.4c1.8,2.3,2.4,4.8,2.3,7.7c0,1.5,0,2.9,0.2,4.4
			c-2.4,0-4.8-0.1-7.3-0.3c0-1.5,0-3,0-4.5c0-1.7-0.3-3.3-1-4.8C69.5,118.5,71.4,117.7,73.1,116.4z"/>
		<path fill-rule="evenodd" clip-rule="evenodd" fill="#030303" d="M93.5,84.2c-0.5-0.1-0.5-0.5-0.7-0.8c-1.8-3.7-4.8-5.4-8.7-6.1
			c-4.5-0.7-9-0.4-13.5-0.3c-2.8,0-5.6,0.4-8.3,1.3c0.7-1.1,1.7-1.8,2.6-2.7c7.8,0.3,15.7,0.3,23.5,0c0.1,0.4,0.4,0.5,0.6,0.7
			C91.5,78.4,93,81,93.5,84.2z"/>
		<path fill-rule="evenodd" clip-rule="evenodd" fill="#9CD9EF" d="M67.4,118.8c0.7,1.5,0.9,3.2,1,4.8c0,1.5,0,3,0,4.5
			c-0.7,0.1-1.4-0.2-2.1-0.2c0-3.1,0-6.1,0-9.2C66.6,118.8,67,118.8,67.4,118.8z"/>
		<path fill-rule="evenodd" clip-rule="evenodd" fill="#9CD9EF" d="M84.9,128.2c0-2.2-0.2-4.5,0.2-6.7c0.2-0.9,0.5-1.8,0.8-2.7
			c0.3,0,0.6-0.1,0.9-0.1c0.4,0.3,0.3,0.7,0.3,1.1c0,2.8,0,5.5,0,8.3C86.3,128.3,85.6,128.1,84.9,128.2z"/>
		<path fill-rule="evenodd" clip-rule="evenodd" fill="#9CD9EF" d="M31.2,76.1c0.4,1.5,0.8,2.9,1.1,4.2c0.2,0.6,0,1.1-0.4,1.5
			C31.5,82,31,82,30.6,81.8c-0.6-0.3-0.7-0.8-0.7-1.4C30.2,79,30.6,77.6,31.2,76.1z"/>
		<path fill-rule="evenodd" clip-rule="evenodd" fill="#030303" d="M58.9,91.7c0-1.7,0-3.3,0-5c0.1-0.5,0.1-1,0.2-1.5
			c0.1-0.4,0.1-0.8,0.2-1.2c0.1-0.1,0.2-0.2,0.4-0.2c-0.2,2.4-0.2,4.8-0.2,7.1c0,0.2-0.1,0.5-0.2,0.7C59.2,91.7,59.1,91.7,58.9,91.7
			z"/>
		<path fill-rule="evenodd" clip-rule="evenodd" fill="#F3C9B0" d="M108.2,51.2c0.3,3,0,5.9-0.8,8.8c-1.6,5.9-5.6,9.3-11.3,10.9
			c-4.2,1.2-8.5,1.5-12.8,1.6c-6.6,0.2-13.2,0.3-19.8-0.6c-4.1-0.6-8.2-1.5-11.8-3.7c-4.4-2.7-6.7-6.8-7.4-11.8
			c-0.2-1.7-0.3-3.4-0.1-5.2c0.1,0,0.2-0.1,0.2-0.1c0.7-2.7,2.1-5,4-7.1c1.6-1.7,3.4-3,5.7-3.6c3.7-1,7.4-0.6,11-0.3
			c3.4,0.3,6.7,0.5,10.1,0.7c2.9,0.1,5.8-0.2,8.7-0.4c1.7-0.1,3.5-0.3,5.2-0.4c2.6-0.2,5.3-0.3,7.9,0.2c4.8,0.9,7.7,4.1,9.9,8.2
			C107.5,49.3,107.6,50.4,108.2,51.2z M101.4,54.7c0-3.3-0.5-5.3-1.5-7.1c-2.5-4.5-7.3-4.6-10-0.4c-1.5,2.2-1.9,4.7-1.7,7.4
			c0.1,2.3,0.8,4.4,2.1,6.3c2.1,3,5.7,3.3,8.2,0.8C100.6,59.6,101.3,56.8,101.4,54.7z M65.5,53.7c0.1-2.6-0.6-5.2-2.4-7.3
			c-1.4-1.7-3.1-2.6-5.4-2c-1.6,0.4-2.7,1.4-3.6,2.7c-2.8,4-2.6,10.2,0.5,14.2c2.3,3,6.3,2.9,8.6,0C64.8,59,65.5,56.5,65.5,53.7z
			 M76.3,69.3c1.6-0.1,2.9-0.9,3.6-2.3c0.2-0.4,0.4-0.8-0.1-1.1c-0.5-0.2-0.7,0.2-0.8,0.5c-0.6,1.1-1.5,1.8-2.8,1.8
			c-1.2,0-2.2-0.6-2.7-1.8c-0.2-0.3-0.3-0.8-0.8-0.5c-0.5,0.2-0.3,0.6-0.1,1C73.3,68.5,74.6,69.3,76.3,69.3z M77.9,62.3
			c0-0.9-0.8-1.7-1.7-1.7c-0.9,0-1.6,0.8-1.6,1.7c0,0.9,0.8,1.7,1.7,1.7C77.2,64,78,63.2,77.9,62.3z"/>
		<path fill-rule="evenodd" clip-rule="evenodd" fill="#C29A85" d="M108.2,51.2c-0.7-0.8-0.7-1.9-1.2-2.8c-2.2-4.1-5.1-7.4-9.9-8.2
			c-2.6-0.5-5.3-0.4-7.9-0.2c-1.7,0.1-3.5,0.3-5.2,0.4c-2.9,0.2-5.8,0.5-8.7,0.4c-3.4-0.1-6.7-0.4-10.1-0.7c-3.7-0.3-7.4-0.6-11,0.3
			C51.9,41,50,42.3,48.5,44c-1.9,2.1-3.3,4.4-4,7.1c0,0.1-0.2,0.1-0.2,0.1c0.6-6.2,6.3-11.9,12.5-12.5c3.8-0.4,7.6-0.1,11.5,0.1
			c4.6,0.3,9.2,0.4,13.8,0.1c4.3-0.3,8.5-0.6,12.8-0.4c6.2,0.3,12.2,5.5,13.3,11.7C108.1,50.5,108.3,50.8,108.2,51.2z"/>
		<path fill-rule="evenodd" clip-rule="evenodd" fill="#9CD9EF" d="M91.6,112.6c-0.3,0.7-1.1,0.7-1.6,1.1c-1,0.7-1.6,1.6-2.5,2.4
			c-2-1.1-2.6-3-2.6-5c-0.1-3.5,0-7.1,0-10.6c0.7,0,1.4,0,2,0.2c0,1.7,0,3.4,0,5.1C87,109,88.6,111.3,91.6,112.6z"/>
		<path fill-rule="evenodd" clip-rule="evenodd" fill="#9CD9EF" d="M65.7,116.1c-1-1.6-2.6-2.5-4.1-3.5c3.4-1.5,4.7-4.2,4.6-7.8
			c0-1.4,0-2.7,0-4.1c0.7,0,1.4-0.1,2.1-0.2c0,3.8,0,7.6,0,11.4C68.3,113.8,67.4,115.2,65.7,116.1z"/>
		<path fill-rule="evenodd" clip-rule="evenodd" fill="#7CB9E5" d="M98.5,113.4c-0.1,0-0.2,0.1-0.2,0.1
			C98.3,113.5,98.4,113.5,98.5,113.4z"/>
		<path fill-rule="evenodd" clip-rule="evenodd" fill="#9BD3E7" d="M46,84.7c0.7,0,1.3,0.4,1.4,1.1c0.1,0.5-0.3,0.7-0.8,0.7
			c-0.7-0.1-1.3-0.4-1.3-1.1C45.1,84.9,45.5,84.7,46,84.7z"/>
		<path fill-rule="evenodd" clip-rule="evenodd" fill="#9BD3E7" d="M43.6,83.8c-0.9,0-1.5-0.8-1.5-1.4c0-0.4,0.2-0.7,0.7-0.7
			c0.6,0,1.3,0.7,1.3,1.3C44.1,83.6,43.9,83.8,43.6,83.8z"/>
		<path fill-rule="evenodd" clip-rule="evenodd" fill="#9BD3E7" d="M50.3,87.7c-0.6-0.1-1.2-0.2-1.2-0.9c0-0.6,0.5-0.7,0.9-0.7
			c0.6,0,1.2,0.2,1.3,0.9C51.4,87.5,50.9,87.7,50.3,87.7z"/>
		<path fill-rule="evenodd" clip-rule="evenodd" fill="#9BD3E7" d="M54.6,87.7c-0.5-0.1-1.1-0.1-1-0.8c0-0.7,0.6-0.8,1.1-0.8
			c0.6,0,1.2,0.2,1.1,0.9C55.7,87.6,55.1,87.7,54.6,87.7z"/>
		<path fill-rule="evenodd" clip-rule="evenodd" fill="#9BD3E7" d="M39.6,79.4c0-0.4,0.1-0.7,0.6-0.7c0.5,0,1.2,0.7,1.2,1.3
			c0,0.4-0.2,0.7-0.6,0.7C40.1,80.5,39.8,80,39.6,79.4z"/>
		<path fill-rule="evenodd" clip-rule="evenodd" fill="#9BD3E7" d="M38.4,77.6c-0.6-0.1-1-0.4-1.1-0.9c-0.1-0.4,0.2-0.6,0.5-0.6
			c0.6,0,0.9,0.4,1.1,0.9C39,77.4,38.7,77.5,38.4,77.6z"/>
		<path fill-rule="evenodd" clip-rule="evenodd" fill="#9BD3E7" d="M59.1,85.2c-0.1,0.5-0.1,1-0.2,1.5c-0.6,0-1.2,0-1.2-0.7
			C57.8,85.2,58.4,85.1,59.1,85.2z"/>
		<path fill-rule="evenodd" clip-rule="evenodd" fill="#9BD3E7" d="M35.6,74.4c0.4,0.1,0.8,0.2,0.8,0.7c0,0.3-0.3,0.5-0.6,0.4
			c-0.4-0.1-0.8-0.3-0.9-0.7C34.9,74.4,35.3,74.4,35.6,74.4z"/>
		<path fill-rule="evenodd" clip-rule="evenodd" fill="#FDFDFD" d="M101.4,54.7c-0.1,2.1-0.7,4.8-2.9,7c-2.6,2.5-6.1,2.2-8.2-0.8
			c-1.4-1.9-2-4-2.1-6.3c-0.1-2.7,0.3-5.1,1.7-7.4c2.8-4.3,7.5-4.1,10,0.4C100.9,49.5,101.4,51.4,101.4,54.7z M89.6,53.9
			c0,1.8,0.4,3.5,1.5,4.9c1.6,2,4,2.1,5.7,0.1c2.3-2.6,2.2-7.6-0.1-10.1c-1.6-1.7-3.8-1.8-5.4-0.1C90,50.2,89.6,52,89.6,53.9z"/>
		<path fill-rule="evenodd" clip-rule="evenodd" fill="#FDFDFD" d="M65.5,53.7c0,2.9-0.6,5.3-2.3,7.5c-2.3,3-6.3,3-8.6,0
			c-3.1-4-3.3-10.1-0.5-14.2c0.9-1.3,2-2.3,3.6-2.7c2.2-0.5,4,0.4,5.4,2C64.9,48.5,65.6,51.1,65.5,53.7z M55,53.9
			c0,1.8,0.4,3.5,1.6,4.9c1.5,1.9,3.9,2,5.5,0.2c2.4-2.6,2.4-7.8-0.1-10.3c-1.6-1.6-3.7-1.6-5.2,0C55.5,50.2,55,52,55,53.9z"/>
		<path fill-rule="evenodd" clip-rule="evenodd" fill="#AC5E53" d="M76.3,69.3c-1.8-0.1-3-0.9-3.8-2.4c-0.2-0.4-0.3-0.8,0.1-1
			c0.5-0.3,0.7,0.2,0.8,0.5c0.6,1.1,1.5,1.8,2.7,1.8c1.2,0,2.2-0.6,2.8-1.8c0.2-0.3,0.3-0.8,0.8-0.5c0.5,0.3,0.3,0.7,0.1,1.1
			C79.2,68.5,78,69.3,76.3,69.3z"/>
		<path fill-rule="evenodd" clip-rule="evenodd" fill="#AC5E53" d="M77.9,62.3c0,0.9-0.7,1.7-1.6,1.7c-0.9,0-1.7-0.8-1.7-1.7
			c0-0.9,0.7-1.7,1.6-1.7C77.1,60.6,77.9,61.4,77.9,62.3z"/>
		<path fill-rule="evenodd" clip-rule="evenodd" fill="#AC5E53" d="M89.6,53.9c0-1.9,0.5-3.7,1.8-5.1c1.6-1.7,3.8-1.7,5.4,0.1
			c2.3,2.5,2.3,7.6,0.1,10.1c-1.7,1.9-4.1,1.9-5.7-0.1C90,57.4,89.6,55.7,89.6,53.9z M93.7,51.1c0-0.7-0.4-1.1-1-1.2
			c-0.7,0-1.2,0.4-1.2,1.1c0,0.7,0.4,1.1,1.1,1.1C93.3,52.1,93.7,51.7,93.7,51.1z"/>
		<path fill-rule="evenodd" clip-rule="evenodd" fill="#AC5E53" d="M55,53.9c0-1.9,0.5-3.7,1.8-5.2c1.5-1.6,3.7-1.6,5.2,0
			c2.4,2.5,2.4,7.8,0.1,10.3c-1.7,1.8-4,1.7-5.5-0.2C55.5,57.4,55,55.7,55,53.9z M58.9,51c0-0.7-0.6-1.3-1.3-1.3
			c-0.7,0-1.3,0.6-1.3,1.3c0,0.7,0.6,1.3,1.3,1.3C58.2,52.3,58.9,51.7,58.9,51z"/>
		<path fill-rule="evenodd" clip-rule="evenodd" fill="#FDFDFD" d="M93.7,51.1c-0.1,0.6-0.4,1.1-1.1,1.1c-0.7,0-1.1-0.4-1.1-1.1
			c0-0.7,0.5-1.1,1.2-1.1C93.4,49.9,93.7,50.4,93.7,51.1z"/>
		<path fill-rule="evenodd" clip-rule="evenodd" fill="#FDFDFD" d="M58.9,51c0,0.7-0.6,1.3-1.3,1.3c-0.7,0-1.3-0.6-1.3-1.3
			c0-0.7,0.6-1.3,1.3-1.3C58.3,49.8,58.9,50.4,58.9,51z"/>
	</g>
</g>
</svg>
