<?xml version="1.0" encoding="utf-8"?>
<!-- Generator: Adobe Illustrator 16.0.0, SVG Export Plug-In . SVG Version: 6.00 Build 0)  -->
<!DOCTYPE svg PUBLIC "-//W3C//DTD SVG 1.1//EN" "http://www.w3.org/Graphics/SVG/1.1/DTD/svg11.dtd">
<svg version="1.1" id="Layer_1" xmlns="http://www.w3.org/2000/svg" xmlns:xlink="http://www.w3.org/1999/xlink" x="0px" y="0px"
	 width="330.7px" height="127.6px" viewBox="0 0 330.7 127.6" enable-background="new 0 0 330.7 127.6" xml:space="preserve">
<rect y="0" fill-rule="evenodd" clip-rule="evenodd" fill="#FCFCFD" width="330.7" height="127.6"/>
<g>
	<path fill-rule="evenodd" clip-rule="evenodd" fill="#7968AC" d="M135.7,49.5c3.1,0.4,5.3,2,6.2,5.1c1.1,3.9-0.2,6.9-3.6,9.2
		c4.6,2.7,6.3,6.1,5.2,10.4c-1.1,4.2-4.8,7.1-9.6,7.2c-5.2,0.1-10.5,0-15.7,0.1c-1.5,0-1.8-0.5-1.8-1.9c0.1-9.5,0-18.9,0-28.4
		c0-1.1,0.1-1.9,1.6-1.9c5.6,0.1,11.1,0.1,16.7,0.2C135,49.9,135.3,50,135.7,49.5z M128.7,67.2c-5.2,0-5.2,0-5.2,5.2
		c0,0.7,0,1.3,0,2c0,0.9,0.2,1.4,1.3,1.4c2.5-0.1,5.1,0.1,7.6-0.1c2.9-0.2,4.1-1.6,4-4.4c-0.1-2.6-1.5-4-4.3-4.2
		C130.9,67.1,129.8,67.2,128.7,67.2z M128.3,55C128.3,55,128.3,55,128.3,55c-1.2,0-2.4,0-3.6,0c-0.6,0-1.3,0-1.3,0.9
		c0,1.9,0,3.7,0,5.6c0,0.7,0.5,0.8,1.1,0.8c2.5,0,4.9,0.2,7.4-0.1c2.1-0.2,3.3-1.7,3.2-3.9c-0.1-2.1-1.4-3.2-3.5-3.2
		C130.5,55,129.4,55,128.3,55z"/>
	<path fill-rule="evenodd" clip-rule="evenodd" fill="#7A68AD" d="M265.3,71.4c-2.3,0-4.6,0.1-6.8,0c-1.5-0.1-1.7,0.7-1.5,1.9
		c0.4,1.7,1.2,3.1,2.9,3.5c2.3,0.6,4.8,0.9,6.4-1.1c1.8-2.2,4-1.3,6-1.4c1.3,0,0.5,1,0.3,1.5c-1.2,2.9-3.2,5-6.3,5.7
		c-6.9,1.6-12.9-0.1-15.4-6.9c-2.5-6.8,0.4-14.3,6.8-16.4c9-3,15.7,2.3,16,11.5c0,1.4-0.6,1.7-1.8,1.7
		C269.7,71.3,267.5,71.4,265.3,71.4z M261.7,67.2c1.3,0,2.5-0.1,3.8,0c1.3,0.1,1.6-0.4,1.2-1.6c-0.7-1.8-1.7-3-3.7-3.2
		c-2-0.2-3.9,0.1-5.1,1.9c-0.5,0.7-1.2,1.6-0.7,2.5c0.4,0.7,1.4,0.3,2.1,0.4C260,67.3,260.9,67.2,261.7,67.2z"/>
	<path fill-rule="evenodd" clip-rule="evenodd" fill="#7A68AD" d="M203.1,82c-7.4,0.6-12.2-5.5-12.1-12.2c0.1-7.5,5-12.6,12.2-12.6
		c7.3,0,12.1,5,12.2,12.6C215.6,77,210.2,82.6,203.1,82z M208.8,69.7c0-4.1-1.2-6.4-3.9-7.1c-3.3-1-5.9,0.6-6.9,4.1
		c-1.3,4.9,0.3,9.4,3.7,10.3c0.8,0.2,1.6,0.3,2.5,0.1C207.4,76.4,208.8,74.2,208.8,69.7z"/>
	<path fill-rule="evenodd" clip-rule="evenodd" fill="#7A68AD" d="M282.9,61c1.9-2.2,3.9-3.2,6.4-3.6c5.3-0.7,8.7,1.8,9.4,7
		c0.6,5.1,0.1,10.3,0.3,15.5c0,1-0.3,1.6-1.4,1.5c-0.2,0-0.3,0-0.5,0c-5,0.2-5,0.2-5-4.8c0-3.2,0-6.4,0-9.6c0-2.1-0.5-4.1-3.2-4.4
		c-2.9-0.3-4.5,0.8-5.1,3.7c-0.8,4.1-0.3,8.3-0.3,12.4c0,2.2-0.5,3.1-2.8,2.8c-0.5-0.1-1,0-1.5,0c-1.8,0.3-2.5-0.3-2.5-2.3
		c0.1-6.3,0.1-12.5,0-18.8c0-2,0.6-2.6,2.5-2.3c0.3,0.1,0.7,0,1,0C282.1,57.9,283.7,58,282.9,61z"/>
	<path fill-rule="evenodd" clip-rule="evenodd" fill="#7765AC" d="M172.2,49.4c7.6,0,15.2,0,22.8-0.1c1.4,0,1.7,0.5,1.7,1.8
		c0.1,4,0.2,4-3.8,4c-5.4,0-5.4,0-5.4,5.3c0,6.2-0.1,12.3,0,18.5c0,2-0.7,2.6-2.7,2.6c-4.6-0.1-4.6,0-4.6-4.5c0-6.6-0.1-13.2,0-19.8
		c0-1.7-0.5-2.2-2.2-2.1c-1.9,0.1-3.7,0-5.6,0c-1.3,0-2.1-0.4-1.7-1.7c0.3-1.3-1-3,0.9-3.9C171.9,49.7,172.1,49.7,172.2,49.4z"/>
	<path fill-rule="evenodd" clip-rule="evenodd" fill="#7A68AD" d="M304.9,70.5c0-2.2-0.1-4.1,0-5.9c0.1-1.5-0.4-2.3-2-2
		c-1.8,0.3-2.1-0.7-2.1-2.2c0-1.5,0.3-2.5,2.1-2.2c1.6,0.3,2-0.5,2-2c0.1-4.9,0.1-4.9,5.1-4.7c1.2,0,1.9,0.3,1.8,1.7
		c-0.1,0.8,0.1,1.5,0,2.3c-0.4,2.2,0.5,3.1,2.7,2.7c1.7-0.3,2,0.6,1.9,2.1c-0.1,1.3,0.1,2.7-1.9,2.4c-2.5-0.5-2.9,0.9-2.8,3
		c0.1,2.7,0.1,5.4,0,8.1c-0.1,2.3,0.8,3,3,2.9c2.9-0.1,3.8,1.2,3,4.1c-0.2,0.8-0.6,0.9-1.3,0.9c-2.4,0-4.9,0.1-7.3-0.1
		c-2.2-0.2-3.6-1.6-4-3.9C304.7,75,305,72.5,304.9,70.5z"/>
	<path fill-rule="evenodd" clip-rule="evenodd" fill="#7A69AD" d="M160.5,70.5c0-1.4-0.1-2.7,0-4.1c0.1-2.3,0.4-4.4-3.1-4
		c-1.7,0.2-1.1-1.5-1.2-2.5c-0.1-0.9-0.1-2.1,1.3-1.8c3.1,0.6,3.2-1.2,3-3.5c-0.1-1.1-0.7-2.8,0.5-3.3c1.6-0.7,3.5-0.4,5.2-0.1
		c0.7,0.1,0.7,0.9,0.7,1.5c0,1,0.1,2,0,3c-0.2,1.9,0.5,2.7,2.4,2.4c1.9-0.3,2,0.8,2,2.2c0,1.5-0.3,2.5-2.1,2.2
		c-2-0.3-2.4,0.6-2.4,2.4c0.1,2.8,0.2,5.6,0,8.4c-0.1,2.5,0.8,3.5,3.2,3.1c2.3-0.4,3.1,0.4,3,2.8c-0.1,1.7-0.5,2.4-2.3,2.3
		c-2-0.1-4.1,0-6.1-0.1c-2.7-0.2-4.1-1.7-4.3-4.4c0-0.2,0-0.3,0-0.5C160.5,74.5,160.5,72.5,160.5,70.5z"/>
	<path fill-rule="evenodd" clip-rule="evenodd" fill="#7B6AAD" d="M224.6,61.6c1.3-1.8,2.8-3,4.6-3.8c2.4-1,3.1-0.5,3.3,2
		c0.2,2.5-0.2,3.8-3.2,3.9c-2.5,0-4.2,2.7-4.3,6c-0.1,3.1-0.1,6.2,0,9.4c0.1,1.7-0.4,2.3-2.2,2.3c-4.3,0-4.3,0.1-4.3-4.2
		c0-5.7,0.1-11.3,0-17c0-1.8,0.5-2.3,2.3-2.3C223,58,225.3,57.8,224.6,61.6z"/>
	<path fill-rule="evenodd" clip-rule="evenodd" fill="#7B6AAD" d="M241.3,62.3c1.5-2.3,3-3.8,5-4.5c2.3-0.9,2.9-0.4,3.1,2.1
		c0.1,2.2,0.2,3.9-3.1,3.9c-2.8,0-4.5,2.9-4.6,6.6c-0.1,3-0.2,5.9-0.1,8.9c0,1.5-0.3,2.2-2.1,2.2c-4.4-0.1-4.4,0.1-4.4-4.4
		c0-5.6,0.1-11.1,0-16.7c0-1.8,0.5-2.5,2.3-2.3c0.5,0.1,1,0.1,1.5,0c1.9-0.3,2.7,0.4,2.4,2.3C241.3,60.8,241.3,61.2,241.3,62.3z"/>
	<path fill-rule="evenodd" clip-rule="evenodd" fill="#7A6AAC" d="M147.4,69.6c0-3.2,0.1-6.4,0-9.6c-0.1-1.6,0.5-2,2-2
		c4.5,0,4.5-0.1,4.5,4.5c0,5.6,0,11.1,0,16.7c0,1.5-0.2,2.2-2,2.2c-4.5,0-4.5,0.1-4.5-4.5C147.4,74.5,147.4,72.1,147.4,69.6z"/>
	<path fill-rule="evenodd" clip-rule="evenodd" fill="#7A6AAC" d="M150.8,54.5c-3.2,0-4.3-1.7-3.4-4.4c0.2-0.6,0.6-0.7,1.1-0.7
		c0.8,0,1.5,0,2.3,0c2.8,0,4.1,1.8,3,4.4C153.1,55.4,151.5,53.9,150.8,54.5z"/>
	<path fill-rule="evenodd" clip-rule="evenodd" fill="#6C59A5" d="M135.7,49.5c-0.3,0.5-0.7,0.4-1,0C135,49.5,135.3,49.5,135.7,49.5
		z"/>
	<path fill-rule="evenodd" clip-rule="evenodd" fill="#6C59A5" d="M172.2,49.4c-0.2,0.3-0.3,0.3-0.5,0
		C171.9,49.5,172.1,49.4,172.2,49.4z"/>
	<path fill-rule="evenodd" clip-rule="evenodd" fill="#7866AC" d="M60.1,59.6c-4.6-2-9.5-1.3-12.9,2c-3.5,3.4-4.6,8.1-2.9,12.5
		c1.8,4.6,5.8,7.3,11.1,7.4c11,0,22,0,33,0c3.8-6.1,5.9-13.3,5.9-21c0-22.1-17.9-40-40-40c-22.1,0-40,17.9-40,40
		c0,7.1,1.9,13.8,5.2,19.6c1.5-0.5,0-1.7-0.1-2.5c-4.1-23.4,12.3-41.8,31.8-43.6c1-0.1,2-0.3,3-0.3c1.7-0.1,3.2,0.5,3.2,2.4
		c0,1.9-1.4,2.5-3.1,2.5c-5.6,0-10.8,1.6-15.6,4.6c-10.8,6.6-16.1,18.6-14.9,29.1c1.5,13.2,8.4,22.1,20.3,26.8
		c3.3,0.9,6.7,1.3,10.2,1.3c6.5,0,12.7-1.6,18.1-4.3c-1.5,0-2.7,0-3.9,0c-6-0.2-12,0.5-18-0.5c-10.9-1.8-19.7-10.6-21.4-21.2
		c-1.8-11.6,3.8-22.8,14-27.9c5.4-2.7,11.1-3.4,17-2.3c1.6,0.3,2.5,1.2,2.2,2.8c-0.3,1.6-1.5,2.1-3.1,1.9c-0.3,0-0.7-0.1-1-0.2
		c-14.1-2.5-27.3,11.2-24.2,25.1c2.3,10.6,10.8,17.5,21.8,17.6c7.9,0.1,15.7,0,23.6,0c0.1,0,0.2,0,0.3,0c1.8-1.5,3.5-3.2,5.1-5
		c-9.3,0-18.6,0-27.9,0c-1.5,0-3-0.1-4.5-0.4c-6.7-1.2-11.2-5.2-13-11.7c-1.9-6.8,0-12.8,5.6-17.2c5.2-4.2,11.1-4.7,17.1-2
		c1.6,0.7,3.3,1.6,2.2,3.8C63.2,60.9,61.6,60.2,60.1,59.6z"/>
</g>
</svg>
