<?xml version="1.0" encoding="utf-8"?>
<!-- Generator: Adobe Illustrator 16.0.0, SVG Export Plug-In . SVG Version: 6.00 Build 0)  -->
<!DOCTYPE svg PUBLIC "-//W3C//DTD SVG 1.1//EN" "http://www.w3.org/Graphics/SVG/1.1/DTD/svg11.dtd">
<svg version="1.1" id="Layer_1" xmlns="http://www.w3.org/2000/svg" xmlns:xlink="http://www.w3.org/1999/xlink" x="0px" y="0px"
	 width="200px" height="200px" viewBox="0 0 200 200" style="enable-background:new 0 0 200 200;" xml:space="preserve">
<style type="text/css">
<![CDATA[
	.st0{fill-rule:evenodd;clip-rule:evenodd;fill:#076BB3;}
	.st1{fill-rule:evenodd;clip-rule:evenodd;fill:#0776C1;}
	.st2{fill-rule:evenodd;clip-rule:evenodd;fill:#0777C1;}
	.st3{fill-rule:evenodd;clip-rule:evenodd;fill:#3BA1EA;}
	.st4{fill-rule:evenodd;clip-rule:evenodd;fill:#0969B1;}
	.st5{fill-rule:evenodd;clip-rule:evenodd;fill:#3D5877;}
	.st6{fill-rule:evenodd;clip-rule:evenodd;fill:#3DA5EF;}
	.st7{fill-rule:evenodd;clip-rule:evenodd;fill:#0B67AF;}
	.st8{fill-rule:evenodd;clip-rule:evenodd;fill:#0D66AD;}
	.st9{fill-rule:evenodd;clip-rule:evenodd;fill:#0D7CC7;}
	.st10{fill-rule:evenodd;clip-rule:evenodd;fill:#0E64AB;}
	.st11{fill-rule:evenodd;clip-rule:evenodd;fill:#405873;}
	.st12{fill-rule:evenodd;clip-rule:evenodd;fill:#414042;}
	.st13{fill-rule:evenodd;clip-rule:evenodd;fill:#425E7D;}
	.st14{fill-rule:evenodd;clip-rule:evenodd;fill:#445C78;}
	.st15{fill-rule:evenodd;clip-rule:evenodd;fill:#445F7F;}
	.st16{fill-rule:evenodd;clip-rule:evenodd;fill:#445F80;}
	.st17{fill-rule:evenodd;clip-rule:evenodd;fill:#454A75;}
	.st18{fill-rule:evenodd;clip-rule:evenodd;fill:#456284;}
	.st19{fill-rule:evenodd;clip-rule:evenodd;fill:#466284;}
	.st20{fill-rule:evenodd;clip-rule:evenodd;fill:#466486;}
	.st21{fill-rule:evenodd;clip-rule:evenodd;fill:#484948;}
	.st22{fill-rule:evenodd;clip-rule:evenodd;fill:#486588;}
	.st23{fill-rule:evenodd;clip-rule:evenodd;fill:#48989B;}
	.st24{fill-rule:evenodd;clip-rule:evenodd;fill:#1063AA;}
	.st25{fill-rule:evenodd;clip-rule:evenodd;fill:#AE4CBF;}
	.st26{fill-rule:evenodd;clip-rule:evenodd;fill:#1162A9;}
	.st27{fill-rule:evenodd;clip-rule:evenodd;fill:#AF4CBF;}
	.st28{fill-rule:evenodd;clip-rule:evenodd;fill:#AF4CC0;}
	.st29{fill-rule:evenodd;clip-rule:evenodd;fill:#1280CA;}
	.st30{fill-rule:evenodd;clip-rule:evenodd;fill:#1360A6;}
	.st31{fill-rule:evenodd;clip-rule:evenodd;fill:#1361A7;}
	.st32{fill-rule:evenodd;clip-rule:evenodd;fill:#1370B5;}
	.st33{fill-rule:evenodd;clip-rule:evenodd;fill:#1371B5;}
	.st34{fill-rule:evenodd;clip-rule:evenodd;fill:#E3B371;}
	.st35{fill-rule:evenodd;clip-rule:evenodd;fill:#E3B372;}
	.st36{fill-rule:evenodd;clip-rule:evenodd;fill:#1583CD;}
	.st37{fill-rule:evenodd;clip-rule:evenodd;fill:#165EA3;}
	.st38{fill-rule:evenodd;clip-rule:evenodd;fill:#4A698D;}
	.st39{fill-rule:evenodd;clip-rule:evenodd;fill:#16A0FE;}
	.st40{fill-rule:evenodd;clip-rule:evenodd;fill:#4A9DA0;}
	.st41{fill-rule:evenodd;clip-rule:evenodd;fill:#4B698E;}
	.st42{fill-rule:evenodd;clip-rule:evenodd;fill:#4C6888;}
	.st43{fill-rule:evenodd;clip-rule:evenodd;fill:#4C6B8F;}
	.st44{fill-rule:evenodd;clip-rule:evenodd;fill:#195CA0;}
	.st45{fill-rule:evenodd;clip-rule:evenodd;fill:#4D647F;}
	.st46{fill-rule:evenodd;clip-rule:evenodd;fill:#4D6C91;}
	.st47{fill-rule:evenodd;clip-rule:evenodd;fill:#4E647E;}
	.st48{fill-rule:evenodd;clip-rule:evenodd;fill:#4E6C92;}
	.st49{fill-rule:evenodd;clip-rule:evenodd;fill:#4E6D93;}
	.st50{fill-rule:evenodd;clip-rule:evenodd;fill:#4F6E94;}
	.st51{fill-rule:evenodd;clip-rule:evenodd;fill:#4F6F94;}
	.st52{fill-rule:evenodd;clip-rule:evenodd;fill:#4F6F95;}
	.st53{fill-rule:evenodd;clip-rule:evenodd;fill:#B04DC1;}
	.st54{fill-rule:evenodd;clip-rule:evenodd;fill:#821CA7;}
	.st55{fill-rule:evenodd;clip-rule:evenodd;fill:#B2B2B2;}
	.st56{fill-rule:evenodd;clip-rule:evenodd;fill:#1D88D2;}
	.st57{fill-rule:evenodd;clip-rule:evenodd;fill:#8991B1;}
	.st58{fill-rule:evenodd;clip-rule:evenodd;fill:#1E88D2;}
	.st59{fill-rule:evenodd;clip-rule:evenodd;fill:#506F96;}
	.st60{fill-rule:evenodd;clip-rule:evenodd;fill:#507097;}
	.st61{fill-rule:evenodd;clip-rule:evenodd;fill:#517198;}
	.st62{fill-rule:evenodd;clip-rule:evenodd;fill:#52729A;}
	.st63{fill-rule:evenodd;clip-rule:evenodd;fill:#52739A;}
	.st64{fill-rule:evenodd;clip-rule:evenodd;fill:#53749C;}
	.st65{fill-rule:evenodd;clip-rule:evenodd;fill:#54759D;}
	.st66{fill-rule:evenodd;clip-rule:evenodd;fill:#55769E;}
	.st67{fill-rule:evenodd;clip-rule:evenodd;fill:#55779E;}
	.st68{fill-rule:evenodd;clip-rule:evenodd;fill:#578FCB;}
	.st69{fill-rule:evenodd;clip-rule:evenodd;fill:#BA945F;}
	.st70{fill-rule:evenodd;clip-rule:evenodd;fill:#594A42;}
	.st71{fill-rule:evenodd;clip-rule:evenodd;fill:#BCBEC0;}
	.st72{fill-rule:evenodd;clip-rule:evenodd;}
	.st73{fill:#FFA400;}
	.st74{fill-rule:evenodd;clip-rule:evenodd;fill:#F1F1F1;}
	.st75{fill-rule:evenodd;clip-rule:evenodd;fill:#F3F3F3;}
	.st76{fill-rule:evenodd;clip-rule:evenodd;fill:#292A29;}
	.st77{fill-rule:evenodd;clip-rule:evenodd;fill:#295789;}
	.st78{fill-rule:evenodd;clip-rule:evenodd;fill:#F7F7F7;}
	.st79{fill-rule:evenodd;clip-rule:evenodd;fill:#297EE1;}
	.st80{fill-rule:evenodd;clip-rule:evenodd;fill:#98BCE4;}
	.st81{fill:#003A70;}
	.st82{fill-rule:evenodd;clip-rule:evenodd;fill:#FDFCFC;}
	.st83{fill-rule:evenodd;clip-rule:evenodd;fill:#FDFDFD;}
	.st84{fill-rule:evenodd;clip-rule:evenodd;fill:#FDFEFE;}
	.st85{fill-rule:evenodd;clip-rule:evenodd;fill:#FE7100;}
	.st86{fill-rule:evenodd;clip-rule:evenodd;fill:#FEFEFE;}
	.st87{fill-rule:evenodd;clip-rule:evenodd;fill:#FFFFFF;}
	.st88{fill-rule:evenodd;clip-rule:evenodd;fill:#62688E;}
	.st89{fill-rule:evenodd;clip-rule:evenodd;fill:#63D2D6;}
	.st90{fill-rule:evenodd;clip-rule:evenodd;fill:#9C1CB1;}
	.st91{fill-rule:evenodd;clip-rule:evenodd;fill:#9F7757;}
	.st92{fill-rule:evenodd;clip-rule:evenodd;fill:#333333;}
	.st93{fill-rule:evenodd;clip-rule:evenodd;fill:#344D6A;}
	.st94{fill-rule:evenodd;clip-rule:evenodd;fill:#00458D;}
	.st95{fill-rule:evenodd;clip-rule:evenodd;fill:#005196;}
	.st96{fill-rule:evenodd;clip-rule:evenodd;fill:#0171BC;}
	.st97{fill-rule:evenodd;clip-rule:evenodd;fill:#025B92;}
	.st98{fill-rule:evenodd;clip-rule:evenodd;fill:#025D94;}
	.st99{fill-rule:evenodd;clip-rule:evenodd;fill:#0270BB;}
	.st100{fill-rule:evenodd;clip-rule:evenodd;fill:#036EB8;}
	.st101{fill-rule:evenodd;clip-rule:evenodd;fill:#055890;}
	.st102{fill-rule:evenodd;clip-rule:evenodd;fill:#056CB5;}
]]>
</style>
<path class="st87" d="M157.5,65.4c-5.9,0-11.6,0-17.4,0c0-2.5,0.1-4.9,0-7.4c-0.2-3.4-0.5-6.8-1.1-10.2c-0.9-5.2-4.2-8.5-9.3-9.6
	c-4.6-1-9.4-1.9-14.1-2c-10-0.4-20-0.6-30-0.3c-5.3,0.1-10.7,1.1-16,2C63,39,59.3,43.3,57.7,49.6c-1.7,6.6-1.7,13.2-1.1,19.9
	c0.2,1.9,0.5,3.8,0.8,5.7c1.3,6.3,5.4,10.1,11.5,11.2c4.8,0.9,9.6,1.3,14.5,1.8c5.1,0.5,10.3,0.9,15.4,1.4c2.9,0.3,5.8,0.5,8.7,0.7
	c5.7,0.5,11.4,1,17.2,1.4c5.2,0.4,10.3,1.3,15.3,2.9c10.4,3.4,16.2,10.9,18.3,21.4c1.8,8.9,1.6,17.9,1.1,26.9
	c-0.3,5-0.7,9.9-2.3,14.7c-3.7,11.3-11.8,17.8-23.3,19.9c-6.4,1.2-13,1.6-19.5,1.8c-9.1,0.4-18.3,0.5-27.4,0.3
	c-7.9-0.1-15.9-0.2-23.7-2c-13.8-3.2-22.6-11.7-25.3-25.7c-1.1-5.6-1.5-11.4-1.7-17.1c-0.3-8-0.1-15.9-0.1-23.9c0-0.6,0-1.3,0-2
	c5.8,0,11.5,0,17.4,0c0,0.7,0,1.3,0,2c0.1,9.4,0,18.7,0.4,28.1c0.1,3.8,0.9,7.6,1.9,11.2c2,7.3,7.3,10.9,14.4,11.6
	c6.9,0.7,13.9,1.2,20.8,1.4c7.2,0.2,14.4,0.2,21.7,0c5.9-0.1,11.8-0.6,17.5-2.4c5-1.7,9.3-4.3,10.5-10c0.5-2.3,0.9-4.6,1.1-6.9
	c0.5-7.7,0.5-15.4-0.6-23.1c-1-7.3-4.3-11-11.7-12c-6.1-0.9-12.4-1.2-18.5-1.8c-5.3-0.5-10.5-0.9-15.8-1.3
	c-3.7-0.3-7.4-0.5-11.1-0.8c-9-0.7-18-1.2-26.6-4.4c-9.5-3.5-14.9-10.3-17.2-20c-2.1-8.8-2.1-17.7-1.5-26.6
	c0.4-5.9,1.4-11.7,3.9-17.1c4.1-8.9,11.1-14,20.7-15.7c8.6-1.5,17.3-1.6,26-1.7c8.6-0.1,17.2,0,25.8,0.4c8.2,0.4,16.4,0.9,24.2,4.2
	c7.4,3.2,13.6,7.7,15.9,15.8c1,3.5,1.8,7.2,2.1,10.9C157.8,55.5,157.5,60.4,157.5,65.4z"/>
<path class="st87" d="M94.3,138.3c0-0.6,0-1.2,0-1.7c0.1-1.1-0.2-1.9-1.1-2.6c-2.5-1.9-3.2-5.3-2-8.3c1.1-2.7,3.8-4.6,6.6-4.6
	c2.9,0.1,5.7,2.1,6.5,5.1c0.8,2.9,0.3,5.6-2,7.6c-0.8,0.7-1,1.4-1,2.4c0.1,1.4,0,2.8,0,4.2c0,1.6-0.7,2.4-2.3,2.4
	c-0.1,0-0.1,0-0.2,0C93.8,142.7,94.3,142.6,94.3,138.3z"/>
</svg>
