<?xml version="1.0" encoding="utf-8"?>
<!-- Generator: Adobe Illustrator 16.0.0, SVG Export Plug-In . SVG Version: 6.00 Build 0)  -->
<!DOCTYPE svg PUBLIC "-//W3C//DTD SVG 1.1//EN" "http://www.w3.org/Graphics/SVG/1.1/DTD/svg11.dtd">
<svg version="1.1" id="Layer_1" xmlns="http://www.w3.org/2000/svg" xmlns:xlink="http://www.w3.org/1999/xlink" x="0px" y="0px"
	 width="200px" height="200px" viewBox="0 0 200 200" style="enable-background:new 0 0 200 200;" xml:space="preserve">
<style type="text/css">
<![CDATA[
	.st0{fill-rule:evenodd;clip-rule:evenodd;fill:#076BB3;}
	.st1{fill-rule:evenodd;clip-rule:evenodd;fill:#0776C1;}
	.st2{fill-rule:evenodd;clip-rule:evenodd;fill:#0777C1;}
	.st3{fill-rule:evenodd;clip-rule:evenodd;fill:#3BA1EA;}
	.st4{fill-rule:evenodd;clip-rule:evenodd;fill:#0969B1;}
	.st5{fill-rule:evenodd;clip-rule:evenodd;fill:#3D5877;}
	.st6{fill-rule:evenodd;clip-rule:evenodd;fill:#3DA5EF;}
	.st7{fill-rule:evenodd;clip-rule:evenodd;fill:#0B67AF;}
	.st8{fill-rule:evenodd;clip-rule:evenodd;fill:#0D66AD;}
	.st9{fill-rule:evenodd;clip-rule:evenodd;fill:#0D7CC7;}
	.st10{fill-rule:evenodd;clip-rule:evenodd;fill:#0E64AB;}
	.st11{fill-rule:evenodd;clip-rule:evenodd;fill:#405873;}
	.st12{fill-rule:evenodd;clip-rule:evenodd;fill:#414042;}
	.st13{fill-rule:evenodd;clip-rule:evenodd;fill:#425E7D;}
	.st14{fill-rule:evenodd;clip-rule:evenodd;fill:#445C78;}
	.st15{fill-rule:evenodd;clip-rule:evenodd;fill:#445F7F;}
	.st16{fill-rule:evenodd;clip-rule:evenodd;fill:#445F80;}
	.st17{fill-rule:evenodd;clip-rule:evenodd;fill:#454A75;}
	.st18{fill-rule:evenodd;clip-rule:evenodd;fill:#456284;}
	.st19{fill-rule:evenodd;clip-rule:evenodd;fill:#466284;}
	.st20{fill-rule:evenodd;clip-rule:evenodd;fill:#466486;}
	.st21{fill-rule:evenodd;clip-rule:evenodd;fill:#484948;}
	.st22{fill-rule:evenodd;clip-rule:evenodd;fill:#486588;}
	.st23{fill-rule:evenodd;clip-rule:evenodd;fill:#48989B;}
	.st24{fill-rule:evenodd;clip-rule:evenodd;fill:#1063AA;}
	.st25{fill-rule:evenodd;clip-rule:evenodd;fill:#AE4CBF;}
	.st26{fill-rule:evenodd;clip-rule:evenodd;fill:#1162A9;}
	.st27{fill-rule:evenodd;clip-rule:evenodd;fill:#AF4CBF;}
	.st28{fill-rule:evenodd;clip-rule:evenodd;fill:#AF4CC0;}
	.st29{fill-rule:evenodd;clip-rule:evenodd;fill:#1280CA;}
	.st30{fill-rule:evenodd;clip-rule:evenodd;fill:#1360A6;}
	.st31{fill-rule:evenodd;clip-rule:evenodd;fill:#1361A7;}
	.st32{fill-rule:evenodd;clip-rule:evenodd;fill:#1370B5;}
	.st33{fill-rule:evenodd;clip-rule:evenodd;fill:#1371B5;}
	.st34{fill-rule:evenodd;clip-rule:evenodd;fill:#E3B371;}
	.st35{fill-rule:evenodd;clip-rule:evenodd;fill:#E3B372;}
	.st36{fill-rule:evenodd;clip-rule:evenodd;fill:#1583CD;}
	.st37{fill-rule:evenodd;clip-rule:evenodd;fill:#165EA3;}
	.st38{fill-rule:evenodd;clip-rule:evenodd;fill:#4A698D;}
	.st39{fill-rule:evenodd;clip-rule:evenodd;fill:#16A0FE;}
	.st40{fill-rule:evenodd;clip-rule:evenodd;fill:#4A9DA0;}
	.st41{fill-rule:evenodd;clip-rule:evenodd;fill:#4B698E;}
	.st42{fill-rule:evenodd;clip-rule:evenodd;fill:#4C6888;}
	.st43{fill-rule:evenodd;clip-rule:evenodd;fill:#4C6B8F;}
	.st44{fill-rule:evenodd;clip-rule:evenodd;fill:#195CA0;}
	.st45{fill-rule:evenodd;clip-rule:evenodd;fill:#4D647F;}
	.st46{fill-rule:evenodd;clip-rule:evenodd;fill:#4D6C91;}
	.st47{fill-rule:evenodd;clip-rule:evenodd;fill:#4E647E;}
	.st48{fill-rule:evenodd;clip-rule:evenodd;fill:#4E6C92;}
	.st49{fill-rule:evenodd;clip-rule:evenodd;fill:#4E6D93;}
	.st50{fill-rule:evenodd;clip-rule:evenodd;fill:#4F6E94;}
	.st51{fill-rule:evenodd;clip-rule:evenodd;fill:#4F6F94;}
	.st52{fill-rule:evenodd;clip-rule:evenodd;fill:#4F6F95;}
	.st53{fill-rule:evenodd;clip-rule:evenodd;fill:#B04DC1;}
	.st54{fill-rule:evenodd;clip-rule:evenodd;fill:#821CA7;}
	.st55{fill-rule:evenodd;clip-rule:evenodd;fill:#B2B2B2;}
	.st56{fill-rule:evenodd;clip-rule:evenodd;fill:#1D88D2;}
	.st57{fill-rule:evenodd;clip-rule:evenodd;fill:#8991B1;}
	.st58{fill-rule:evenodd;clip-rule:evenodd;fill:#1E88D2;}
	.st59{fill-rule:evenodd;clip-rule:evenodd;fill:#506F96;}
	.st60{fill-rule:evenodd;clip-rule:evenodd;fill:#507097;}
	.st61{fill-rule:evenodd;clip-rule:evenodd;fill:#517198;}
	.st62{fill-rule:evenodd;clip-rule:evenodd;fill:#52729A;}
	.st63{fill-rule:evenodd;clip-rule:evenodd;fill:#52739A;}
	.st64{fill-rule:evenodd;clip-rule:evenodd;fill:#53749C;}
	.st65{fill-rule:evenodd;clip-rule:evenodd;fill:#54759D;}
	.st66{fill-rule:evenodd;clip-rule:evenodd;fill:#55769E;}
	.st67{fill-rule:evenodd;clip-rule:evenodd;fill:#55779E;}
	.st68{fill-rule:evenodd;clip-rule:evenodd;fill:#578FCB;}
	.st69{fill-rule:evenodd;clip-rule:evenodd;fill:#BA945F;}
	.st70{fill-rule:evenodd;clip-rule:evenodd;fill:#594A42;}
	.st71{fill-rule:evenodd;clip-rule:evenodd;fill:#BCBEC0;}
	.st72{fill-rule:evenodd;clip-rule:evenodd;}
	.st73{fill:#FFA400;}
	.st74{fill-rule:evenodd;clip-rule:evenodd;fill:#F1F1F1;}
	.st75{fill-rule:evenodd;clip-rule:evenodd;fill:#F3F3F3;}
	.st76{fill-rule:evenodd;clip-rule:evenodd;fill:#292A29;}
	.st77{fill-rule:evenodd;clip-rule:evenodd;fill:#295789;}
	.st78{fill-rule:evenodd;clip-rule:evenodd;fill:#F7F7F7;}
	.st79{fill-rule:evenodd;clip-rule:evenodd;fill:#297EE1;}
	.st80{fill-rule:evenodd;clip-rule:evenodd;fill:#98BCE4;}
	.st81{fill:#003A70;}
	.st82{fill-rule:evenodd;clip-rule:evenodd;fill:#FDFCFC;}
	.st83{fill-rule:evenodd;clip-rule:evenodd;fill:#FDFDFD;}
	.st84{fill-rule:evenodd;clip-rule:evenodd;fill:#FDFEFE;}
	.st85{fill-rule:evenodd;clip-rule:evenodd;fill:#FE7100;}
	.st86{fill-rule:evenodd;clip-rule:evenodd;fill:#FEFEFE;}
	.st87{fill-rule:evenodd;clip-rule:evenodd;fill:#62688E;}
	.st88{fill-rule:evenodd;clip-rule:evenodd;fill:#63D2D6;}
	.st89{fill-rule:evenodd;clip-rule:evenodd;fill:#9C1CB1;}
	.st90{fill-rule:evenodd;clip-rule:evenodd;fill:#9F7757;}
	.st91{fill-rule:evenodd;clip-rule:evenodd;fill:#333333;}
	.st92{fill-rule:evenodd;clip-rule:evenodd;fill:#344D6A;}
	.st93{fill-rule:evenodd;clip-rule:evenodd;fill:#00458D;}
	.st94{fill-rule:evenodd;clip-rule:evenodd;fill:#005196;}
	.st95{fill-rule:evenodd;clip-rule:evenodd;fill:#0171BC;}
	.st96{fill-rule:evenodd;clip-rule:evenodd;fill:#025B92;}
	.st97{fill-rule:evenodd;clip-rule:evenodd;fill:#025D94;}
	.st98{fill-rule:evenodd;clip-rule:evenodd;fill:#0270BB;}
	.st99{fill-rule:evenodd;clip-rule:evenodd;fill:#036EB8;}
	.st100{fill-rule:evenodd;clip-rule:evenodd;fill:#055890;}
	.st101{fill-rule:evenodd;clip-rule:evenodd;fill:#056CB5;}
]]>
</style>
<circle class="st94" cx="102.8" cy="98.3" r="89.9"/>
<g>
	<path class="st86" d="M116.4,157.6c-8.9-8.2-16.2-18-24.7-26.6c-6.7-6.9-13.9-13.2-22.4-18c-7.7-4.3-16.1-6.4-24.8-7
		c-0.8-0.1-1.7,0-2.5-0.2c-1.8-0.4-3.6-1.1-3.9-3.3c-0.3-2.1,1.1-3.2,2.7-4.1c2.6-1.5,5.6-1.8,8.5-1.9c5.3-0.3,10.5-0.1,15.7,0.9
		c2,0.4,2.8-0.1,3.3-2.2c3.5-17.2,7.3-34.4,10.8-51.7c1.6-8,3-10.5,13.5-11.2c10.7-0.8,21.1,1.5,31.2,5c11.8,4.1,22.9,9.6,32.7,17.5
		c3.6,2.9,6.9,6.1,9.2,10.2c2,3.5,2.5,6.9,0.1,10.6c-7.8,12-15.4,24-23.1,36.1c-1.9,3-3.7,6-5.7,8.8c-1.1,1.5-1.1,2.2,0.8,3.1
		c4.2,1.9,8.3,3.9,11.7,7.2c6.3,6.1,8.1,14.4,4.7,22c-3.5,7.9-11.7,12.8-20.1,12.2c-0.8-0.1-1.7-0.1-2.5-0.1
		c-5.2,0.4-9.5-2-13.5-4.9C117.1,159.3,116.4,158.7,116.4,157.6z"/>
	<path class="st93" d="M116.4,157.6c4.5,3.3,9.3,6.1,15,7.1c-2,0.8-4.3,0.7-6.4,0.8c-14.2,0.8-28.3,0.9-42.5,0.5
		c-9.1-0.3-18.3-0.7-27.3-2.4c-1.5-0.3-3.9-0.2-3.9-1.8c0-1.4,2.3-1.4,3.8-1.7c7.1-1.2,14.2-1.6,21.3-2.1
		C89.7,157.2,103.1,157.9,116.4,157.6z"/>
	<path class="st94" d="M142.3,82.9c-2.1-0.9-4.1-1.7-6-2.6c-2.2-1-2.9-3.1-3.4-5.3c-0.8-3.8-2.8-6.7-5.8-9.1
		c-0.6-0.5-1.2-1.7-2.2-0.7c-0.8,0.8-0.6,1.7,0.3,2.6c1.1,1.1,2,2.5,2.2,4.1c0.2,1.5-0.3,2.6-1.8,3.2c-1.4,0.5-2.4-0.1-3.2-1.2
		c-0.3-0.4-0.4-0.9-0.7-1.3c-1-1.8-2.5-2.3-4.2-1.4c-1.7,1-1.9,2.7-0.8,4.3c1,1.4,2.2,2.7,3.4,4c2.4,2.7,3.6,5.6,2.2,9.2
		c-1.4,3.7-4.1,5.8-8,6.2c-1.6,0.2-2.2,0.8-2.4,2.4c5.5,1.3,10.5,0.1,14.9-3.3c1.3-1,2.4-1.1,3.8-0.4c1.6,0.8,3.2,1.4,4.9,2
		c1.5,0.5,1.4,1,0.4,2.2c-11.4,12.9-32.5,11.5-42.1-2.8c-6.2-9.1-6.2-21.1,0-30.2c6.1-8.9,17.3-13.5,27.6-11.2
		c11.1,2.5,19.2,10.9,21,21.9C142.7,77.9,143,80.3,142.3,82.9z"/>
	<path class="st86" d="M97.9,79.9c-0.1-10.5,9.5-19.2,19.7-17.9c0.8,0.1,2.1-0.1,2.2,1c0.1,1.2-0.7,1.9-2.1,2.3
		c-7.3,1.7-9.5,8.2-4.8,14.1c1,1.3,2.2,2.5,3.2,3.8c1.6,2.1,1.3,4.1-0.5,5.5c-1.9,1.4-4.5,0.9-5.9-1.1c-0.5-0.7-0.7-1.5-1.2-2.2
		c-0.9-1.2-2.1-1.7-3.5-0.9c-1.3,0.7-1.9,1.8-1.4,3.3c0.6,1.9,1.5,3.6,3,4.8c0.8,0.6,1.1,1.3,0.4,2.1c-0.8,0.9-1.3-0.1-1.8-0.5
		C100.8,91,98,85.4,97.9,79.9z"/>
</g>
</svg>
