<?xml version="1.0" encoding="utf-8"?>
<!-- Generator: Adobe Illustrator 16.0.0, SVG Export Plug-In . SVG Version: 6.00 Build 0)  -->
<!DOCTYPE svg PUBLIC "-//W3C//DTD SVG 1.1//EN" "http://www.w3.org/Graphics/SVG/1.1/DTD/svg11.dtd">
<svg version="1.1" id="Layer_1" xmlns="http://www.w3.org/2000/svg" xmlns:xlink="http://www.w3.org/1999/xlink" x="0px" y="0px"
	 width="200px" height="200px" viewBox="0 0 200 200" style="enable-background:new 0 0 200 200;" xml:space="preserve">
<style type="text/css">
<![CDATA[
	.st0{fill-rule:evenodd;clip-rule:evenodd;fill:#076BB3;}
	.st1{fill-rule:evenodd;clip-rule:evenodd;fill:#0776C1;}
	.st2{fill-rule:evenodd;clip-rule:evenodd;fill:#0777C1;}
	.st3{fill-rule:evenodd;clip-rule:evenodd;fill:#3BA1EA;}
	.st4{fill-rule:evenodd;clip-rule:evenodd;fill:#0969B1;}
	.st5{fill-rule:evenodd;clip-rule:evenodd;fill:#3D5877;}
	.st6{fill-rule:evenodd;clip-rule:evenodd;fill:#3DA5EF;}
	.st7{fill-rule:evenodd;clip-rule:evenodd;fill:#0B67AF;}
	.st8{fill-rule:evenodd;clip-rule:evenodd;fill:#0D66AD;}
	.st9{fill-rule:evenodd;clip-rule:evenodd;fill:#0D7CC7;}
	.st10{fill-rule:evenodd;clip-rule:evenodd;fill:#0E64AB;}
	.st11{fill-rule:evenodd;clip-rule:evenodd;fill:#405873;}
	.st12{fill-rule:evenodd;clip-rule:evenodd;fill:#414042;}
	.st13{fill-rule:evenodd;clip-rule:evenodd;fill:#425E7D;}
	.st14{fill-rule:evenodd;clip-rule:evenodd;fill:#445C78;}
	.st15{fill-rule:evenodd;clip-rule:evenodd;fill:#445F7F;}
	.st16{fill-rule:evenodd;clip-rule:evenodd;fill:#445F80;}
	.st17{fill-rule:evenodd;clip-rule:evenodd;fill:#454A75;}
	.st18{fill-rule:evenodd;clip-rule:evenodd;fill:#456284;}
	.st19{fill-rule:evenodd;clip-rule:evenodd;fill:#466284;}
	.st20{fill-rule:evenodd;clip-rule:evenodd;fill:#466486;}
	.st21{fill-rule:evenodd;clip-rule:evenodd;fill:#484948;}
	.st22{fill-rule:evenodd;clip-rule:evenodd;fill:#486588;}
	.st23{fill-rule:evenodd;clip-rule:evenodd;fill:#48989B;}
	.st24{fill-rule:evenodd;clip-rule:evenodd;fill:#1063AA;}
	.st25{fill-rule:evenodd;clip-rule:evenodd;fill:#AE4CBF;}
	.st26{fill-rule:evenodd;clip-rule:evenodd;fill:#1162A9;}
	.st27{fill-rule:evenodd;clip-rule:evenodd;fill:#AF4CBF;}
	.st28{fill-rule:evenodd;clip-rule:evenodd;fill:#AF4CC0;}
	.st29{fill-rule:evenodd;clip-rule:evenodd;fill:#1280CA;}
	.st30{fill-rule:evenodd;clip-rule:evenodd;fill:#1360A6;}
	.st31{fill-rule:evenodd;clip-rule:evenodd;fill:#1361A7;}
	.st32{fill-rule:evenodd;clip-rule:evenodd;fill:#1370B5;}
	.st33{fill-rule:evenodd;clip-rule:evenodd;fill:#1371B5;}
	.st34{fill-rule:evenodd;clip-rule:evenodd;fill:#E3B371;}
	.st35{fill-rule:evenodd;clip-rule:evenodd;fill:#E3B372;}
	.st36{fill-rule:evenodd;clip-rule:evenodd;fill:#1583CD;}
	.st37{fill-rule:evenodd;clip-rule:evenodd;fill:#165EA3;}
	.st38{fill-rule:evenodd;clip-rule:evenodd;fill:#4A698D;}
	.st39{fill-rule:evenodd;clip-rule:evenodd;fill:#16A0FE;}
	.st40{fill-rule:evenodd;clip-rule:evenodd;fill:#4A9DA0;}
	.st41{fill-rule:evenodd;clip-rule:evenodd;fill:#4B698E;}
	.st42{fill-rule:evenodd;clip-rule:evenodd;fill:#4C6888;}
	.st43{fill-rule:evenodd;clip-rule:evenodd;fill:#4C6B8F;}
	.st44{fill-rule:evenodd;clip-rule:evenodd;fill:#195CA0;}
	.st45{fill-rule:evenodd;clip-rule:evenodd;fill:#4D647F;}
	.st46{fill-rule:evenodd;clip-rule:evenodd;fill:#4D6C91;}
	.st47{fill-rule:evenodd;clip-rule:evenodd;fill:#4E647E;}
	.st48{fill-rule:evenodd;clip-rule:evenodd;fill:#4E6C92;}
	.st49{fill-rule:evenodd;clip-rule:evenodd;fill:#4E6D93;}
	.st50{fill-rule:evenodd;clip-rule:evenodd;fill:#4F6E94;}
	.st51{fill-rule:evenodd;clip-rule:evenodd;fill:#4F6F94;}
	.st52{fill-rule:evenodd;clip-rule:evenodd;fill:#4F6F95;}
	.st53{fill-rule:evenodd;clip-rule:evenodd;fill:#B04DC1;}
	.st54{fill-rule:evenodd;clip-rule:evenodd;fill:#821CA7;}
	.st55{fill-rule:evenodd;clip-rule:evenodd;fill:#B2B2B2;}
	.st56{fill-rule:evenodd;clip-rule:evenodd;fill:#1D88D2;}
	.st57{fill-rule:evenodd;clip-rule:evenodd;fill:#8991B1;}
	.st58{fill-rule:evenodd;clip-rule:evenodd;fill:#1E88D2;}
	.st59{fill-rule:evenodd;clip-rule:evenodd;fill:#506F96;}
	.st60{fill-rule:evenodd;clip-rule:evenodd;fill:#507097;}
	.st61{fill-rule:evenodd;clip-rule:evenodd;fill:#517198;}
	.st62{fill-rule:evenodd;clip-rule:evenodd;fill:#52729A;}
	.st63{fill-rule:evenodd;clip-rule:evenodd;fill:#52739A;}
	.st64{fill-rule:evenodd;clip-rule:evenodd;fill:#53749C;}
	.st65{fill-rule:evenodd;clip-rule:evenodd;fill:#54759D;}
	.st66{fill-rule:evenodd;clip-rule:evenodd;fill:#55769E;}
	.st67{fill-rule:evenodd;clip-rule:evenodd;fill:#55779E;}
	.st68{fill-rule:evenodd;clip-rule:evenodd;fill:#578FCB;}
	.st69{fill-rule:evenodd;clip-rule:evenodd;fill:#BA945F;}
	.st70{fill-rule:evenodd;clip-rule:evenodd;fill:#594A42;}
	.st71{fill-rule:evenodd;clip-rule:evenodd;fill:#BCBEC0;}
	.st72{fill-rule:evenodd;clip-rule:evenodd;}
	.st73{fill:#FFA400;}
	.st74{fill-rule:evenodd;clip-rule:evenodd;fill:#F1F1F1;}
	.st75{fill-rule:evenodd;clip-rule:evenodd;fill:#F3F3F3;}
	.st76{fill-rule:evenodd;clip-rule:evenodd;fill:#292A29;}
	.st77{fill-rule:evenodd;clip-rule:evenodd;fill:#295789;}
	.st78{fill-rule:evenodd;clip-rule:evenodd;fill:#F7F7F7;}
	.st79{fill-rule:evenodd;clip-rule:evenodd;fill:#297EE1;}
	.st80{fill-rule:evenodd;clip-rule:evenodd;fill:#98BCE4;}
	.st81{fill:#003A70;}
	.st82{fill-rule:evenodd;clip-rule:evenodd;fill:#FDFCFC;}
	.st83{fill-rule:evenodd;clip-rule:evenodd;fill:#FDFDFD;}
	.st84{fill-rule:evenodd;clip-rule:evenodd;fill:#FDFEFE;}
	.st85{fill-rule:evenodd;clip-rule:evenodd;fill:#FE7100;}
	.st86{fill-rule:evenodd;clip-rule:evenodd;fill:#FEFEFE;}
	.st87{fill-rule:evenodd;clip-rule:evenodd;fill:#62688E;}
	.st88{fill-rule:evenodd;clip-rule:evenodd;fill:#63D2D6;}
	.st89{fill-rule:evenodd;clip-rule:evenodd;fill:#9C1CB1;}
	.st90{fill-rule:evenodd;clip-rule:evenodd;fill:#9F7757;}
	.st91{fill-rule:evenodd;clip-rule:evenodd;fill:#333333;}
	.st92{fill-rule:evenodd;clip-rule:evenodd;fill:#344D6A;}
	.st93{fill-rule:evenodd;clip-rule:evenodd;fill:#00458D;}
	.st94{fill-rule:evenodd;clip-rule:evenodd;fill:#005196;}
	.st95{fill-rule:evenodd;clip-rule:evenodd;fill:#0171BC;}
	.st96{fill-rule:evenodd;clip-rule:evenodd;fill:#025B92;}
	.st97{fill-rule:evenodd;clip-rule:evenodd;fill:#025D94;}
	.st98{fill-rule:evenodd;clip-rule:evenodd;fill:#0270BB;}
	.st99{fill-rule:evenodd;clip-rule:evenodd;fill:#036EB8;}
	.st100{fill-rule:evenodd;clip-rule:evenodd;fill:#055890;}
	.st101{fill-rule:evenodd;clip-rule:evenodd;fill:#056CB5;}
]]>
</style>
<path class="st76" d="M14.7,124.3c-6.1-3.4-10.3-8.3-12.4-15c0-1.5,0-3,0-4.5c1.7-3.9,5-4.5,8.7-4.4c2.4-0.4,4.7-0.4,7.1,0
	c2.2,0.3,4,0.1,5.8-1.4c2-1.7,4.2-2.9,6.4-4.3c0.6-0.4,1.2-1,2-0.3c0.5,1.9,0.5,3.9,0.5,5.9c-0.1,0.2-0.3,0.5-0.3,0.4
	c-1.5-1-2.3,0.3-3.3,0.9c-2.1,1.3-3.8,3.1-6.1,4.1c-4,0-8-0.3-12-0.5c-0.2,0-0.5-0.1-0.7-0.1c-2.9-0.2-3.9,1-3.2,3.8
	c0.4,1.4,0.9,2.7,1.7,3.9c3.2,5.2,7.8,8.2,13.7,9.3c0.7,0.1,1.5,0.3,2.2,0.5c2.7,2.2,5.3,4.6,8.4,6.2c10.7,5.7,22.1,9.4,34.2,10.9
	c8.8,1.1,17-1.1,25.1-4.1c4.3-1.6,8.4-3.5,12.6-5.4c2.6-1.1,5.2-2.1,8-2.8c1.1-0.2,2.2-0.2,3.4-0.1c3.8,0.1,6.6,2.6,7.6,6.8
	c0.3,3-1.2,5.3-3.1,7.4c-4,4.3-9.2,6.8-14.6,8.7c-9.1,3.2-18.4,4.1-28,3c-4.2-0.5-8.1-1.7-11.7-3.9c-0.6-0.4-1.1-1.1-2-0.6
	c-1.1,1.9-0.1,3.6,0.9,5c2,2.8,4.7,4.9,7.8,6.4c5.4,2.6,11.2,3.8,17.2,4.6c3.2,0.4,6.5,0.4,9.7,0.5c3.2,0.1,6.5-0.1,9.7-0.4
	c1.2-0.1,2.4-0.2,3.6-0.2c1.2,0,1.8-0.5,2-1.8c1.1-7.5,4.9-13.5,10.8-18.1c6.8-5.4,13.2-11.2,18.6-18.1c5-6.4,8.9-13.4,10.6-21.4
	c0.1-0.6,0.3-1.2,0.7-1.7c1.1-0.7,1.5-1.8,1.4-3.1c0-1.4,0-2.9,0-4.3c0.2-1.2-0.4-2.1-1.2-2.8c-0.3-0.4-0.5-0.9-0.5-1.4
	c-0.5-4.1-2.2-7.7-5-10.7c-1.6-1.8-2.5-3.9-2.9-6.2c-0.7-3.6-1.2-7.2-2-10.7c-0.4-2-0.9-3.9-1.9-5.7c-0.9-1.4-1.8-1.6-2.8-0.2
	c-2.2,2.8-3.4,6.1-4.6,9.4c-0.4,1.2,0.7,1.6,1.4,2.2c3.4,2.7,3.5,3.3,1,7c-0.2,0.3-0.4,0.6-0.6,0.9c-4.7,5.7-11.1,8.4-18,10
	c-5,1.2-10.1,1.7-15.3,1.7c-9.1,0.1-18.3-0.1-27.3-1.9c-3.1-0.6-6.1-1.4-8.8-3.1c-1.5-1-2.6-2.2-2.8-4c0-0.3,0.1-0.6,0.2-0.9
	c0.5-0.6,1.1-0.5,1.7-0.1c5.1,3.1,10.9,3.7,16.6,4.5c6.7,0.8,13.4,1.1,20.1,0.8c8.4-0.4,16.6-1.4,24.2-5.3c4.5-2.3,4.6-3,0.6-5.9
	c-0.7-0.5-1.4-0.9-1.5-1.8c0.1-0.9,0.9-1.3,1.6-1.7c0.9-0.6,1.8-1.1,2.7-1.7c0.8-0.5,1-1.2,0.6-2.1c-0.4-0.9-0.6-1.8-0.9-2.6
	c-0.4-1-0.8-2-1.2-3.2c-1.1,0.8-2,1.6-3.1,2.1c-0.7,0.3-1.4,1-2.2,0.5c-0.8-1.3-0.9-2.7-1.3-4.1c-0.8-3.4-1.8-6.8-3.1-10
	c-0.7-1.6-1.7-2.9-3-4c-2.2-1.9-4.7-1.9-7-0.2c-2.7,2-4.7,4.7-7.4,6.7c-0.5,0.4-1,0.8-1.5,1.1c-2.1,1.4-3.6,1.2-5.4-0.4
	c-1.7-1.5-2.9-3.4-4.6-5c-1-1-2.1-1.7-3.5-2.1c-1.8-0.5-2.6,0-2.8,1.9c-0.7,5.5-1.5,11-2.9,16.4c-0.3,1-0.5,1.9-0.9,2.9
	c-0.5,1.9-1.2,3.7-2.2,5.5c-0.4,0.6-0.6,1.4-1.6,1.3c-0.6-0.6-0.6-1.5-0.8-2.3c-0.6-3-1.4-6-2.4-8.9c-0.2-0.5-0.3-1.1-0.6-1.6
	c-0.5-0.8-0.7-1.9-1.9-1.9c-1,0-1.4,0.9-1.9,1.6c-1.6,2.3-2.5,4.9-3.6,7.4c-1.7,4.1-3.5,8.2-5,12.3c-1.4,3.7-4,5.9-7.7,7.1
	c-2.4,0-4.8,0.1-6.9-1.2c-0.1-1,0.8-1.2,1.4-1.5c1.5-0.8,3.1-1.6,4.7-2.4c1.9-0.9,3.1-2.4,3.9-4.3c2.1-5.5,4.3-11,6.8-16.3
	c0.8-1.7,1.6-3.3,2.7-4.8c3.2-4.7,8.9-4.4,11.7,0.6c0.2,0.3,0.2,0.7,0.6,1c0.7-3.8,1.4-7.5,1.7-11.3c0.3-3.2,1.4-6.1,3.5-8.6
	c2-2.4,4.6-3.6,7.9-2.9c2.7,0.5,5.1,1.8,7.1,3.7c3.1,2.9,3.1,2.9,5.8-0.4c1.5-1.8,3-3.5,4.7-5.1c4.2-3.9,12-2.7,15.4,1.8
	c1.7,2.2,3.1,4.6,4.1,7.2c2,5.1,4,10.1,6,15.5c0.7-1.2,1.3-2.2,2.1-3.1c3.5-3.9,8.5-3.3,11.1,1.2c1.7,3,2.3,6.2,2.9,9.5
	c0.6,2.8,0.9,5.7,1.6,8.5c1.2,4.1,3.5,7.4,7.7,8.9c7.9,2.9,15.6,6.3,23.2,9.9c1,0.5,1.8,1,2.5,1.8c1.9,1.2,4,2.3,5.8,3.7
	c1.1,0.9,1.9,2.1,2.8,3.1c0,1.3,0,2.5,0,3.8c-2.8,4.3-6.7,7.7-10.1,11.5c-0.4,1.1-1.1,1.8-1.9,2.5c-4.3,3.6-8.2,7.8-12.3,11.6
	c-10.3,9.6-20.4,19.3-30.2,29.4c-2.6,2.6-5.1,5.4-7.2,8.4c-1,1.4-2.4,2.2-4.1,2.2c-6-0.2-12,0.6-18,0.4c-9.7-0.4-19.4-0.4-29-2.6
	c-7.2-1.7-13.9-4.2-19.2-9.7c-2.5-2.6-4.2-5.6-4-9.4c0.1-1.3,0.3-2.6,1.1-3.7c0.9-1.2,0.5-1.7-0.9-1.9c-7.5-1.6-14.8-3.9-21.8-7
	c-5.2-2.3-10.2-4.8-14.4-8.8c-0.9-0.9-2.1-1-3.3-1.3C18,126,16,125.8,14.7,124.3z"/>
<path class="st85" d="M31.9,94.1c-3.1,1.8-6.1,3.9-8.9,6.1c-0.8,0.6-1.5,0.9-2.6,0.8c-3.1-0.3-6.3-0.4-9.5-0.6
	c0.2-24.4,8.5-45.6,25.8-62.9c17.7-17.7,39.4-26.3,64.4-25.6c41.8,1.1,76.6,31.1,84,72.2c0.6,3.5,1.1,6.9,1.2,10.4
	c-9.1-4.6-18.4-8.6-27.9-12c-0.7-0.2-1.1-0.7-1.6-1.2c-4.1-3.7-4.9-8.7-5.6-13.7c-0.6-3.9-1.2-7.9-3.2-11.5
	c-2.5-4.4-7.3-4.8-10.5-0.9c-0.5,0.6-0.9,1.2-1.3,1.9c-0.3,0.5-0.6,1-1,1.7c-0.5-1.2-0.9-2.2-1.2-3.2c-1.9-5-3.8-10.1-6-15
	c-0.8-1.7-1.6-3.2-2.8-4.7c-4.6-5.9-11.9-6.3-17-0.7c-1.7,1.9-3.3,3.8-4.8,5.8c-0.8,1-1.4,1.1-2.3,0.1c-2.6-2.5-5.2-5-9.1-5.7
	c-3.1-0.5-5.4,0.5-7.4,2.7c-2.1,2.4-3.1,5.4-3.4,8.6c-0.4,4.1-1.1,8.1-2,12.3c-0.7-1.1-1.2-2.1-1.8-3.1c-2.4-3.4-6.9-3.6-9.6-0.4
	c-2.3,2.8-3.6,6.2-5,9.4c-1.7,4-3.4,8.1-5,12.2c-0.9,2.4-2.3,4-4.7,5.1c-2,0.9-3.9,2-5.8,3c-0.5,0.8-1.3,0.5-2,0.5
	c-3.3-0.3-6.5-1-9.8-1.3c-2.2-0.2-2.6,0.2-2.7,2.4c0.1,2-0.4,3.9-0.4,5.9C32.5,93.3,32.4,93.8,31.9,94.1z"/>
<path class="st85" d="M14.7,124.3c2.3,1,4.6,1.9,7.1,2.3c0.3,0.1,0.7,0.3,1,0.5c6.6,6.1,14.6,9.3,22.8,12.3
	c4.8,1.8,9.8,3.1,14.8,4.1c1.1,0.2,1.5,0.4,0.7,1.4c-2.8,3.4-2,8,0.4,11.3c3.2,4.5,7.6,7.2,12.5,9.2c6.6,2.7,13.5,3.7,20.5,4.4
	c6.9,0.6,13.9,0.8,20.8,0.7c4.6,0,9.3-0.2,13.9-0.3c1.3,0,2.5-0.5,3.3-1.6c6-8.1,13.4-14.9,20.6-21.9c10.3-10.1,20.8-19.9,31.3-29.9
	c0.1-0.1,0.3-0.2,0.4-0.3c-0.9,6-2.7,11.8-5.2,17.4c-13.3,29.3-35.8,47.1-67.5,52.3c-42.9,6.9-84.6-19.4-97.1-60.7
	C14.8,125.1,14.8,124.7,14.7,124.3z"/>
<path class="st35" d="M23.4,105.2c2.7-2.1,5.4-4.1,8.4-6c0.2,0.6,0.4,1,0.5,1.5c0.7,0.5,0.6,1.3,0.8,2c0.5,2.5,1.4,4.8,3,6.8
	c2,2.9,5,4.5,8.4,4.8c5.8,0.5,11.5,0.1,17-2.1c5-1.9,8.8-5.2,11.6-9.7c0.5-0.8,0.9-1.7,1.7-2.2c0.7-0.3,1.4-0.1,2,0.2
	c0.6,0.4,1,0.9,1.1,1.7c2.1,11.3,9.9,17.2,20,20.8c3.4,1.2,6.8,2,10.5,1.2c2.6-0.6,4.8-1.8,6.5-3.8c3.2-3.9,5-8.4,6.2-13.2
	c0.6-2.4,1.2-3,3.8-3c7.3,0,14.6-0.7,22-0.8c2.4,0,4.7-0.4,7.1-0.3c0.7,0,1.5-0.1,2.1,0.6c-1.4,8.6-5.5,16-10.7,22.9
	c-5.4,7-11.8,13-18.8,18.3c-6.1,4.7-9.8,10.8-10.8,18.5c-0.1,0.9-0.3,1.4-1.3,1.5c-12.8,1.1-25.5,1.5-37.9-2.9
	c-4.2-1.5-8.2-3.6-11-7.2c-1.5-1.9-3-4-1.6-6.6c0.6-0.4,0.9,0,1.3,0.3c5.7,4.3,12.4,6,19.2,7c9.4,1.4,18.2-0.6,26.5-4.9
	c4.2-2.2,8.1-4.8,10.6-9c1.3-2.2,2.3-4.6,1.8-7.3c-1.4-4.9-4.1-6.8-9.1-6.4c-0.5,0-1,0-1.5,0.1c-7.6,0.6-14.8,3.1-22,5.3
	c-6.8,2.1-13.8,3.2-20.9,3.4c-8,0.2-15.8-1.4-23.3-4.6c-7.3-3.1-14.3-7.1-21.1-11.1c-0.2-0.1-0.4-0.3-0.6-0.5
	c-0.3-0.6-0.3-1.2-0.2-1.9c0.3-3.9-0.1-7.7-1.3-11.4C23.4,106.4,22.9,105.9,23.4,105.2z"/>
<path class="st72" d="M76.8,101c-0.6-0.2-1.2-0.4-1.9-0.3c-1.3-0.2-0.5-1.7-1.3-2.2c-0.6,0.2-0.7,0.9-0.9,1.4
	c-3.3,8-9.5,12.2-17.8,13.6c-4.2,0.7-8.4,0.8-12.5-0.3c-2.5-0.7-4.8-1.7-6.8-3.5c-2.2-2.6-3-5.7-3.4-9c-0.1-2.2-0.3-4.4-0.4-6.6
	c0.2-2.5,0.4-5,0.5-7.5c0.4-1.4,1.5-1.1,2.5-1c7.2,0.9,14.4,2,21.6,3c21.7,3,43.4,6.1,65.2,9c2,0.3,4-0.1,6-0.3
	c7.9-0.6,15.7-1,23.6-1.7c1.7-0.2,3.5-0.1,5.2-0.4c0.6-0.1,1.1,0.1,1.6,0.5c0,1.8,0,3.6,0,5.4c0,1.4-0.4,2.3-1.9,2.5
	c-8.2,0.3-16.4,0.7-24.6,1c-2.5,0.1-5,0.3-7.5,0.3c-1.3,0-2,0.4-2.2,1.8c-0.7,3.5-1.8,6.9-3.6,10c-0.9,1.5-1.8,3-3.1,4.2
	c-5,2.9-10.4,3-15.8,1.6c-4.5-1.2-8.6-3.1-12.2-6.1c-4.5-3.7-7.1-8.5-7.8-14.3c-0.2-1.3-0.1-1.3-0.7-2.2C77.9,100,78,101.6,76.8,101
	z"/>
<path class="st21" d="M81.7,66.1c2-6.5,3.1-13.1,3.8-19.8c0.2-1.7,1.3-2.4,3.1-2c2.7,0.6,4.4,2.6,6.1,4.5c0.6,0.7,1.2,1.4,1.8,2.1
	c2.6,2.6,4,2.5,6.9,0.1c2.6-2.2,4.7-4.8,7.5-6.8c2.7-2,5.5-1.8,8,0.4c3,2.7,3.7,6.4,4.9,10c0.9,2.7,1.4,5.6,2.1,8.4
	c0,0.4-0.2,0.6-0.5,0.9c-3.3,1.7-6.9,2.7-10.5,3.4c-8.2,1.7-16.4,1.6-24.6,0.7c-2.2-0.2-4.4-0.4-6.5-0.8
	C82.9,66.9,82.1,66.9,81.7,66.1z"/>
<path class="st33" d="M126.9,166.2c-2.2,0.5-4.3-0.2-6.5,0c-0.7,0.1-0.4-0.9-0.4-1.4c0.3-5,2.3-9.3,5.5-13.1
	c2.9-3.4,6.7-5.6,9.9-8.6c10.3-9.3,19.3-19.6,23.5-33.1c2.2-6.9,2.7-14,1-21.1c-0.1-0.4-0.1-0.8-0.3-1.6c5.4,2,10.6,4.1,15.7,6.5
	c-1.2,10.7-4.9,20.4-11.5,29c-4.7,6.1-10.2,11.5-16.1,16.6c-5.1,4.5-10.4,8.9-15.5,13.4c-1.6,1.4-2.9,3.1-4.3,4.7
	c-1.4,1.8-2,4-2.3,6.3C125.7,164.9,126.2,165.6,126.9,166.2z"/>
<path class="st39" d="M126.9,166.2c-1.3,0-1.6-0.6-1.6-1.8c0.1-4,2.1-7.1,4.7-9.9c3.7-3.8,7.9-7.1,11.9-10.6
	c9.2-8,18.6-15.9,25.1-26.4c4.1-6.7,6.6-14,7.6-21.8c0.1-0.7,0.2-1.4,0.8-1.8c4.7,2,9.2,4.2,13.4,7.1c2.6,1.8,2.7,2.4,0.7,4.7
	c-5,5.8-10.7,11-16.2,16.3c-7.3,7-14.7,14-22.1,21c-6.6,6.3-13.1,12.6-19,19.5c-0.5,0.6-1.1,1.2-1.5,1.9
	C129.9,165.8,128.7,166.5,126.9,166.2z"/>
<path class="st21" d="M128.4,71.3c0.1,1.3,1.4,1.5,2.2,2.2c3.8,3.2,4.2,3.2-0.3,5.9c-5.3,3.1-11.3,4.2-17.3,5.1
	c-6.2,0.9-12.5,1-18.7,0.6c-7.5-0.4-14.9-0.9-22.1-3.3c-1.4-0.5-2.7-1-3.9-1.8c-0.4-0.3-0.8-0.9-1.5-0.4c-0.6-0.9,0-1.5,0.5-2.1
	c1.9-1.6,4.1-2.3,6.5-2.6c0.7-0.1,1.5-0.3,2.2-0.5c0.5-0.2,1-0.3,1.5-0.2c4.3,0.5,8.7,1.3,13,1.7c12.7,1.3,25.1,1,36.9-4.5
	c0.1-0.1,0.2-0.1,0.4-0.1C128,71.1,128.2,71.2,128.4,71.3z"/>
<path class="st35" d="M137.7,70.2c-2.2-1.4-2.2-1.4-1.2-3.9c1.1-2.6,2.1-5.2,3.7-7.6c0.6-0.9,1.2-2.1,2.5-1.9
	c1.2,0.2,1.7,1.3,2.2,2.4c1.5,3.6,1.9,7.4,2.6,11.1c0.4,1.8,0.7,3.7,1,5.5c0.3,1.7,1,3.2,2.1,4.3c3.5,3.6,5.3,7.9,5.8,12.9
	c-0.7,0.8-1.7,0.8-2.6,0.9c-7.4,0.4-14.7,1.1-22,1.6c-2.2,0.1-4.4,0.3-6.5,0.6c-2.1,0.3-4.2,0.3-6.3-0.4c-0.9-0.5-0.5-1,0.1-1.4
	c0.5-0.3,1.1-0.3,1.6-0.5c3.1-0.7,5.9-1.9,8.7-3.4c4.3-2.4,7.2-6.1,8.8-10.7c0.3-0.9,0.4-1.8,1-2.6c1.5-0.7,3.1,0.1,4.6,0.1
	c1.1,0.1,1.6-0.1,1.3-1.3c-0.8-3.6-1.3-7.3-2.1-10.9c-0.1-0.6-0.1-1.4-0.9-1.5c-0.7,0-0.9,0.7-1.3,1.2c-0.7,1.1-1.1,2.4-1.6,3.6
	C138.9,69.3,138.8,70.2,137.7,70.2z"/>
<path class="st39" d="M128,71.3c-4.7,2.7-9.8,4-15.1,4.9c-9.5,1.6-19,0.6-28.4-0.6c-2.5-0.3-5-0.5-7.4-1.3c-0.2-1,0.4-1.4,1.3-1.6
	c1.6-2,2.3-4.4,3.2-6.7c3,0.8,6.1,1,9.2,1.3c8.8,0.9,17.6,0.8,26.2-1.3c2.8-0.7,5.5-1.7,8.1-2.7c0.6-0.2,1,0.1,1.2,0.6
	c0.7,2.2,1.4,4.4,1.7,6.7C128.3,70.9,128.2,71.1,128,71.3z"/>
<path class="st86" d="M69,146.1c0.7-1.9,2-2.2,3.7-2.3c8.7-0.1,16.8-2.7,24.8-6.1c4.4-1.9,8.7-3.7,13.1-5.6c1.4-0.6,2.8-1,4.3-1.1
	c2.3-0.2,3.5,0.5,4.7,2.4c1,1.8,0.2,3.1-0.8,4.4c-2.4,3-5.6,5-9,6.6c-10.8,4.9-22,6.5-33.7,4.4C73.6,148.4,71.2,147.4,69,146.1z"/>
<path class="st69" d="M139.3,77.4c-1.2,6.2-4.6,10.7-10,13.8c-3,1.7-6.2,3-9.6,3.5c-0.5,0.1-0.8,0.3-1.1,0.7
	c-0.7,0.7-1.5,0.4-2.3,0.3c-10.9-1.4-21.8-2.9-32.7-4.3c-4.7-0.6-9.4-1.5-14.1-2c-0.7-0.1-1.5-0.1-2.1-0.6c-1.7-1.8-2.2-4-1.9-6.4
	c0.1-0.8,0.1-1.7,1.1-1.9c0.5,2.4,2.3,3.6,4.3,4.6c4.5,2.1,9.3,2.8,14.2,3.3c7.5,0.8,15,1.1,22.5,0.7c9-0.4,17.8-1.8,25.5-7
	c1.9-1.3,3.6-2.9,5.1-4.7C138.6,77,139,77,139.3,77.4z"/>
<path class="st69" d="M25.3,120.2c3.6,1.5,6.9,3.8,10.3,5.7c7.6,4.1,15.4,7.8,24,9.3c7.4,1.2,14.7,0.9,22.1-0.4
	c7.5-1.3,14.7-4.1,22-6c3-0.8,6.1-1.3,9.3-1c-6.8,2-13.1,5.3-19.6,8c-12.8,5.4-25.8,6-39.1,2c-8.3-2.5-16.4-5.4-23.8-10
	c-2.2-1.4-4.1-3.1-5.9-5C24,121.7,24.3,120.9,25.3,120.2z"/>
<path class="st12" d="M67.4,88.2c4,0.6,8,1.3,12,1.8c12.4,1.7,24.9,3.3,37.3,5c0.6,0.1,1.2,0.2,1.8,0.3c5,1.1,10-0.1,14.9-0.4
	c7.7-0.4,15.3-1.2,23-1.8c1.4,0.4,1.8,1.4,1.6,2.7c-6.2,0.5-12.4,1-18.7,1.4c-4,0.3-8,0.4-12,0.8c-6.6,0.7-12.9-0.9-19.3-1.7
	c-6.8-0.8-13.6-1.9-20.4-2.8c-7.8-1.1-15.6-2.2-23.3-3.3c-6.7-0.9-13.3-1.8-20-2.7c-3.3-0.5-6.7-0.9-10-1.4c-0.8-0.1-1.5-0.3-2,0.6
	c0-2.5,0.6-3,3-2.6c3.6,0.5,7.3,1,10.9,1.5c0.4,0,0.7-0.1,1.1-0.2c2.3,0.8,4.7,1,7.2,1.1C59,86.6,63.2,86.9,67.4,88.2z"/>
<path class="st34" d="M67.4,88.2c-4.3-0.5-8.6-0.8-12.8-1.9c4.2-1.6,6.3-4.9,7.8-9c1.9-5.2,4-10.4,6.4-15.4c0.3-0.6,0.5-1.1,0.9-1.7
	c0.8-1.1,1.2-2.9,2.9-2.8c1.7,0.2,2,1.9,2.5,3.2c1.5,3.9,2.3,7.9,3.2,11.9c-0.4,0.5-0.9,1.1-1.3,1.6c-0.4,0.1-0.8,0.2-1.1,0.3
	c-0.7-0.6-0.7-1.6-1-2.4c-0.7-2.3-1-4.8-2-7c-0.2-0.4-0.4-1-1-1c-0.5,0-0.7,0.5-0.9,0.9c-1.8,3.5-2.9,7.3-4.3,11
	c-0.3,0.7,0.2,1,0.5,1.5c-0.3,0.6-0.7,1.2-0.7,1.9c0,0.2-0.1,0.5-0.1,0.7C65.1,83.1,65.9,85.7,67.4,88.2z"/>
<path class="st69" d="M123.5,134.1c1.1,4.1-0.7,7.4-3.3,10.2c-5.6,5.9-12.8,9.1-20.6,10.9c-3.5,0.8-7.1,1.4-10.8,1.1
	c-8-0.6-15.7-2.2-22.5-6.6c-0.8-0.5-1.2-1.5-2.3-1.6c0.5-0.9,1.1-0.3,1.6,0c8,5.2,16.9,5.4,25.9,4.6c7.4-0.6,14.4-2.5,21-5.9
	c3-1.6,5.8-3.4,8.1-6C122.4,139,123.7,136.9,123.5,134.1z"/>
<path class="st90" d="M23.4,105.2c2,3.7,1.9,7.8,2.2,11.8c0,0.5,0.1,1-0.3,1.4c-0.7-0.8-1.6-1-2.6-1.1c-3.4-0.1-6.8-0.8-10.1-1.9
	c-1.5-0.5-2.9-1.1-4-2.4c-1.6-1.8-2.2-3.9-2.3-6.2c-0.1-1.4,0.6-2,1.9-2.3c1.3-0.3,2.6,0.1,3.9,0.1
	C15.9,104.7,19.7,105.1,23.4,105.2z"/>
<path class="st90" d="M139.3,77.4c-0.4,0-0.8,0-1.1-0.1c0.1-0.2,0.2-0.3,0.3-0.5c2.4-3.5,2.4-4-0.8-6.6c1.3-1.4,1.6-3.4,2.5-5
	c0.3-0.5,0.5-1,0.8-1.5c0.3-0.4,0.6-1.1,1.3-1c0.8,0.1,0.9,0.8,1,1.4c0.7,3.4,1.3,6.8,1.9,10.3c0.2,1.1,1.1,2.5,0.4,3.4
	c-0.7,0.9-2.1-0.3-3.2-0.1C141.4,77.8,140.4,77.1,139.3,77.4z"/>
<path class="st70" d="M8.7,113.1c4.7,2.6,9.8,3.6,15,3.7c1.3,0,1.7,0.5,1.6,1.6c0,0.6,0,1.2-0.1,1.8c-0.2,0.9-0.5,1.7-0.7,2.6
	c-6.5-0.6-11.7-3.6-15.5-8.9C8.8,113.7,8.8,113.4,8.7,113.1z"/>
<path class="st32" d="M128,71.3c-0.6-2.3-1.2-4.5-1.8-6.8c-0.1-0.5-0.1-1.1-0.9-1.2c0.1-0.1,0.3-0.3,0.4-0.4c1.6-0.6,3-1.5,4.3-2.5
	c0.7-0.6,1.2-0.8,1.5,0.4c0.6,2,1.3,3.9,2.1,5.8c0.4,0.9,0.2,1.4-0.6,1.8c-1.6,0.9-3.2,2-4.8,2.9C128.2,71.3,128.1,71.3,128,71.3z"
	/>
<path class="st12" d="M76.8,101c0.4-0.1,0.6-0.3,0.8-0.7c0.2-0.6,0.4-1.5,1.2-1.5c1,0.1,0.8,1.2,0.9,1.8c0.2,1.6,0.4,3.2,0.8,4.8
	c1.8,6.7,6.3,11.1,12.3,14c4.4,2.2,9,3.7,14,3.3c2.9-0.2,5.6-1,8.4-1.9c-3,3.3-6.8,4.6-11,4c-7-0.9-13.4-3.7-18.8-8.4
	c-4.2-3.7-6.7-8.3-7.8-13.8C77.5,102.2,77.5,101.5,76.8,101z"/>
<path class="st12" d="M35.7,109.7c3.1,1.4,6,3.2,9.4,3.5c8.1,0.8,15.8-0.3,22.1-6c2.4-2.1,4-4.9,5.2-7.9c0.3-0.7,0.3-1.9,1.3-1.7
	c1,0.2,0.7,1.3,0.8,2.1c0,0.4,0,0.8,0.4,1c-1.3,1.7-2.2,3.6-3.6,5.3c-4.4,5.1-10.1,7.6-16.6,8.6c-3.9,0.6-7.9,0.9-11.8,0
	C40,113.9,37.3,112.5,35.7,109.7z"/>
<path class="st86" d="M106.9,102.9c-2.3,3-2.6,5.9-0.4,8.8c-5.8,0.9-12.1-2.9-14-8.2c-0.7-1.8-0.3-2.3,1.6-2.1
	C98.3,101.8,102.5,102.3,106.9,102.9z"/>
<path class="st83" d="M58.7,103.8c-5.5,0.3-10.3-2.4-12.1-6.8c-0.8-2-0.4-2.4,1.6-2.2c3.5,0.4,7.1,0.9,10.7,1.3
	C57.1,98.6,56.8,101.1,58.7,103.8z"/>
<path class="st78" d="M111.7,103.8c3.1-0.3,3.5,0.3,2.9,3.1c-0.4,1.5-1.1,2.7-2.8,3.7C112.6,108.2,113,106,111.7,103.8z"/>
<path class="st74" d="M63.1,102.7c1.1-2.2,1.1-4.1,0-6.1c1.1,0.3,2.3-0.2,2.7,1.1C66.3,99.1,65.1,101.5,63.1,102.7z"/>
<path class="st90" d="M67.4,77.7c-0.9,0.1-1.7,0.2-1.2-1.2c1.5-3.8,2.6-7.8,4.5-11.5c0.3-0.6,0.5-1.6,1.4-1.5c0.9,0.1,1.1,1,1.3,1.7
	c1.2,3.1,1.9,6.3,2.6,9.6c-0.9,0.6-2,0.6-3,0.7C71,75.7,69.2,76.6,67.4,77.7z"/>
<path class="st71" d="M118.6,133.8c-5.5,7.3-33.4,16-40.1,12.5C93,145.6,106.2,141,118.6,133.8z"/>
<path class="st82" d="M6.9,108.1c0.1-1.7,1-2.5,2.4-2.8c2-0.4,4,0,5.9,0.4c0.4,0.1,0.7,0.3,0.7,0.7c0,0.5-0.2,0.9-0.7,0.9
	c-2.6,0-4.9,1-7.1,2.3C6.9,110.3,7.3,108.5,6.9,108.1z"/>
</svg>
